<?xml version="1.0" encoding="UTF-8" standalone="no"?>
<svg
   width="80"
   height="80"
   viewBox="-1966 0 314.56 314.56"
   version="1.1"
   id="svg8"
   sodipodi:docname="01_Adygea.svg"
   inkscape:version="1.3.2 (091e20e, 2023-11-25, custom)"
   xmlns:inkscape="http://www.inkscape.org/namespaces/inkscape"
   xmlns:sodipodi="http://sodipodi.sourceforge.net/DTD/sodipodi-0.dtd"
   xmlns:xlink="http://www.w3.org/1999/xlink"
   xmlns="http://www.w3.org/2000/svg"
   xmlns:svg="http://www.w3.org/2000/svg">
  <defs
     id="defs8">
    <clipPath
       clipPathUnits="userSpaceOnUse"
       id="clipPath8">
      <rect
         style="opacity:0.2;fill:#296912;stroke-width:7.864"
         id="rect9"
         width="1966"
         height="1966"
         x="-983"
         y="0" />
    </clipPath>
    <clipPath
       clipPathUnits="userSpaceOnUse"
       id="clipPath9">
      <rect
         style="opacity:0.2;fill:#296912;stroke-width:7.864"
         id="rect10"
         width="1966"
         height="1966"
         x="-1966"
         y="0" />
    </clipPath>
  </defs>
  <sodipodi:namedview
     id="namedview8"
     pagecolor="#505050"
     bordercolor="#ffffff"
     borderopacity="1"
     inkscape:showpageshadow="0"
     inkscape:pageopacity="0"
     inkscape:pagecheckerboard="1"
     inkscape:deskcolor="#505050"
     showgrid="false"
     inkscape:zoom="2.043"
     inkscape:cx="299.31473"
     inkscape:cy="215.12482"
     inkscape:window-width="2560"
     inkscape:window-height="1377"
     inkscape:window-x="1912"
     inkscape:window-y="-8"
     inkscape:window-maximized="1"
     inkscape:current-layer="svg8" />
  <rect
     x="-2949"
     width="3932"
     height="1966"
     fill="#296912"
     id="rect1"
     y="0"
     clip-path="url(#clipPath9)"
     transform="matrix(0.16,0,0,0.16,-1651.44,0)" />
  <g
     fill="#fdfc02"
     id="g8"
     transform="matrix(0.16,0,0,0.16,-1808.72,0)"
     clip-path="url(#clipPath8)">
    <path
       id="star"
       d="m 0,488 22.96,70.67 h 74.3 L 37.15,602.34 60.11,673 0,629.33 -60.11,673 -37.15,602.34 -97.26,558.67 h 74.3 z" />
    <path
       id="arrow"
       d="m 0,781 32,182 -21,20 v 687 l 22,23 v 171 l -33,-33 -33,33 v -171 l 22,-23 V 983 l -21,-20 z" />
    <use
       xlink:href="#star"
       y="-392"
       id="use1" />
    <g
       id="half">
      <use
         xlink:href="#star"
         x="486"
         id="use2" />
      <use
         xlink:href="#star"
         x="486"
         y="-314"
         id="use3" />
      <use
         xlink:href="#star"
         x="923"
         y="-93"
         id="use4" />
      <use
         xlink:href="#star"
         x="1271"
         y="255"
         id="use5" />
      <use
         xlink:href="#star"
         x="1494"
         y="693"
         id="use6" />
      <use
         xlink:href="#arrow"
         transform="rotate(40,0,1326)"
         id="use7" />
    </g>
    <use
       xlink:href="#half"
       transform="scale(-1,1)"
       id="use8" />
  </g>
</svg>
