<?xml version="1.0" encoding="UTF-8" standalone="no"?>
<svg
   xml:space="preserve"
   width="80"
   height="80"
   viewBox="0 0 40 40"
   version="1.1"
   id="svg11"
   sodipodi:docname="06_Karachay-Cherkessia.svg"
   inkscape:version="1.3.2 (091e20e, 2023-11-25, custom)"
   xmlns:inkscape="http://www.inkscape.org/namespaces/inkscape"
   xmlns:sodipodi="http://sodipodi.sourceforge.net/DTD/sodipodi-0.dtd"
   xmlns:xlink="http://www.w3.org/1999/xlink"
   xmlns="http://www.w3.org/2000/svg"
   xmlns:svg="http://www.w3.org/2000/svg"><sodipodi:namedview
   id="namedview11"
   pagecolor="#505050"
   bordercolor="#ffffff"
   borderopacity="1"
   inkscape:showpageshadow="0"
   inkscape:pageopacity="0"
   inkscape:pagecheckerboard="1"
   inkscape:deskcolor="#505050"
   inkscape:zoom="1.7025"
   inkscape:cx="600"
   inkscape:cy="300.44053"
   inkscape:window-width="2560"
   inkscape:window-height="1377"
   inkscape:window-x="1912"
   inkscape:window-y="-8"
   inkscape:window-maximized="1"
   inkscape:current-layer="svg11" />
<defs
   id="defs1">
<path
   id="big"
   fill="#ffb000"
   d="m 0,-23 c 2,-14 3,-21 0,-21 -3,0 -2,7 0,21 z" />
<path
   id="small"
   fill="#ffb000"
   d="m 0,-23 c 1,-10 1.5,-14 0,-14 -1.5,0 -1,4 0,14 z" />
</defs>
<clipPath
   id="mid"><circle
     cx="300"
     cy="150"
     r="49"
     id="circle1" /></clipPath>
<rect
   fill="#e02010"
   width="40"
   height="40"
   id="rect1"
   x="0"
   y="0"
   style="stroke-width:0.0942809" />
<rect
   fill="#007030"
   width="40"
   height="26.666666"
   id="rect2"
   x="0"
   y="0"
   style="stroke-width:0.0942809" />
<rect
   fill="#0090d0"
   width="40"
   height="13.333333"
   id="rect3"
   x="0"
   y="0"
   style="stroke-width:0.0942809" />
<circle
   fill="#ffb000"
   cx="20"
   cy="20"
   r="2.6666667"
   id="circle3"
   style="stroke-width:0.133333" />
<path
   fill="#ffffff"
   clip-path="url(#mid)"
   d="m 300,145 c -15,-15 -78,40 -78,40 l 169,4 c 0,0 -68,-62 -90,-44 z"
   id="path3"
   transform="matrix(0.13333333,0,0,0.13333333,-20,0)" />
<path
   fill="#007030"
   clip-path="url(#mid)"
   d="m 301,162 c -20,-18 -38,16 -60,4 11,50 125,55 115,-2 -18,2 -35,-25 -55,-2 z"
   id="path4"
   transform="matrix(0.13333333,0,0,0.13333333,-20,0)" />
<circle
   cx="20"
   cy="20"
   r="6.4000001"
   stroke="#ffb000"
   stroke-width="0.533333"
   fill="none"
   id="circle4" />
<g
   id="L"
   transform="matrix(0.13333333,0,0,0.13333333,-20,0)">
<use
   transform="rotate(-75,247.7419,-120.48381)"
   xlink:href="#small"
   id="use4" />
<use
   transform="rotate(-64,270.02509,-165.05018)"
   xlink:href="#big"
   id="use5" />
<use
   transform="rotate(-56,291.05448,-207.10897)"
   xlink:href="#big"
   id="use6" />
</g>
<use
   transform="rotate(30,20,20)"
   xlink:href="#L"
   id="use7" />
<use
   transform="rotate(60,20,20)"
   xlink:href="#L"
   id="use8" />
<use
   transform="rotate(90,20,20)"
   xlink:href="#L"
   id="use9" />
<use
   transform="rotate(120,20,20)"
   xlink:href="#L"
   id="use10" />
<use
   transform="matrix(0.03450921,0.12879011,-0.12879011,0.03450921,20,20)"
   xlink:href="#small"
   id="use11" />
</svg>
