<?xml version="1.0" encoding="UTF-8" standalone="no"?>
<svg
   width="80"
   height="80"
   viewBox="0 0 8 8"
   version="1.1"
   id="svg3"
   sodipodi:docname="28_Amur_Oblast.svg"
   inkscape:version="1.3.2 (091e20e, 2023-11-25, custom)"
   xmlns:inkscape="http://www.inkscape.org/namespaces/inkscape"
   xmlns:sodipodi="http://sodipodi.sourceforge.net/DTD/sodipodi-0.dtd"
   xmlns="http://www.w3.org/2000/svg"
   xmlns:svg="http://www.w3.org/2000/svg">
  <defs
     id="defs3">
    <clipPath
       clipPathUnits="userSpaceOnUse"
       id="clipPath3">
      <rect
         style="opacity:0.2;fill:#296912;stroke-width:0.2"
         id="rect4"
         width="80"
         height="80"
         x="20"
         y="0" />
    </clipPath>
    <clipPath
       clipPathUnits="userSpaceOnUse"
       id="clipPath4">
      <rect
         style="opacity:0.2;fill:#296912;stroke-width:0.2"
         id="rect5"
         width="80"
         height="80"
         x="20"
         y="0" />
    </clipPath>
    <clipPath
       clipPathUnits="userSpaceOnUse"
       id="clipPath5">
      <rect
         style="opacity:0.2;fill:#296912;stroke-width:0.2"
         id="rect6"
         width="80"
         height="80"
         x="20"
         y="0" />
    </clipPath>
  </defs>
  <sodipodi:namedview
     id="namedview3"
     pagecolor="#505050"
     bordercolor="#ffffff"
     borderopacity="1"
     inkscape:showpageshadow="0"
     inkscape:pageopacity="0"
     inkscape:pagecheckerboard="1"
     inkscape:deskcolor="#505050"
     inkscape:zoom="1.47625"
     inkscape:cx="599.83065"
     inkscape:cy="346.48603"
     inkscape:window-width="2560"
     inkscape:window-height="1377"
     inkscape:window-x="1912"
     inkscape:window-y="-8"
     inkscape:window-maximized="1"
     inkscape:current-layer="svg3" />
  <path
     d="M 0,0 H 120 V 80 H 0"
     fill="#0066cc"
     id="path1"
     clip-path="url(#clipPath5)"
     transform="matrix(0.1,0,0,0.1,-2,0)" />
  <path
     d="M 0,0 H 120 V 57 H 0"
     fill="#e00000"
     id="path2"
     clip-path="url(#clipPath4)"
     transform="matrix(0.1,0,0,0.1,-2,0)" />
  <path
     d="m -16,56 q 9,4 17,0 8,-4 17,0 9,4 17,0 8,-4 17,0 9,4 17,0 8,-4 17,0 9,4 17,0 8,-4 17,0 9,4 17,0"
     stroke-width="7"
     stroke="#ffffff"
     id="path3"
     clip-path="url(#clipPath3)"
     transform="matrix(0.1,0,0,0.1,-2,0)" />
</svg>
