<?xml version="1.0" encoding="UTF-8" standalone="no"?>
<svg
   width="80"
   height="80"
   enable-background="new 0 0 300 200"
   version="1.1"
   viewBox="0 0 80 80"
   id="svg3"
   sodipodi:docname="34_Volgograd_Oblast.svg"
   inkscape:version="1.3.2 (091e20e, 2023-11-25, custom)"
   xmlns:inkscape="http://www.inkscape.org/namespaces/inkscape"
   xmlns:sodipodi="http://sodipodi.sourceforge.net/DTD/sodipodi-0.dtd"
   xmlns="http://www.w3.org/2000/svg"
   xmlns:svg="http://www.w3.org/2000/svg">
  <defs
     id="defs3">
    <clipPath
       clipPathUnits="userSpaceOnUse"
       id="clipPath4">
      <rect
         style="opacity:0.2;fill:#296912;stroke-width:2"
         id="rect5"
         width="200"
         height="200"
         x="0"
         y="0" />
    </clipPath>
    <clipPath
       clipPathUnits="userSpaceOnUse"
       id="clipPath5">
      <rect
         style="opacity:0.2;fill:#296912;stroke-width:2"
         id="rect6"
         width="200"
         height="200"
         x="0"
         y="0" />
    </clipPath>
    <clipPath
       clipPathUnits="userSpaceOnUse"
       id="clipPath6">
      <rect
         style="opacity:0.2;fill:#296912;stroke-width:2"
         id="rect7"
         width="200"
         height="200"
         x="0"
         y="0" />
    </clipPath>
    <clipPath
       clipPathUnits="userSpaceOnUse"
       id="clipPath7">
      <rect
         style="opacity:0.2;fill:#296912;stroke-width:2"
         id="rect8"
         width="200"
         height="200"
         x="0"
         y="0" />
    </clipPath>
    <clipPath
       clipPathUnits="userSpaceOnUse"
       id="clipPath8">
      <rect
         style="opacity:0.2;fill:#296912;stroke-width:2"
         id="rect9"
         width="200"
         height="200"
         x="0"
         y="0" />
    </clipPath>
  </defs>
  <sodipodi:namedview
     id="namedview3"
     pagecolor="#505050"
     bordercolor="#ffffff"
     borderopacity="1"
     inkscape:showpageshadow="0"
     inkscape:pageopacity="0"
     inkscape:pagecheckerboard="1"
     inkscape:deskcolor="#505050"
     inkscape:zoom="2.9525"
     inkscape:cx="174.93649"
     inkscape:cy="141.74428"
     inkscape:window-width="2560"
     inkscape:window-height="1377"
     inkscape:window-x="1912"
     inkscape:window-y="-8"
     inkscape:window-maximized="1"
     inkscape:current-layer="svg3" />
  <rect
     width="300"
     height="200"
     fill="#ffffff"
     id="rect1"
     clip-path="url(#clipPath8)"
     x="0"
     y="0"
     transform="scale(0.4)" />
  <path
     d="m 124.73,155 c 1.696,7.41 4.464,8.035 6.785,5.09 2.023,-2.568 9.465,-9.644 -2.232,-27.055 -2.006,-2.987 -4.82,-7.053 -2.589,-13.035 0.894,-2.393 0.625,-5 -2.589,-7.768 -2.5,0.982 -3.304,4.285 -2.232,5.446 1.072,1.161 1.381,1.876 -0.179,2.768 -1.875,1.071 -3.69,8.638 0.804,15.269 3.542,5.224 11.608,24.212 2.232,19.285 z m -1.964,-31.696 c -4.553,3.036 2.057,9.634 4.286,14.106 1.8,3.611 2.231,5.536 2.5,8.215 2.143,-1.16 1.737,-2.823 0.356,-5.893 -5.178,-11.517 -6.964,-8.928 -7.142,-16.428 z m 18.839,39.731 c 7.857,-2.231 13.472,0.789 19.196,1.072 10.508,0.52 11.419,-77.431 -9.554,-71.161 -7.18,2.147 -14.821,4.375 -18.84,2.947 -4.018,-1.429 -6.518,-1.25 -6.695,2.589 -0.096,2.053 -1.127,0.973 -2.5,0.536 -3.41,-1.085 -5.982,2.411 -0.982,3.572 3.104,0.721 -2.611,5.326 -5.447,6.518 -4.464,1.875 -0.897,4.398 1.43,1.607 1.785,-2.144 7.589,-2.769 9.553,0.445 1.965,3.215 1.828,7.363 4.911,10.447 3.571,3.571 5.612,10.111 2.946,6.339 -4.732,-6.696 -9.664,-8.142 -3.84,-1.161 11.697,14.019 15.805,21.072 15.09,25.625 -0.471,3.001 -0.715,3.482 0.357,4.732 1.071,1.25 2.375,2.207 -0.715,2.768 -3.927,0.715 -4.642,1.786 -4.91,3.125 z m -7.544,-81.874 c -3.84,1.116 -8.938,6.333 -13.438,4.107 -3.99,-1.976 -4.42,-3.706 -2.41,-4.599 2.008,-0.893 0.832,-2.942 0.089,-3.928 -0.775,-1.028 0.356,-3.17 1.026,-4.509 2.054,-0.313 2.813,1.206 6.607,0.893 3.26,-0.265 8.215,8.081 8.126,8.036 z"
     fill="#ececec"
     id="path1"
     clip-path="url(#clipPath7)"
     transform="scale(0.4)" />
  <path
     d="M -50,0 H 250 V 200 H -50 Z m 163.93,181.07 c 18.929,0.536 38.571,0.536 51.786,0.357 -2.857,-4.019 -3.658,-4.601 -6.697,-8.839 -1.613,-2.251 0.543,-4.1 1.719,-6.061 0.742,-1.238 0.254,-3.2 -0.021,-4.029 -0.715,-2.143 -1.965,-3.929 -2.5,-6.607 -0.536,-2.678 -1.25,-3.571 -2.857,-5.714 -1.607,-2.144 -5,-6.607 -6.607,-9.107 -1.607,-2.5 -4.196,-5.981 -4.91,-8.481 -0.715,-2.5 -8.75,-16.25 -12.68,-20.894 0.09,-0.981 0.715,-1.964 1.34,-3.125 3.929,0.536 11.518,1.875 11.429,-2.411 -3.839,-0.072 -4.614,-0.389 -3.915,-2.934 -0.935,-0.705 -3.416,-0.238 -5.996,-1.798 5.179,-1.161 9.836,2.856 12.947,5.446 1.732,1.443 3.758,1.35 5.629,1.244 4.248,-0.242 7.705,-3.146 5.174,-6.779 1.259,-2.673 0.673,-4.966 -0.982,-5.625 -4.654,-1.854 -10,-7.946 -15.714,-5.179 -1.696,-1.786 0.625,-2.321 1.696,-3.125 1.072,-0.804 5.063,-3.109 9.465,-4.375 4.102,-1.179 12.094,-6.132 13.393,-6.071 13.304,0.625 14.643,-2.411 6.34,-2.143 0.335,-0.542 0.843,-0.665 1.408,-0.969 1.329,-0.714 0.467,-1.286 -0.618,-1.037 -1.448,0.333 -4.019,1.085 -5.612,0.22 0.068,-0.339 0.413,-1.303 1.208,-1.633 2.407,-0.999 2.639,-3.167 -3.618,0.115 -1.945,1.02 -20.926,7.597 -23.215,8.125 -4.643,1.071 -13.928,2.5 -17.321,3.839 -1.339,-0.446 -2.231,-1.339 -3.839,-2.411 1.785,-1.607 2.143,-2.589 2.053,-3.75 1.049,-0.392 2.143,-0.249 3.259,-0.715 0.231,-1.813 0.519,-3.52 -0.134,-5.088 -1.602,0.15 -3.214,-1.072 -3.928,-1.875 0.592,-0.283 1.541,-0.61 2.188,-0.705 -0.35,-1.741 -1.912,-2.971 -3.438,-2.957 -9.107,0.089 -10.804,4.822 -10,7.589 0.389,1.342 -1.875,2.768 2.053,5.982 1.328,1.086 0.982,2.857 0.269,5.178 -8.175,0.784 -14.789,-9.966 -18.125,-15.536 4,0.925 4.954,0.691 5.216,-0.258 0.446,-1.62 -1.597,-2.354 -5.038,-4.206 10.264,-29.104 16.96,-47.854 15.174,-50.622 -3.75,0.447 -8.928,20.714 -19.285,49.554 -4.386,-0.438 -5.745,-0.351 -5.963,1.155 -0.126,0.874 1.249,2.327 3.195,2.773 -0.446,2.232 -0.268,3.304 0.268,5.982 -1.433,4.202 2.991,4.933 3.527,0.647 0.446,0.536 1.059,1.492 1.384,2.656 1.494,5.354 5.357,10 10.714,14.554 0.901,2.659 2.321,6.161 2.321,7.857 0,2.16 -0.179,4.732 -0.179,6.429 0,1.695 -0.998,3.797 -0.178,6.606 2.278,7.819 4.91,11.071 5.268,13.929 0.358,2.858 6.607,16.071 7.143,18.304 0.535,2.231 1.965,6.429 2.41,9.911 0.447,3.481 2.055,17.768 0.09,19.731 -1.965,1.963 -6.607,6.876 -6.696,6.876 z"
     fill="#fe0000"
     id="path2"
     clip-path="url(#clipPath6)"
     transform="scale(0.4)" />
  <rect
     x="17.200001"
     width="17.200001"
     height="200"
     fill="#000184"
     id="rect2"
     clip-path="url(#clipPath5)"
     y="0"
     transform="scale(0.4)" />
  <rect
     x="51.599998"
     width="17.200001"
     height="200"
     fill="#000184"
     id="rect3"
     clip-path="url(#clipPath4)"
     y="0"
     transform="scale(0.4)" />
</svg>
