<?xml version="1.0" encoding="UTF-8" standalone="no"?>
<svg
   width="80"
   height="80"
   version="1.0"
   id="svg43"
   sodipodi:docname="36_Voronezh_Oblast.svg"
   inkscape:version="1.3.2 (091e20e, 2023-11-25, custom)"
   xmlns:inkscape="http://www.inkscape.org/namespaces/inkscape"
   xmlns:sodipodi="http://sodipodi.sourceforge.net/DTD/sodipodi-0.dtd"
   xmlns="http://www.w3.org/2000/svg"
   xmlns:svg="http://www.w3.org/2000/svg">
  <sodipodi:namedview
     id="namedview43"
     pagecolor="#505050"
     bordercolor="#ffffff"
     borderopacity="1"
     inkscape:showpageshadow="0"
     inkscape:pageopacity="0"
     inkscape:pagecheckerboard="1"
     inkscape:deskcolor="#505050"
     inkscape:zoom="1.1071944"
     inkscape:cx="839.5093"
     inkscape:cy="279.53537"
     inkscape:window-width="2560"
     inkscape:window-height="1377"
     inkscape:window-x="1912"
     inkscape:window-y="-8"
     inkscape:window-maximized="1"
     inkscape:current-layer="svg43" />
  <defs
     id="defs14">
    <clipPath
       id="n">
      <path
         d="m 319.21,557.58 c 6.423,-45.166 13.923,-90.585 -24.244,-125.26 -46.762,9.4695 -280.78,4.4153 -269.71,120.21 l 293.95,5.0508 z"
         fill="none"
         stroke="#000000"
         stroke-linejoin="round"
         stroke-width="4"
         id="path1" />
    </clipPath>
    <clipPath
       id="m">
      <path
         d="m 319.21,557.58 c 6.423,-45.166 13.923,-90.585 -24.244,-125.26 -46.762,9.4695 -280.78,4.4153 -269.71,120.21 l 293.95,5.0508 z"
         fill="none"
         stroke="#000000"
         stroke-linejoin="round"
         stroke-width="4"
         id="path2" />
    </clipPath>
    <clipPath
       id="l">
      <path
         d="m 287.89,460.6 c 6.423,-45.166 -7.2905,-85.534 -52.528,-110.11 -46.762,9.4695 -143.4,36.74 -129.3,130.31 l 181.83,-20.203 z"
         fill="none"
         stroke="#000000"
         stroke-linejoin="round"
         stroke-width="4"
         id="path3" />
    </clipPath>
    <clipPath
       id="k">
      <path
         d="m 297.32,187.63 c 6.423,-45.166 -7.2905,-85.534 -52.528,-110.11 -46.762,9.4695 -143.4,36.74 -129.3,130.31 l 181.83,-20.203 z"
         fill="none"
         stroke="#000000"
         stroke-linejoin="round"
         stroke-width="4"
         id="path4" />
    </clipPath>
    <clipPath
       id="j">
      <path
         d="m 187.89,392.92 c -37.833,-61.95 -199.78,-62.494 -219.2,-4.0406 -1.1761,97.799 1.5026,193.58 111.12,233.35 l 108.09,-229.3 z"
         fill="none"
         stroke="#000000"
         stroke-linejoin="round"
         stroke-width="4"
         id="path5" />
    </clipPath>
    <clipPath
       id="i">
      <path
         d="m 187.89,392.92 c -37.833,-61.95 -199.78,-62.494 -219.2,-4.0406 -1.1761,97.799 1.5026,193.58 111.12,233.35 l 108.09,-229.3 z"
         fill="none"
         stroke="#000000"
         stroke-linejoin="round"
         stroke-width="4"
         id="path6" />
    </clipPath>
    <clipPath
       id="h">
      <path
         d="m 28.284,362.62 c -8.5575,-64.847 102.26,-74.943 127.28,-76.772 51.701,-4.5487 89.61,7.094 79.802,74.751 -62.584,80.135 -137.28,10.946 -207.08,2.0203 z"
         fill="none"
         stroke="#000000"
         stroke-linejoin="round"
         stroke-width="4"
         id="path7" />
    </clipPath>
    <clipPath
       id="g">
      <path
         d="m 28.284,362.62 c -8.5575,-64.847 102.26,-74.943 127.28,-76.772 51.701,-4.5487 89.61,7.094 79.802,74.751 -62.584,80.135 -137.28,10.946 -207.08,2.0203 z"
         fill="none"
         stroke="#000000"
         stroke-linejoin="round"
         stroke-width="4"
         id="path8" />
    </clipPath>
    <clipPath
       id="f">
      <path
         d="m 94.954,310.09 c -35.921,-44.817 -74.602,-37.176 -113.14,-32.325 -9.1497,65.295 -3.5351,116.44 51.518,120.21 l 61.619,-87.883 z"
         fill="none"
         stroke="#000000"
         stroke-linejoin="round"
         stroke-width="4"
         id="path9" />
    </clipPath>
    <clipPath
       id="e">
      <path
         d="m 94.954,310.09 c -35.921,-44.817 -74.602,-37.176 -113.14,-32.325 -9.1497,65.295 -3.5351,116.44 51.518,120.21 l 61.619,-87.883 z"
         fill="none"
         stroke="#000000"
         stroke-linejoin="round"
         stroke-width="4"
         id="path10" />
    </clipPath>
    <clipPath
       id="d">
      <path
         d="m -17.173,148.47 c 35.725,-49.378 104.05,-10.763 112.13,20.203 16.028,31.305 11.1,98.18 47.477,137.38 l -178.8,40.406 19.193,-197.99 z"
         fill="none"
         stroke="#000000"
         stroke-linejoin="round"
         stroke-width="4"
         id="path11" />
    </clipPath>
    <clipPath
       id="c">
      <path
         d="m -17.173,148.47 c 35.725,-49.378 104.05,-10.763 112.13,20.203 16.028,31.305 11.1,98.18 47.477,137.38 l -178.8,40.406 19.193,-197.99 z"
         fill="none"
         stroke="#000000"
         stroke-linejoin="round"
         stroke-width="4"
         id="path12" />
    </clipPath>
    <clipPath
       id="b">
      <path
         d="m 193.79,0.602 c 0.18601,-17.047 -11.707,-48.801 -23.46,-49.173 -54.875,2.9548 -84.355,-83.577 -88.298,-101.87 -0.35807,-12.88 -3.6419,-23.62 -12.674,-30.154 1.7739,-17.764 21.745,-30.946 32.216,-29.76 5.0734,9.9266 15.184,14.816 27.857,17.143 17.47,6.6975 98.467,49.082 87.143,102.86 -1.432,11.672 28.126,28.287 45,30.714 -34.299,10.326 -56.338,30.869 -67.784,60.24 z"
         fill="none"
         stroke="#000000"
         stroke-linejoin="round"
         stroke-width="4"
         id="path13" />
    </clipPath>
    <clipPath
       id="a">
      <path
         d="m 184.36,273.57 c 0.18601,-17.047 -11.707,-48.801 -23.46,-49.173 -54.875,2.9548 -84.355,-83.577 -88.298,-101.87 -0.35807,-12.88 -3.6419,-23.62 -12.674,-30.154 1.7739,-17.764 21.745,-30.946 32.216,-29.76 5.0734,9.9266 15.184,14.816 27.857,17.143 17.47,6.6975 98.467,49.082 87.143,102.86 -1.432,11.672 28.126,28.287 45,30.714 -34.299,10.326 -56.338,30.869 -67.784,60.24 z"
         fill="none"
         stroke="#000000"
         stroke-linejoin="round"
         stroke-width="4"
         id="path14" />
    </clipPath>
    <clipPath
       clipPathUnits="userSpaceOnUse"
       id="clipPath43">
      <rect
         style="opacity:0.2;fill:#296912;stroke-width:2"
         id="rect44"
         width="533"
         height="533"
         x="9.4286003"
         y="-272.97" />
    </clipPath>
  </defs>
  <g
     transform="matrix(0.15009381,0,0,0.15009381,-1.4151742,40.971106)"
     id="g43"
     clip-path="url(#clipPath43)">
    <g
       id="g16">
      <rect
         transform="translate(9.4286,-272.97)"
         x="-34.285999"
         y="-38.095001"
         width="880"
         height="620"
         fill="#da251d"
         id="rect14" />
      <path
         transform="translate(9.4286,-272.97)"
         d="m 264.29,220.83 c 10.453,13.828 -32.761,70.687 -73.571,62.5 -16.533,-47.572 17.908,-86.044 73.571,-62.5 z"
         fill="#ffffff"
         stroke="#000000"
         stroke-linejoin="round"
         stroke-width="4"
         id="path15" />
      <rect
         transform="translate(9.4286,-272.97)"
         x="-20.714001"
         y="108.33"
         width="160.71001"
         height="203.57001"
         clip-path="url(#c)"
         fill="#ffd400"
         id="rect15" />
      <rect
         transform="translate(9.4286,-272.97)"
         x="35.714001"
         y="53.333"
         width="225"
         height="237.86"
         clip-path="url(#a)"
         fill="#ffffff"
         id="rect16" />
      <path
         transform="translate(9.4286,-272.97)"
         d="m 110.71,207.98 c -12.524,-15 -57.65,-98.905 -116.43,-60.714 -9.2162,-46.748 37.943,-30.246 63.929,-37.5 29.049,28.508 55.305,60.338 52.5,98.214 z"
         clip-path="url(#d)"
         fill="#f19e29"
         id="path16" />
    </g>
    <path
       d="m -7.744,-124.51 c 35.725,-49.378 104.05,-10.763 112.13,20.203 16.028,31.305 11.1,98.18 47.477,137.38 l -178.8,40.406 19.193,-197.99 z"
       fill="none"
       stroke="#000000"
       stroke-linejoin="round"
       stroke-width="4"
       id="path17" />
    <g
       id="g19">
      <path
         d="m 192.29,6.0765 c 12.601,-22.619 -0.4899,-57.738 -10,-67.857 -9.2285,-10.1 -37.957,-6.6981 -50,-21.429 -24.57,-25.418 -37.025,-67.637 -47.5,-88.214 -1.4737,-6.6626 -5.7779,-13.167 -13.214,-16.786 l -7.8571,40.714 c 19.378,76.051 78.795,109.71 128.57,153.57 z"
         clip-path="url(#b)"
         fill="#cccccc"
         id="path18" />
      <rect
         transform="translate(9.4286,-272.97)"
         x="-22.223"
         y="260.59"
         width="105.06"
         height="114.15"
         clip-path="url(#e)"
         fill="#ffd400"
         id="rect18" />
      <path
         transform="translate(9.4286,-272.97)"
         d="M 81.822,318.17 C 63.496,288.106 6.386,284.182 -6.061,290.391 -18.091,264.526 14.8,262.85 35.355,254.531 c 76.093,12.416 48.733,39.849 46.467,63.64 z"
         clip-path="url(#f)"
         fill="#f19e29"
         id="path19" />
    </g>
    <path
       d="M 104.38,37.118 C 68.459,-7.699 29.778,-0.058 -8.76,4.793 c -9.1497,65.295 -3.5351,116.44 51.518,120.21 L 104.377,37.12 Z"
       fill="none"
       stroke="#000000"
       stroke-linejoin="round"
       stroke-width="4"
       id="path20" />
    <rect
       transform="translate(9.4286,-272.97)"
       x="15.714"
       y="255.48"
       width="230.71001"
       height="136.42999"
       clip-path="url(#g)"
       fill="#ffd400"
       id="rect20" />
    <path
       transform="translate(9.4286,-272.97)"
       d="M 237.5,303.33 C 193.598,292.648 28.73,289.092 40.71,378.33 -5.839,354.056 23.929,322.151 29.996,292.616 c 72.649,-7.9458 154.07,-39.009 207.5,10.714 z"
       clip-path="url(#h)"
       fill="#f19e29"
       id="path21" />
    <path
       d="m 37.713,89.646 c -8.5575,-64.847 102.26,-74.943 127.28,-76.772 51.701,-4.5487 89.61,7.094 79.802,74.751 -62.584,80.135 -137.28,10.946 -207.08,2.0203 z"
       fill="none"
       stroke="#000000"
       stroke-linejoin="round"
       stroke-width="4"
       id="path22" />
    <rect
       transform="translate(9.4286,-272.97)"
       x="-37.375999"
       y="313.12"
       width="206.07001"
       height="239.41"
       clip-path="url(#i)"
       fill="#ffd400"
       id="rect22" />
    <path
       transform="translate(9.4286,-272.97)"
       d="M 170.72,388.88 C 131.961,346.643 15.87,346.661 -26.26,398.982 -29.8319,318.91 40.999,334.268 95.97,329.281 c 60.661,5.9659 86.817,25.351 74.751,59.599 z"
       clip-path="url(#j)"
       fill="#f19e29"
       id="path23" />
    <path
       d="M 197.32,119.95 C 159.487,58 -2.46,57.456 -21.88,115.9094 c -1.1761,97.799 1.5026,193.58 111.12,233.35 l 108.09,-229.3 z"
       fill="none"
       stroke="#000000"
       stroke-linejoin="round"
       stroke-width="4"
       id="path24" />
    <rect
       x="101.35"
       y="60.352001"
       width="212.13"
       height="156.57001"
       clip-path="url(#k)"
       fill="#ffd400"
       id="rect24" />
    <path
       transform="translate(9.4286,-272.97)"
       d="M 247.99,352.52 C 169.73,375.694 104.35,405.445 119.2,464.65 l -55.558,-1.0102 c 32.45,-77.64 108.83,-145.81 184.35,-111.12 z"
       clip-path="url(#l)"
       fill="#f19e29"
       id="path25" />
    <path
       d="m 297.32,187.63 c 6.423,-45.166 -7.2905,-85.534 -52.528,-110.11 -46.762,9.4695 -143.4,36.74 -129.3,130.31 l 181.83,-20.203 z"
       fill="none"
       stroke="#000000"
       stroke-linejoin="round"
       stroke-width="4"
       id="path26" />
    <rect
       transform="translate(9.4286,-272.97)"
       x="15.714"
       y="409.04999"
       width="325"
       height="143.57001"
       clip-path="url(#m)"
       fill="#ffd400"
       id="rect26" />
    <g
       stroke="#000000"
       stroke-linejoin="round"
       stroke-width="4"
       id="g30">
      <path
         transform="translate(9.4286,-272.97)"
         d="m 158.57,222.62 c 10.985,-18.539 23.711,-35.336 47.857,-40.714"
         fill="none"
         id="path27" />
      <path
         transform="translate(9.4286,-272.97)"
         d="M 59.286,92.262 C 50.5276,99.6135 28.897,88.0217 36.429,72.619 47.579,53.207 62.544,42.514 80.358,38.333 93.013,35.019 107.333,55.642 92.501,62.619"
         fill="#ffffff"
         id="path28" />
      <path
         transform="translate(9.4286,-272.97)"
         d="M 40.357,89.048 C 50.818,66.414 69.91,52.411 94.643,44.048"
         fill="none"
         id="path29" />
      <path
         transform="translate(9.4286,-272.97)"
         d="m 238.4,232.31 c 48.445,34.385 142.29,78.379 139.4,162.63 24.294,33.335 44.678,66.67 55.558,100.01 5.9954,20.203 27.663,40.406 46.467,60.609 l -152.53,-9.0914 c 41.694,-75.042 -49.585,-197.65 -66.67,-213.14 -21.683,-20.274 -40.52,-46.239 -59.599,-71.721 l 37.376,-29.294 z"
         fill="#ffffff"
         id="path30" />
    </g>
    <path
       transform="translate(9.4286,-272.97)"
       d="M 50.003,559.6 C 17.635,446.54 277.533,442.48 314.663,447.98 l -12.627,-30.305 c -107.42,27.665 -272.11,-7.0829 -284.86,123.74 l 32.83,18.183 z"
       clip-path="url(#n)"
       fill="#f19e29"
       id="path31" />
    <g
       fill="none"
       stroke="#000000"
       stroke-linejoin="round"
       stroke-width="4"
       id="g39">
      <g
         id="g38">
        <path
           d="m 328.64,284.61 c 6.423,-45.166 13.923,-90.585 -24.244,-125.26 -46.762,9.4695 -280.78,4.4153 -269.71,120.21 l 293.95,5.0508 z"
           id="path32" />
        <path
           transform="translate(9.4286,-272.97)"
           d="M 401.43,534.05 C 374.735,519.653 357.715,496.962 344.287,471.193"
           id="path33" />
        <path
           transform="translate(9.4286,-272.97)"
           d="M 337.14,454.76 C 333.3223,395.336 290.721,359.183 260.711,315.47"
           id="path34" />
        <path
           transform="translate(9.4286,-272.97)"
           d="m 218.57,256.9 c 19.554,27.202 41.683,51.313 70.714,67.143 26.273,12.56 56.562,37.952 80,65"
           id="path35" />
        <path
           transform="translate(9.4286,-272.97)"
           d="m 289.29,334.05 c 47.948,35 75.817,70 91.429,105 14.57,35.215 36.158,66.921 62.143,96.429"
           id="path36" />
        <path
           transform="translate(9.4286,-272.97)"
           d="m 257.14,280.48 c 40.165,27.827 84.619,52.794 108.57,91.429"
           id="path37" />
        <path
           transform="translate(9.4286,-272.97)"
           d="M 357.86,346.9 C 332.644,303.207 273.79,280.919 230,249.043"
           id="path38" />
      </g>
      <path
         d="m 193.79,0.602 c 0.18601,-17.047 -11.707,-48.801 -23.46,-49.173 -54.875,2.9548 -84.355,-83.577 -88.298,-101.87 -0.35808,-12.88 -3.6419,-23.62 -12.674,-30.154 1.7739,-17.764 21.745,-30.946 32.216,-29.76 5.0734,9.9266 15.184,14.816 27.857,17.143 17.47,6.6975 98.467,49.082 87.143,102.86 -1.432,11.672 28.126,28.287 45,30.714 -34.299,10.326 -56.338,30.869 -67.784,60.24 z"
         id="path39" />
    </g>
    <g
       stroke-linejoin="round"
       id="g42">
      <path
         transform="translate(9.4286,-272.97)"
         d="m 251.07,213.69 c 7.6247,-1.6978 17.09,6.2336 10.357,8.5714 -28.981,12.397 -53.997,27.021 -67.857,56.429 -3.5717,7.1433 -10.799,0.66276 -9.6429,-5 14.837,-34.279 32.632,-47.273 67.143,-60 z"
         fill="#ffffff"
         stroke="#000000"
         stroke-width="4"
         id="path40" />
      <path
         transform="translate(9.4286,-272.97)"
         d="m 192.05,280.57 4.9107,-7.9464"
         fill="none"
         stroke="#ffffff"
         stroke-width="4.9"
         id="path41" />
      <path
         d="m 264.79,-47.941 7.2322,-3.4821"
         fill="none"
         stroke="#ffffff"
         stroke-width="4.9"
         id="path42" />
    </g>
  </g>
</svg>
