<?xml version="1.0" encoding="UTF-8" standalone="no"?>
<svg
   width="80"
   height="80"
   viewBox="0 0 120 120"
   version="1.1"
   id="svg10"
   sodipodi:docname="41_Kamchatka_Krai.svg"
   inkscape:version="1.3.2 (091e20e, 2023-11-25, custom)"
   xmlns:inkscape="http://www.inkscape.org/namespaces/inkscape"
   xmlns:sodipodi="http://sodipodi.sourceforge.net/DTD/sodipodi-0.dtd"
   xmlns="http://www.w3.org/2000/svg"
   xmlns:svg="http://www.w3.org/2000/svg">
  <sodipodi:namedview
     id="namedview10"
     pagecolor="#505050"
     bordercolor="#ffffff"
     borderopacity="1"
     inkscape:showpageshadow="0"
     inkscape:pageopacity="0"
     inkscape:pagecheckerboard="1"
     inkscape:deskcolor="#505050"
     inkscape:zoom="8.3509311"
     inkscape:cx="100.76721"
     inkscape:cy="44.126816"
     inkscape:window-width="2560"
     inkscape:window-height="1377"
     inkscape:window-x="1912"
     inkscape:window-y="-8"
     inkscape:window-maximized="1"
     inkscape:current-layer="svg10" />
  <defs
     id="defs1">
    <style
       type="text/css"
       id="style1"><![CDATA[
    .str2 {stroke:#ccc;stroke-width:1}
    .str1 {stroke:#fff;stroke-width:5}
    .str0 {stroke:#fff;stroke-width:8;stroke-linejoin:bevel}
    .fil0 {fill:#0051BA}
    .fil4 {fill:#000}
    .fil3 {fill:#D81E05}
    .fil2 {fill:#fff}
    .fil1 {fill:white}
   ]]></style>
  </defs>
  <rect
     class="fil0"
     width="120"
     height="120"
     id="rect1"
     x="0"
     y="0"
     style="stroke-width:0.0816497" />
  <rect
     class="fil1"
     width="120"
     height="80"
     id="rect2"
     x="0"
     y="0"
     style="stroke-width:0.0816497" />
  <path
     class="fil2 str2"
     d="m 38.3184,47.300301 c -3.88358,0.0069 -6.702169,-2.96327 -10.5193,-2.98902 -3.36803,-0.02268 -6.009919,2.870199 -10.6933,2.84728 0.0887,-3.07217 0.02421,-6.144331 -0.193346,-9.216381 -0.848386,-11.980199 9.739841,-21.75 21.750001,-21.75 12.010199,0 22.1546,9.74681 21.749999,21.75 -0.199723,2.104251 -0.482007,3.770791 -0.307794,9.12803 -4.67646,0.0066 -7.14295,-2.86547 -10.6607,-2.82709 -3.62929,0.03969 -7.241931,3.05031 -11.1255,3.057171 z"
     id="path2" />
  <path
     class="fil0"
     d="M 38.6624,37.9422 17.957,43.54452 17.762472,37.9422 c -0.400394,-11.5337 9.35917,-20.9 20.900001,-20.9 11.5408,0 21.6542,9.384571 20.9,20.9 l -0.343228,5.23925 -20.5567,-5.23925 z"
     id="path3"
     style="stroke-width:0.1" />
  <polygon
     class="fil3 str0"
     points="566.574,350.355 600.651,378.331 560.133,421.794 592.501,436.983 385.285,397.805 179.717,439.672 211.825,415.881 171.748,380.513 206.5,351.459 181.926,314.06 223.957,297.165 212.144,254.004 257.337,250.924 259.44,206.224 303.373,217.261 319.186,175.398 357.557,199.473 385.533,164.545 414.587,199.298 451.987,174.724 468.881,216.755 512.042,204.941 515.122,250.135 559.822,252.237 548.785,296.171 590.648,311.983 "
     id="polygon3"
     transform="scale(0.1)" />
  <path
     class="fil2"
     d="m 38.6624,37.9422 -16.8243,6.39921 c -0.775748,-2.043659 -1.17567,-4.21276 -1.17567,-6.39921 0,-9.939449 8.06055,-18 18.000001,-18 9.93945,0 18,8.060551 18,18 0,2.03268 -0.345,4.052241 -1.0174,5.968461 L 38.662431,37.9422 Z"
     id="path4"
     style="stroke-width:0.1" />
  <path
     class="fil3"
     d="m 38.6624,37.9422 -15.8896,6.043701 c -0.732756,-1.930161 -1.11047,-3.97854 -1.11047,-6.043701 0,-9.38728 7.6128,-17.0001 17.000101,-17.0001 9.38728,0 17.0001,7.6128 17.0001,17.0001 0,2.002801 -0.357047,3.997321 -1.04811,5.875631 l -15.952,-5.875631 z"
     id="path5"
     style="stroke-width:0.1" />
  <path
     class="fil2"
     d="m 17.957,43.5445 c 4.42299,-3.24791 9.74681,-7.094759 13.135201,-11.4736 h 1.703859 l 3.32551,5.082871 3.1624,-2.942721 h 1.77992 l 3.778821,4.0663 2.322639,-2.350749 1.8385,0.06721 c 2.59512,3.44327 6.60378,5.453029 10.215401,7.187599 l 0.176575,2.952991 -9.09567,-4.753821 -25.628401,0.588544 -6.73098,3.95504 0.0163,-2.379691 z"
     id="path6"
     style="stroke-width:0.1" />
  <path
     class="fil4"
     d="m 17.932,46.467401 0.03969,-2.50016 c 3.577321,-2.26961 6.80031,-4.728191 9.88157,-7.659211 l -0.87307,2.381101 1.984249,-2.341421 -0.833386,3.055751 2.34142,-2.460471 0.317481,3.571651 1.54772,-3.61134 1.865199,2.50016 -0.03969,-2.22236 5.714651,4.32567 -2.69858,-3.452601 2.50016,1.666771 0.674645,-2.182681 3.254171,2.976381 -0.39685,-2.10331 5.8337,3.21449 -3.29386,-2.69858 2.22236,0.754015 0.317479,-1.11118 2.34142,1.468351 -0.754015,-1.984251 c 2.748429,2.22567 5.925239,4.187721 9.36567,5.75433 l 0.198425,2.69858 c -3.60945,-0.473975 -6.63602,-3.065429 -10.3794,-2.964329 -3.453071,0.09331 -7.033701,2.94484 -10.6933,3.0437 -3.61913,-0.02102 -6.96555,-3.043581 -10.5848,-3.06449 -3.193111,-0.01854 -6.659651,2.96398 -9.852991,2.94543 z"
     id="path7"
     style="stroke-width:0.1" />
  <path
     class="fil3 str1"
     d="m 31.268,32.068 h 1.25043 c 0.622442,-1.47 1.18134,-2.98559 1.135391,-4.491849 -0.364962,0.150826 -0.657638,0.419763 -0.904962,0.806219 -0.09343,-0.697677 -0.31311,-1.30488 -0.740433,-1.875709 -0.467835,0.472677 -0.763937,1.054019 -0.888543,1.74413 -0.189093,-0.279095 -0.396142,-0.440197 -0.75685,-0.592324 -0.06035,1.469761 0.29067,2.93965 0.904961,4.40953 z"
     id="path8" />
  <path
     class="fil3 str1"
     d="m 39.552801,34.2351 h 1.25043 c 0.622441,-1.469999 1.181339,-2.98559 1.13539,-4.49185 -0.364961,0.150827 -0.657638,0.419764 -0.904961,0.80622 -0.09343,-0.697677 -0.313111,-1.30488 -0.740434,-1.875709 -0.467835,0.472676 -0.763937,1.054019 -0.888543,1.74413 -0.189093,-0.279094 -0.396142,-0.440198 -0.75685,-0.592324 -0.06034,1.469761 0.29067,2.93965 0.904961,4.40953 z"
     id="path9" />
  <path
     class="fil3 str1"
     d="m 47.440201,35.993901 h 1.25043 c 0.622441,-1.470001 1.18134,-2.98559 1.135389,-4.491851 -0.36496,0.150827 -0.657637,0.419765 -0.90496,0.806221 -0.09342,-0.697677 -0.31311,-1.30488 -0.740434,-1.875711 -0.467834,0.472677 -0.763937,1.054021 -0.888542,1.74413 -0.189095,-0.279094 -0.396142,-0.440197 -0.75685,-0.592322 -0.06035,1.469759 0.290669,2.939649 0.904961,4.40953 z"
     id="path10" />
</svg>
