<?xml version="1.0" encoding="UTF-8" standalone="no"?>
<svg
   width="80"
   height="80"
   image-rendering="optimizeQuality"
   shape-rendering="geometricPrecision"
   version="1.1"
   id="svg18"
   sodipodi:docname="43_Kirov_Oblast.svg"
   inkscape:version="1.3.2 (091e20e, 2023-11-25, custom)"
   xmlns:inkscape="http://www.inkscape.org/namespaces/inkscape"
   xmlns:sodipodi="http://sodipodi.sourceforge.net/DTD/sodipodi-0.dtd"
   xmlns:xlink="http://www.w3.org/1999/xlink"
   xmlns="http://www.w3.org/2000/svg"
   xmlns:svg="http://www.w3.org/2000/svg">
  <sodipodi:namedview
     id="namedview18"
     pagecolor="#505050"
     bordercolor="#ffffff"
     borderopacity="1"
     inkscape:showpageshadow="0"
     inkscape:pageopacity="0"
     inkscape:pagecheckerboard="1"
     inkscape:deskcolor="#505050"
     inkscape:zoom="2.9525"
     inkscape:cx="300.25402"
     inkscape:cy="200"
     inkscape:window-width="2560"
     inkscape:window-height="1377"
     inkscape:window-x="1912"
     inkscape:window-y="-8"
     inkscape:window-maximized="1"
     inkscape:current-layer="svg18" />
  <style
     id="style1"><![CDATA[.O{stroke-linejoin:round}.P{stroke:#fff}.Q{fill:#da251d}.R{stroke:#f8c300}.S{stroke-linecap:round}.T{stroke-width:1.818}.U{stroke-width:1.455}.V{stroke-width:1.091}]]></style>
  <path
     d="M 0,0 H 600 V 400 H 0 Z"
     fill="#ffffff"
     id="path1"
     clip-path="url(#clipPath29)"
     transform="matrix(0.2,0,0,0.2,-20,0)" />
  <path
     d="M 0,300 H 600 V 400 H 0 Z"
     fill="#00923f"
     id="path2"
     clip-path="url(#clipPath28)"
     transform="matrix(0.2,0,0,0.2,-20,0)" />
  <path
     d="m 0,350 h 600 v 50 H 0 Z"
     fill="#007cc3"
     id="path3"
     clip-path="url(#clipPath27)"
     transform="matrix(0.2,0,0,0.2,-20,0)" />
  <use
     xlink:href="#B"
     stroke="#da251d"
     stroke-width="7.273"
     fill="#0093dd"
     id="use3"
     clip-path="url(#clipPath26)"
     transform="matrix(0.2,0,0,0.2,-20,0)" />
  <g
     class="T"
     id="g6"
     clip-path="url(#clipPath25)"
     transform="matrix(0.2,0,0,0.2,-20,0)">
    <use
       xlink:href="#B"
       fill="#f8c300"
       class="R"
       id="use4" />
    <g
       class="O"
       id="g5">
      <path
         d="m 387.364,59.818 c -6,0.545 -10.545,1.636 -15.091,6.909 C 361.364,68 355.909,74.182 355.364,84 c -8.182,5.818 -10.909,14.909 -8,27.091 -9.636,6 -13.455,13.636 -8.909,23.091 l 0.182,22.364 c 0.727,3.091 2.364,6 4.545,8.909 -6.909,10.909 -3.818,20.727 9.273,26.727 0,18.727 10.364,24 25.636,23.091 2,2.727 5.091,4.727 9.273,6.182 l 0.182,-161.818 z"
         stroke="#007cc3"
         fill="#007cc3"
         id="path4" />
      <path
         d="m 387.364,59.818 c -6,0.545 -10.545,1.636 -15.091,6.909 C 361.364,68 355.909,74.182 355.364,84 c -8.182,5.818 -10.909,14.909 -8,27.091 -9.636,6 -13.455,13.636 -8.909,23.091 l 0.182,22.364 c 0.727,3.091 2.364,6 4.545,8.909 -6.909,10.909 -3.818,20.727 9.273,26.727 0,18.727 10.364,24 25.636,23.091 2,2.727 5.091,4.727 9.273,6.182"
         fill="none"
         class="P S"
         id="path5" />
    </g>
  </g>
  <g
     class="Q U O P"
     id="g7"
     clip-path="url(#clipPath24)"
     transform="matrix(0.2,0,0,0.2,-20,0)">
    <path
       d="m 241.182,72.364 c -7.091,1.818 -12.364,4.182 -16.364,7.455 V 58.727 c 4,3.273 9.273,5.636 16.364,7.455 C 239.364,59.091 237,53.818 233.727,49.818 h 21.091 c -3.273,4 -5.636,9.273 -7.455,16.364 7.091,-1.818 12.364,-4.182 16.364,-7.455 v 21.091 c -4,-3.273 -9.273,-5.636 -16.364,-7.455 1.818,7.091 4.182,12.364 7.455,16.364 h -21.091 c 3.273,-4 5.636,-9.273 7.455,-16.364 z"
       id="path6" />
    <circle
       cx="244.27299"
       cy="44.727001"
       r="4.5450001"
       id="circle6" />
  </g>
  <g
     stroke-width="1.395"
     class="O P Q"
     id="g8"
     clip-path="url(#clipPath23)"
     transform="matrix(0.2,0,0,0.2,-20,0)">
    <circle
       cy="219.742"
       cx="-69.208"
       transform="rotate(-90)"
       r="4.533"
       id="circle7" />
    <circle
       cy="-268.689"
       cx="69.208"
       transform="rotate(90)"
       r="4.533"
       id="circle8" />
  </g>
  <circle
     cx="244.27299"
     cy="93.636002"
     r="4.5450001"
     class="O P Q U"
     id="circle9"
     clip-path="url(#clipPath22)"
     transform="matrix(0.2,0,0,0.2,-20,0)" />
  <g
     fill="none"
     class="S T O P"
     id="g14"
     clip-path="url(#clipPath21)"
     transform="matrix(0.2,0,0,0.2,-20,0)">
    <path
       d="m 387.364,92 c -14.182,1.818 -20.727,10.182 -16,27.818 m -1.637,-12.182 c -13.455,2 -21.273,8 -22,20"
       id="path9" />
    <path
       d="m 382.273,93.091 c -1.636,-2.727 -0.909,-6.182 2,-10 m -1.637,-4.727 c -5.636,4.727 -7.818,10 -5.273,16.727 m -11.999,4.364 c -2.182,3.091 -2.182,6.182 -0.364,9.273 m -1.818,-16.364 c -5.455,4.545 -7.636,10.182 -4.182,18.364 m 4.545,-23.637 c -10.364,4.545 -13.818,13.273 -9.273,26.727 m 33.092,26.909 c -3.636,-3.273 -4.182,-6.545 -1.455,-9.455 m 1.455,16.91 c -9.455,-5.818 -12.545,-12.545 -6,-20.727 m 6,27.272 C 371.728,146 366.091,134.909 380.637,123.272 m 6.727,77.273 c -26.909,-10 -28,-27.818 -4,-40.364 m -16,-39.272 c -16.909,14.909 -21.636,31.091 2.364,49.818"
       id="path10" />
    <path
       d="m 374.091,166.364 c -10.182,-6.364 -14.909,-14.545 -14.182,-24 m 17.455,21.454 C 371,160.182 367.728,154 364.455,148.363 m 8.727,4.182 c 1.455,3.091 4,5.273 8,8.727 M 372.091,176 c -1.455,8.364 5.091,13.818 15.091,17.818"
       id="path11" />
    <path
       d="m 377,178.364 c -0.182,4.364 3.455,7.455 10.182,9.636 m -26,-16.364 c -6.545,-0.364 -13.636,-1.636 -18,-6.182 m 16.363,15.455 c -3.455,-2.909 -4.545,-6 -2.727,-9.636 m -4.545,-0.909 c -2.545,5.636 -0.909,10.545 4.727,14.727 m -2.182,2.727 c -8,-5.091 -10.727,-10.182 -6.364,-18.727 m 4.001,23.273 c 7.091,1.818 13.091,0.909 19.455,-0.545 M 375.545,204 c -0.545,5.091 0.182,8.545 2.364,11.455"
       id="path12" />
    <path
       d="m 364.636,202.182 c 3.091,3.273 6,5.636 10.909,5.455"
       id="path13" />
    <path
       d="m 359,200.909 c 4,7.636 9.636,11.273 16.909,10.545"
       id="path14" />
  </g>
  <path
     d="m 309.364,132.909 h -25.091 l -3.636,4.364 H 273 v -15.818 c -20.727,-18.182 8,-31.091 16.909,-53.273 z m -3.091,14.727 2.182,3.455 -18.364,61.091 C 281.182,190 252.455,177.091 273.182,158.909 v -15.818 h 7.636 l 3.636,4.364 h 22 z m 5.273,5.818 c 4.182,2.182 -0.364,5.818 16,2.727 l 2.364,2.545 c 7.818,-5.273 16.364,0.545 29.818,2.909 -8,-9.636 -8.909,-20 -1.455,-30.909 -8.545,-0.182 -16.182,1.091 -21.636,4.909 h -11.455 c -3.273,-2 -7.091,-3.091 -12,-3.091 L 291.727,62.362 c 0.182,-0.727 0.364,-1.636 0.364,-2.364 2.727,1.455 5.273,1.636 7.455,0 3.091,-2.182 6.182,0.545 13.636,-0.727 -6.909,0.364 -10.364,-2.727 -13.818,-1.273 -3.091,1.273 -5.273,0.545 -7.091,-1.636 0,-1.818 0,-3.455 -0.364,-5.455 -1.636,-10.727 -15.636,-0.727 -4.909,2.727 4.909,28.545 -49.636,46.182 -25.636,70.727 v 12.727 h -24.727 c 0.545,-2 1.818,-3.818 3.273,-5.455 -6.909,2.909 -15.091,5.636 -24.364,8.545 9.273,2.909 17.455,5.636 24.364,8.545 -1.455,-1.818 -2.545,-3.636 -3.273,-5.455 h 24.727 V 156 c -24.182,24.545 30.364,42.182 25.636,70.727 -10.727,3.455 3.273,13.273 4.909,2.727 0.364,-1.818 0.364,-3.636 0.364,-5.455 1.818,-2.182 4.182,-2.909 7.091,-1.636 3.455,1.455 7.091,-1.636 13.818,-1.273 -7.455,-1.091 -10.727,1.455 -13.636,-0.727 -2.182,-1.636 -4.727,-1.273 -7.455,0 -0.182,-0.909 -0.182,-1.636 -0.364,-2.364 l 19.818,-64.727 z"
     stroke-width="1.273"
     class="O P Q"
     id="path15"
     clip-path="url(#clipPath20)"
     transform="matrix(0.2,0,0,0.2,-20,0)" />
  <g
     fill="#f8c300"
     id="g17"
     clip-path="url(#clipPath19)"
     transform="matrix(0.2,0,0,0.2,-20,0)">
    <path
       d="m 310.091,137.455 c -0.364,1.455 3.091,1.636 4.545,1.636 2.909,0 2.727,1.091 4.364,3.273 4.182,5.273 5.273,3.091 6.545,4.727 -1.273,1.091 -4.182,-2.182 -4.182,1.818 0,6 7.091,7.273 7.636,0.545 0.545,-6.364 -0.727,-7.636 -4.364,-11.455 -1.636,-1.636 -13.273,-4.364 -14.364,-0.545 z m 0.364,4.545 c -2.909,0.364 -1.273,3.091 1.091,2.545 3.636,-0.909 6.727,-3.455 -1.091,-2.545 z m 0.909,4.545 c -2,0.909 -0.545,3.273 2,2 4.182,-2 5.273,-5.273 -2,-2 z m 2.727,3.455 c -1.636,0.909 -0.364,3.273 2,1.636 3.636,-2.364 3.091,-4.909 -2,-1.636 z m 3.091,2.727 c -1.636,1.273 0.364,3.091 2,1.091 2,-2.545 -0.364,-2.545 -2,-1.091 z m 31.091,-9.818 c -0.909,-5.455 1.636,-4 1.818,-6.727 -10.545,0.909 -12,3.273 -7.273,10.364 0.909,-3.818 -2.182,-4.727 1.455,-6.545 0,1.636 0.545,3.455 1.636,5.091 0.545,-2 -0.545,-4.909 0.909,-5.818 0.364,1.273 0.545,2.727 1.455,3.636 z m -13.637,6.364 c -0.182,-2.909 0.182,-5.818 1.273,-6.909 0.182,2.182 0.545,4.182 2,5.273 -0.182,-3.636 -0.182,-5.636 0.727,-6.364 -2.182,-1.455 -3.273,-2 -4.727,-2.182 -0.909,4.727 -0.545,8.364 0.909,10.182 z"
       id="path16" />
    <path
       d="m 284.091,138.727 -1.273,1.455 h 23.273 l 1.273,-1.455 z"
       class="O R V"
       id="path17" />
  </g>
  <path
     d="m 309,137.091 -1.455,1.818 m -21.818,-1.818 -1.455,1.818 m 4.909,-1.818 -1.455,1.818 m 4.909,-1.818 -1.455,1.818 m 4.909,-1.818 -1.455,1.818 m 4.909,-1.818 -1.455,1.818 m 4.909,-1.818 -1.455,1.818 m 4.909,-1.818 -1.451,1.818"
     fill="none"
     class="O R S V"
     id="path18"
     clip-path="url(#clipPath18)"
     transform="matrix(0.2,0,0,0.2,-20,0)" />
  <defs
     id="defs18">
    <path
       id="B"
       d="M 300.273,262.727 C 301.545,252.182 310.455,244 321.364,244 l 44.545,-1.091 c 11.818,0 21.273,-9.455 21.273,-21.273 V 37.273 H 212.818 v 184.364 c 0,11.818 9.818,21.273 21.455,21.273 l 44.545,1.09 c 10.909,0 20,8.182 21.273,18.727 z" />
    <clipPath
       clipPathUnits="userSpaceOnUse"
       id="clipPath18">
      <rect
         style="opacity:0.2;fill:#296912;stroke-width:2"
         id="rect19"
         width="400"
         height="400"
         x="100"
         y="0" />
    </clipPath>
    <clipPath
       clipPathUnits="userSpaceOnUse"
       id="clipPath19">
      <rect
         style="opacity:0.2;fill:#296912;stroke-width:2"
         id="rect20"
         width="400"
         height="400"
         x="100"
         y="0" />
    </clipPath>
    <clipPath
       clipPathUnits="userSpaceOnUse"
       id="clipPath20">
      <rect
         style="opacity:0.2;fill:#296912;stroke-width:2"
         id="rect21"
         width="400"
         height="400"
         x="100"
         y="0" />
    </clipPath>
    <clipPath
       clipPathUnits="userSpaceOnUse"
       id="clipPath21">
      <rect
         style="opacity:0.2;fill:#296912;stroke-width:2"
         id="rect22"
         width="400"
         height="400"
         x="100"
         y="0" />
    </clipPath>
    <clipPath
       clipPathUnits="userSpaceOnUse"
       id="clipPath22">
      <rect
         style="opacity:0.2;fill:#296912;stroke-width:2"
         id="rect23"
         width="400"
         height="400"
         x="100"
         y="0" />
    </clipPath>
    <clipPath
       clipPathUnits="userSpaceOnUse"
       id="clipPath23">
      <rect
         style="opacity:0.2;fill:#296912;stroke-width:2"
         id="rect24"
         width="400"
         height="400"
         x="100"
         y="0" />
    </clipPath>
    <clipPath
       clipPathUnits="userSpaceOnUse"
       id="clipPath24">
      <rect
         style="opacity:0.2;fill:#296912;stroke-width:2"
         id="rect25"
         width="400"
         height="400"
         x="100"
         y="0" />
    </clipPath>
    <clipPath
       clipPathUnits="userSpaceOnUse"
       id="clipPath25">
      <rect
         style="opacity:0.2;fill:#296912;stroke-width:2"
         id="rect26"
         width="400"
         height="400"
         x="100"
         y="0" />
    </clipPath>
    <clipPath
       clipPathUnits="userSpaceOnUse"
       id="clipPath26">
      <rect
         style="opacity:0.2;fill:#296912;stroke-width:2"
         id="rect27"
         width="400"
         height="400"
         x="100"
         y="0" />
    </clipPath>
    <clipPath
       clipPathUnits="userSpaceOnUse"
       id="clipPath27">
      <rect
         style="opacity:0.2;fill:#296912;stroke-width:2"
         id="rect28"
         width="400"
         height="400"
         x="100"
         y="0" />
    </clipPath>
    <clipPath
       clipPathUnits="userSpaceOnUse"
       id="clipPath28">
      <rect
         style="opacity:0.2;fill:#296912;stroke-width:2"
         id="rect29"
         width="400"
         height="400"
         x="100"
         y="0" />
    </clipPath>
    <clipPath
       clipPathUnits="userSpaceOnUse"
       id="clipPath29">
      <rect
         style="opacity:0.2;fill:#296912;stroke-width:2"
         id="rect30"
         width="400"
         height="400"
         x="100"
         y="0" />
    </clipPath>
  </defs>
</svg>
