<?xml version="1.0" encoding="UTF-8" standalone="no"?>
<svg
   xml:space="preserve"
   width="80"
   height="80"
   viewBox="0 0 80 80"
   version="1.1"
   id="svg3"
   sodipodi:docname="45_Kurgan_Oblast.svg"
   inkscape:version="1.3.2 (091e20e, 2023-11-25, custom)"
   xmlns:inkscape="http://www.inkscape.org/namespaces/inkscape"
   xmlns:sodipodi="http://sodipodi.sourceforge.net/DTD/sodipodi-0.dtd"
   xmlns="http://www.w3.org/2000/svg"
   xmlns:svg="http://www.w3.org/2000/svg"><defs
   id="defs3"><clipPath
     clipPathUnits="userSpaceOnUse"
     id="clipPath3"><rect
       style="opacity:0.2;fill:#296912;stroke-width:2"
       id="rect4"
       width="300"
       height="300"
       x="150"
       y="0" /></clipPath><clipPath
     clipPathUnits="userSpaceOnUse"
     id="clipPath4"><rect
       style="opacity:0.2;fill:#296912;stroke-width:2"
       id="rect5"
       width="300"
       height="300"
       x="150"
       y="0" /></clipPath><clipPath
     clipPathUnits="userSpaceOnUse"
     id="clipPath5"><rect
       style="opacity:0.2;fill:#296912;stroke-width:2"
       id="rect6"
       width="300"
       height="300"
       x="150"
       y="0" /></clipPath><clipPath
     clipPathUnits="userSpaceOnUse"
     id="clipPath6"><rect
       style="opacity:0.2;fill:#296912;stroke-width:2"
       id="rect7"
       width="300"
       height="300"
       x="150"
       y="0" /></clipPath></defs><sodipodi:namedview
   id="namedview3"
   pagecolor="#505050"
   bordercolor="#ffffff"
   borderopacity="1"
   inkscape:showpageshadow="0"
   inkscape:pageopacity="0"
   inkscape:pagecheckerboard="1"
   inkscape:deskcolor="#505050"
   inkscape:zoom="3.405"
   inkscape:cx="300"
   inkscape:cy="150.22026"
   inkscape:window-width="2560"
   inkscape:window-height="1377"
   inkscape:window-x="1912"
   inkscape:window-y="-8"
   inkscape:window-maximized="1"
   inkscape:current-layer="svg3" />
<rect
   fill="#ffffff"
   width="600"
   height="300"
   x="0"
   y="0"
   id="rect1"
   clip-path="url(#clipPath6)"
   transform="matrix(0.26666667,0,0,0.26666667,-40,0)" />
<rect
   fill="#008040"
   width="600"
   height="100"
   x="0"
   y="100"
   id="rect2"
   clip-path="url(#clipPath5)"
   transform="matrix(0.26666667,0,0,0.26666667,-40,0)" />
<path
   fill="#ffffff"
   d="m 331,119 c 16,1 19,21 27,35 8,15 12,16 12,19 0,3 -10,5 -21,5 -18,0 -54,-12 -54,-12 0,0 20,-48 36,-47 z"
   id="path2"
   clip-path="url(#clipPath4)"
   transform="matrix(0.26666667,0,0,0.26666667,-40,0)" />
<path
   fill="#ffffff"
   stroke="#008040"
   stroke-width="2"
   d="m 239,179 c 23,-1 39,12 64,13 26,0 29,-12 29,-15 -7,-3 -9,-12 -12,-18 -7,-15 -13,-49 -34,-50 -24,-1 -31,51 -47,70 z"
   id="path3"
   clip-path="url(#clipPath3)"
   transform="matrix(0.26666667,0,0,0.26666667,-40,0)" />
</svg>
