<?xml version="1.0" encoding="UTF-8" standalone="no"?>
<svg
   width="80"
   height="80"
   viewBox="0 0 80 80"
   version="1.1"
   id="svg33"
   sodipodi:docname="47_Leningrad_Oblast.svg"
   inkscape:version="1.3.2 (091e20e, 2023-11-25, custom)"
   xmlns:inkscape="http://www.inkscape.org/namespaces/inkscape"
   xmlns:sodipodi="http://sodipodi.sourceforge.net/DTD/sodipodi-0.dtd"
   xmlns="http://www.w3.org/2000/svg"
   xmlns:svg="http://www.w3.org/2000/svg"
   xmlns:rdf="http://www.w3.org/1999/02/22-rdf-syntax-ns#"
   xmlns:cc="http://creativecommons.org/ns#"
   xmlns:dc="http://purl.org/dc/elements/1.1/">
  <defs
     id="defs33">
    <clipPath
       clipPathUnits="userSpaceOnUse"
       id="clipPath33">
      <rect
         style="opacity:0.2;fill:#296912;stroke-width:2"
         id="rect34"
         width="600"
         height="600"
         x="150"
         y="0" />
    </clipPath>
    <clipPath
       clipPathUnits="userSpaceOnUse"
       id="clipPath34">
      <rect
         style="opacity:0.2;fill:#296912;stroke-width:2"
         id="rect35"
         width="600"
         height="600"
         x="150"
         y="0" />
    </clipPath>
    <clipPath
       clipPathUnits="userSpaceOnUse"
       id="clipPath35">
      <rect
         style="opacity:0.2;fill:#296912;stroke-width:2"
         id="rect36"
         width="600"
         height="600"
         x="0"
         y="0" />
    </clipPath>
    <clipPath
       clipPathUnits="userSpaceOnUse"
       id="clipPath36">
      <rect
         style="opacity:0.2;fill:#296912;stroke-width:2"
         id="rect37"
         width="600"
         height="600"
         x="0"
         y="0" />
    </clipPath>
    <clipPath
       clipPathUnits="userSpaceOnUse"
       id="clipPath37">
      <rect
         style="opacity:0.2;fill:#296912;stroke-width:2"
         id="rect38"
         width="600"
         height="600"
         x="0"
         y="0" />
    </clipPath>
    <clipPath
       clipPathUnits="userSpaceOnUse"
       id="clipPath38">
      <rect
         style="opacity:0.2;fill:#296912;stroke-width:2"
         id="rect39"
         width="600"
         height="600"
         x="0"
         y="0" />
    </clipPath>
    <clipPath
       clipPathUnits="userSpaceOnUse"
       id="clipPath39">
      <rect
         style="opacity:0.2;fill:#296912;stroke-width:2"
         id="rect40"
         width="600"
         height="600"
         x="0"
         y="0" />
    </clipPath>
    <clipPath
       clipPathUnits="userSpaceOnUse"
       id="clipPath40">
      <rect
         style="opacity:0.2;fill:#296912;stroke-width:2"
         id="rect41"
         width="600"
         height="600"
         x="0"
         y="0" />
    </clipPath>
    <clipPath
       clipPathUnits="userSpaceOnUse"
       id="clipPath41">
      <rect
         style="opacity:0.2;fill:#296912;stroke-width:2"
         id="rect42"
         width="600"
         height="600"
         x="0"
         y="0" />
    </clipPath>
    <clipPath
       clipPathUnits="userSpaceOnUse"
       id="clipPath42">
      <rect
         style="opacity:0.2;fill:#296912;stroke-width:2"
         id="rect43"
         width="600"
         height="600"
         x="0"
         y="0" />
    </clipPath>
    <clipPath
       clipPathUnits="userSpaceOnUse"
       id="clipPath43">
      <rect
         style="opacity:0.2;fill:#296912;stroke-width:2"
         id="rect44"
         width="600"
         height="600"
         x="0"
         y="0" />
    </clipPath>
    <clipPath
       clipPathUnits="userSpaceOnUse"
       id="clipPath44">
      <rect
         style="opacity:0.2;fill:#296912;stroke-width:2"
         id="rect45"
         width="600"
         height="600"
         x="0"
         y="0" />
    </clipPath>
    <clipPath
       clipPathUnits="userSpaceOnUse"
       id="clipPath45">
      <rect
         style="opacity:0.2;fill:#296912;stroke-width:2"
         id="rect46"
         width="600"
         height="600"
         x="0"
         y="0" />
    </clipPath>
    <clipPath
       clipPathUnits="userSpaceOnUse"
       id="clipPath46">
      <rect
         style="opacity:0.2;fill:#296912;stroke-width:2"
         id="rect47"
         width="600"
         height="600"
         x="0"
         y="0" />
    </clipPath>
    <clipPath
       clipPathUnits="userSpaceOnUse"
       id="clipPath47">
      <rect
         style="opacity:0.2;fill:#296912;stroke-width:2"
         id="rect48"
         width="600"
         height="600"
         x="0"
         y="0" />
    </clipPath>
    <clipPath
       clipPathUnits="userSpaceOnUse"
       id="clipPath48">
      <rect
         style="opacity:0.2;fill:#296912;stroke-width:2"
         id="rect49"
         width="600"
         height="600"
         x="150"
         y="0" />
    </clipPath>
    <clipPath
       clipPathUnits="userSpaceOnUse"
       id="clipPath49">
      <rect
         style="opacity:0.2;fill:#296912;stroke-width:2"
         id="rect50"
         width="600"
         height="600"
         x="150"
         y="0" />
    </clipPath>
    <clipPath
       clipPathUnits="userSpaceOnUse"
       id="clipPath50">
      <rect
         style="opacity:0.2;fill:#296912;stroke-width:2"
         id="rect51"
         width="600"
         height="600"
         x="150"
         y="0" />
    </clipPath>
    <clipPath
       clipPathUnits="userSpaceOnUse"
       id="clipPath51">
      <rect
         style="opacity:0.2;fill:#296912;stroke-width:2"
         id="rect52"
         width="600"
         height="600"
         x="150"
         y="0" />
    </clipPath>
    <clipPath
       clipPathUnits="userSpaceOnUse"
       id="clipPath52">
      <rect
         style="opacity:0.2;fill:#296912;stroke-width:2"
         id="rect53"
         width="600"
         height="600"
         x="150"
         y="0" />
    </clipPath>
    <clipPath
       clipPathUnits="userSpaceOnUse"
       id="clipPath53">
      <rect
         style="opacity:0.2;fill:#296912;stroke-width:2"
         id="rect54"
         width="600"
         height="600"
         x="150"
         y="0" />
    </clipPath>
    <clipPath
       clipPathUnits="userSpaceOnUse"
       id="clipPath54">
      <rect
         style="opacity:0.2;fill:#296912;stroke-width:2"
         id="rect55"
         width="600"
         height="600"
         x="150"
         y="0" />
    </clipPath>
    <clipPath
       clipPathUnits="userSpaceOnUse"
       id="clipPath55">
      <rect
         style="opacity:0.2;fill:#296912;stroke-width:2"
         id="rect56"
         width="600"
         height="600"
         x="150"
         y="0" />
    </clipPath>
    <clipPath
       clipPathUnits="userSpaceOnUse"
       id="clipPath56">
      <rect
         style="opacity:0.2;fill:#296912;stroke-width:2"
         id="rect57"
         width="600"
         height="600"
         x="150"
         y="0" />
    </clipPath>
    <clipPath
       clipPathUnits="userSpaceOnUse"
       id="clipPath57">
      <rect
         style="opacity:0.2;fill:#296912;stroke-width:2"
         id="rect58"
         width="600"
         height="600"
         x="150"
         y="0" />
    </clipPath>
    <clipPath
       clipPathUnits="userSpaceOnUse"
       id="clipPath58">
      <rect
         style="opacity:0.2;fill:#296912;stroke-width:2"
         id="rect59"
         width="600"
         height="600"
         x="150"
         y="0" />
    </clipPath>
    <clipPath
       clipPathUnits="userSpaceOnUse"
       id="clipPath59">
      <rect
         style="opacity:0.2;fill:#296912;stroke-width:2"
         id="rect60"
         width="600"
         height="600"
         x="150"
         y="0" />
    </clipPath>
    <clipPath
       clipPathUnits="userSpaceOnUse"
       id="clipPath60">
      <rect
         style="opacity:0.2;fill:#296912;stroke-width:2"
         id="rect61"
         width="600"
         height="600"
         x="150"
         y="0" />
    </clipPath>
    <clipPath
       clipPathUnits="userSpaceOnUse"
       id="clipPath61">
      <rect
         style="opacity:0.2;fill:#296912;stroke-width:2"
         id="rect62"
         width="600"
         height="600"
         x="150"
         y="0" />
    </clipPath>
    <clipPath
       clipPathUnits="userSpaceOnUse"
       id="clipPath62">
      <rect
         style="opacity:0.2;fill:#296912;stroke-width:2"
         id="rect63"
         width="600"
         height="600"
         x="150"
         y="0" />
    </clipPath>
    <clipPath
       clipPathUnits="userSpaceOnUse"
       id="clipPath63">
      <rect
         style="opacity:0.2;fill:#296912;stroke-width:2"
         id="rect64"
         width="600"
         height="600"
         x="150"
         y="0" />
    </clipPath>
    <clipPath
       clipPathUnits="userSpaceOnUse"
       id="clipPath64">
      <rect
         style="opacity:0.2;fill:#296912;stroke-width:2"
         id="rect65"
         width="600"
         height="600"
         x="150"
         y="0" />
    </clipPath>
    <clipPath
       clipPathUnits="userSpaceOnUse"
       id="clipPath65">
      <rect
         style="opacity:0.2;fill:#296912;stroke-width:2"
         id="rect66"
         width="600"
         height="600"
         x="150"
         y="0" />
    </clipPath>
    <clipPath
       clipPathUnits="userSpaceOnUse"
       id="clipPath66">
      <rect
         style="opacity:0.2;fill:#296912;stroke-width:2"
         id="rect67"
         width="600"
         height="600"
         x="150"
         y="0" />
    </clipPath>
    <clipPath
       clipPathUnits="userSpaceOnUse"
       id="clipPath67">
      <rect
         style="opacity:0.2;fill:#296912;stroke-width:2"
         id="rect68"
         width="600"
         height="600"
         x="150"
         y="0" />
    </clipPath>
    <clipPath
       clipPathUnits="userSpaceOnUse"
       id="clipPath68">
      <rect
         style="opacity:0.2;fill:#296912;stroke-width:2"
         id="rect69"
         width="600"
         height="600"
         x="0"
         y="0" />
    </clipPath>
    <clipPath
       clipPathUnits="userSpaceOnUse"
       id="clipPath69">
      <rect
         style="opacity:0.2;fill:#296912;stroke-width:2"
         id="rect70"
         width="600"
         height="600"
         x="0"
         y="0" />
    </clipPath>
    <clipPath
       clipPathUnits="userSpaceOnUse"
       id="clipPath70">
      <rect
         style="opacity:0.2;fill:#296912;stroke-width:2"
         id="rect71"
         width="600"
         height="600"
         x="0"
         y="0" />
    </clipPath>
    <clipPath
       clipPathUnits="userSpaceOnUse"
       id="clipPath71">
      <rect
         style="opacity:0.2;fill:#296912;stroke-width:2"
         id="rect72"
         width="600"
         height="600"
         x="0"
         y="0" />
    </clipPath>
  </defs>
  <sodipodi:namedview
     id="namedview33"
     pagecolor="#505050"
     bordercolor="#ffffff"
     borderopacity="1"
     inkscape:showpageshadow="0"
     inkscape:pageopacity="0"
     inkscape:pagecheckerboard="1"
     inkscape:deskcolor="#505050"
     inkscape:zoom="1.3918218"
     inkscape:cx="388.33994"
     inkscape:cy="236.02159"
     inkscape:window-width="2560"
     inkscape:window-height="1377"
     inkscape:window-x="1912"
     inkscape:window-y="-8"
     inkscape:window-maximized="1"
     inkscape:current-layer="svg33"
     showgrid="false" />
  <style
     type="text/css"
     id="style1">  .st0{fill:#FFFFFF;} .st1{fill:#157dc1;} .st2{fill:#e42913;} .st3{fill:#157dc1;} .st4{fill:#FFFFFF;stroke:#000000;stroke-width:1.14;} .st5{fill:none;stroke:#000000;stroke-width:2;} .st6{fill:none;stroke:#000000;stroke-width:1.14;} .st7{fill:#ea9b00;stroke:#000000;stroke-width:1.14;}</style>
  <title
     id="title1">  Flag_of_Leningrad_Oblast</title>
  <rect
     class="st0"
     y="0.30000001"
     width="900"
     height="600"
     id="rect1"
     x="-150"
     clip-path="url(#clipPath71)"
     transform="matrix(0.13333333,0,0,0.13340004,0,0.25998001)" />
  <path
     class="st1"
     d="m -60,517.5 c 33,0 64.5,-13.1 86.4,-36 l 3.6,-3.8 3.6,3.8 c 21.9,22.9 53.3,36 86.4,36 33,0 64.5,-13.1 86.4,-36 l 3.6,-3.8 3.6,3.8 c 21.9,22.9 53.3,36 86.4,36 33.1,0 64.5,-13.1 86.4,-36 l 3.6,-3.8 3.6,3.8 c 21.9,22.9 53.3,36 86.4,36 33,0 64.5,-13.1 86.4,-36 l 3.6,-3.8 3.6,3.8 c 21.9,22.9 53.3,36 86.4,36 33.1,0 64.5,-13.1 86.4,-36 l 3.6,-3.8 v -77.8 c -22,23.1 -54.2,37.6 -90,37.6 -35.8,0 -68,-14.5 -90,-37.6 -22,23.1 -54.2,37.6 -90,37.6 -35.8,0 -68,-14.5 -90,-37.6 -22,23.1 -54.2,37.6 -90,37.6 -35.8,0 -68,-14.5 -90,-37.6 -22,23.1 -54.2,37.6 -90,37.6 -35.8,0 -68,-14.5 -90,-37.6 -22,23.1 -54.2,37.6 -90,37.6 -35.8,0 -68,-14.5 -90,-37.6 v 77.8 l 3.6,3.8 c 21.8,22.9 53.3,36 86.4,36 z"
     id="path1"
     clip-path="url(#clipPath70)"
     transform="matrix(0.13333333,0,0,0.13333333,0,0.26000002)" />
  <path
     class="st2"
     d="m 750,492 c -23.5,22.6 -56,35.5 -90,35.5 -34,0 -66.5,-12.9 -90,-35.5 -23.5,22.6 -56,35.5 -90,35.5 -34,0 -66.5,-12.9 -90,-35.5 -23.5,22.6 -56,35.5 -90,35.5 -34,0 -66.5,-12.9 -90,-35.5 -23.5,22.6 -56,35.5 -90,35.5 -34,0 -66.5,-12.9 -90,-35.5 -23.5,22.6 -56,35.5 -90,35.5 -34,0 -66.5,-12.9 -90,-35.5 v 108 h 900 z"
     id="path2"
     clip-path="url(#clipPath69)"
     transform="matrix(0.13333333,0,0,0.13333333,0,0.26000002)" />
  <path
     class="st3"
     d="M 400,98.5 V 271 c 0,21 -14.1,36.4 -33.5,36.4 h -43.7 c -14.3,0 -21.5,11 -22.9,19.8 -1.3,-8.8 -8.6,-19.8 -22.9,-19.8 H 233.4 C 214,307.4 199.9,292.1 199.9,271 V 98.5 Z"
     id="path3"
     clip-path="url(#clipPath68)"
     transform="matrix(0.13333333,0,0,0.13333333,0,0.26000002)" />
  <polygon
     class="st2"
     points="550,140 350,140 350,98.5 550,98.5 "
     id="polygon3"
     transform="matrix(0.13333333,0,0,0.13333333,-20,0.26000002)"
     clip-path="url(#clipPath67)" />
  <polygon
     class="st4"
     points="416.7,152.5 383.4,152.5 383.4,140 416.7,140 "
     id="polygon4"
     transform="matrix(0.13333333,0,0,0.13333333,-20,0.26000002)"
     clip-path="url(#clipPath66)" />
  <polygon
     class="st4"
     points="450,152.5 416.7,152.5 416.7,140 450,140 "
     id="polygon5"
     transform="matrix(0.13333333,0,0,0.13333333,-20,0.26000002)"
     clip-path="url(#clipPath65)" />
  <polygon
     class="st4"
     points="483.4,152.5 450,152.5 450,140 483.4,140 "
     id="polygon6"
     transform="matrix(0.13333333,0,0,0.13333333,-20,0.26000002)"
     clip-path="url(#clipPath64)" />
  <polygon
     class="st4"
     points="516.7,152.5 483.4,152.5 483.4,140 516.7,140 "
     id="polygon7"
     transform="matrix(0.13333333,0,0,0.13333333,-20,0.26000002)"
     clip-path="url(#clipPath63)" />
  <polygon
     class="st4"
     points="550,152.5 516.7,152.5 516.7,140 550,140 "
     id="polygon8"
     transform="matrix(0.13333333,0,0,0.13333333,-20,0.26000002)"
     clip-path="url(#clipPath62)" />
  <polygon
     class="st4"
     points="383.4,152.5 350,152.5 350,140 383.4,140 "
     id="polygon9"
     transform="matrix(0.13333333,0,0,0.13333333,-20,0.26000002)"
     clip-path="url(#clipPath61)" />
  <polygon
     class="st4"
     points="433.4,140 400,140 400,127.4 433.4,127.4 "
     id="polygon10"
     transform="matrix(0.13333333,0,0,0.13333333,-20,0.26000002)"
     clip-path="url(#clipPath60)" />
  <polygon
     class="st4"
     points="466.7,140 433.4,140 433.4,127.4 466.7,127.4 "
     id="polygon11"
     transform="matrix(0.13333333,0,0,0.13333333,-20,0.26000002)"
     clip-path="url(#clipPath59)" />
  <polygon
     class="st4"
     points="500,140 466.7,140 466.7,127.4 500,127.4 "
     id="polygon12"
     transform="matrix(0.13333333,0,0,0.13333333,-20,0.26000002)"
     clip-path="url(#clipPath58)" />
  <polygon
     class="st4"
     points="533.3,140 500,140 500,127.4 533.3,127.4 "
     id="polygon13"
     transform="matrix(0.13333333,0,0,0.13333333,-20,0.26000002)"
     clip-path="url(#clipPath57)" />
  <polygon
     class="st4"
     points="550,140 533.3,140 533.3,127.4 550,127.4 "
     id="polygon14"
     transform="matrix(0.13333333,0,0,0.13333333,-20,0.26000002)"
     clip-path="url(#clipPath56)" />
  <polygon
     class="st4"
     points="366.7,140 350,140 350,127.4 366.7,127.4 "
     id="polygon15"
     transform="matrix(0.13333333,0,0,0.13333333,-20,0.26000002)"
     clip-path="url(#clipPath55)" />
  <polygon
     class="st4"
     points="375,127.4 358.4,127.4 358.4,114.9 375,114.9 "
     id="polygon16"
     transform="matrix(0.13333333,0,0,0.13333333,-20,0.26000002)"
     clip-path="url(#clipPath54)" />
  <polygon
     class="st4"
     points="400,140 366.7,140 366.7,127.4 400,127.4 "
     id="polygon17"
     transform="matrix(0.13333333,0,0,0.13333333,-20,0.26000002)"
     clip-path="url(#clipPath53)" />
  <polygon
     class="st4"
     points="408.4,127.4 391.7,127.4 391.7,114.9 408.4,114.9 "
     id="polygon18"
     transform="matrix(0.13333333,0,0,0.13333333,-20,0.26000002)"
     clip-path="url(#clipPath52)" />
  <polygon
     class="st4"
     points="441.7,127.4 425,127.4 425,114.9 441.7,114.9 "
     id="polygon19"
     transform="matrix(0.13333333,0,0,0.13333333,-20,0.26000002)"
     clip-path="url(#clipPath51)" />
  <polygon
     class="st4"
     points="475,127.4 458.4,127.4 458.4,114.9 475,114.9 "
     id="polygon20"
     transform="matrix(0.13333333,0,0,0.13333333,-20,0.26000002)"
     clip-path="url(#clipPath50)" />
  <polygon
     class="st4"
     points="508.4,127.4 491.7,127.4 491.7,114.9 508.4,114.9 "
     id="polygon21"
     transform="matrix(0.13333333,0,0,0.13333333,-20,0.26000002)"
     clip-path="url(#clipPath49)" />
  <polygon
     class="st4"
     points="541.7,127.4 525,127.4 525,114.9 541.7,114.9 "
     id="polygon22"
     transform="matrix(0.13333333,0,0,0.13333333,-20,0.26000002)"
     clip-path="url(#clipPath48)" />
  <path
     class="st5"
     d="M 400,98.5 V 271 c 0,21 -14.1,36.4 -33.5,36.4 h -43.7 c -14.3,0 -21.5,11 -22.9,19.8 -1.3,-8.8 -8.6,-19.8 -22.9,-19.8 H 233.4 C 214,307.4 199.9,292.1 199.9,271 V 98.5 Z"
     id="path22"
     clip-path="url(#clipPath47)"
     transform="matrix(0.13333333,0,0,0.13333333,0,0.26000002)" />
  <path
     class="st4"
     d="m 225.3,170.6 c 3.7,-4.7 10.5,-5.6 15.2,-1.9 4.7,3.7 5.6,10.5 1.9,15.2 -3.7,4.7 -10.5,5.6 -15.2,1.9 -4.7,-3.7 -5.6,-10.5 -1.9,-15.2 z m -2.4,20.6 c 7.7,6 18.8,4.7 24.8,-3 6,-7.7 4.7,-18.8 -3,-24.8 -7.7,-6 -18.8,-4.7 -24.8,3 -6,7.7 -4.7,18.8 3,24.8 z"
     id="path23"
     clip-path="url(#clipPath46)"
     transform="matrix(0.13333333,0,0,0.13333333,0,0.26000002)" />
  <path
     class="st4"
     d="m 325.3,297.2 c -1.5,-1.1 -2.5,-2.7 -2.8,-4.6 4.1,0.3 9,2.3 17.3,1.7 11,-0.9 13.2,-4.4 18.8,-8.5 4,-2.9 8.2,-2.8 12,-1.7 -2.4,-3.5 -2.9,-8 -1.3,-12 2.6,-6.5 5.5,-9.4 3.6,-20.3 -1.4,-8.2 -4.6,-12.5 -5.8,-16.4 1.8,-0.2 3.7,0.4 5.1,1.6 -0.7,-2.1 -6.6,-10.7 -11.5,-13.9 1.4,3.5 -0.8,14.3 0.4,17.5 1.5,-2 2.5,-3.8 3.8,-4.3 0.7,1.7 4.6,14.4 0.8,20.4 -3.9,6.2 -11.1,7 -19.3,1.6 -6.3,-4.2 -77.2,-56.6 -91.1,-67.3 2.5,-4.9 1.1,-11 -3.3,-14.3 -5.1,-3.9 -12.4,-2.8 -16.3,2.3 -3.8,5 -2.9,12.1 2,16 4.3,3.5 10.5,3.4 14.7,-0.2 13.8,10.9 81.7,67 87.3,72.2 7.3,6.7 8.2,13.8 3.1,19.1 -5.1,5.3 -18.2,4.5 -20,4.1 0.1,-1.4 1.6,-2.8 3.2,-4.7 -3.4,-0.4 -13.4,4.3 -17,3.8 4.2,4 14,7.6 16.3,7.9 z M 250.6,190.3 c -2.3,3.2 -6.8,4 -10,1.7 -3.2,-2.3 -4,-6.8 -1.7,-10 2.3,-3.2 6.8,-4 10,-1.7 l 0.4,0.4 c 2.9,2.4 3.4,6.6 1.3,9.6 z"
     id="path24"
     clip-path="url(#clipPath45)"
     transform="matrix(0.13333333,0,0,0.13333333,0,0.26000002)" />
  <path
     class="st4"
     d="m 233.5,188 c -6,-0.2 -10.6,-5.2 -10.4,-11.1 0.2,-6 5.2,-10.6 11.1,-10.4 6,0.2 10.6,5.2 10.4,11.1 -0.1,2.3 -0.9,4.5 -2.3,6.3 -1.2,1.5 -2.8,2.7 -4.6,3.4 0.3,1.7 1.3,3.2 2.7,4.3 0.6,0.5 1.3,0.9 2,1.1 2.1,-1.1 3.9,-2.6 5.3,-4.5 6,-7.7 4.7,-18.8 -3,-24.8 -7.7,-6 -18.8,-4.7 -24.8,3 -6,7.7 -4.7,18.8 3,24.8 4,3.2 9.3,4.4 14.3,3.4 -1.9,-1.7 -3.2,-4 -3.7,-6.6 z"
     id="path25"
     clip-path="url(#clipPath44)"
     transform="matrix(0.13333333,0,0,0.13333333,0,0.26000002)" />
  <path
     class="st4"
     d="m 272.4,208 c -8.9,10 -26.2,22.1 -26.2,22.1 l -3.8,-5.4 43.4,-48.4 5.7,3.1 c 0.1,0.1 -10.1,18.6 -19.1,28.6 z"
     id="path26"
     clip-path="url(#clipPath43)"
     transform="matrix(0.13333333,0,0,0.13333333,0,0.26000002)" />
  <line
     class="st6"
     x1="281.20001"
     x2="288.29999"
     y1="181.5"
     y2="185.3"
     id="line26"
     clip-path="url(#clipPath42)"
     transform="matrix(0.13333333,0,0,0.13333333,0,0.26000002)" />
  <line
     class="st6"
     x1="279.5"
     x2="286.89999"
     y1="183.39999"
     y2="187.39999"
     id="line27"
     clip-path="url(#clipPath41)"
     transform="matrix(0.13333333,0,0,0.13333333,0,0.26000002)" />
  <line
     class="st6"
     x1="277.79999"
     x2="285.60001"
     y1="185.3"
     y2="189.60001"
     id="line28"
     clip-path="url(#clipPath40)"
     transform="matrix(0.13333333,0,0,0.13333333,0,0.26000002)" />
  <line
     class="st6"
     x1="247"
     x2="251.5"
     y1="219.7"
     y2="226.3"
     id="line29"
     clip-path="url(#clipPath39)"
     transform="matrix(0.13333333,0,0,0.13333333,0,0.26000002)" />
  <line
     class="st6"
     x1="248.70001"
     x2="253.5"
     y1="217.8"
     y2="224.7"
     id="line30"
     clip-path="url(#clipPath38)"
     transform="matrix(0.13333333,0,0,0.13333333,0,0.26000002)" />
  <line
     class="st6"
     x1="250.5"
     x2="255.60001"
     y1="215.89999"
     y2="223.2"
     id="line31"
     clip-path="url(#clipPath37)"
     transform="matrix(0.13333333,0,0,0.13333333,0,0.26000002)" />
  <path
     class="st7"
     d="m 233.4,284.5 2.8,-2.3 -2,-2.5 -2.8,2.2 c -2.3,-1.4 -5.2,-0.7 -6.6,1.6 -1.4,2.3 -0.7,5.2 1.6,6.6 2.3,1.4 5.2,0.7 6.6,-1.6 0.6,-1.2 0.8,-2.7 0.4,-4 z"
     id="path31"
     clip-path="url(#clipPath36)"
     transform="matrix(0.13333333,0,0,0.13333333,0,0.26000002)" />
  <path
     class="st7"
     d="m 376.4,196.6 c -0.7,-2.1 -1.9,-4.1 -3.4,-5.7 1.7,-0.5 3.2,-1.4 4.6,-2.5 6.6,-5.2 7.7,-14.7 2.5,-21.3 -5.2,-6.6 -14.7,-7.7 -21.3,-2.5 -1.3,1.1 -2.5,2.4 -3.4,3.9 -1.2,-1.9 -2.8,-3.4 -4.7,-4.6 -7.1,-4.5 -16.4,-2.4 -20.9,4.7 -4.5,7.1 -2.4,16.4 4.7,20.9 2.6,1.7 5.7,2.5 8.8,2.4 l -2.8,2.2 -4,0.7 -0.1,2.5 -1.5,1.2 c -1,-0.6 -2.2,-0.6 -3.2,-0.1 -0.8,0.8 -1,2 -0.6,3 l -99,77.7 4.2,5.4 99.1,-77.7 c 1.2,0.6 2.4,0.7 3.1,0.1 0.8,-0.8 1.1,-2 0.6,-3 l 1.6,-1.2 2.5,0.5 1.7,-3.8 2.7,-2.1 c -2.2,8.1 2.5,16.4 10.5,18.7 8.1,2.2 16.4,-2.5 18.6,-10.5 0.7,-3 0.7,-6.1 -0.3,-8.9 z m -11.1,14.6 c -5.5,1.8 -11.3,-1.2 -13.1,-6.6 -0.9,-2.6 -0.7,-5.5 0.6,-7.9 l 0.6,-1.2 -2.4,-3.2 3.4,-2.7 c 2.3,1.6 5.4,1 6.9,-1.3 1.3,-1.9 1.1,-4.4 -0.3,-6.1 -1.7,-2.2 -4.9,-2.6 -7.1,-0.9 -1.6,1.3 -2.3,3.5 -1.7,5.5 l -3.4,2.7 -2.5,-3.1 c -0.4,0.1 -0.9,0.3 -1.4,0.4 -2.7,0.6 -5.5,0.1 -7.8,-1.4 -2.3,-1.5 -4,-3.8 -4.6,-6.5 -1.5,-5.6 1.8,-11.3 7.3,-12.8 5.6,-1.5 11.3,1.8 12.8,7.3 0,0.1 0.1,0.3 0.1,0.4 0,0.1 0.1,0.3 0.1,0.4 0.2,0.7 0.3,1.4 0.3,2.1 l 4.7,-0.1 c 0.1,-5.8 4.9,-10.3 10.6,-10.2 5.7,0.1 10.3,4.9 10.2,10.6 -0.1,5.8 -4.9,10.3 -10.6,10.2 -0.7,0 -1.4,-0.1 -2.1,-0.3 l -1.2,4.6 c 0.7,0.2 1.3,0.4 2,0.7 5.2,2.6 7.3,8.8 4.7,14 -1.2,2.8 -3.4,4.7 -6.1,5.4 z"
     id="path32"
     clip-path="url(#clipPath35)"
     transform="matrix(0.13333333,0,0,0.13333333,0,0.26000002)" />
  <polygon
     class="st7"
     points="384.6,270.8 387.6,274.7 395,268.9 392,265 "
     id="polygon32"
     transform="matrix(0.13333333,0,0,0.13333333,-20,0.26000002)"
     clip-path="url(#clipPath34)" />
  <polygon
     class="st7"
     points="376.8,257.5 382.1,264.4 378.1,267.4 372.8,260.7 368.7,263.9 374.4,271.1 377.8,272.3 377.5,275 378.5,275.6 398.1,260.2 397.8,259.1 395,258.8 394.7,255.1 389.1,248 385,251.2 390.2,258 386.3,261.1 381,254.3 "
     id="polygon33"
     transform="matrix(0.13333333,0,0,0.13333333,-20,0.26000002)"
     clip-path="url(#clipPath33)" />
  <metadata
     id="metadata1">
    <rdf:RDF>
      <cc:Work
         rdf:about="">
        <dc:title>  Flag_of_Leningrad_Oblast</dc:title>
      </cc:Work>
    </rdf:RDF>
  </metadata>
</svg>
