<?xml version="1.0" encoding="UTF-8" standalone="no"?>
<svg
   width="80"
   height="80"
   version="1.1"
   id="svg38"
   sodipodi:docname="49_Magadan_Oblast.svg"
   inkscape:version="1.3.2 (091e20e, 2023-11-25, custom)"
   xmlns:inkscape="http://www.inkscape.org/namespaces/inkscape"
   xmlns:sodipodi="http://sodipodi.sourceforge.net/DTD/sodipodi-0.dtd"
   xmlns:xlink="http://www.w3.org/1999/xlink"
   xmlns="http://www.w3.org/2000/svg"
   xmlns:svg="http://www.w3.org/2000/svg">
  <sodipodi:namedview
     id="namedview38"
     pagecolor="#505050"
     bordercolor="#ffffff"
     borderopacity="1"
     inkscape:showpageshadow="0"
     inkscape:pageopacity="0"
     inkscape:pagecheckerboard="1"
     inkscape:deskcolor="#505050"
     inkscape:zoom="1.9683333"
     inkscape:cx="450.38104"
     inkscape:cy="300.00001"
     inkscape:window-width="2560"
     inkscape:window-height="1377"
     inkscape:window-x="1912"
     inkscape:window-y="-8"
     inkscape:window-maximized="1"
     inkscape:current-layer="svg38" />
  <defs
     id="defs6">
    <linearGradient
       id="b">
      <stop
         stop-color="#c0c0c0"
         offset="0"
         id="stop1" />
      <stop
         stop-color="#f7f7f7"
         offset=".5"
         id="stop2" />
      <stop
         stop-color="#c0c0c0"
         offset="1"
         id="stop3" />
    </linearGradient>
    <linearGradient
       id="a">
      <stop
         stop-color="#d4af38"
         offset="0"
         id="stop4" />
      <stop
         stop-color="#ffd90d"
         offset=".5"
         id="stop5" />
      <stop
         stop-color="#d4af38"
         offset="1"
         id="stop6" />
    </linearGradient>
    <linearGradient
       id="n"
       x1="25.719"
       x2="104.84"
       y1="251.69"
       y2="373.66"
       gradientTransform="matrix(1.3268,0,0,1.3268,-745.66,-302.38)"
       gradientUnits="userSpaceOnUse"
       xlink:href="#b" />
    <linearGradient
       id="m"
       x1="39.346001"
       x2="132.14999"
       y1="221.86"
       y2="174"
       gradientTransform="matrix(1.3268,0,0,1.3268,-745.66,-302.38)"
       gradientUnits="userSpaceOnUse"
       xlink:href="#b" />
    <linearGradient
       id="l"
       x1="228.88"
       x2="314.67999"
       y1="169.16"
       y2="227.5"
       gradientTransform="matrix(1.3268,0,0,1.3268,-745.66,-302.38)"
       gradientUnits="userSpaceOnUse"
       xlink:href="#a" />
    <linearGradient
       id="k"
       x1="-759.19"
       x2="-751.79999"
       y1="108.78"
       y2="108.78"
       gradientTransform="matrix(1.3268,0,0,1.3268,1493.6,94.745)"
       gradientUnits="userSpaceOnUse"
       xlink:href="#b" />
    <linearGradient
       id="j"
       x1="-124.18"
       x2="-116.78"
       y1="761.95001"
       y2="761.95001"
       gradientTransform="matrix(1.3268,0,0,1.3268,-59.611,-1495.4)"
       gradientUnits="userSpaceOnUse"
       xlink:href="#b" />
    <linearGradient
       id="i"
       x1="479.12"
       x2="509.03"
       y1="557.53998"
       y2="590.97998"
       gradientTransform="matrix(1.3268,0,0,1.3268,-1111.4,-1002.3)"
       gradientUnits="userSpaceOnUse"
       xlink:href="#a" />
    <linearGradient
       id="h"
       x1="432.54999"
       x2="476.10999"
       y1="600.5"
       y2="600.5"
       gradientTransform="matrix(1.3268,0,0,1.3268,-1111.4,-1002.3)"
       gradientUnits="userSpaceOnUse"
       xlink:href="#b" />
    <linearGradient
       id="g"
       x1="390.13"
       x2="450.85999"
       y1="608.51001"
       y2="552.53003"
       gradientTransform="matrix(1.3268,0,0,1.3268,-1111.4,-1002.3)"
       gradientUnits="userSpaceOnUse"
       xlink:href="#a" />
    <linearGradient
       id="f"
       x1="456.64001"
       x2="506.17999"
       y1="616.69"
       y2="616.69"
       gradientTransform="matrix(1.3268,0,0,1.3268,-1113.1,-1002.3)"
       gradientUnits="userSpaceOnUse"
       xlink:href="#a" />
    <linearGradient
       id="e"
       x1="405.04001"
       x2="454.57999"
       y1="616.57001"
       y2="616.57001"
       gradientTransform="matrix(1.3268,0,0,1.3268,-1113.1,-1002.3)"
       gradientUnits="userSpaceOnUse"
       xlink:href="#a" />
    <linearGradient
       id="d"
       x1="228.88"
       x2="314.67999"
       y1="169.16"
       y2="227.5"
       gradientTransform="matrix(1.3268,0,0,1.3268,-745.66,-204.28)"
       gradientUnits="userSpaceOnUse"
       xlink:href="#a" />
    <linearGradient
       id="c"
       x1="228.88"
       x2="314.67999"
       y1="169.16"
       y2="227.5"
       gradientTransform="matrix(1.3268,0,0,1.3268,-745.66,-106.17)"
       gradientUnits="userSpaceOnUse"
       xlink:href="#a" />
    <clipPath
       clipPathUnits="userSpaceOnUse"
       id="clipPath38">
      <rect
         style="opacity:0.2;fill:#296912;stroke-width:2"
         id="rect39"
         width="600"
         height="600"
         x="-199.45"
         y="-389.47" />
    </clipPath>
  </defs>
  <g
     transform="matrix(0.13333333,0,0,0.13333333,26.593336,51.929333)"
     id="g38"
     clip-path="url(#clipPath38)">
    <rect
       transform="translate(-199.45,-389.47)"
       width="900"
       height="600"
       fill="#c42730"
       id="rect6"
       x="0"
       y="0" />
    <path
       transform="translate(-199.45,-389.47)"
       d="M 92.688,450 C 64.319,461.641 26.81,474.404 0,466.406 v 133.59 h 900 v -143.06 c -31.312,9.7565 -63.019,18.085 -103.81,-6.9375 -44.439,17.904 -86.394,29.48 -112.41,0 -38.401,14.422 -77.067,24.961 -118.09,0 -38.088,15.629 -76.288,27.64 -115.69,0 -39.364,10.64 -70.024,31.134 -120.78,0 -34.54,16.844 -89.956,29.48 -115.97,0 -38.401,14.422 -77.415,34.86 -120.56,0 z"
       fill="#2e418a"
       id="path6" />
    <path
       transform="translate(-199.45,-389.47)"
       d="M 94.812,534.19 C 65.694,546.138 26.921,559.259 0,549.909 v 20.844 c 24.291,0.51542 52.953,-9.5649 75.719,-18.906 43.148,34.86 82.162,14.422 120.56,0 26.012,29.48 81.429,16.844 115.97,0 50.757,31.134 81.417,10.64 120.78,0 39.399,27.64 77.599,15.629 115.69,0 41.026,24.961 79.693,14.422 118.09,0 26.012,29.48 67.967,17.904 112.41,0 48.153,29.537 83.655,12.618 120.78,1.7188 v -11.781 c -30.626,9.4568 -61.816,16.863 -101.69,-7.5938 -44.439,17.904 -86.394,29.48 -112.41,0 -38.401,14.422 -77.067,24.961 -118.09,0 -38.088,15.629 -76.288,27.64 -115.69,0 -39.364,10.64 -70.024,31.134 -120.78,0 -34.54,16.844 -89.956,29.48 -115.97,0 -38.401,14.422 -77.415,34.86 -120.56,0 z m -2.125,-55.188 c -28.369,11.641 -65.878,24.404 -92.688,16.406 v 20.188 c 23.824,-0.0877 51.489,-9.8674 73.594,-18.938 43.148,34.86 82.162,14.422 120.56,0 26.012,29.48 81.429,16.844 115.97,0 50.757,31.134 81.417,10.64 120.78,0 39.399,27.64 77.599,15.629 115.69,0 41.026,24.961 79.693,14.422 118.09,0 26.012,29.48 67.967,17.904 112.41,0 49.076,30.103 84.999,11.947 122.91,1.0938 v -11.812 c -31.312,9.7565 -63.019,18.085 -103.81,-6.9375 -44.439,17.904 -86.394,29.48 -112.41,0 -38.401,14.422 -77.067,24.961 -118.09,0 -38.088,15.629 -76.288,27.64 -115.69,0 -39.364,10.64 -70.024,31.134 -120.78,0 -34.54,16.844 -89.956,29.48 -115.97,0 -38.401,14.422 -77.415,34.86 -120.56,0 z"
       fill="#ffffff"
       id="path7" />
    <g
       transform="matrix(0.4174,0,0,0.4174,313.34597,-214.87)"
       id="g37">
      <path
         transform="translate(-749.39,-305.78)"
         d="M 469.22,6.8125 H 12.34 l 228.44,263.78 z"
         fill="#c42730"
         id="path8" />
      <path
         transform="translate(-749.39,-305.78)"
         d="m 245.25,573.03 c 2.6605,-4.6136 5.8511,-8.8476 10,-12.375 9.4205,-8.0093 23.007,-12.531 42.562,-12.531 h 150.22 c 10.632,0 17.205,-1.3123 20.938,-4.7188 3.7329,-3.4065 5.75,-9.7743 5.75,-21.969 v -507.19 l -229.47,264.91 v 293.88 z"
         fill="#183883"
         id="path9" />
      <path
         transform="translate(-749.39,-305.78)"
         d="m 6.8125,14.219 v 507.22 c 0,12.196 2.0589,18.565 5.7812,21.969 3.7223,3.4042 10.243,4.7188 20.875,4.7188 h 150.22 c 19.555,0 33.142,4.522 42.562,12.531 4.1308,3.512 7.3145,7.723 9.9688,12.312 l 0.0312,-293.84 -229.44,-264.91 z"
         fill="#0093dd"
         id="path10" />
      <path
         transform="translate(-749.39,-305.78)"
         d="m 6.8125,14.219 229.44,264.91 -0.0312,293.84 c 1.7212,2.9763 3.2553,6.0756 4.5312,9.375 1.2674,-3.277 2.7938,-6.3538 4.5,-9.3125 v -293.88 l 229.47,-264.91 V 6.804 h -5.5 L 240.7825,270.584 12.3425,6.804 H 6.8113 v 7.4062 z"
         fill="#d4af38"
         id="path11" />
      <path
         d="m -742.55,-305.33 -6.8414,5.8877 236.26,272.78 -0.0414,314.08 h 9.0389 v -314.04 l 236.3,-272.83 -6.8414,-5.8877 -233.93,270.13 -233.93,-270.13 z"
         fill="#ffffff"
         id="path12" />
      <path
         d="m -749.38,-305.78 v 521.44 c 0,12.943 2.0978,21.63 7.9609,26.992 5.8631,5.362 14.352,6.5097 25.5,6.5097 h 150.22 c 18.52,0 30.199,4.1484 38.146,10.905 7.947,6.7566 12.438,16.421 15.632,28.236 l 3.2756,12.149 3.2756,-12.149 c 3.1936,-11.815 7.6848,-21.48 15.632,-28.236 7.9472,-6.756 19.626,-10.905 38.146,-10.905 h 150.22 c 11.148,0 19.626,-1.1499 25.5,-6.5097 5.874,-5.3598 8.0024,-14.048 8.0024,-26.992 v -521.44 z m 6.7999,6.7999 h 467.91 v 514.64 c 0,12.194 -2.0305,18.569 -5.7634,21.975 -3.7329,3.4065 -10.307,4.7268 -20.939,4.7268 h -150.22 c -19.555,0 -33.12,4.5125 -42.541,12.522 -6.8095,5.7895 -11.268,13.298 -14.512,21.685 -3.2436,-8.3871 -7.7025,-15.896 -14.512,-21.685 -9.4205,-8.0093 -22.986,-12.522 -42.541,-12.522 h -150.22 c -10.632,0 -17.175,-1.3226 -20.897,-4.7268 -3.7223,-3.4042 -5.7633,-9.7791 -5.7633,-21.975 z"
         fill="#d4af38"
         id="path13" />
      <path
         d="m -568.08,50.094 -0.99511,1.078 -2.5707,24.588 -21.353,9.1633 h 20.4 l -1.2854,12.563 -22.224,8.4585 21.312,-6e-5 -1.3683,12.978 -24.919,8.0023 24.09,7e-5 -3.8975,37.462 -5.639,22.162 h 3.2756 l 15.175,-11.402 15.134,11.402 h 3.317 l -5.5146,-22.162 -4.0219,-37.462 24.09,-6e-5 -24.919,-8.0023 -1.3683,-12.978 21.353,7e-5 -22.266,-8.4585 -1.2854,-12.563 h 20.441 l -21.395,-9.1632 -2.5707,-24.588 z m 0,10.615 0.70487,6.9243 h -1.4097 z m -0.91218,8.9145 h 1.8244 l 0.58048,5.3487 h -2.9853 z m 0.91218,6.6341 1.6585,0.66341 0.70487,6.5511 h -4.7268 l 0.70487,-6.5511 z m -3.7731,1.4927 -0.62195,6.2194 h -15.134 z m 7.5462,0 15.797,6.2194 h -15.175 z m -5.4731,7.7121 h 3.4 l -1.7,2.7366 z m -1.078,1.9902 1.617,2.6536 -2.2805,3.6902 z m 5.556,0 0.66341,6.3438 -2.2805,-3.6902 z m -2.778,4.5195 2.7366,4.4365 -2.7366,-0.53902 -2.7366,0.53902 z m 0,5.7219 3.9804,0.91218 0.6634,6.4268 h -9.2877 l 0.6634,-6.4268 z m -6.0121,1.6585 -0.62194,5.6804 h -15.673 z m 12.024,0 16.295,5.6804 h -15.673 z m -9.9511,6.5926 h 7.878 l -3.939,4.2707 z m -0.99511,1.8658 3.6073,3.856 -4.478,4.8926 z m 9.8682,0 0.41463,4.1048 0.45609,4.6438 -4.478,-4.8926 z m -4.9341,5.3487 4.3122,4.6438 -4.3122,-0.91219 -4.3121,0.91219 z m 0,5.017 6.178,1.8244 0.66341,6.095 h -13.683 l 0.66341,-6.095 z m -8.2511,2.4463 -0.58048,5.4731 h -17.912 z m 16.502,0 18.492,5.4731 h -17.912 z m -15.175,6.3024 h 13.849 l 0.66341,6.5097 -7.5877,8.4584 -7.5877,-8.4999 z m -0.95365,9.0804 6.5926,7.3389 -8.334,9.2877 z m 15.756,0.12432 1.7,16.461 -8.2097,-9.2048 z m -7.8365,8.7072 9.9096,11.071 0.87072,8.1682 h -21.602 l 0.82926,-8.0438 z m -8.8731,21.229 h 17.663 l -8.8316,6.6341 z m -2.4878,0.58048 9.5365,7.1731 -14.139,10.78 z m 22.639,0 4.6024,17.953 -14.139,-10.78 z"
         fill="#ffffff"
         id="path14" />
      <path
         d="m -711.54,31.56 v 36.695 l 84.46,125.14 h 20.524 v -8.8731 h -9.5779 l -66.589,-98.64 15.673,5.8048 60.494,92.836 5.8048,8.8731 h 12.19 v -7.9194 h -6.3853 l -58.255,-88.648 18.658,6.9243 54.068,89.643 h 10.49 v -6.9658 h -5.0999 l -50.751,-79.443 11.568,4.2707 49.963,82.138 h 6.7585 v -6.1365 h -6.3853 l -45.692,-79.153 v -21.105 l -101.92,-55.436 z"
         fill="url(#n)"
         id="path15"
         style="fill:url(#n)" />
      <path
         d="M -614.26,111.25 V 88.1 l -12.941,-6.8306 v 25.182 z m -40.431,-44.49 v 29.5 l 20.168,7.4777 v -26.332 z m -37.151,-19.609 v 35.334 l 24.797,9.1937 v -31.44 z"
         fill="#cfcfcd"
         id="path16" />
      <path
         d="m -696.9,39.521 v 4.9756 l -1.6171,-0.87072 h -3.6487 v 24.422 l 80.77,116.47 h 5.2658 l -75.711,-112.12 v -19.612 l 5.7634,3.0268 v -5.5975 l 23.509,12.397 v 22.473 l 65.304,100.67 2.3219,-0.29024 -58.255,-88.648 6.6341,2.4463 -8.1267,-10.822 v -16.046 l 1.4927,0.82926 v -5.639 l 21.501,11.306 v 25.888 l 53.546,81.638 h 3.0683 l -50.751,-79.443 5.4731,2.0317 -6.8414,-9.6194 v -12.605 h 1.3683 v -4.7682 l 13.227,6.9541 v 17.477 l 47.433,80.802 h 1.2439 l -45.692,-79.153 v -21.105 z"
         fill="#666666"
         id="path17" />
      <path
         d="m -711.54,68.255 v 125.14 h 84.46 z"
         fill="#c1c1c1"
         id="path18" />
      <path
         d="m -652.51,-40.896 10.173,-5.1964 h 13.784 l 41.036,-23.692 c 0,0 15.914,-5.4357 19.445,0 2.4177,3.7224 -5.4142,12.165 -5.4142,12.165 l -44.078,25.449 -20.256,35.085 -17.281,9.9772 10.299,-28.658 -24.931,13.716 c 0,0 -6.5658,3.5407 -10.587,2.8705 -9.8918,-1.6486 -14.719,-13.154 -26.219,-21.026 0,0 -4.9723,5.3591 -9.2982,7.9579 0,0 0.25017,-7.5894 4.3559,-10.89 l -7.3716,-2.4949 c 0,0 5.6124,-5.7722 14.576,-4.5235 9.1234,1.271 21.455,15.362 33.816,8.1912 l 25.994,-15.078 c -3.6531,0.33651 -5.6463,-2.0936 -8.0417,-3.8533 z"
         fill="url(#m)"
         id="path19"
         style="fill:url(#m)" />
      <path
         d="m -432.03,-79.588 c 25.651,3.336 30.779,9.7524 46.236,17.08 7.0923,-0.86357 16.08,-0.31508 21.277,2.8481 -0.7002,3.8558 -0.98436,8.0087 -4.691,9.7171 7.7066,7.5391 15.675,14.751 23.12,22.617 1.3751,1.4529 -1.7033,2.3629 -3.3507,2.8481 4.1181,2.8764 8.8366,5.3525 11.727,9.0469 18.932,1.4241 24.46,7.0365 24.46,7.0365 -9.0099,1.684 -20.061,8.4336 -20.774,21.78 -2.8225,-1.5275 -8.235,-9.5302 -16.418,-24.46 -2.9584,0.88524 -5.265,1.7867 -7.4553,0.08372 -7.3421,-5.7084 -15.463,-10.962 -24.041,-15.33 0,0 -2.4503,4.1713 -3.1019,8.3768 -0.70979,4.5814 -5.6472,-4.4317 -6.9503,-11.895 -39.93,-19.182 -49.071,-35.915 -50.763,-43.811 -1.4216,-6.6341 6.0387,-6.5487 10.726,-5.9391 z"
         fill="url(#l)"
         id="path20"
         style="fill:url(#l)" />
      <path
         d="m -442.53,-78.026 a 0.59713,0.59713 0 0 0 -0.12432,1.1195 c 2.8521,1.5338 5.1091,4.3258 5.8877,8.2926 a 0.59713,0.59713 0 1 0 1.161,-0.20732 c -0.84215,-4.2903 -3.3052,-7.4622 -6.4682,-9.1633 a 0.59713,0.59713 0 0 0 -0.45609,-0.0414 z"
         id="path21" />
      <path
         d="m -429.67,-76.783 c -0.89516,0 -1.6585,0.76336 -1.6585,1.6585 0,0.89516 0.76336,1.6171 1.6585,1.6171 0.89514,0 1.617,-0.72189 1.617,-1.6171 0,-0.89516 -0.72189,-1.6585 -1.617,-1.6585 z"
         id="path22" />
      <rect
         transform="matrix(-0.69875,-0.71537,-0.71537,0.69875,0,0)"
         x="486.63"
         y="165.03999"
         width="9.1538"
         height="148.07001"
         fill="url(#k)"
         id="rect22"
         style="fill:url(#k)" />
      <rect
         transform="matrix(0.69875,-0.71537,0.71537,0.69875,0,0)"
         x="-224.03999"
         y="-555.28998"
         width="9.1539001"
         height="141.67"
         fill="url(#j)"
         id="rect23"
         style="fill:url(#j)" />
      <path
         d="m -481.56,-256.83 39.535,40.476 c 1.8078,0.48439 4.7755,0.76126 5.9889,-1.794 l -3.7946,-23.333 -28.027,-28.693 z"
         fill="url(#i)"
         id="path23"
         style="fill:url(#i)" />
      <path
         d="m -533.89,-215.29 h 50.541 l 7.2662,19.538 h -65.073 z"
         fill="url(#h)"
         id="path24"
         style="fill:url(#h)" />
      <path
         d="m -550.69,-242.37 c 0.51613,3.8678 3.3003,8.0887 3.3003,8.0887 l -6.3962,6.5484 c 0.0299,0.0299 -2.7665,-1.753 -11.275,-4.7873 -9.7882,-3.4906 -25.028,36.654 -28.742,37.623 -1.9377,-6.6203 11.738,-38.553 25.835,-51.671 14.452,-13.448 38.915,-26.481 54.739,-22.606 -12.814,8.5614 -38.193,21.319 -37.461,26.804 z"
         fill="url(#g)"
         id="path25"
         style="fill:url(#g)" />
      <path
         d="m -499.66,-193.81 h 50.541 l 7.2662,19.538 h -65.073 z"
         fill="url(#f)"
         id="path26"
         style="fill:url(#f)" />
      <path
         d="m -568.13,-193.97 h 50.541 l 7.2662,19.538 h -65.073 z"
         fill="url(#e)"
         id="path27"
         style="fill:url(#e)" />
      <path
         d="m -532.38,-63.971 17.041,23.717 h 6.717 l -23.592,-23.592 -0.16585,-0.12432 z m 23.758,23.717 23.551,-23.592 -23.551,16.875 z m 0,0 23.717,23.717 -17,-23.717 z m 0,0 -23.592,23.592 23.592,-16.875 z"
         fill="#d4af38"
         id="path28" />
      <path
         d="m -532.36,-16.514 23.737,-23.737 -6.716,-0.0027 z m 47.475,-0.0053 -23.737,-23.737 -0.003,6.716 z m -0.005,-47.475 -23.737,23.737 6.716,0.0027 z m -47.472,0.0027 23.737,23.737 0.003,-6.716 z"
         fill="#ffd700"
         id="path29" />
      <path
         d="m -508.62,-87.397 -6.6755,40.468 6.6755,6.6755 v -47.143 z m 0,47.143 h 47.143 l -40.468,-6.6755 -6.6755,6.6755 z m 0,0 V 6.889 l 6.6755,-40.468 -6.6755,-6.6755 z m 0,0 h -47.143 l 40.468,6.6755 6.6755,-6.6755 z"
         fill="#d4af38"
         id="path30" />
      <path
         d="m -555.75,-40.254 h 47.133 l -6.6656,-6.6656 z m 47.133,47.133 v -47.133 l -6.6656,6.6656 z m 47.133,-47.133 h -47.133 l 6.6656,6.6656 z m -47.133,-47.133 v 47.133 l 6.6656,-6.6656 z"
         fill="#ffd700"
         id="path31" />
      <path
         d="m -432.03,18.518 c 25.651,3.336 30.779,9.7524 46.236,17.08 7.0923,-0.86357 16.08,-0.31508 21.277,2.8481 -0.7002,3.8558 -0.98436,8.0087 -4.691,9.7171 7.7066,7.5391 15.675,14.751 23.12,22.617 1.3751,1.4529 -1.7033,2.3629 -3.3507,2.8481 4.1181,2.8764 8.8366,5.3525 11.727,9.0469 18.932,1.4241 24.46,7.0365 24.46,7.0365 -9.0099,1.684 -20.061,8.4336 -20.774,21.78 -2.8225,-1.5275 -8.235,-9.5302 -16.418,-24.46 -2.9584,0.88524 -5.265,1.7867 -7.4553,0.08372 -7.3421,-5.7084 -15.463,-10.962 -24.041,-15.33 0,0 -2.4503,4.1713 -3.1019,8.3768 -0.70979,4.5814 -5.6472,-4.4317 -6.9503,-11.895 -39.93,-19.182 -49.071,-35.915 -50.763,-43.811 -1.4216,-6.6341 6.0387,-6.5487 10.726,-5.9391 z"
         fill="url(#d)"
         id="path32"
         style="fill:url(#d)" />
      <path
         d="m -442.53,20.08 a 0.59713,0.59713 0 0 0 -0.12432,1.1195 c 2.8521,1.5338 5.1091,4.3258 5.8877,8.2926 a 0.59713,0.59713 0 1 0 1.161,-0.20732 c -0.84215,-4.2903 -3.3052,-7.4622 -6.4682,-9.1633 a 0.59713,0.59713 0 0 0 -0.45609,-0.0414 z"
         id="path33" />
      <path
         d="m -429.67,21.324 c -0.89516,0 -1.6585,0.76336 -1.6585,1.6585 0,0.89516 0.76336,1.6171 1.6585,1.6171 0.89514,0 1.617,-0.72189 1.617,-1.6171 0,-0.89516 -0.72189,-1.6585 -1.617,-1.6585 z"
         id="path34" />
      <path
         d="m -432.03,116.62 c 25.651,3.336 30.779,9.7524 46.236,17.08 7.0923,-0.86357 16.08,-0.31508 21.277,2.8481 -0.7002,3.8558 -0.98436,8.0087 -4.691,9.717 7.7066,7.5391 15.675,14.751 23.12,22.617 1.3751,1.4529 -1.7033,2.3629 -3.3507,2.8481 4.1181,2.8764 8.8366,5.3525 11.727,9.0469 18.932,1.424 24.46,7.0365 24.46,7.0365 -9.0099,1.684 -20.061,8.4336 -20.774,21.78 -2.8225,-1.5275 -8.235,-9.5302 -16.418,-24.46 -2.9584,0.88523 -5.265,1.7867 -7.4553,0.0837 -7.3421,-5.7084 -15.463,-10.962 -24.041,-15.33 0,0 -2.4503,4.1713 -3.1019,8.3768 -0.70979,4.5814 -5.6472,-4.4317 -6.9503,-11.895 -39.93,-19.182 -49.071,-35.915 -50.763,-43.811 -1.4216,-6.6341 6.0387,-6.5487 10.726,-5.9391 z"
         fill="url(#c)"
         id="path35"
         style="fill:url(#c)" />
      <path
         d="m -442.53,118.19 a 0.59713,0.59713 0 0 0 -0.12432,1.1195 c 2.8521,1.5338 5.1091,4.3258 5.8877,8.2926 a 0.59713,0.59713 0 1 0 1.161,-0.20732 c -0.84215,-4.2902 -3.3052,-7.4622 -6.4682,-9.1633 a 0.59713,0.59713 0 0 0 -0.45609,-0.0414 z"
         id="path36" />
      <path
         d="m -429.67,119.43 c -0.89516,0 -1.6585,0.76335 -1.6585,1.6585 0,0.89516 0.76336,1.617 1.6585,1.617 0.89514,0 1.617,-0.72189 1.617,-1.617 0,-0.89517 -0.72189,-1.6585 -1.617,-1.6585 z"
         id="path37" />
    </g>
  </g>
</svg>
