<?xml version="1.0" encoding="UTF-8" standalone="no"?>
<svg
   xml:space="preserve"
   width="80"
   height="80"
   viewBox="0 0 80 80"
   version="1.1"
   id="svg2"
   sodipodi:docname="51_Murmansk_Oblast.svg"
   inkscape:version="1.3.2 (091e20e, 2023-11-25, custom)"
   xmlns:inkscape="http://www.inkscape.org/namespaces/inkscape"
   xmlns:sodipodi="http://sodipodi.sourceforge.net/DTD/sodipodi-0.dtd"
   xmlns="http://www.w3.org/2000/svg"
   xmlns:svg="http://www.w3.org/2000/svg"><defs
   id="defs2"><clipPath
     clipPathUnits="userSpaceOnUse"
     id="clipPath3"><rect
       style="opacity:0.2;fill:#296912;stroke-width:2"
       id="rect4"
       width="300"
       height="300"
       x="75"
       y="0" /></clipPath><clipPath
     clipPathUnits="userSpaceOnUse"
     id="clipPath4"><rect
       style="opacity:0.2;fill:#296912;stroke-width:2"
       id="rect5"
       width="300"
       height="300"
       x="75"
       y="0" /></clipPath><clipPath
     clipPathUnits="userSpaceOnUse"
     id="clipPath5"><rect
       style="opacity:0.2;fill:#296912;stroke-width:2"
       id="rect6"
       width="300"
       height="300"
       x="75"
       y="0" /></clipPath></defs><sodipodi:namedview
   id="namedview2"
   pagecolor="#505050"
   bordercolor="#ffffff"
   borderopacity="1"
   inkscape:showpageshadow="0"
   inkscape:pageopacity="0"
   inkscape:pagecheckerboard="1"
   inkscape:deskcolor="#505050"
   inkscape:zoom="3.9366667"
   inkscape:cx="224.93649"
   inkscape:cy="150.25402"
   inkscape:window-width="2560"
   inkscape:window-height="1377"
   inkscape:window-x="1912"
   inkscape:window-y="-8"
   inkscape:window-maximized="1"
   inkscape:current-layer="svg2" />
<rect
   fill="#395c98"
   width="450"
   height="240"
   x="0"
   y="0"
   id="rect1"
   clip-path="url(#clipPath5)"
   transform="matrix(0.26666667,0,0,0.26666667,-20,0)" />
<rect
   fill="#d5312b"
   width="450"
   height="60"
   x="0"
   y="240"
   id="rect2"
   clip-path="url(#clipPath4)"
   transform="matrix(0.26666667,0,0,0.26666667,-20,0)" />
<path
   fill="#edbb32"
   stroke="#000000"
   stroke-width="0.5"
   d="m 108,180 c 12,-20 32,-18 50,-18 22,-32 48,-35 67,-35 19,0 45,3 67,35 18,0 38,-2 50,18 l 33,-52 -35,41 23,-52 -35,46 24,-52 -33,47 19,-53 -30,51 14,-52 -26,50 15,-55 -20,46 11,-54 -19,48 9,-56 -16,51 5,-59 -15,52 2,-58 -12,54 -3,-58 -8,57 -4,-60 -8,58 -8,-60 -8,60 -8,-58 -4,60 -8,-57 -3,58 -12,-54 2,58 -15,-52 5,59 -16,-51 9,56 -19,-48 11,54 -20,-46 15,55 -26,-50 14,52 -30,-51 19,53 -33,-47 24,52 -35,-46 23,52 -35,-41 z"
   id="path2"
   clip-path="url(#clipPath3)"
   transform="matrix(0.26666667,0,0,0.26666667,-20,0)" />
</svg>
