<?xml version="1.0" encoding="UTF-8" standalone="no"?>
<svg
   width="80"
   height="80"
   version="1.1"
   id="svg2"
   sodipodi:docname="55_Omsk_Oblast.svg"
   inkscape:version="1.3.2 (091e20e, 2023-11-25, custom)"
   xmlns:inkscape="http://www.inkscape.org/namespaces/inkscape"
   xmlns:sodipodi="http://sodipodi.sourceforge.net/DTD/sodipodi-0.dtd"
   xmlns="http://www.w3.org/2000/svg"
   xmlns:svg="http://www.w3.org/2000/svg">
  <defs
     id="defs2">
    <clipPath
       clipPathUnits="userSpaceOnUse"
       id="clipPath3">
      <rect
         style="opacity:0.2;fill:#296912;stroke-width:2"
         id="rect4"
         width="300"
         height="300"
         x="0"
         y="0" />
    </clipPath>
    <clipPath
       clipPathUnits="userSpaceOnUse"
       id="clipPath4">
      <rect
         style="opacity:0.2;fill:#296912;stroke-width:2"
         id="rect5"
         width="300"
         height="300"
         x="0"
         y="0" />
    </clipPath>
    <clipPath
       clipPathUnits="userSpaceOnUse"
       id="clipPath5">
      <rect
         style="opacity:0.2;fill:#296912;stroke-width:2"
         id="rect6"
         width="300"
         height="300"
         x="0"
         y="0" />
    </clipPath>
  </defs>
  <sodipodi:namedview
     id="namedview2"
     pagecolor="#505050"
     bordercolor="#ffffff"
     borderopacity="1"
     inkscape:showpageshadow="0"
     inkscape:pageopacity="0"
     inkscape:pagecheckerboard="1"
     inkscape:deskcolor="#505050"
     inkscape:zoom="1.9683334"
     inkscape:cx="190.26249"
     inkscape:cy="123.70872"
     inkscape:window-width="2560"
     inkscape:window-height="1377"
     inkscape:window-x="1912"
     inkscape:window-y="-8"
     inkscape:window-maximized="1"
     inkscape:current-layer="svg2" />
  <rect
     width="450"
     height="300"
     fill="#e00000"
     id="rect1"
     x="-75"
     y="0"
     clip-path="url(#clipPath5)"
     transform="scale(0.26666667)" />
  <rect
     width="150"
     height="300"
     x="75"
     fill="#ffffff"
     id="rect2"
     y="0"
     clip-path="url(#clipPath4)"
     transform="scale(0.26666667)" />
  <path
     fill="#0000ff"
     d="m 125,0 -2,6 -2,6 v 6 c 0,10 8,23 8,33 0,10 -8,23 -8,33 0,10 8,23 8,33 0,10 -8,23 -8,33 0,10 8,23 8,33 0,10 -8,23 -8,33 0,10 8,23 8,33 0,10 -8,23 -8,33 0,4 2,12 4,18 h 50 c -2,-6 -4,-14 -4,-18 0,-10 8,-23 8,-33 0,-10 -8,-23 -8,-33 0,-10 8,-23 8,-33 0,-10 -8,-23 -8,-33 0,-10 8,-23 8,-33 0,-10 -8,-23 -8,-33 0,-10 8,-23 8,-33 0,-10 -8,-23 -8,-33 0,-6 2,-12 4,-18 z"
     id="path2"
     clip-path="url(#clipPath3)"
     transform="scale(0.26666667)" />
</svg>
