<?xml version="1.0" encoding="UTF-8" standalone="no"?>
<svg
   xml:space="preserve"
   width="80"
   height="80"
   viewBox="0 0 80 80"
   version="1.1"
   id="svg1"
   sodipodi:docname="65_Sakhalin_Oblast.svg"
   inkscape:version="1.3.2 (091e20e, 2023-11-25, custom)"
   xmlns:inkscape="http://www.inkscape.org/namespaces/inkscape"
   xmlns:sodipodi="http://sodipodi.sourceforge.net/DTD/sodipodi-0.dtd"
   xmlns="http://www.w3.org/2000/svg"
   xmlns:svg="http://www.w3.org/2000/svg"><defs
   id="defs1" /><sodipodi:namedview
   id="namedview1"
   pagecolor="#505050"
   bordercolor="#ffffff"
   borderopacity="1"
   inkscape:showpageshadow="0"
   inkscape:pageopacity="0"
   inkscape:pagecheckerboard="1"
   inkscape:deskcolor="#505050"
   showgrid="false"
   inkscape:zoom="1.3918218"
   inkscape:cx="408.45746"
   inkscape:cy="275.53815"
   inkscape:window-width="2560"
   inkscape:window-height="1377"
   inkscape:window-x="1912"
   inkscape:window-y="-8"
   inkscape:window-maximized="1"
   inkscape:current-layer="svg1" />
<rect
   width="80"
   height="80"
   fill="#47a5ae"
   id="rect1"
   x="0"
   y="0"
   style="stroke-width:0.217733" />
<path
   fill="#ffffff"
   d="M 37.946667,69.813333 C 37.866667,69.626667 37.653333,69.6 37.653333,69.76 c 0,0.106667 0.08,0.186667 0.16,0.186667 0.106667,0 0.16,-0.05333 0.133334,-0.133334 z M 37.6,69.626667 c 0.08,-0.133334 -0.05333,-0.4 -0.213333,-0.4 C 37.2,69.226667 37.12,69.36 37.2,69.573333 c 0.08,0.16 0.293333,0.213334 0.4,0.05333 z m 0.773333,-0.05333 c 0.106667,-0.133333 0.106667,-0.186666 0,-0.32 -0.213333,-0.186666 -0.506666,-0.08 -0.506666,0.16 0,0.16 0.106666,0.293334 0.32,0.32 0.02667,0 0.133333,-0.08 0.186666,-0.16 z m 0.32,-0.693333 c 0,-0.24 -0.16,-0.373333 -0.4,-0.32 C 38.16,68.586667 38.08,68.693333 38.08,68.8 c 0,0.16 0.05333,0.213333 0.293333,0.213333 0.186667,0 0.32,-0.05333 0.32,-0.133333 z M 35.04,68.08 c 0,-0.693333 0,-0.72 0.48,-1.253333 C 35.946667,66.373333 36,66.24 36,65.866667 36,65.6 36.08,65.36 36.16,65.28 36.266667,65.226667 36.4,65.013333 36.48,64.826667 36.56,64.613333 36.666667,64.48 36.746667,64.48 c 0.08,-0.02667 0.293333,-0.16 0.48,-0.32 0.213333,-0.16 0.426666,-0.32 0.506666,-0.32 0.08,0 0.133334,-0.02667 0.133334,-0.08 0,-0.05333 0.16,-0.133333 0.346666,-0.16 C 38.48,63.54667 38.586667,63.466667 38.64,63.253333 c 0.106667,-0.4 -0.08,-0.48 -0.586667,-0.293333 C 37.546667,63.146667 37.2,63.173333 36.96,63.04 c -0.106667,-0.05333 -0.24,-0.08 -0.293333,-0.02667 -0.133334,0.08 -0.453334,0.72 -0.453334,0.88 0,0.05333 -0.133333,0.373334 -0.266666,0.72 -0.4,0.933334 -0.426667,0.986667 -0.56,1.52 -0.08,0.32 -0.266667,0.64 -0.506667,0.88 -0.213333,0.213337 -0.426667,0.50667 -0.48,0.66667 -0.02667,0.133333 -0.106667,0.293333 -0.16,0.373333 -0.133333,0.16 0,0.426667 0.213333,0.426667 0.106667,0 0.24,0.08 0.32,0.16 0.24,0.293333 0.293334,0.16 0.266667,-0.56 z m 5.786667,-1.573333 c 0.133333,-0.133334 0.24,-0.266667 0.24,-0.346667 0,-0.08 0.02667,-0.133333 0.08,-0.133333 C 41.2,66.026667 41.28,65.893333 41.333333,65.76 41.44,65.573333 41.44,65.52 41.306667,65.466667 c -0.266667,-0.106667 -0.32,-0.08 -0.8,0.346666 C 40.24,66.026667 40,66.213333 39.92,66.24 c -0.16,0.05333 -0.02667,0.346667 0.24,0.48 0.24,0.106667 0.32,0.08 0.666667,-0.213333 z M 27.44,66.24 c 0,-0.106667 0.08,-0.24 0.16,-0.32 0.08,-0.05333 0.186667,-0.346667 0.266667,-0.613333 0.106666,-0.48 0.133333,-0.773334 0.106666,-2.426667 0,-0.506667 0.02667,-1.146667 0.106667,-1.44 0.106667,-0.48 0.16,-0.56 0.56,-0.746667 L 29.066667,60.48 l 0.64,0.346667 c 0.72,0.346666 0.933333,0.373333 1.786666,0.08 0.586667,-0.186667 0.693334,-0.133334 0.693334,0.4 0,0.32 0.293333,1.093333 0.426666,1.093333 0.02667,0 0.133334,0.16 0.213334,0.346667 0.08,0.186666 0.213333,0.48 0.32,0.693333 0.186666,0.293333 0.24,0.32 0.346666,0.16 0.05333,-0.08 0.106667,-0.426667 0.08,-0.88 -0.02667,-0.4 0,-0.826667 0.05333,-0.906667 0.08,-0.133333 0.02667,-0.373333 -0.133334,-0.8 C 33.36,60.666667 33.173333,60.186667 33.066667,59.92 32.826667,59.253333 32.346667,58.88 31.92,58.986667 31.493333,59.12 30.746667,58.88 30.346667,58.48 30.053333,58.213333 29.413333,57.04 29.413333,56.773333 29.386667,56.506667 28.133333,55.386667 27.12,54.746667 26.666667,54.48 25.973333,52.88 25.84,51.84 25.813333,51.68 25.76,51.28 25.68,50.986667 25.626667,50.693333 25.573333,50.16 25.546667,49.813333 25.52,49.44 25.466667,49.04 25.413333,48.906667 25.36,48.746667 25.333333,48.56 25.386667,48.48 c 0.05333,-0.08 0.106666,-0.4 0.16,-0.693333 0.02667,-0.32 0.133333,-0.72 0.213333,-0.906667 0.186667,-0.426667 0.186667,-0.853333 0.02667,-1.92 C 25.68,44.106667 25.68,44.08 25.893333,43.866667 26,43.733333 26.16,43.653333 26.213333,43.653333 c 0.05333,0 0.266667,-0.133333 0.453334,-0.266666 0.186666,-0.133334 0.4,-0.266667 0.453333,-0.266667 0.05333,0 0.133333,-0.02667 0.133333,-0.08 0.02667,-0.02667 0.373334,-0.16 0.773334,-0.293333 1.12,-0.32 1.893333,-0.213334 2.613333,0.453333 0.133333,0.106667 0.613333,0.426667 1.066667,0.666667 0.506666,0.293333 1.12,0.746666 1.493333,1.12 C 33.546667,45.36 33.866667,45.6 33.893333,45.573333 33.946667,45.546667 33.866667,45.306667 33.76,45.04 33.626667,44.773333 33.52,44.533333 33.52,44.453333 33.52,44.16 33.173333,43.76 32.773333,43.653333 31.946667,43.413333 31.386667,42.96 31.04,42.266667 c -0.453333,-0.933334 -1.013333,-1.84 -1.306667,-2.186667 -0.16,-0.16 -0.346666,-0.453333 -0.426666,-0.613333 -0.08,-0.16 -0.186667,-0.32 -0.213334,-0.346667 -0.24,-0.24 -1.12,-1.413333 -1.28,-1.76 C 27.68,37.146667 27.386667,36.72 27.146667,36.453333 26.373333,35.546667 26.213333,35.333333 26.16,35.04 c -0.05333,-0.186667 -0.133333,-0.373333 -0.186667,-0.48 -0.08,-0.08 -0.24,-0.426667 -0.373333,-0.773333 -0.133333,-0.32 -0.373333,-0.8 -0.533333,-1.04 -0.4,-0.586667 -0.613334,-1.093334 -0.613334,-1.466667 0,-0.346667 -0.373333,-0.853333 -0.613333,-0.8 -0.106667,0 -0.293333,-0.08 -0.426667,-0.186667 l -0.266666,-0.186666 0.186666,-0.293334 c 0.24,-0.293333 0.24,-0.24 -0.266666,-1.12 -0.186667,-0.32 -0.48,-0.613333 -0.64,-0.613333 -0.05333,0 -0.133334,0.133333 -0.16,0.266667 -0.05333,0.506666 -0.293334,0.426666 -0.266667,-0.08 0.02667,-0.613334 -0.24,-1.173334 -0.72,-1.493334 C 21.013333,26.586667 20.853333,26.346667 20.746667,26.08 20.533333,25.44 20.453333,24.88 20.56,24.853333 c 0.05333,0 -0.08,-0.48 -0.293333,-1.04 -0.32,-0.96 -0.346667,-1.04 -0.213334,-1.333333 0.133334,-0.24 0.16,-0.266667 0.213334,-0.133333 0.02667,0.106666 0.02667,0.24 -0.02667,0.346666 -0.08,0.16 -0.02667,0.64 0.08,0.64 0.133333,0 0.453333,-1.093333 0.4,-1.36 -0.106667,-0.586666 -0.346667,-1.2 -0.64,-1.68 -0.186667,-0.293333 -0.373333,-0.64 -0.4,-0.8 -0.08,-0.32 -0.266667,-0.293333 -0.266667,0.05333 0,0.32 -0.16,0.186666 -0.773333,-0.666667 -0.666667,-0.96 -0.8,-1.253333 -0.48,-1.36 0.24,-0.05333 0.346667,0.08 0.453333,0.56 0.08,0.293333 0.826667,0.906667 0.88,0.72 C 19.52,18.72 19.386667,18.453333 19.2,18.16 c -0.16,-0.266667 -0.32,-0.586667 -0.32,-0.693333 0,-0.24 -0.506667,-0.72 -0.746667,-0.72 -0.106666,0 -0.24,-0.133334 -0.293333,-0.32 -0.08,-0.16 -0.24,-0.346667 -0.346667,-0.4 -0.133333,-0.05333 -0.24,-0.186667 -0.24,-0.293334 0,-0.186666 -0.56,-1.013333 -0.826666,-1.226666 -0.16,-0.133334 -0.24,-1.253334 -0.106667,-1.44 C 16.56,12.773333 15.653333,11.28 15.226667,11.28 c -0.08,0 -0.213334,-0.133333 -0.266667,-0.266667 -0.16,-0.32 -0.426667,-0.293333 -0.48,0.02667 -0.02667,0.133333 0.05333,0.32 0.213333,0.48 0.16,0.16 0.213334,0.266667 0.133334,0.266667 -0.08,0 -0.186667,0.08 -0.266667,0.16 -0.08,0.08 -0.186667,0.106666 -0.24,0.08 -0.05333,-0.05333 -0.426667,-0.08 -0.8,-0.08 L 12.826667,11.92 l 0.586666,0.56 c 0.666667,0.64 1.44,1.173333 1.573334,1.093333 0.16,-0.08 0.293333,0.48 0.266666,1.093334 -0.02667,0.773333 0.16,1.013333 0.373334,0.506666 0.266666,-0.666666 0.56,-0.586666 0.426666,0.106667 -0.08,0.453333 -0.266666,0.586667 -0.56,0.426667 -0.16,-0.08 -0.213333,-0.08 -0.213333,0.05333 0,0.213333 0.05333,0.32 0.106667,0.293333 0.02667,-0.02667 0.106666,0.08 0.16,0.24 0.08,0.133334 0.08,0.24 0.02667,0.24 -0.02667,0 -0.05333,0.16 -0.02667,0.373334 0.02667,0.373333 0,0.426666 -0.48,0.72 -0.266667,0.186666 -0.506667,0.32 -0.533334,0.266666 -0.02667,-0.05333 -0.08,-0.293333 -0.106666,-0.56 -0.05333,-0.266666 -0.133334,-0.506666 -0.16,-0.506666 -0.16,0 -0.746667,0.346666 -0.746667,0.426666 0,0.02667 -0.16,0.266667 -0.346667,0.48 -0.426666,0.506667 -0.426666,0.773334 0.05333,1.626667 0.506666,0.933333 0.826666,1.866667 0.826666,2.4 0,0.426667 0.16,1.226667 0.453334,2.266667 0.08,0.24 -0.106667,0.586666 -0.266667,0.48 -0.05333,-0.02667 -0.08,0.05333 -0.08,0.186666 0,0.133334 -0.05333,0.293334 -0.106667,0.346667 C 13.92,25.173333 14.24,25.92 14.4,25.866667 14.64,25.76 14.746667,26 14.853333,26.933333 c 0.186667,1.28 0.213334,1.44 0.373334,1.44 0.293333,0 0.693333,0.506667 0.746666,0.906667 0.02667,0.293333 0.133334,0.506667 0.56,0.933333 0.293334,0.293334 0.586667,0.506667 0.613334,0.48 0.133333,-0.08 0.506666,0.05333 0.506666,0.213334 0,0.05333 0.106667,0.186666 0.213334,0.293333 0.106666,0.106667 0.213333,0.16 0.213333,0.133333 0,-0.05333 0.08,-0.02667 0.186667,0.02667 0.106666,0.08 0.186666,0.186667 0.133333,0.293333 -0.02667,0.213334 0.586667,1.226667 0.933333,1.466667 0.266667,0.186667 0.24,0.426667 -0.08,0.373333 C 18.986667,33.413333 18.96,33.44 18.8,34.746667 c -0.133333,0.826666 -0.08,0.986666 0.533333,2.293333 0.213334,0.426667 0.373334,0.826667 0.373334,0.906667 0,0.08 0.133333,0.4 0.32,0.693333 0.16,0.32 0.32,0.8 0.373333,1.146667 0.02667,0.346666 0.16,0.88 0.293333,1.226666 0.48,1.253334 0.693334,2.266667 0.72,3.306667 0.05333,1.093333 0.08,1.466667 0.24,2.506667 0.133334,0.746666 0.08,0.96 -0.373333,1.44 l -0.32,0.346666 0.266667,0.213334 c 0.16,0.133333 0.4,0.293333 0.56,0.346666 0.133333,0.08 0.4,0.373334 0.613333,0.773334 0.186667,0.346666 0.506667,0.8 0.666667,0.96 0.373333,0.373333 0.56,0.693333 1.013333,1.76 0.08,0.186666 0.133333,0.88 0.133333,1.92 0,2.16 0.266667,2.906666 1.413334,4.16 0.426666,0.453333 0.426666,0.533333 0.24,1.04 -0.08,0.186666 -0.133334,0.373333 -0.106667,0.4 0.02667,0.02667 0,0.106666 -0.08,0.213333 -0.106667,0.08 -0.213333,0.426667 -0.24,0.8 -0.05333,0.346667 -0.106667,0.72 -0.16,0.8 -0.08,0.186667 0.08,0.72 0.32,0.986667 0.24,0.293333 0.48,0.96 0.72,1.84 0.186667,0.773333 0.346667,1.04 0.533333,0.906666 0.05333,-0.02667 0.16,0.133334 0.24,0.32 0.16,0.4 0.346667,0.506667 0.346667,0.186667 z m 13.226667,-4.586667 c 0.56,-0.506666 0.693333,-0.746666 0.826666,-1.2 0.106667,-0.32 0.373334,-0.88 0.586667,-1.253333 0.24,-0.346667 0.426667,-0.746667 0.426667,-0.826667 0,-0.266666 0.293333,-0.506666 0.64,-0.506666 0.4,0 0.853333,-0.48 1.386666,-1.413334 C 45.12,55.36 45.28,55.173333 45.84,54.933333 c 0.56,-0.24 1.093333,-0.746666 1.12,-1.066666 0,-0.16 0,-0.826667 -0.02667,-0.96 0,-0.05333 -0.133333,-0.08 -0.293333,-0.08 -0.426667,0 -1.226667,0.56 -1.413333,0.96 -0.08,0.213333 -0.186667,0.4 -0.24,0.426666 -0.08,0.02667 -0.08,0.106667 -0.05333,0.16 0.133334,0.213334 -0.48,0.906667 -1.013333,1.146667 -0.266667,0.106667 -0.346667,0.08 -0.613333,-0.133333 -0.453334,-0.32 -0.64,-0.186667 -0.64,0.506666 0,0.4 -0.05333,0.586667 -0.24,0.773334 -0.133334,0.133333 -0.24,0.32 -0.24,0.426666 0,0.16 -0.05333,0.213334 -0.533334,0.32 C 41.466667,57.44 41.386667,57.52 41.44,57.626667 41.52,57.84 41.386667,58.24 41.12,58.56 c -0.133333,0.16 -0.293333,0.453333 -0.32,0.613333 -0.05333,0.16 -0.186667,0.373334 -0.293333,0.48 C 40.32,59.786667 40.32,59.84 40.426667,60.08 c 0.16,0.373333 0.16,0.426667 -0.133334,0.56 -0.186666,0.08 -0.24,0.16 -0.186666,0.293333 0.02667,0.16 -0.02667,0.24 -0.186667,0.266667 -0.133333,0.02667 -0.213333,0.133333 -0.213333,0.32 0,0.266667 0.186666,0.773333 0.266666,0.773333 0.02667,0 0.346667,-0.266666 0.693334,-0.64 z M 49.44,51.6 c 0.346667,-0.24 0.693333,-0.72 0.693333,-0.96 0,-0.106667 0.266667,-0.453333 0.613334,-0.8 0.4,-0.4 0.613333,-0.72 0.613333,-0.88 0,-0.4 0.24,-0.906667 0.533333,-1.253333 0.16,-0.16 0.32,-0.426667 0.346667,-0.613334 0.05333,-0.16 0.133333,-0.346666 0.186667,-0.426666 0.24,-0.293334 -0.16,-0.373334 -0.8,-0.133334 -0.293334,0.106667 -0.373334,0.213334 -0.4,0.666667 -0.02667,0.213333 -0.05333,0.4 -0.08,0.4 -0.4,0.293333 -0.666667,0.533333 -0.88,0.853333 -0.213334,0.32 -0.24,0.48 -0.213334,0.853334 l 0.05333,0.48 -0.48,0.213333 c -0.48,0.213333 -0.506667,0.213333 -0.56,0.773333 -0.02666,0.293334 -0.08,0.666667 -0.13333,0.773334 C 48.853333,51.84 49.04,51.866667 49.44,51.6 Z m 3.893333,-7.066667 c 0,-0.213333 -0.133333,-0.266666 -0.32,-0.16 -0.106666,0.05333 -0.106666,0.106667 0,0.24 0.133334,0.186667 0.32,0.133334 0.32,-0.08 z M 53.52,44.026667 c 0.16,-0.16 -0.05333,-0.373334 -0.293333,-0.32 -0.24,0.08 -0.266667,0.16 -0.08,0.32 0.16,0.16 0.213333,0.16 0.373333,0 z m -1.093333,-1.12 c -0.05333,-0.213334 -0.48,-0.266667 -0.586667,-0.08 -0.133333,0.186666 0.133333,0.373333 0.4,0.32 0.186667,-0.02667 0.213333,-0.08 0.186667,-0.24 z M 56.773333,40.88 c 0.08,-0.08 0.213334,-0.346667 0.32,-0.613333 C 57.2,40 57.306667,39.733333 57.36,39.68 c 0.05333,-0.05333 0.08,-0.213333 0.08,-0.373333 0,-0.133334 0.133333,-0.48 0.266667,-0.746667 C 58,38.026667 57.92,37.893333 57.466667,38.106667 c -0.186667,0.08 -0.293334,0.24 -0.346667,0.48 -0.08,0.426666 -0.32,1.093333 -0.426667,1.2 -0.02667,0.05333 -0.08,0.186666 -0.08,0.293333 0,0.24 -0.213333,0.506667 -0.533333,0.613333 -0.16,0.05333 -0.186667,0.106667 -0.08,0.213334 0.133333,0.16 0.533333,0.16 0.773333,-0.02667 z m 1.573334,-4.133333 c 0.08,-0.05333 0.08,-0.133334 -0.08,-0.32 -0.186667,-0.24 -0.186667,-0.24 -0.373334,-0.08 C 57.76,36.48 57.76,36.56 57.866667,36.693333 58,36.853333 58.16,36.88 58.346667,36.746667 Z m 0.72,-1.68 c 0.05333,-0.106667 -0.24,-0.48 -0.346667,-0.373334 -0.08,0.08 0.05333,0.506667 0.186667,0.506667 0.02667,0 0.106666,-0.05333 0.16,-0.133333 z m -0.213334,-0.05333 c -0.02667,-0.02667 -0.05333,-0.106666 -0.05333,-0.16 0,-0.08 0.02667,-0.08 0.106667,0 0.08,0.08 0.106666,0.16 0.08,0.186667 -0.02667,0.02667 -0.08,0.02667 -0.133334,-0.02667 z m 0.56,-1.413333 c 0,-0.373333 -0.133333,-0.64 -0.293333,-0.533333 -0.133333,0.08 -0.16,0.906666 -0.05333,1.013333 0.133333,0.133333 0.346666,-0.16 0.346666,-0.48 z m 0.133334,-2.266667 c 0.02667,-0.08 -0.02667,-0.213333 -0.133334,-0.32 -0.346666,-0.32 -0.64,-0.106666 -0.293333,0.24 0.24,0.266667 0.346667,0.293334 0.426667,0.08 z m -0.613334,-1.52 c -0.08,-0.05333 -0.213333,-0.08 -0.346666,-0.02667 l -0.24,0.08 0.24,0.133333 C 58.88,30.133333 59.12,30.026667 58.933333,29.813333 Z m 4.08,-0.48 C 63.013333,29.2 62.72,29.04 62.533333,29.04 62.453333,29.066667 62.4,29.093333 62.4,29.146667 c 0,0.02667 0,0.16 0,0.266666 0,0.106667 0.08,0.213334 0.186667,0.24 0.186666,0.02667 0.426666,-0.16 0.426666,-0.32 z m -2.106666,-1.786666 c 0.02667,-0.02667 -0.106667,-0.08 -0.32,-0.08 -0.293334,0 -0.346667,0.05333 -0.24,0.133333 0.106666,0.133333 0.453333,0.106667 0.56,-0.05333 z m 0,-1.546667 c 0.05333,-0.186667 0.16,-0.453333 0.24,-0.56 C 61.44,24.906667 61.173333,24.586667 60.72,24.933333 60.586667,25.04 60.533333,25.2 60.533333,25.76 c 0,0.746667 0.186667,0.88 0.373334,0.24 z m -0.72,-0.8 c 0.05333,-0.24 0,-0.426667 -0.16,-0.426667 -0.133334,0 -0.506667,0.426667 -0.453334,0.533334 0.106667,0.186666 0.533334,0.08 0.613334,-0.106667 z m 3.6,-0.64 c 0.133333,-0.213333 -0.213334,-0.426667 -0.56,-0.346667 -0.293334,0.05333 -0.4,0.24 -0.24,0.4 0.106666,0.106667 0.746666,0.08 0.8,-0.05333 z m -1.84,-1.253333 C 62.106667,23.12 62,22.96 61.653333,22.88 61.44,22.826667 61.386667,22.853333 61.306667,23.04 c -0.106667,0.346667 0.346666,0.533333 0.64,0.266667 z m -1.813334,-0.533334 c 0,-0.213333 -0.426666,-0.373333 -0.64,-0.24 -0.293333,0.133334 -0.106666,0.4 0.293334,0.4 0.24,0 0.346666,-0.05333 0.346666,-0.16 z M 62.266667,21.76 c 0.16,-0.266667 0.16,-0.32 0,-0.8 -0.133334,-0.346667 -0.186667,-0.64 -0.133334,-0.88 0.08,-0.426667 -0.02667,-0.56 -0.48,-0.56 -0.32,0 -0.32,0.02667 -0.186666,0.32 0.08,0.106667 0.08,0.24 0.05333,0.32 -0.133333,0.213333 -0.16,1.52 -0.05333,1.733333 0.16,0.293334 0.586666,0.24 0.8,-0.133333 z m -2.56,-1.973333 c 0,-0.08 -0.08,-0.24 -0.16,-0.373334 -0.16,-0.186666 -0.213334,-0.213333 -0.32,-0.08 -0.106667,0.106667 -0.08,0.186667 0.02667,0.373334 0.186667,0.24 0.453334,0.293333 0.453334,0.08 z m 3.013333,-3.04 c 0.4,0.02667 0.613333,-0.05333 0.586667,-0.24 -0.02667,-0.16 0.213333,-0.613334 0.64,-1.253334 0.373333,-0.533333 0.4,-0.8 0.213333,-1.626666 -0.133333,-0.56 -0.133333,-0.613334 0.02667,-0.746667 0.186666,-0.106667 0.186666,-0.16 -0.106667,-0.746667 -0.186667,-0.346666 -0.453333,-0.693333 -0.586667,-0.8 -0.266666,-0.16 -0.266666,-0.16 -0.32,0 C 63.12,11.44 63.04,11.706667 62.96,11.92 c -0.106667,0.293333 -0.106667,0.48 -0.02667,0.666667 0.186667,0.48 0.16,1.386666 -0.02667,1.6 -0.106667,0.106666 -0.24,0.16 -0.293334,0.133333 -0.05333,-0.02667 -0.32,0.213333 -0.586666,0.56 -0.26666,0.346667 -0.533327,0.613333 -0.58666,0.613333 -0.133333,0 0.05333,0.293334 0.24,0.346667 0.106667,0.02667 0.213333,0.186667 0.266667,0.4 0.106666,0.506667 0.24,0.746667 0.346666,0.613333 0.05333,-0.08 0.24,-0.133333 0.426667,-0.106666 z m -1.76,-0.64 c 0,-0.24 -0.02667,-0.24 -0.373333,-0.08 C 60.4,16.133333 60.373333,16.186667 60.453333,16.24 60.72,16.4 60.96,16.32 60.96,16.106667 Z M 61.653333,11.92 c 0.05333,-0.32 -0.266666,-0.56 -0.586666,-0.506667 -0.4,0.106667 -0.56,0.32 -0.426667,0.56 0.133333,0.266667 0.96,0.24 1.013333,-0.05333 z M 64.88,11.626667 c 0.24,-0.293334 0.266667,-0.426667 0.213333,-0.853334 -0.05333,-0.533333 -0.16,-0.746666 -0.4,-0.746666 -0.186666,0.02667 -0.666666,0.32 -0.48,0.32 0.05333,0 -0.02667,0.08 -0.16,0.16 -0.186666,0.16 -0.213333,0.24 -0.186666,0.586666 0.05333,0.32 0.16,0.506667 0.346666,0.666667 0.16,0.133333 0.32,0.24 0.346667,0.24 0.02667,0 0.186667,-0.186667 0.32,-0.373333 z"
   id="path1"
   style="stroke-width:0.266667" />
</svg>
