<?xml version="1.0" encoding="UTF-8" standalone="no"?>
<svg
   width="80"
   height="80"
   version="1.1"
   id="svg81"
   sodipodi:docname="67_Smolensk_Oblast.svg"
   inkscape:version="1.3.2 (091e20e, 2023-11-25, custom)"
   xmlns:inkscape="http://www.inkscape.org/namespaces/inkscape"
   xmlns:sodipodi="http://sodipodi.sourceforge.net/DTD/sodipodi-0.dtd"
   xmlns="http://www.w3.org/2000/svg"
   xmlns:svg="http://www.w3.org/2000/svg">
  <defs
     id="defs81">
    <clipPath
       clipPathUnits="userSpaceOnUse"
       id="clipPath82">
      <rect
         style="opacity:0.2;fill:#296912;stroke-width:2"
         id="rect83"
         width="600"
         height="600"
         x="0"
         y="0" />
    </clipPath>
    <clipPath
       clipPathUnits="userSpaceOnUse"
       id="clipPath83">
      <rect
         style="opacity:0.2;fill:#296912;stroke-width:2"
         id="rect84"
         width="600"
         height="600"
         x="0"
         y="0" />
    </clipPath>
    <clipPath
       clipPathUnits="userSpaceOnUse"
       id="clipPath84">
      <rect
         style="opacity:0.2;fill:#296912;stroke-width:2"
         id="rect85"
         width="600"
         height="600"
         x="0"
         y="0" />
    </clipPath>
    <clipPath
       clipPathUnits="userSpaceOnUse"
       id="clipPath85">
      <rect
         style="opacity:0.2;fill:#296912;stroke-width:2"
         id="rect86"
         width="600"
         height="600"
         x="0"
         y="0" />
    </clipPath>
    <clipPath
       clipPathUnits="userSpaceOnUse"
       id="clipPath86">
      <rect
         style="opacity:0.2;fill:#296912;stroke-width:2"
         id="rect87"
         width="600"
         height="600"
         x="0"
         y="0" />
    </clipPath>
    <clipPath
       clipPathUnits="userSpaceOnUse"
       id="clipPath87">
      <rect
         style="opacity:0.2;fill:#296912;stroke-width:2"
         id="rect88"
         width="600"
         height="600"
         x="0"
         y="0" />
    </clipPath>
    <clipPath
       clipPathUnits="userSpaceOnUse"
       id="clipPath88">
      <rect
         style="opacity:0.2;fill:#296912;stroke-width:2"
         id="rect89"
         width="600"
         height="600"
         x="0"
         y="0" />
    </clipPath>
    <clipPath
       clipPathUnits="userSpaceOnUse"
       id="clipPath89">
      <rect
         style="opacity:0.2;fill:#296912;stroke-width:2"
         id="rect90"
         width="600"
         height="600"
         x="0"
         y="0" />
    </clipPath>
    <clipPath
       clipPathUnits="userSpaceOnUse"
       id="clipPath90">
      <rect
         style="opacity:0.2;fill:#296912;stroke-width:2"
         id="rect91"
         width="600"
         height="600"
         x="0"
         y="0" />
    </clipPath>
    <clipPath
       clipPathUnits="userSpaceOnUse"
       id="clipPath91">
      <rect
         style="opacity:0.2;fill:#296912;stroke-width:2"
         id="rect92"
         width="600"
         height="600"
         x="0"
         y="0" />
    </clipPath>
    <clipPath
       clipPathUnits="userSpaceOnUse"
       id="clipPath92">
      <rect
         style="opacity:0.2;fill:#296912;stroke-width:2"
         id="rect93"
         width="600"
         height="600"
         x="0"
         y="0" />
    </clipPath>
    <clipPath
       clipPathUnits="userSpaceOnUse"
       id="clipPath93">
      <rect
         style="opacity:0.2;fill:#296912;stroke-width:2"
         id="rect94"
         width="600"
         height="600"
         x="0"
         y="0" />
    </clipPath>
    <clipPath
       clipPathUnits="userSpaceOnUse"
       id="clipPath94">
      <rect
         style="opacity:0.2;fill:#296912;stroke-width:2"
         id="rect95"
         width="600"
         height="600"
         x="0"
         y="0" />
    </clipPath>
    <clipPath
       clipPathUnits="userSpaceOnUse"
       id="clipPath95">
      <rect
         style="opacity:0.2;fill:#296912;stroke-width:2"
         id="rect96"
         width="600"
         height="600"
         x="0"
         y="0" />
    </clipPath>
  </defs>
  <sodipodi:namedview
     id="namedview81"
     pagecolor="#505050"
     bordercolor="#ffffff"
     borderopacity="1"
     inkscape:showpageshadow="0"
     inkscape:pageopacity="0"
     inkscape:pagecheckerboard="1"
     inkscape:deskcolor="#505050"
     inkscape:zoom="1.9683333"
     inkscape:cx="449.873"
     inkscape:cy="300.00001"
     inkscape:window-width="2560"
     inkscape:window-height="1377"
     inkscape:window-x="1912"
     inkscape:window-y="-8"
     inkscape:window-maximized="1"
     inkscape:current-layer="svg81" />
  <g
     id="g3"
     clip-path="url(#clipPath95)"
     transform="matrix(0.13333334,0,0,0.13333334,0,3.8043201e-5)">
    <rect
       x="9.1797001e-06"
       y="4.3896001e-05"
       width="900"
       height="600"
       fill="#c60001"
       id="rect1" />
    <path
       d="m 142.4,73.667 c -4.5093,0.06183 -9.1378,1.4069 -13.673,4.498 -20.149,13.732 2.636,39.955 2.636,39.955 l 0.0112,0.0112 c 1.9934,-0.0813 4.1831,0.40767 6.6628,1.7835 5.6152,-6.7818 11.321,-13.405 26.147,-4.3634 3.2255,-3.2255 4.9101,-7.3022 13.135,-7.3022 8.2249,0 9.9095,4.0767 13.135,7.3022 14.826,-9.0415 20.531,-2.4184 26.147,4.3634 2.4797,-1.3758 4.6695,-1.8648 6.6628,-1.7835 l 0.0112,-0.0112 c 0,0 22.785,-26.222 2.636,-39.955 -4.5355,-3.0911 -9.1641,-4.4361 -13.673,-4.498 -16.105,-0.22084 -30.769,15.897 -34.918,27.066 -4.1489,-11.169 -18.814,-27.287 -34.918,-27.066 z"
       fill="#c60001"
       stroke-width="0.35894"
       id="path1" />
    <path
       d="m 142.21,71.008 c -4.9648,-0.03667 -10.062,1.1663 -15.019,4.0717 -24.708,14.481 0.60571,43.813 0.60571,43.813 0.003,-0.001 0.008,10e-4 0.0112,0 1.1283,-0.43484 2.3107,-0.71052 3.567,-0.76275 l -0.0112,-0.0112 c 0,0 -22.785,-26.222 -2.636,-39.955 4.5355,-3.0911 9.1641,-4.4361 13.673,-4.498 16.105,-0.22084 30.769,15.897 34.918,27.066 4.1489,-11.169 18.814,-27.287 34.918,-27.066 4.5093,0.06184 9.1378,1.4069 13.673,4.498 20.149,13.732 -2.636,39.955 -2.636,39.955 l -0.0112,0.0112 c 1.2563,0.0522 2.4387,0.32791 3.567,0.76275 0.003,10e-4 0.008,-0.001 0.0112,0 0,0 25.314,-29.332 0.60571,-43.813 -4.9572,-2.9054 -10.055,-4.1084 -15.019,-4.0717 -16.218,0.11979 -31.043,13.529 -35.109,24.475 -4.066,-10.946 -18.89,-24.355 -35.109,-24.475 z m -6.3039,47.918 c 0.19943,0.0755 0.40233,0.14804 0.60571,0.23555 -0.20182,-0.0871 -0.4078,-0.16021 -0.60571,-0.23555 z m 82.825,0 c -0.19943,0.0755 -0.40233,0.14804 -0.60571,0.23555 0.20182,-0.0871 0.4078,-0.16021 0.60571,-0.23555 z"
       fill="#f8d501"
       stroke="#000000"
       stroke-linejoin="round"
       stroke-width="0.75377"
       id="path2" />
    <path
       d="m 216.21,145.8 a 38.899,8.2461 0 1 1 -77.798,0 38.899,8.2461 0 1 1 77.798,0 z"
       fill="#c60001"
       stroke="#000000"
       stroke-linejoin="round"
       stroke-width="0.75377"
       id="path3" />
  </g>
  <g
     fill="#f2f2f2"
     stroke="#000000"
     stroke-linejoin="round"
     id="g23"
     clip-path="url(#clipPath94)"
     transform="matrix(0.13333334,0,0,0.13333334,0,3.8043201e-5)">
    <path
       d="m 177.32,108.25 c -8.2249,0 -9.9095,4.0767 -13.135,7.3022 -14.826,-9.0416 -20.531,-2.4184 -26.147,4.3634 -5.7844,-3.2093 -9.9704,-1.633 -13.842,0.89735 6.3235,8.0362 11.741,16.235 14.223,24.991 0,-4.5542 17.417,-8.2444 38.9,-8.2444 21.483,0 38.9,3.6902 38.9,8.2444 2.4819,-8.7565 7.8995,-16.955 14.223,-24.991 -3.8712,-2.5304 -8.0572,-4.1067 -13.842,-0.89735 -5.6152,-6.7818 -11.321,-13.405 -26.147,-4.3634 -3.2255,-3.2255 -4.9101,-7.3022 -13.135,-7.3022 z"
       stroke-width="0.71788"
       id="path4" />
    <g
       stroke-width="0.35894"
       id="g8">
      <path
         d="m 239.59,114.24 a 4.1697,4.1697 0 1 1 -8.3394,0 4.1697,4.1697 0 1 1 8.3394,0 z"
         id="path5" />
      <path
         d="m 243.95,105.48 a 4.1697,4.1697 0 1 1 -8.3394,0 4.1697,4.1697 0 1 1 8.3394,0 z"
         id="path6" />
      <path
         d="m 246.3,96.435 a 4.1697,4.1697 0 1 1 -8.3394,0 4.1697,4.1697 0 1 1 8.3394,0 z"
         id="path7" />
      <path
         d="m 242.83,89.449 a 4.1697,4.1697 0 1 1 -2.8375,-7.8418 4.1697,4.1697 0 1 1 2.8375,7.8418 z"
         id="path8" />
    </g>
    <path
       d="m 233.66,80.148 a 4.1697315,4.1697315 0 1 1 4.988,-6.6833 4.1697315,4.1697315 0 1 1 -4.988,6.6833 z"
       stroke-width="0.35894"
       id="path9" />
    <path
       d="m 231.05,72.786 a 4.1697202,4.1697202 0 1 1 -6.9155,-4.6607 4.1697202,4.1697202 0 1 1 6.9155,4.6607 z"
       stroke-width="0.35894"
       id="path10" />
    <g
       stroke-width="0.35894"
       id="g17">
      <path
         d="m 221.87,67.279 a 4.1697,4.1697 0 1 1 -8.3394,0 4.1697,4.1697 0 1 1 8.3394,0 z"
         id="path11" />
      <path
         d="m 211.12,67.373 a 4.1697,4.1697 0 1 1 -8.3394,0 4.1697,4.1697 0 1 1 8.3394,0 z"
         id="path12" />
      <path
         d="m 199.32,73.896 a 4.1697,4.1697 0 1 1 -2.8347,-7.8428 4.1697,4.1697 0 1 1 2.8347,7.8428 z"
         id="path13" />
      <path
         d="m 115.04,114.24 a 4.1697,4.1697 0 1 0 8.3394,0 4.1697,4.1697 0 1 0 -8.3394,0 z"
         id="path14" />
      <path
         d="m 110.68,105.48 a 4.1697,4.1697 0 1 0 8.3394,0 4.1697,4.1697 0 1 0 -8.3394,0 z"
         id="path15" />
      <path
         d="m 108.33,96.435 a 4.1697,4.1697 0 1 0 8.3394,0 4.1697,4.1697 0 1 0 -8.3394,0 z"
         id="path16" />
      <path
         d="M 111.8,89.449 A 4.1697,4.1697 0 1 0 114.6375,81.6072 4.1697,4.1697 0 1 0 111.8,89.449 Z"
         id="path17" />
    </g>
    <path
       d="m 120.97,80.148 a 4.1697315,4.1697315 0 1 0 -4.988,-6.6833 4.1697315,4.1697315 0 1 0 4.988,6.6833 z"
       stroke-width="0.35894"
       id="path18" />
    <path
       d="m 123.58,72.786 a 4.1697202,4.1697202 0 1 0 6.9155,-4.6607 4.1697202,4.1697202 0 1 0 -6.9155,4.6607 z"
       stroke-width="0.35894"
       id="path19" />
    <g
       stroke-width="0.35894"
       id="g22">
      <path
         d="m 132.76,67.279 a 4.1697,4.1697 0 1 0 8.3394,0 4.1697,4.1697 0 1 0 -8.3394,0 z"
         id="path20" />
      <path
         d="m 143.51,67.373 a 4.1697,4.1697 0 1 0 8.3394,0 4.1697,4.1697 0 1 0 -8.3394,0 z"
         id="path21" />
      <path
         d="m 155.31,73.896 a 4.1697,4.1697 0 1 0 2.8347,-7.8428 4.1697,4.1697 0 1 0 -2.8347,7.8428 z"
         id="path22" />
    </g>
  </g>
  <g
     fill="#f8d501"
     stroke="#000000"
     stroke-linejoin="round"
     id="g27"
     clip-path="url(#clipPath93)"
     transform="matrix(0.13333334,0,0,0.13333334,0,3.8043201e-5)">
    <path
       d="m 163.03,73.117 c -0.84342,0.71978 -1.5354,1.0658 -2.692,2.5687 6.2364,7.798 11.049,17.985 13.023,32.944 l 3.9596,-0.38138 3.9596,0.38138 c 1.9743,-14.958 6.7863,-25.146 13.023,-32.944 -1.1567,-1.5029 -1.8486,-1.8489 -2.692,-2.5687 -4.3814,2.218 -8.1522,5.0574 -14.29,5.5187 -6.1381,-0.46127 -9.9089,-3.3007 -14.29,-5.5187 z"
       stroke-width="0.75377"
       id="path23" />
    <path
       d="m 174.73,41.999 v 6.4206 h -4.8268 v 4.4266 h 4.8268 v 4.6077 h 5.1619 v -4.6077 h 4.8268 v -4.4266 h -4.8268 V 41.999 Z"
       stroke-width="0.35894"
       id="path24" />
    <path
       d="m 188.07,67.877 a 10.759,10.759 0 1 1 -21.517,0 10.759,10.759 0 1 1 21.517,0 z"
       stroke-width="0.35894"
       id="path25" />
    <path
       d="m 163.03,73.117 c 4.3444,9.0193 11.947,19.652 11.98,35.255 0.71051,-0.0794 1.473,-0.12339 2.3107,-0.12339 0.83765,0 1.6002,0.044 2.3107,0.12339 0.0329,-15.602 7.6352,-26.235 11.98,-35.255 -4.3814,2.218 -8.1522,5.0574 -14.29,5.5187 -6.1381,-0.46127 -9.9089,-3.3007 -14.29,-5.5187 z"
       stroke-width="0.75377"
       id="path26" />
    <path
       d="m 177.32,57.122 c -1.0472,0.08041 -2.5355,0.02861 -3.2641,0.66612 v 8.9692 c -2.4532,-0.12423 -4.9088,-0.35914 -7.3134,-0.87492 -0.34665,1.8854 -0.19053,3.8608 0.45988,5.6645 5.046,0.95033 10.227,1.0306 15.336,0.65858 1.6426,-0.13572 3.282,-0.3351 4.8989,-0.65858 0.65076,-1.8031 0.80665,-3.7797 0.45989,-5.6645 -2.4046,0.51628 -4.8602,0.75071 -7.3134,0.87492 v -9.1305 c -1.0532,-0.33586 -2.1588,-0.50538 -3.2641,-0.50476 z"
       stroke-width="0.35894"
       id="path27" />
  </g>
  <g
     fill="#999999"
     stroke-width="0.35894"
     id="g36"
     clip-path="url(#clipPath92)"
     transform="matrix(0.13333334,0,0,0.13333334,0,3.8043201e-5)">
    <path
       d="m 190.32,121.99 c 0,0 -2.9792,3.1674 -3.2689,5.1918 -0.29274,2.0452 1.4101,5.7687 1.4101,5.7687 0,0 3.6251,-3.2656 4.647,-4.9995 0.61081,-1.0365 1.0576,-4.9034 1.0576,-4.9034 l -1.3781,-0.0641 c -0.2373,3.7024 -2.0588,4.2363 -3.301,5.9289 0,0 -0.5507,-0.84454 -0.54483,-1.4422 0.0189,-1.9239 2.4357,-4.9995 2.4357,-4.9995 -0.23392,-0.81258 -0.6601,-0.56774 -1.0576,-0.48073 z"
       id="path28" />
    <path
       d="m 203.33,114.75 c 0,0 -2.9792,3.1674 -3.2689,5.1918 -0.29273,2.0452 1.4101,5.7687 1.4101,5.7687 0,0 3.6251,-3.2656 4.647,-4.9995 0.6108,-1.0365 1.0576,-4.9034 1.0576,-4.9034 l -1.3781,-0.0641 c -0.2373,3.7024 -2.0588,4.2363 -3.301,5.9289 0,0 -0.55069,-0.84453 -0.54482,-1.4422 0.0189,-1.9239 2.4357,-4.9995 2.4357,-4.9995 -0.23393,-0.81258 -0.66011,-0.56774 -1.0576,-0.48072 z"
       id="path29" />
    <path
       d="m 211.36,127.32 c 0,0 -2.7655,2.9402 -3.0344,4.8194 -0.27173,1.8985 1.309,5.3549 1.309,5.3549 0,0 3.3651,-3.0313 4.3136,-4.6409 0.567,-0.96212 0.98173,-4.5516 0.98173,-4.5516 l -1.2792,-0.0595 c -0.22028,3.4368 -1.9111,3.9324 -3.0642,5.5036 0,0 -0.51119,-0.78396 -0.50574,-1.3387 0.0175,-1.7859 2.261,-4.6409 2.261,-4.6409 -0.21714,-0.75429 -0.61275,-0.52701 -0.98173,-0.44624 z"
       id="path30" />
    <path
       d="m 220.98,122.45 c 0,0 -2.7655,2.9402 -3.0344,4.8194 -0.27174,1.8985 1.309,5.3549 1.309,5.3549 0,0 3.3651,-3.0313 4.3137,-4.6409 0.56699,-0.96212 0.98173,-4.5516 0.98173,-4.5516 l -1.2792,-0.0595 c -0.22028,3.4368 -1.9111,3.9324 -3.0642,5.5036 0,0 -0.51119,-0.78396 -0.50574,-1.3387 0.0176,-1.7859 2.261,-4.6409 2.261,-4.6409 -0.21715,-0.75429 -0.61276,-0.52701 -0.98173,-0.44624 z"
       id="path31" />
    <path
       d="m 175.06,112.63 c 0,0 -2.9792,3.1674 -3.2689,5.1918 -0.29274,2.0452 1.4101,5.7687 1.4101,5.7687 0,0 3.6251,-3.2656 4.647,-4.9995 0.61081,-1.0365 1.0576,-4.9034 1.0576,-4.9034 l -1.3781,-0.0641 c -0.2373,3.7024 -2.0588,4.2363 -3.301,5.9289 0,0 -0.5507,-0.84454 -0.54483,-1.4422 0.0189,-1.9239 2.4357,-4.9995 2.4357,-4.9995 -0.23392,-0.81258 -0.6601,-0.56774 -1.0576,-0.48072 z"
       id="path32" />
    <path
       d="m 164.33,123.59 c 0,0 2.9792,3.1674 3.2689,5.1918 0.29274,2.0452 -1.4101,5.7687 -1.4101,5.7687 0,0 -3.6251,-3.2656 -4.647,-4.9995 -0.61081,-1.0365 -1.0576,-4.9034 -1.0576,-4.9034 l 1.3781,-0.0641 c 0.2373,3.7024 2.0588,4.2363 3.301,5.9289 0,0 0.55069,-0.84454 0.54482,-1.4422 -0.0189,-1.9239 -2.4357,-4.9995 -2.4357,-4.9995 0.23393,-0.81259 0.66011,-0.56774 1.0576,-0.48073 z"
       id="path33" />
    <path
       d="m 153.86,116.93 c 0,0 2.9792,3.1674 3.2689,5.1918 0.29273,2.0452 -1.4101,5.7687 -1.4101,5.7687 0,0 -3.6251,-3.2656 -4.647,-4.9995 -0.6108,-1.0365 -1.0576,-4.9034 -1.0576,-4.9034 l 1.3781,-0.0641 c 0.2373,3.7024 2.0588,4.2363 3.301,5.9289 0,0 0.55069,-0.84454 0.54482,-1.4422 -0.0189,-1.9239 -2.4357,-4.9995 -2.4357,-4.9995 0.23392,-0.81258 0.6601,-0.56774 1.0576,-0.48073 z"
       id="path34" />
    <path
       d="m 143.39,126.8 c 0,0 2.9792,3.1674 3.2689,5.1918 0.29274,2.0452 -1.4101,5.7687 -1.4101,5.7687 0,0 -3.6251,-3.2656 -4.647,-4.9995 -0.61081,-1.0365 -1.0576,-4.9034 -1.0576,-4.9034 l 1.3781,-0.0641 c 0.23729,3.7024 2.0588,4.2363 3.301,5.9289 0,0 0.5507,-0.84454 0.54482,-1.4422 -0.0189,-1.9239 -2.4357,-4.9995 -2.4357,-4.9995 0.23392,-0.81258 0.6601,-0.56774 1.0576,-0.48073 z"
       id="path35" />
    <path
       d="m 133.05,120.9 c 0,0 2.9792,3.1674 3.2689,5.1918 0.29273,2.0452 -1.4101,5.7687 -1.4101,5.7687 0,0 -3.6251,-3.2656 -4.647,-4.9995 -0.6108,-1.0365 -1.0576,-4.9034 -1.0576,-4.9034 l 1.3781,-0.0641 c 0.2373,3.7024 2.0588,4.2363 3.301,5.9289 0,0 0.55069,-0.84454 0.54482,-1.4422 -0.0189,-1.9239 -2.4357,-4.9995 -2.4357,-4.9995 0.23393,-0.81259 0.66011,-0.56774 1.0576,-0.48073 z"
       id="path36" />
  </g>
  <g
     fill="#f2f2f2"
     id="g43"
     clip-path="url(#clipPath91)"
     transform="matrix(0.13333334,0,0,0.13333334,0,3.8043201e-5)">
    <g
       stroke="#000000"
       stroke-linejoin="round"
       id="g42">
      <path
         d="m 178.43,85.437 a 3.2726104,3.2726104 0 1 1 -2.2248,-6.1555 3.2726104,3.2726104 0 1 1 2.2248,6.1555 z"
         stroke-width="0.35894"
         id="path37" />
      <path
         d="m 178.21,91.244 a 2.631811,2.631811 0 1 1 -1.7892,-4.9502 2.631811,2.631811 0 1 1 1.7892,4.9502 z"
         stroke-width="0.35894"
         id="path38" />
      <g
         stroke-width="0.35894"
         id="g41">
        <path
           d="m 177.95,96.353 a 1.8629,1.8629 0 1 1 -1.2664,-3.5039 1.8629,1.8629 0 1 1 1.2664,3.5039 z"
           id="path39" />
        <path
           d="m 177.95,100.84 a 1.8629,1.8629 0 1 1 -1.2664,-3.5039 1.8629,1.8629 0 1 1 1.2664,3.5039 z"
           id="path40" />
        <path
           d="m 177.95,105.84 a 1.8629,1.8629 0 1 1 -1.2664,-3.5039 1.8629,1.8629 0 1 1 1.2664,3.5039 z"
           id="path41" />
      </g>
    </g>
    <path
       d="m 101.85,145.71 v 101.54 c 0,41.836 33.789,75.748 75.467,75.748 41.678,0 75.467,-33.912 75.467,-75.748 V 145.71 l -8.3341,5.4402 -8.3454,-5.4402 v 17.465 h -16.881 V 145.71 l -8.3454,5.4402 -8.3341,-5.4402 v 17.465 H 185.651 V 145.71 l -8.3341,5.4402 -8.3454,-5.4402 v 17.465 h -16.881 V 145.71 l -8.3341,5.4402 -8.3454,-5.4402 v 17.465 H 118.53 V 145.71 l -8.3454,5.4402 z"
       stroke-width="0.35894"
       id="path42" />
  </g>
  <path
     d="m 101.85,145.71 v 101.54 c 0,41.836 33.789,75.748 75.467,75.748 41.678,0 75.467,-33.912 75.467,-75.748 V 145.71 l -8.3341,5.4402 -8.3454,-5.4402 v 17.465 h -16.881 V 145.71 l -8.3454,5.4402 -8.3341,-5.4402 v 17.465 H 185.651 V 145.71 l -8.3341,5.4402 -8.3454,-5.4402 v 17.465 h -16.881 V 145.71 l -8.3341,5.4402 -8.3454,-5.4402 v 17.465 H 118.53 V 145.71 l -8.3454,5.4402 z"
     fill="none"
     stroke="#000000"
     stroke-width="1.0768"
     id="path43"
     clip-path="url(#clipPath90)"
     transform="matrix(0.13333334,0,0,0.13333334,0,3.8043201e-5)" />
  <path
     d="m 172.95,226.25 c -3.9335,0 -4.8793,3.0061 -4.8793,3.0061 h -3.3875 v 1.3012 l -38.844,-0.40381 c -2.9924,-0.42731 -3.4097,-0.85141 -4.6214,-1.2787 -1.302,2.2113 -2.4341,5.6628 -2.4341,8.0986 0,2.4358 1.1321,5.8985 2.4341,8.1098 1.2117,-0.42731 1.6289,-0.85141 4.6214,-1.2787 l 87.043,-0.89735 c 4.5099,0.58281 8.3643,1.5914 9.9942,4.0942 0.72745,0.12513 1.1526,1.1668 2.3107,0 2.211,-1.882 1.2424,-4.5859 2.8154,-6.2814 0.72319,-0.77952 1.7694,-1.2371 2.9388,-1.5704 0.51993,1.4339 1.5324,2.4116 2.7033,2.4116 1.6992,0 3.0734,-2.0566 3.0734,-4.5877 0,-2.5311 -1.3742,-4.5765 -3.0734,-4.5765 -1.1709,0 -2.1834,0.97757 -2.7033,2.4116 -1.1694,-0.33652 -2.2156,-0.80206 -2.9388,-1.5816 -1.573,-1.6955 -0.60448,-4.3994 -2.8154,-6.2814 -0.43428,-0.43753 -0.77221,-0.55719 -1.0544,-0.53841 -0.47028,0.0313 -0.80163,0.4602 -1.2563,0.53841 -1.6299,2.5028 -5.4844,3.5226 -9.9942,4.1054 l -32.821,-0.33651 v -1.0768 h -1.7947 c 0,0 -1.3833,-3.3875 -5.3168,-3.3875 z"
     stroke-width="0.35894"
     id="path44"
     clip-path="url(#clipPath89)"
     transform="matrix(0.13333334,0,0,0.13333334,0,3.8043201e-5)" />
  <path
     d="m 234.42,235.92 a 0.83325,2.3075 0 1 1 -1.6665,0 0.83325,2.3075 0 1 1 1.6665,0 z"
     fill="#ffffff"
     opacity="0.88095"
     stroke-width="0.35894"
     id="path45"
     clip-path="url(#clipPath88)"
     transform="matrix(0.13333334,0,0,0.13333334,0,3.8043201e-5)" />
  <rect
     x="130.97"
     y="231.95"
     width="71.375"
     height="1.6665"
     rx="5.9849"
     ry="0.83324999"
     fill="#f2f2f2"
     stroke-width="0.33375"
     id="rect45"
     clip-path="url(#clipPath87)"
     transform="matrix(0.13333334,0,0,0.13333334,0,3.8043201e-5)" />
  <g
     stroke="#000000"
     stroke-linejoin="round"
     stroke-width="0.53841"
     id="g48"
     clip-path="url(#clipPath86)"
     transform="matrix(0.13333334,0,0,0.13333334,0,3.8043201e-5)">
    <path
       d="m 186.96,243.18 -40.56,0.41503 v 11.239 h 20.269 l 20.639,34.357 h 25.058 l -2.12,-3.2641 c -5.063,-8.4093 0.62855,-19.632 -13.258,-21.738 l -10.005,-21.009 z"
       fill="#f8d501"
       id="path46" />
    <path
       d="m 198.96,243.05 -11.98,0.12338 10.005,21.009 c 13.887,2.1065 8.1954,13.329 13.258,21.738 l 2.12,3.2641 9.0296,-6.3263 -2.12,-3.2641 c -5.0629,-8.4093 0.61734,-19.621 -13.27,-21.727 z"
       fill="#c60001"
       id="path47" />
    <path
       d="m 198.96,243.05 -5.9898,0.0561 8.5248,17.913 c 13.887,2.1065 8.1954,13.329 13.258,21.738 l 2.12,3.2641 4.5204,-3.1632 -2.12,-3.2641 c -5.0629,-8.4093 0.61734,-19.621 -13.27,-21.727 z"
       fill="#c60001"
       id="path48" />
  </g>
  <g
     fill="#f8d501"
     id="g73"
     clip-path="url(#clipPath85)"
     transform="matrix(0.13333334,0,0,0.13333334,0,3.8043201e-5)">
    <g
       transform="matrix(0.35894,0,0,0.35894,50.645,-55.895)"
       stroke="#000000"
       id="g69">
      <g
         stroke-width="1.5"
         id="g67">
        <path
           d="m 297.69,812 c -40.928,0 -74.125,33.197 -74.125,74.125 0,40.928 33.197,74.094 74.125,74.094 40.928,0 74.094,-33.166 74.094,-74.094 C 371.784,845.197 338.618,812 297.69,812 Z m 0,10.625 c 35.068,0 63.5,28.432 63.5,63.5 0,35.068 -28.432,63.469 -63.5,63.469 -35.068,0 -63.5,-28.401 -63.5,-63.469 0,-35.068 28.432,-63.5 63.5,-63.5 z"
           id="path49" />
        <path
           d="m 278.22,826.72 c 7.2335,6.7293 15.885,12.82 13.344,19.625 -2.5732,6.8914 -3.3482,8.644 -3.3482,10.5 0,5.2315 4.3484,9.4688 9.4576,9.4688 5.1092,0 9.4888,-4.2373 9.4888,-9.4688 0,-1.856 -0.77505,-3.6086 -3.3482,-10.5 -2.541,-6.8052 6.1102,-12.896 13.344,-19.625 -3.6632,3.2206 -10.997,5.4375 -19.469,5.4375 -8.472,0 -15.806,-2.2169 -19.469,-5.4375 z"
           id="path50" />
        <path
           d="m 297.69,822.62 c -7.0937,0 -13.911,1.166 -20.281,3.3125 3.3085,3.6433 11.137,6.2188 20.281,6.2188 9.1561,0 16.981,-2.5676 20.281,-6.2188 -6.3703,-2.1465 -13.188,-3.3125 -20.281,-3.3125 z"
           id="path51" />
        <path
           d="m 357.07,866.65 c -6.7293,7.2335 -12.82,15.885 -19.625,13.344 -6.8914,-2.5732 -8.644,-3.3482 -10.5,-3.3482 -5.2315,0 -9.4688,4.3484 -9.4688,9.4576 0,5.1092 4.2373,9.4888 9.4688,9.4888 1.856,0 3.6086,-0.77505 10.5,-3.3482 6.8052,-2.541 12.896,6.1102 19.625,13.344 -3.2206,-3.6632 -5.4375,-10.997 -5.4375,-19.469 0,-8.472 2.2169,-15.806 5.4375,-19.469 z"
           id="path52" />
        <path
           d="m 361.16,886.12 c 0,-7.0937 -1.166,-13.911 -3.3125,-20.281 -3.6433,3.3085 -6.2188,11.137 -6.2188,20.281 0,9.1561 2.5676,16.981 6.2188,20.281 2.1465,-6.3703 3.3125,-13.188 3.3125,-20.281 z"
           id="path53" />
        <path
           d="m 278.21,945.5 c 7.2335,-6.7293 15.885,-12.82 13.344,-19.625 -2.5732,-6.8914 -3.3482,-8.644 -3.3482,-10.5 0,-5.2315 4.3484,-9.4688 9.4576,-9.4688 5.1092,0 9.4888,4.2373 9.4888,9.4688 0,1.856 -0.77505,3.6086 -3.3482,10.5 -2.541,6.8052 6.1102,12.896 13.344,19.625 -3.6632,-3.2206 -10.997,-5.4375 -19.469,-5.4375 -8.472,0 -15.806,2.2169 -19.469,5.4375 z"
           id="path54" />
        <path
           d="m 297.68,949.6 c -7.0937,0 -13.911,-1.166 -20.281,-3.3125 3.3085,-3.6433 11.137,-6.2188 20.281,-6.2188 9.1561,0 16.981,2.5676 20.281,6.2188 -6.3703,2.1465 -13.188,3.3125 -20.281,3.3125 z"
           id="path55" />
        <path
           d="m 357.07,866.65 c -6.7293,7.2335 -12.82,15.885 -19.625,13.344 -6.8914,-2.5732 -8.644,-3.3482 -10.5,-3.3482 -5.2315,0 -9.4688,4.3484 -9.4688,9.4576 0,5.1092 4.2373,9.4888 9.4688,9.4888 1.856,0 3.6086,-0.77505 10.5,-3.3482 6.8052,-2.541 12.896,6.1102 19.625,13.344 -3.2206,-3.6632 -5.4375,-10.997 -5.4375,-19.469 0,-8.472 2.2169,-15.806 5.4375,-19.469 z"
           id="path56" />
        <path
           d="m 361.16,886.12 c 0,-7.0937 -1.166,-13.911 -3.3125,-20.281 -3.6433,3.3085 -6.2188,11.137 -6.2188,20.281 0,9.1561 2.5676,16.981 6.2188,20.281 2.1465,-6.3703 3.3125,-13.188 3.3125,-20.281 z"
           id="path57" />
        <path
           d="m 238.29,905.57 c 6.7293,-7.2335 12.82,-15.885 19.625,-13.344 6.8914,2.5732 8.644,3.3482 10.5,3.3482 5.2315,0 9.4688,-4.3484 9.4688,-9.4576 0,-5.1092 -4.2373,-9.4888 -9.4688,-9.4888 -1.856,0 -3.6086,0.77505 -10.5,3.3482 -6.8052,2.541 -12.896,-6.1102 -19.625,-13.344 3.2206,3.6632 5.4375,10.997 5.4375,19.469 0,8.472 -2.2169,15.806 -5.4375,19.469 z"
           id="path58" />
        <path
           d="m 234.19,886.1 c 0,7.0937 1.166,13.911 3.3125,20.281 3.6433,-3.3085 6.2188,-11.137 6.2188,-20.281 0,-9.1561 -2.5676,-16.981 -6.2188,-20.281 -2.1465,6.3703 -3.3125,13.188 -3.3125,20.281 z"
           id="path59" />
        <path
           d="m 241.92,857.87 c 9.8732,-0.35653 20.297,-2.1672 23.312,4.4415 3.0534,6.6924 3.7447,8.4798 5.0571,9.7922 3.6992,3.6992 9.7702,3.6206 13.383,0.008 3.6127,-3.6128 3.7134,-9.7058 0.0142,-13.405 -1.3124,-1.3124 -3.0998,-2.0036 -9.7922,-5.0571 -6.6087,-3.0152 -4.798,-13.439 -4.4415,-23.312 -0.31297,4.8676 -3.9312,11.621 -9.9216,17.611 -5.9904,5.9904 -12.744,9.6086 -17.611,9.9216 z"
           id="path60" />
        <path
           d="m 252.79,841.21 c -5.016,5.016 -9.012,10.661 -11.999,16.683 4.9156,0.23674 12.273,-3.4781 18.738,-9.9437 6.4743,-6.4743 10.191,-13.823 9.9437,-18.738 -6.0222,2.9867 -11.667,6.9827 -16.683,11.999 z"
           id="path61" />
        <path
           d="m 353.44,857.87 c -9.8732,-0.35653 -20.297,-2.1672 -23.312,4.4415 -3.0534,6.6924 -3.7447,8.4798 -5.0571,9.7922 -3.6992,3.6992 -9.7702,3.6206 -13.383,0.008 -3.6127,-3.6128 -3.7134,-9.7058 -0.0142,-13.405 1.3124,-1.3124 3.0998,-2.0036 9.7922,-5.0571 6.6087,-3.0152 4.798,-13.439 4.4415,-23.312 0.31297,4.8676 3.9312,11.621 9.9216,17.611 5.9904,5.9904 12.744,9.6086 17.611,9.9216 z"
           id="path62" />
        <path
           d="m 342.56,841.21 c 5.016,5.016 9.012,10.661 11.999,16.683 -4.9156,0.23674 -12.273,-3.4781 -18.738,-9.9437 -6.4743,-6.4743 -10.191,-13.823 -9.9437,-18.738 6.0222,2.9867 11.667,6.9827 16.683,11.999 z"
           id="path63" />
        <path
           d="m 241.92,914.35 c 9.8732,0.35653 20.297,2.1672 23.312,-4.4415 3.0534,-6.6924 3.7447,-8.4798 5.0571,-9.7922 3.6992,-3.6992 9.7702,-3.6206 13.383,-0.008 3.6127,3.6128 3.7134,9.7058 0.0142,13.405 -1.3124,1.3124 -3.0998,2.0036 -9.7922,5.0571 -6.6087,3.0152 -4.798,13.439 -4.4415,23.312 -0.31297,-4.8676 -3.9312,-11.621 -9.9216,-17.611 -5.9904,-5.9904 -12.744,-9.6086 -17.611,-9.9216 z"
           id="path64" />
        <path
           d="m 252.79,931.01 c -5.016,-5.016 -9.012,-10.661 -11.999,-16.683 4.9156,-0.23674 12.273,3.4781 18.738,9.9437 6.4743,6.4743 10.191,13.823 9.9437,18.738 -6.0222,-2.9867 -11.667,-6.9827 -16.683,-11.999 z"
           id="path65" />
        <path
           d="m 353.44,914.35 c -9.8732,0.35653 -20.297,2.1672 -23.312,-4.4415 -3.0534,-6.6924 -3.7447,-8.4798 -5.0571,-9.7922 -3.6992,-3.6992 -9.7702,-3.6206 -13.383,-0.008 -3.6127,3.6128 -3.7134,9.7058 -0.0142,13.405 1.3124,1.3124 3.0998,2.0036 9.7922,5.0571 6.6087,3.0152 4.798,13.439 4.4415,23.312 0.31297,-4.8676 3.9312,-11.621 9.9216,-17.611 5.9904,-5.9904 12.744,-9.6086 17.611,-9.9216 z"
           id="path66" />
        <path
           d="m 342.56,931.01 c 5.016,-5.016 9.012,-10.661 11.999,-16.683 -4.9156,-0.23674 -12.273,3.4781 -18.738,9.9437 -6.4743,6.4743 -10.191,13.823 -9.9437,18.738 6.0222,-2.9867 11.667,-6.9827 16.683,-11.999 z"
           id="path67" />
      </g>
      <path
         transform="matrix(0.40969,0,0,0.40969,175.72,523.08)"
         d="m 349.29,886.11 a 51.607,51.607 0 1 1 -103.21,0 51.607,51.607 0 1 1 103.21,0 z"
         stroke-width="3.2905"
         id="path68" />
      <path
         transform="matrix(0.14143,0,0,0.14143,255.58,760.79)"
         d="m 349.29,886.11 a 51.607,51.607 0 1 1 -103.21,0 51.607,51.607 0 1 1 103.21,0 z"
         stroke-width="10.606"
         id="path69" />
    </g>
    <g
       stroke-width="0.35894"
       id="g72">
      <path
         d="m 202.06,173.12 c -1.8889,12.172 -12.19,19.41 -12.327,23.208 -0.11243,3.1008 5.6479,9.3785 6.5282,15.042 l 4.7111,1.3572 0.76274,-2.3892 c 0.91104,-4.2642 0.007,-9.0348 3.4997,-12.922 -1.441,-1.2766 -1.9994,0.29699 -2.8042,1.088 l 2.6248,-9.3436 c -0.97889,-0.58567 -1.7107,0.29778 -2.535,0.63936 2.8752,-5.7488 0.14995,-11.149 -0.45989,-16.679 z"
         stroke="#000000"
         stroke-linejoin="round"
         id="path70" />
      <path
         d="m 198.62,212.05 c -0.88036,-5.6633 -6.6389,-11.946 -6.5265,-15.047 0.13768,-3.7976 10.439,-11.033 12.328,-23.205 0.60984,5.531 3.3284,10.93 0.45324,16.679 0.82435,-0.34157 1.5592,-1.2202 2.5381,-0.63452 l -2.6287,9.3365 c 0.80484,-0.79105 1.369,-2.3644 2.81,-1.0878 -4.1632,4.6327 -2.0667,10.535 -4.2604,15.319 9.8862,-13.294 6.31,-49.48 25.562,-37.074 -13.933,-6.3354 -14.55,15.05 -18.492,29.097 6.0508,-6.6283 6.8304,-31.844 18.696,-17.966 -7.5934,-7.3548 -11.744,12.836 -17.178,22.754 6.7515,-5.644 13.503,-23.991 20.254,-11.666 -14.794,-4.0536 -15.677,28.999 -34.453,27.157 -16.151,-1.5849 -12.766,-18.188 -14.333,-32.517 -0.18392,-1.6822 -5.1073,-3.0407 -4.8042,-5.0762 0.29137,-1.9568 2.6983,-2.9893 5.2575,-2.3568 7.8327,1.9358 -0.58322,18.393 14.775,26.287 z"
         id="path71" />
      <path
         d="m 179.28,186.72 c -1.9099,0.52462 -3.6697,1.4159 -5.9113,1.1666 -0.41447,1.9507 1.3154,2.2685 2.2209,2.3107 1.3796,0.0642 3.0262,0.18654 4.8345,0.33651 -1.0625,-0.72848 -1.975,-1.5021 -1.8396,-2.4116 0.0809,-0.54353 0.33015,-1.0171 0.69545,-1.4021 z"
         stroke="#000000"
         stroke-linejoin="round"
         id="path72" />
    </g>
  </g>
  <g
     stroke-width="0.35894"
     id="g75"
     clip-path="url(#clipPath84)"
     transform="matrix(0.13333334,0,0,0.13333334,0,3.8043201e-5)">
    <path
       d="m 181.89,187.4 c 1.615,-1.0583 2.4696,0.2597 3.4292,1.2499 -1.1431,-0.29646 -2.2861,-0.0299 -3.4292,-1.2499 z"
       id="path73" />
    <path
       d="m 181.89,176.46 c -0.64604,0 -1.1666,0.52051 -1.1666,1.1666 0,0.64605 0.52051,1.1778 1.1666,1.1778 0.25035,0.89886 0.42769,2.1206 0.52719,3.3875 0.0931,1.1855 0.13964,2.34 0.17947,3.3987 0.25078,0.0107 0.50415,0.0349 0.76275,0.0785 -0.0439,-1.0789 -0.0925,-2.2828 -0.19069,-3.5333 -0.10342,-1.3169 -0.25418,-2.5935 -0.54962,-3.6006 0.26526,-0.21444 0.43746,-0.54089 0.43746,-0.90857 0,-0.64604 -0.52052,-1.1666 -1.1666,-1.1666 z m -2.9837,2.12 c -0.64604,0 -1.1666,0.52051 -1.1666,1.1666 0,0.64605 0.52051,1.1666 1.1666,1.1666 0.10891,0 0.21404,-0.017 0.31407,-0.0449 0.83092,1.5906 1.5558,2.9527 1.7835,4.8793 0.23669,-0.0628 0.48348,-0.1066 0.74031,-0.1346 -0.25561,-2.0787 -1.052,-3.5652 -1.8956,-5.1822 0.14228,-0.19373 0.22434,-0.42543 0.22434,-0.68423 0,-0.64604 -0.52052,-1.1666 -1.1666,-1.1666 z m 7.5377,0.12338 c -0.64604,0 -1.1778,0.52052 -1.1778,1.1666 0,0.32302 0.13604,0.61836 0.34772,0.83005 -0.75952,1.5307 -1.4129,3.1577 -1.6489,5.0925 0.2594,0.0707 0.4937,0.16634 0.71788,0.2692 0.20356,-1.8964 0.84925,-3.4951 1.6152,-5.0364 0.0484,0.006 0.0958,0.0224 0.14582,0.0224 0.64604,0 1.1666,-0.53173 1.1666,-1.1778 0,-0.64607 -0.52052,-1.1666 -1.1666,-1.1666 z"
       id="path74" />
    <path
       d="m 198.62,212.05 c -0.88036,-5.6633 -6.6389,-11.946 -6.5265,-15.047 0.13768,-3.7976 10.439,-11.033 12.328,-23.205 0.60984,5.531 3.3284,10.93 0.45324,16.679 0.82435,-0.34157 1.5592,-1.2202 2.5381,-0.63452 l -2.6287,9.3365 c 0.80484,-0.79105 1.369,-2.3644 2.81,-1.0878 -4.1632,4.6327 -2.0667,10.535 -4.2604,15.319 9.8862,-13.294 6.31,-49.48 25.562,-37.074 -13.933,-6.3354 -14.55,15.05 -18.492,29.097 6.0508,-6.6283 6.8304,-31.844 18.696,-17.966 -7.5934,-7.3548 -11.744,12.836 -17.178,22.754 6.7515,-5.644 13.503,-23.991 20.254,-11.666 -14.794,-4.0536 -15.677,28.999 -34.453,27.157 -16.151,-1.5849 -12.766,-18.188 -14.333,-32.517 -0.18392,-1.6822 -5.1073,-3.0407 -4.8042,-5.0762 0.29137,-1.9568 2.6983,-2.9893 5.2575,-2.3568 7.8327,1.9358 -0.58322,18.393 14.775,26.287 z"
       fill="none"
       stroke="#000000"
       stroke-linejoin="round"
       id="path75" />
  </g>
  <g
     fill="#f8d501"
     id="g78"
     clip-path="url(#clipPath83)"
     transform="matrix(0.13333334,0,0,0.13333334,0,3.8043201e-5)">
    <path
       d="m 200.48,225.72 c -0.80122,0.0735 -1.636,0.0835 -2.5126,0.0112 l -1.1553,3.7016 c 0,0 -1.2666,0.67768 -2.1088,1.4245 l 4.913,0.0561 c -0.009,-0.5971 -0.49354,-1.6713 -0.49354,-1.6713 0,0 0.75012,-1.9343 1.3572,-3.5221 z"
       stroke="#000000"
       stroke-width="0.35894"
       id="path76" />
    <path
       d="m 193.39,224.78 -2.7818,4.4755 c -1.7466,0.36856 -3.6698,0.9062 -3.3987,1.862 0.30446,1.0736 1.6232,-0.22113 2.2322,-0.2692 -0.15475,0.70459 -0.23297,1.036 0.42624,1.0992 0.44157,0.0424 0.75267,-0.40283 1.3797,-0.75153 0.56965,0.30204 0.94066,1.3498 1.7274,0.75153 0.28929,-0.42421 -0.0785,-2.2882 -0.0785,-2.2882 0,0 2.1054,-2.9601 2.9725,-4.2063 -0.89319,-0.16889 -1.7186,-0.40115 -2.4789,-0.67301 z"
       stroke="#000000"
       stroke-width="0.35894"
       id="path77" />
    <rect
       x="9.1797001e-06"
       y="511.16"
       width="900"
       height="30"
       id="rect77" />
    <rect
       y="367.06"
       width="900"
       height="30"
       id="rect78"
       x="0" />
  </g>
  <g
     fill="#f2f2f2"
     id="g81"
     clip-path="url(#clipPath82)"
     transform="matrix(0.13333334,0,0,0.13333334,0,3.8043201e-5)">
    <path
       d="m 225.52,231.16 c -0.94236,1.2939 -1.3837,2.9072 -1.497,4.71 -0.0346,0.55097 -0.0353,1.4479 0.0121,1.9979 0.15475,1.796 0.73284,3.4362 1.7317,4.746 0.33466,0.43882 0.84189,0.3445 1.0694,-0.15876 0.17596,-0.38925 0.0915,-1.0907 -0.17591,-1.5739 -0.61695,-1.115 -0.93123,-1.8722 -1.0356,-3.0138 -0.0502,-0.54948 -0.0487,-1.4474 0.007,-1.9967 0.1236,-1.2264 0.48824,-2.1427 1.0692,-3.223 0.26146,-0.48619 0.2225,-1.2311 -0.10661,-1.6747 -0.23456,-0.31609 -0.74904,-0.25898 -1.0738,0.187 z"
       color="#000000"
       color-rendering="auto"
       dominant-baseline="auto"
       image-rendering="auto"
       opacity="0.999"
       shape-rendering="auto"
       solid-color="#000000"
       stop-color="#000000"
       style="font-variant-ligatures:normal;font-variant-position:normal;font-variant-caps:normal;font-variant-numeric:normal;font-variant-alternates:normal;font-variant-east-asian:normal;font-feature-settings:normal;font-variation-settings:normal;text-indent:0;text-decoration-line:none;text-decoration-style:solid;text-decoration-color:#000000;text-transform:none;text-orientation:mixed;white-space:normal;shape-padding:0;shape-margin:0;inline-size:0;isolation:auto;mix-blend-mode:normal"
       id="path78" />
    <rect
       x="206.88"
       y="231.69"
       width="11.632"
       height="2.9384999"
       rx="3.0532999"
       ry="1.4693"
       opacity="0.999"
       id="rect79" />
    <rect
       x="206.67"
       y="239.37"
       width="11.632"
       height="2.9384999"
       rx="3.0532999"
       ry="1.4693"
       opacity="0.999"
       id="rect80" />
    <rect
       x="204.72"
       y="235.57001"
       width="16.493999"
       height="2.9384999"
       rx="2.8852"
       ry="1.4693"
       opacity="0.999"
       id="rect81" />
  </g>
</svg>
