<?xml version="1.0" encoding="UTF-8" standalone="no"?>
<svg
   xml:space="preserve"
   width="80"
   height="80"
   viewBox="0 0 80 80"
   version="1.1"
   id="svg48"
   sodipodi:docname="71_Tula_Oblast.svg"
   inkscape:version="1.3.2 (091e20e, 2023-11-25, custom)"
   xmlns:inkscape="http://www.inkscape.org/namespaces/inkscape"
   xmlns:sodipodi="http://sodipodi.sourceforge.net/DTD/sodipodi-0.dtd"
   xmlns:xlink="http://www.w3.org/1999/xlink"
   xmlns="http://www.w3.org/2000/svg"
   xmlns:svg="http://www.w3.org/2000/svg"><sodipodi:namedview
   id="namedview48"
   pagecolor="#505050"
   bordercolor="#ffffff"
   borderopacity="1"
   inkscape:showpageshadow="0"
   inkscape:pageopacity="0"
   inkscape:pagecheckerboard="1"
   inkscape:deskcolor="#505050"
   inkscape:zoom="7.2788906"
   inkscape:cx="102.8316"
   inkscape:cy="76.866109"
   inkscape:window-width="2560"
   inkscape:window-height="1377"
   inkscape:window-x="1912"
   inkscape:window-y="-8"
   inkscape:window-maximized="1"
   inkscape:current-layer="svg48"
   showgrid="false" />

<defs
   id="defs41">
	<linearGradient
   id="grad1"
   x1="107.90783"
   y1="2647.0183"
   x2="-67.89035"
   y2="2822.8164"
   gradientUnits="userSpaceOnUse"
   gradientTransform="scale(5.0228051,0.19909194)">
		<stop
   offset="0%"
   stop-color="#699"
   id="stop1" />
		<stop
   offset="100%"
   stop-color="#eee"
   id="stop2" />
	</linearGradient>

	<linearGradient
   id="grad2"
   gradientTransform="scale(0.52440442,1.9069252)"
   x1="1012.5773"
   y1="255.38495"
   x2="1033.5533"
   y2="255.38495"
   gradientUnits="userSpaceOnUse">
		<stop
   offset="0%"
   stop-color="#688"
   id="stop3" />
		<stop
   offset="100%"
   stop-color="#ded"
   id="stop4" />
	</linearGradient>

	<linearGradient
   id="grad3">
		<stop
   offset="0%"
   stop-color="#9ba"
   id="stop5" />
		<stop
   offset="100%"
   stop-color="white"
   id="stop6" />
	</linearGradient>

	<linearGradient
   id="grad4">
		<stop
   offset="0%"
   stop-color="white"
   id="stop7" />
		<stop
   offset="100%"
   stop-color="#7a9"
   id="stop8" />
	</linearGradient>

	<linearGradient
   id="grad5"
   x1="0"
   y1="0"
   x2="0"
   y2="1"
   gradientUnits="objectBoundingBox">
		<stop
   offset="0%"
   stop-color="#8aa"
   id="stop9" />
		<stop
   offset="100%"
   stop-color="#eee"
   id="stop10" />
	</linearGradient>

	<radialGradient
   id="grad6"
   cx="207"
   cy="292"
   r="300"
   gradientUnits="userSpaceOnUse">
		<stop
   offset="0%"
   stop-color="#fe9"
   id="stop11" />
		<stop
   offset="10%"
   stop-color="#fd5"
   id="stop12" />
		<stop
   offset="33%"
   stop-color="#d60"
   id="stop13" />
		<stop
   offset="100%"
   stop-color="#fc1"
   id="stop14" />
	</radialGradient>

	<linearGradient
   id="grad7"
   x1="0"
   y1="0"
   x2="0"
   y2="1"
   gradientUnits="objectBoundingBox">
		<stop
   offset="0%"
   stop-color="#fe9"
   id="stop15" />
		<stop
   offset="25%"
   stop-color="#d80"
   id="stop16" />
		<stop
   offset="65%"
   stop-color="#fe5"
   id="stop17" />
		<stop
   offset="85%"
   stop-color="#c70"
   id="stop18" />
		<stop
   offset="100%"
   stop-color="#e80"
   id="stop19" />
	</linearGradient>

	<linearGradient
   id="grad8">
		<stop
   offset="0%"
   stop-color="#fc3"
   id="stop20" />
		<stop
   offset="15%"
   stop-color="#e90"
   id="stop21" />
		<stop
   offset="55%"
   stop-color="#fe4"
   id="stop22" />
		<stop
   offset="90%"
   stop-color="#e81"
   id="stop23" />
	</linearGradient>

	<linearGradient
   id="grad9">
		<stop
   offset="0%"
   stop-color="#d81"
   id="stop24" />
		<stop
   offset="100%"
   stop-color="#fd4"
   id="stop25" />
	</linearGradient>

	<linearGradient
   id="grad10"
   x1="0"
   y1="0"
   x2="0"
   y2="1"
   gradientUnits="objectBoundingBox">
		<stop
   offset="0%"
   stop-color="#ec5"
   id="stop26" />
		<stop
   offset="100%"
   stop-color="#fe9"
   id="stop27" />
	</linearGradient>

	<linearGradient
   id="grad11"
   x1="0"
   y1="0"
   x2="0"
   y2="1"
   gradientUnits="objectBoundingBox">
		<stop
   offset="0%"
   stop-color="#a81"
   id="stop28" />
		<stop
   offset="100%"
   stop-color="#ffa"
   id="stop29" />
	</linearGradient>

	<linearGradient
   id="grad12"
   x1="0"
   y1="0"
   x2="0"
   y2="1"
   gradientUnits="objectBoundingBox">
		<stop
   offset="0%"
   stop-color="#d70"
   id="stop30" />
		<stop
   offset="100%"
   stop-color="#f91"
   id="stop31" />
	</linearGradient>

<g
   id="thing">
    <path
   fill="#ffffff"
   d="m 434,195 19,17 169,-175 -143,197 19,15 -667,759 -31,10 4,-33 z"
   id="path31" />
    <path
   fill="url(#grad3)"
   d="M 464,226 622,37 479,234 Z"
   id="path32" />
    <path
   fill="url(#grad4)"
   d="m 491,250 7,-1 -667,759 -3,-3 z"
   id="path33" />
    <path
   fill="url(#grad5)"
   d="m 460,230 31,20 -663,755 -28,13 z"
   id="path34" />
    <path
   fill="#aa9999"
   d="m -172,1005 3,3 -31,10 z"
   id="path35" />
</g>

<g
   id="hammer">
    <path
   fill="url(#grad7)"
   d="m 207,371 c 57,0 36,-122 30,-151 -12,-49 -8,-61 -8,-185 0,-31 -44,-31 -44,0 0,124 4,136 -8,185 -6,29 -27,151 30,151 z"
   id="path36" />
    <path
   fill="url(#grad6)"
   d="m 207,360 c 44,0 31,-96 24,-124 -12,-49 -8,-77 -8,-201 0,-21 -32,-21 -32,0 0,124 4,152 -8,201 -7,28 -20,124 24,124 z"
   id="path37" />

    <path
   fill="url(#grad8)"
   d="M 92,100 H 352 V 89 C 285,89 261,55 251,33 H 91 Z"
   id="path38" />
    <rect
   fill="url(#grad12)"
   x="92"
   y="92"
   width="260"
   height="8"
   id="rect38" />
    <path
   fill="url(#grad9)"
   d="m 92,100 8,-8 V 42 L 92,32 Z"
   id="path39" />
    <path
   fill="url(#grad10)"
   d="m 92,32 h 159 l -6,10 H 100 Z"
   id="path40" />
    <path
   fill="url(#grad11)"
   d="M 352,92 V 89 C 285,89 261,55 251,33 l -6,9 c 2,6 26,43 69,50 z"
   id="path41" />
</g>
<linearGradient
   inkscape:collect="always"
   xlink:href="#grad3"
   id="linearGradient48"
   gradientTransform="scale(3.354102,0.2981424)"
   x1="160.10246"
   y1="1767.6117"
   x2="227.18451"
   y2="1767.6117"
   gradientUnits="userSpaceOnUse" /><clipPath
   clipPathUnits="userSpaceOnUse"
   id="clipPath48"><rect
     style="opacity:0.2;fill:#296912;stroke-width:2"
     id="rect49"
     width="1298"
     height="1298"
     x="-437.5"
     y="-108" /></clipPath></defs>   

<g
   transform="matrix(0.06163328,0,0,0.06163328,26.964561,6.6563945)"
   id="g48"
   clip-path="url(#clipPath48)">

<rect
   x="-763"
   y="-108"
   width="1949"
   height="1298"
   fill="#ff0000"
   id="rect41" />
<use
   xlink:href="#thing"
   id="use41" />
<use
   xlink:href="#thing"
   transform="matrix(-1,0,0,1,420,0)"
   id="use42" />

    <path
   fill="#ffffff"
   d="m -341,527 44,27 839,13 V 547 L 762,527 542,509 v -21 l -839,13 z"
   id="path42" />
    <path
   fill="url(#grad1)"
   d="m -341,527 h 872 l 11,35 -837,-13 -2,5 z"
   id="path43"
   style="fill:url(#grad1)" />
    <path
   fill="#cceedd"
   d="m 537,527 5,20 v 20 l -2,-6 -9,-34 z"
   id="path44" />
    <path
   fill="url(#grad2)"
   d="m 537,527 5,-18 v -22 l -11,40 z"
   id="path45"
   style="fill:url(#grad2)" />
    <path
   fill="url(#grad3)"
   d="M 537,527 H 762 L 542,547 Z"
   id="path46"
   style="fill:url(#linearGradient48)" />
    <path
   fill="#558888"
   d="m 540,561 2,6 -839,-13 2,-5 z"
   id="path47" />
    
<use
   xlink:href="#hammer"
   id="use47" />
<use
   xlink:href="#hammer"
   y="740"
   id="use48" />

</g>
</svg>
