<?xml version="1.0" encoding="UTF-8" standalone="no"?>
<svg
   width="80"
   height="80"
   fill-rule="evenodd"
   version="1.1"
   viewBox="0 0 64.020075 64.060264"
   id="svg7"
   sodipodi:docname="76_Yaroslavl_Oblast.svg"
   inkscape:version="1.3.2 (091e20e, 2023-11-25, custom)"
   xmlns:inkscape="http://www.inkscape.org/namespaces/inkscape"
   xmlns:sodipodi="http://sodipodi.sourceforge.net/DTD/sodipodi-0.dtd"
   xmlns="http://www.w3.org/2000/svg"
   xmlns:svg="http://www.w3.org/2000/svg">
  <defs
     id="defs7" />
  <sodipodi:namedview
     id="namedview7"
     pagecolor="#505050"
     bordercolor="#ffffff"
     borderopacity="1"
     inkscape:showpageshadow="0"
     inkscape:pageopacity="0"
     inkscape:pagecheckerboard="1"
     inkscape:deskcolor="#505050"
     inkscape:zoom="8.8964221"
     inkscape:cx="69.634736"
     inkscape:cy="45.467717"
     inkscape:window-width="2560"
     inkscape:window-height="1377"
     inkscape:window-x="1912"
     inkscape:window-y="-8"
     inkscape:window-maximized="1"
     inkscape:current-layer="svg7" />
  <path
     d="M -0.0200945,0 H 64.04017 V 64.060264 H -0.0200945 Z"
     fill="#f8c301"
     id="path1"
     style="stroke-width:0.123013" />
  <path
     d="m 27.026213,48.028231 v 1.51e-4 l 0.282415,-0.325283 0.142189,1.089509 0.252227,-0.348075 0.237735,1.075472 0.226566,-0.379321 c 0.08347,0.308377 0.335246,0.925887 0.08679,1.029283 -0.778566,0.25283 -1.80951,0.656755 -2.014038,0.991396 -0.415396,0.08362 -0.929962,0.323472 -1.051019,0.662189 0.276378,-0.130264 0.513661,-0.199547 0.82234,-0.225359 l 0.03094,0.07774 c -0.374641,0.09691 -0.71532,0.354868 -0.831698,0.63366 0.230642,-0.08725 0.63034,-0.257811 0.928604,-0.276679 l 0.0563,0.08408 c -0.369811,0.117434 -0.658717,0.39683 -0.772076,0.63849 0.311397,-0.08725 0.649208,-0.271245 0.98868,-0.324528 l 0.07668,0.06128 c -0.348981,0.146868 -0.531925,0.318491 -0.678944,0.565283 0.336755,-0.08468 0.639699,-0.196528 0.979774,-0.252226 0.04438,0.03004 0.325736,0.0054 0.386717,-0.0017 l 3.753057,-0.439396 c 0.226566,-0.02657 0.659019,0.0056 0.720603,-0.388076 0.03834,-0.244679 0.06883,-0.46566 0.06853,-0.676075 l -0.0017,-2.434566 0.299019,0.403472 6.04e-4,-3.215397 0.235321,-0.657358 c 0.290113,1.193811 0.669585,1.999698 1.226566,3.236075 l 0.0054,0.01464 0.0018,-0.0042 c 9.06e-4,0.0014 0.0018,0.0027 0.0029,0.0041 0.0012,-0.0068 0.0026,-0.01313 0.0038,-0.01993 l 0.181283,-0.433811 0.553509,1.075623 0.131774,-0.475472 0.677132,1.011774 0.064,-0.436076 c 0.198188,0.318038 0.587169,1.085283 0.382641,1.163925 -0.683321,0.263094 -1.608,0.508679 -2.098566,1.102339 -0.381132,0.08241 -0.841509,0.322717 -0.936,0.664 0.274566,-0.130717 0.480151,-0.196075 0.828679,-0.251773 0.0077,0.02611 0.0157,0.05238 0.02415,0.07864 -0.369358,0.116529 -0.716528,0.361963 -0.816603,0.651321 0.224603,-0.09977 0.612981,-0.249509 0.953962,-0.286792 0.01042,0.02355 0.02128,0.04709 0.0326,0.07049 -0.362566,0.136906 -0.680755,0.385661 -0.798642,0.638793 0.308679,-0.08649 0.674415,-0.245434 1.032,-0.300378 0.0163,0.0243 0.05389,0.0483 0.0714,0.0726 -0.331019,0.150943 -0.55366,0.268679 -0.679094,0.526189 0.358189,-0.104453 0.745811,-0.196227 1.032453,-0.249661 0.137509,0.02868 0.356981,0.02732 0.465509,0.01298 l 3.880453,-0.516377 c 0.227925,-0.03034 0.512755,-0.102943 0.555925,-0.433811 0.02838,-0.21751 0.02249,-0.467774 -0.0017,-0.736906 l -0.285434,-2.374792 0.375849,0.349132 -0.608453,-3.474415 0.0035,-3.912302 0.503245,0.404226 0.06596,-5.457811 0.0057,-1.964679 c 0.0014,-0.487849 -0.03894,-1.001812 -0.273963,-2.051774 -0.09947,-0.44483 -0.445886,-2.030943 -0.672151,-2.293434 l -0.09374,-2.849509 0.391245,0.147622 -0.107019,-1.256604 0.359849,0.159699 -0.218113,-1.248 0.378415,0.132075 -0.264453,-1.231547 0.395623,0.10234 -0.352604,-1.173434 0.444528,0.122867 C 38.770729,22.426122 38.31654,21.233065 37.781899,20.18582 l 3.68166,-2.654491 c 0.0797,0.05374 0.182038,0.05872 0.25751,0.0044 l 0.03985,-0.02868 c 0.05449,-0.03925 0.08408,-0.101735 0.08649,-0.168452 l 0.199095,-0.154265 c 0.08921,0.168906 0.166943,0.343699 0.230339,0.522566 0.04543,0.135246 0.0803,0.269434 0.104604,0.409661 0.02038,0.132075 0.03019,0.261887 0.03155,0.39517 -4.53e-4,0.130566 -0.0092,0.25766 -0.02717,0.386717 -0.02702,0.164377 -0.06777,0.317283 -0.126943,0.472754 -0.02023,0.04981 -0.04151,0.09872 -0.064,0.147623 -0.05706,0.116528 -0.120151,0.226566 -0.19049,0.335698 -0.181434,0.271547 -0.278944,0.380377 -0.488604,0.629283 0.15532,0.01117 0.238792,-0.002 0.386415,-0.03547 0.05706,-0.01283 0.144755,-0.04121 0.200755,-0.06566 0.110188,-0.05177 0.213132,-0.108981 0.315773,-0.173887 0.09917,-0.06551 0.19351,-0.135094 0.286038,-0.209207 0.0957,-0.07955 0.184302,-0.162264 0.270339,-0.252529 0.08106,-0.08906 0.154717,-0.180226 0.224906,-0.278339 0.07774,-0.114113 0.145359,-0.229736 0.207094,-0.353661 0.04181,-0.0886 0.0791,-0.177509 0.113359,-0.269585 0.04589,-0.131018 0.08302,-0.262037 0.113811,-0.397584 0.03215,-0.154566 0.0551,-0.307925 0.06989,-0.46551 0.01525,-0.203321 0.01479,-0.401509 -0.0024,-0.605132 -0.0069,-0.06687 -0.01525,-0.132981 -0.02491,-0.199698 -0.02596,-0.156377 -0.06038,-0.307321 -0.105056,-0.459623 -0.03441,-0.109283 -0.0726,-0.215698 -0.115623,-0.322113 -0.03245,-0.07607 -0.06596,-0.151698 -0.09992,-0.227019 l 0.218113,-0.169056 c 0.0806,0.05872 0.187321,0.06596 0.265207,0.0098 l 0.04,-0.02868 c 0.08241,-0.05947 0.107623,-0.171623 0.06883,-0.271095 l 0.05253,-0.04091 c 0.195622,0.0649 0.418566,0.03834 0.597887,-0.09087 0.208151,-0.149887 0.303547,-0.399547 0.267924,-0.637737 l 0.205132,-0.185962 c 0.174491,0.0011 0.348679,0.01298 0.521661,0.04045 0.137207,0.02325 0.269132,0.05464 0.404377,0.08906 l 2.352302,-2.826416 -3.425962,1.336302 -0.01419,0.189283 c -0.02325,0.22551 -0.06808,0.441812 -0.132227,0.658717 -0.0075,0.02385 -0.01525,0.04755 -0.02309,0.07109 l -0.242264,0.136 c -0.214491,-0.108981 -0.481509,-0.09781 -0.68966,0.05223 -0.178566,0.128604 -0.274114,0.330717 -0.275321,0.536 l -0.05464,0.03623 c -0.08241,-0.07487 -0.202113,-0.08936 -0.287396,-0.02792 l -0.0397,0.02868 c -0.08045,0.05796 -0.106566,0.16634 -0.0717,0.26385 l -0.09615,0.06385 c -0.05706,-0.122868 -0.113208,-0.246491 -0.167094,-0.370869 -0.06159,-0.148377 -0.111397,-0.297962 -0.150793,-0.454037 -0.03653,-0.154868 -0.06143,-0.308981 -0.07607,-0.467774 -0.01645,-0.211924 -0.01585,-0.421585 0.0072,-0.633509 l 0.02415,-0.14868 c 0.02143,-0.100377 0.04709,-0.197283 0.07789,-0.295396 0.03426,-0.09857 0.07215,-0.193358 0.114868,-0.288906 0.04589,-0.09494 0.09449,-0.186264 0.148075,-0.277433 0.07004,-0.112302 0.143849,-0.217963 0.22566,-0.322567 0.04981,-0.06053 0.10068,-0.119094 0.153812,-0.177056 0.08966,-0.09283 0.181736,-0.178415 0.281358,-0.26083 0.06521,-0.05102 0.131321,-0.100529 0.200755,-0.146114 0.183245,-0.118943 0.381434,-0.21283 0.575849,-0.312 l -0.419472,-0.207396 -0.159849,-0.07336 -0.318037,-0.128604 -0.316227,-0.104151 -0.314566,-0.0797 -0.156679,-0.03049 -0.156377,-0.0246 -0.156076,-0.01826 -0.155774,-0.01208 -0.155471,-0.0059 -0.15517,1.51e-4 -0.155019,0.0063 -0.154717,0.01253 -0.154566,0.01872 -0.154264,0.02491 -0.153962,0.03094 -0.153963,0.03698 -0.30732,0.09208 -0.306868,0.116226 -0.306717,0.140076 -0.306868,0.163622 -0.307623,0.187019 -0.308377,0.210113 -0.272151,0.204378 -0.256755,0.212528 -0.240906,0.221283 -0.223849,0.230792 -0.206188,0.240906 -0.187472,0.251623 -0.167698,0.263094 -0.07638,0.135849 -0.07079,0.138868 -0.06566,0.141887 -0.05992,0.145056 -0.05434,0.148227 -0.0486,0.151396 -0.04272,0.154717 -0.03668,0.157887 -0.03064,0.161207 -0.0246,0.164529 -0.01826,0.168 -0.01192,0.17132 -0.0056,0.174794 0.0012,0.178415 0.0075,0.182037 0.01434,0.18551 0.02098,0.189283 0.06853,0.474415 c 0.143246,-0.13917 0.28317,-0.282717 0.436529,-0.410566 0.121962,-0.09902 0.248302,-0.186415 0.384453,-0.264151 0.170868,-0.09464 0.346566,-0.16966 0.532377,-0.228679 0.159698,-0.04785 0.319094,-0.08106 0.484377,-0.101887 0.24151,-0.02747 0.477736,-0.02792 0.719397,-0.0011 l 0.133735,0.01993 c 0.134038,0.0246 0.262944,0.0566 0.392906,0.09736 0.08559,0.02898 0.168906,0.06068 0.252076,0.09585 0.103245,0.04664 0.20166,0.09721 0.299622,0.153812 0.136,0.08302 0.260227,0.172528 0.381736,0.275622 0.06038,0.05389 0.118491,0.108981 0.174642,0.167095 0.04272,0.04513 0.08407,0.09102 0.124377,0.13766 l -0.230491,0.153057 c -0.06475,-0.01977 -0.134641,-0.01208 -0.189886,0.02777 l -0.03985,0.02883 c -0.07623,0.05479 -0.103547,0.15517 -0.07653,0.248604 l -3.596226,2.592906 c -0.21313,-0.363408 -0.43547,-0.70454 -0.663243,-1.01971 l 0.372075,0.01268 -0.585509,-0.836378 0.361509,-0.01615 -0.647094,-0.64483 0.359094,-0.04543 -0.679396,-0.638792 0.354264,-0.07441 c -0.655547,-0.880906 -1.556377,-1.806794 -2.147019,-2.215095 0.0014,-9.06e-4 0.0026,-0.002 0.0039,-0.0029 0,0 0.275169,-0.13268 0.283924,-0.346868 0.0088,-0.214038 -0.264302,-0.569208 -0.561811,-0.782944 -0.310793,-0.223245 -0.624604,-0.251773 -0.77917,-0.168754 -0.08513,0.04574 -0.171472,0.149886 -0.244679,0.27366 -0.167849,-0.115623 -0.33434,-0.218264 -0.522415,-0.296453 -0.01132,-0.0069 -0.02249,-0.01389 -0.03366,-0.02068 -0.03894,-0.01449 -0.07728,-0.02566 -0.115019,-0.03426 -0.121056,-0.03925 -0.252075,-0.06853 -0.398188,-0.08513 -0.164529,-0.01872 -0.338868,-0.02898 -0.520453,-0.0314 -0.786717,-0.01087 -1.707623,0.122566 -2.535245,0.328151 -0.29434,0.07306 -0.823246,0.548076 -0.831246,0.548076 l -2.088151,0.155773 c -0.46566,-0.01751 -0.293585,0.472151 -0.244226,0.815699 0.03396,0.236377 0.07593,0.511547 0.07593,0.511547 0.848,0.268227 1.307018,0.437434 1.568905,0.691925 0.03653,0.09177 0.02717,0.277887 0.0044,0.331472 -0.210114,-0.101585 -0.786265,-0.357283 -1.301434,-0.347472 -0.05555,0.0065 0.01766,0.271849 0.08709,0.526943 0.05404,0.168755 0.305358,0.350189 0.626113,0.610264 0.800453,0.648604 1.151396,1.807849 1.29283,2.391548 l -1.51e-4,0.0033 7.55e-4,-9.05e-4 c 0,1.51e-4 1.51e-4,3.02e-4 1.51e-4,3.02e-4 0,-1.51e-4 1.51e-4,-3.02e-4 1.51e-4,-4.53e-4 l 0.23366,-0.227321 0.04966,0.835623 0.204075,-0.256151 0.154717,0.822641 0.167698,-0.268679 0.339019,0.761811 1.51e-4,1.063095 c -0.284679,0.0089 -0.568755,0.01177 -0.830641,0.0062 -0.700227,-0.01479 -1.069736,-0.01992 -1.557887,-0.509434 l -2.681357,-2.68933 c -0.192,-0.192755 -0.506415,-0.594415 -1.026415,-0.85283 l -1.851471,-0.920604 c -0.416755,-0.207245 -0.886491,-0.384151 -1.36317,-0.309887 -0.471095,-0.142641 -0.928302,-0.248906 -1.165434,-0.01751 0.288151,0.06113 0.554717,0.140528 0.819622,0.236377 -0.03381,0.03336 -0.06521,0.06808 -0.09434,0.104151 -0.457661,-0.02008 -0.972679,-0.07623 -1.135095,0.190943 0.334038,-0.01434 0.639699,0.04317 0.96634,0.100227 -0.01811,0.048 -0.032,0.09721 -0.04166,0.147019 -0.404831,0.01691 -0.811925,0.04196 -0.93117,0.286188 0.309585,-0.04196 0.600604,-0.01902 0.90717,0.0062 -0.0021,0.0557 -0.0032,0.109434 -0.003,0.160906 -0.388378,0.05268 -0.768604,0.118943 -0.861887,0.364679 0.296,-0.06808 0.580075,-0.07351 0.87834,-0.07638 0.0077,0.05932 0.01811,0.113811 0.03185,0.162867 -0.310491,0.0803 -0.581132,0.185359 -0.64,0.397434 0.26249,-0.08634 0.519849,-0.12 0.787622,-0.148226 0.0038,0.0029 0.0074,0.0056 0.01132,0.0083 1.048604,0.735396 1.838189,2.245736 2.784906,2.641056 l 0.272604,0.396529 -0.591095,0.07834 0.939472,0.914566 -0.539472,0.09494 0.977661,0.873811 -0.534944,0.117887 1.014038,0.831245 -0.52951,0.140529 1.089963,0.818415 -0.542189,0.169962 2.055094,1.405132 -2.932528,0.722113 c -1.136302,0.279849 -1.553358,0.650264 -1.909887,1.13917 l -1.667924,2.287547 c -0.432604,0.593057 -0.608604,0.96483 -0.652378,1.490717 -0.01404,0.06204 -0.01706,0.123472 -0.0089,0.181585 -0.064,0.163321 -0.122264,0.325283 -0.149283,0.470943 l -2.553359,1.840755 -0.05011,0.05328 -0.03079,0.07517 -0.0065,0.0726 0.0082,0.06641 0.01766,0.06204 0.02475,0.05887 0.06581,0.109886 0.08347,0.09706 0.048,0.04181 0.05328,0.03653 0.06068,0.02868 0.07079,0.0166 0.0809,-0.0053 0.06642,-0.03094 2.565132,-1.849358 c 0.01947,0.03789 0.04468,0.07125 0.07698,0.09902 0.0072,-0.05932 0.01675,-0.117283 0.02777,-0.174491 l 0.328,-0.236528 c -0.0023,0.222037 0.03517,0.408905 0.16951,0.504452 0.0072,-0.245433 0.05208,-0.472905 0.107321,-0.704 l 0.171169,-0.12332 c 0.01087,-6.04e-4 0.02174,-0.0015 0.03275,-0.0023 -0.01,0.379471 0,0.746566 0.220377,0.874717 -0.01962,-0.315472 0.02551,-0.606944 0.07336,-0.914868 0.05117,-0.01042 0.103547,-0.02415 0.15366,-0.04166 0.02445,0.396529 0.06083,0.789434 0.302491,0.901585 -0.05751,-0.370415 -0.02098,-0.715622 0,-1.093434 0.734792,-0.610868 1.579472,-1.028226 2.20649,-1.760755 l 0.45751,-0.11215 -0.20483,0.497358 1.246188,-0.347774 -0.187019,0.507472 1.230491,-0.399849 -0.165434,0.515019 1.195925,-0.445132 -0.02928,0.127547 -0.09736,0.385208 1.729208,-0.334642 0.02732,0.005 c -0.178415,1.736302 -0.283018,3.268378 -0.344,5.072906 h 1.51e-4 l 0.338566,-0.142038 -0.230641,0.977661 0.320151,-0.160151 -0.140981,0.999849 0.290415,-0.183698 c 0.01691,0.14083 0.03155,0.832603 0.09721,1.342339 l -1.166188,2.481208 c -0.451321,0.960453 -0.643321,2.536603 -0.524076,3.74566 0.215547,1.189283 0.264151,1.364981 0.498113,2.307019 z"
     fill="#2c2c2b"
     id="path2"
     style="stroke-width:0.150943" />
  <path
     d="m 42.621685,19.878797 c -0.232,0.18883 -0.49283,0.353962 -0.780377,0.444075 0.436226,-0.530717 0.705358,-1.031094 0.725886,-1.720301 0.016,-0.534944 -0.108226,-0.952453 -0.34883,-1.427925 -0.01509,-0.02974 -0.03034,-0.05902 -0.04604,-0.0883 l 1.073358,-0.832 0.0314,0.06792 c 0.299019,0.647849 0.374189,1.33449 0.235472,2.030641 -0.119849,0.601208 -0.395774,1.123019 -0.890868,1.525887 z M 42.10093,16.956986 41.6961,17.270797 c 0.01449,0.02943 0.01962,0.05585 0.0045,0.09087 -0.0166,0.0237 -0.04241,0.03955 -0.06702,0.05343 -0.03819,0.01147 -0.0646,-0.0018 -0.09419,-0.02536 l -0.396981,-0.546264 c -0.02294,-0.03894 -0.03517,-0.06898 -0.01645,-0.112905 0.01645,-0.0234 0.04196,-0.03925 0.06687,-0.05328 0.03804,-0.01132 0.0646,0.0017 0.09449,0.02536 l 0.0039,0.0054 0.442415,-0.293434 c -0.08287,-0.104 -0.170868,-0.204075 -0.264151,-0.299472 -0.534189,-0.546113 -1.289509,-0.845886 -2.048906,-0.846339 -0.484528,-3.02e-4 -0.928301,0.09434 -1.36166,0.312905 -0.196981,0.09947 -0.377811,0.220529 -0.546566,0.363623 -0.07215,0.06098 -0.140528,0.125887 -0.208302,0.192302 -0.326189,-2.031246 0.50717,-3.374944 1.969962,-4.424755 1.618868,-1.161812 3.147019,-1.331774 4.823246,-0.472 -0.121661,0.06143 -0.238189,0.126037 -0.351246,0.20166 -0.694943,0.464151 -1.238188,1.318641 -1.284981,2.165736 -0.03019,0.547924 0.0557,1.066868 0.286038,1.565887 l 0.200755,0.434717 0.354264,-0.23517 -0.04106,-0.0566 c -0.02309,-0.03894 -0.03517,-0.06898 -0.0166,-0.112755 0.0166,-0.02355 0.04211,-0.0394 0.06702,-0.05328 0.03804,-0.01147 0.0646,0.0015 0.09449,0.02536 l 0.06294,0.08664 0.238944,-0.158491 c -0.02566,-0.184302 0.04875,-0.376755 0.20966,-0.49268 0.183698,-0.132377 0.426566,-0.126037 0.602113,-0.002 l 0.365132,-0.204981 c 0.01449,-0.04242 0.02853,-0.08513 0.04211,-0.127849 0.07758,-0.257358 0.129056,-0.519547 0.145962,-0.788528 l 2.811924,-1.096755 -1.930868,2.320151 c -0.123471,-0.03275 -0.248603,-0.05736 -0.374641,-0.07653 -0.113962,-0.01585 -0.227623,-0.02596 -0.341434,-0.0311 l 1.634717,-1.48332 -1.056,0.761056 -0.791396,0.718038 -0.309887,0.281207 c 0.06234,0.205887 -0.0088,0.43819 -0.192604,0.570567 -0.161358,0.116377 -0.368302,0.125887 -0.535245,0.04226 l -0.224302,0.173887 0.03955,0.05449 c 0.0231,0.03894 0.03532,0.06928 0.0166,0.112905 -0.0166,0.0237 -0.04241,0.0394 -0.06717,0.05343 -0.03804,0.01132 -0.06445,-0.0018 -0.09419,-0.02551 l -0.05283,-0.07275 -0.381132,0.295547 v -1.51e-4 z"
     fill="#ffffff"
     id="path3"
     style="stroke-width:0.150943" />
  <path
     d="m 39.145459,12.395778 c 0.338566,-0.285133 0.694792,-0.527095 1.086339,-0.734189 0.603321,-0.319095 1.607095,-0.674415 2.95668,-0.245132 -0.09917,0.09192 -0.191548,0.186717 -0.277585,0.285283 -1.128302,-0.310793 -2.20151,-0.01 -3.155321,0.677585 -0.948076,0.683773 -1.565736,1.612226 -1.630793,2.771925 -0.125132,0.05192 -0.247094,0.11049 -0.364981,0.177207 -0.0089,-1.528 0.959698,-2.574189 1.385661,-2.932679 z m 5.781886,1.88166 c -0.01358,0.04287 -0.02762,0.08543 -0.04226,0.127849 l 0.933132,-0.523925 1.054944,-0.76 -1.923774,1.080302 c -0.0071,0.02536 -0.01449,0.05057 -0.02204,0.07577 z m -0.706867,0.237585 c 0.284981,0 0.517433,0.232453 0.517433,0.517434 0,0.284981 -0.232452,0.517585 -0.517433,0.517585 -0.08347,0 -0.162717,-0.02008 -0.232604,-0.05555 l -0.108529,0.08408 -0.0163,0.01268 -0.09947,0.07713 -0.294189,-0.404981 0.107321,-0.07109 0.01645,-0.01102 0.114868,-0.07623 c -0.0033,-0.02385 -0.005,-0.048 -0.005,-0.0726 0,-0.284981 0.232301,-0.517434 0.517434,-0.517434 z m -0.27034,0.95834 c -0.0018,-0.0011 -0.0035,-0.0021 -0.0053,-0.0032 -0.0011,-7.55e-4 -0.0021,-0.0014 -0.0032,-0.0021 -0.08725,-0.056 -0.156679,-0.137509 -0.197585,-0.23366 0.01464,0.03472 0.03351,0.06853 0.05645,0.100377 0.0394,0.05464 0.0874,0.09917 0.141132,0.133283 m 0.250717,-0.851623 c 0.197887,0 0.359396,0.161509 0.359396,0.359396 0,0.197736 -0.161509,0.359397 -0.359396,0.359397 -0.197887,0 -0.359245,-0.161661 -0.359245,-0.359397 0,-0.197887 0.161358,-0.359396 0.359245,-0.359396 z m -0.242264,0.856906 c -0.0018,-0.0011 -0.0035,-0.0021 -0.0053,-0.0032 m -0.764227,-0.01509 0.240302,0.333736 -1.696905,1.265207 -0.302038,-0.419471 c -0.0021,-0.0029 -0.0042,-0.0056 -0.0063,-0.0085 l -0.123924,0.08226 0.392905,0.540679 c 0.0044,0.0077 0.0086,0.01479 0.01208,0.02204 l 0.07064,-0.05479 v 1.51e-4 l 1.720755,-1.33449 0.117434,-0.09102 -0.302943,-0.416906 z m -1.007547,1.631547 0.293434,-0.227623 c 0.119396,0.216755 0.221434,0.442415 0.303396,0.67351 0.16,0.474717 0.207397,0.972377 0.125887,1.468377 0.238189,-0.42883 0.328906,-0.925887 0.317434,-1.412981 -0.01555,-0.352151 -0.0877,-0.676528 -0.219622,-1.003321 -0.01434,-0.03351 -0.02898,-0.06702 -0.04362,-0.100377 l -0.777057,0.602264 z m 0.713208,-1.611623 -0.310793,0.206189 c -0.07909,-0.168906 -0.156226,-0.338415 -0.227471,-0.51049 -0.266264,-0.673058 -0.337661,-1.424605 -0.163321,-2.129963 0.05087,-0.180831 0.112604,-0.349736 0.189434,-0.521208 0.121056,-0.250717 0.261887,-0.477434 0.428075,-0.687245 -1.060528,-0.265359 -2.060528,0.03955 -2.950037,0.681056 -0.861434,0.621283 -1.477887,1.465359 -1.568604,2.577208 0.597736,-0.207094 1.231547,-0.23834 1.851924,-0.107623 l 0.154717,0.03849 c 0.260831,0.07442 0.499774,0.171925 0.737963,0.301887 0.288151,0.166189 0.535547,0.359698 0.764679,0.601359 0.05253,0.0566 0.103547,0.114717 0.153358,0.174038 l -0.30566,0.202867 c 0.03185,0.03713 0.06309,0.07502 0.09358,0.113208 l 0.904453,-0.600151 0.309736,-0.205434 z"
     fill="#b1b4b6"
     id="path4"
     style="stroke-width:0.150943" />
  <path
     d="m 16.177911,35.587476 2.592755,-1.869283 c -0.02808,-0.177811 0.01132,-0.407396 0.06068,-0.641358 -0.02611,-0.01057 -0.05223,-0.02174 -0.07834,-0.03336 l -0.229736,0.165736 c -0.05751,0.123774 -0.108528,0.25117 -0.14883,0.387774 -0.05087,-0.06113 -0.07472,-0.137208 -0.07909,-0.223548 L 15.851728,35.1354 c -0.150793,0.108679 0.175547,0.560905 0.326188,0.452075 z m 2.790944,-2.012075 0.288,-0.207698 c 0.0044,-0.05374 0.01011,-0.108529 0.0163,-0.163623 -0.05857,-0.0098 -0.116679,-0.02219 -0.174642,-0.03743 -0.04755,0.136604 -0.09268,0.271245 -0.12966,0.408755 z m 10.884377,-7.847698 11.518793,-8.304755 -0.327849,-0.45117 -12.793963,9.224302 z"
     fill="#e21c2a"
     id="path5"
     style="stroke-width:0.150943" />
  <path
     d="m 41.172628,17.14974 -12.307622,8.866114 -0.420528,0.122868 12.642264,-9.10717 z m -22.380377,16.122265 -0.409962,0.295396 c 0.02596,-0.08438 0.0563,-0.165434 0.08936,-0.244378 l 0.348529,-0.251018 c 0.0033,0.0014 0.0066,0.0029 0.01011,0.0042 -0.01404,0.06596 -0.02702,0.131623 -0.03804,0.195774 z m -0.430038,0.309886 -2.361207,1.700981 -0.08543,-0.11849 2.387622,-1.720151 c 0.01027,0.05102 0.02928,0.09736 0.05902,0.13766 z"
     fill="#f39b7e"
     id="path6"
     style="stroke-width:0.150943" />
  <path
     d="M 26.656402,51.23125 27.035421,51.13963 26.9121,51.06084 Z m 2.697359,-37.251322 c -0.262944,-0.09117 -0.472906,-0.120905 -0.686038,-0.127396 0.0086,-0.318038 0.318339,-0.224453 0.452226,-0.136 0.09102,0.06008 0.144906,0.134491 0.233812,0.263396 z m -7.763472,14.663397 0.275924,-0.12966 -0.106868,-0.04106 z m -1.103245,1.19834 0.277886,-0.243321 -0.138264,-0.01207 z m 0.283924,0.34883 0.309434,-0.284226 -0.157434,-0.0098 z m 8.711396,10.333132 -0.0088,-0.370415 -0.09811,0.09872 z m 0.226264,-21.515472 0.08438,-0.381584 -0.125283,0.07638 z m 1.165434,-0.795924 0.03834,-0.38883 -0.115321,0.09072 z m 0.265208,-1.164528 -0.08921,-0.380378 -0.07985,0.123019 z m 0.894189,0.573434 -0.08921,-0.380378 -0.08,0.123019 z m 0.747773,-2.349283 -0.173736,-0.349888 -0.04966,0.138113 z m -0.242415,1.371018 -0.110189,-0.374792 -0.0729,0.127245 z m -2.103094,2.545359 0.176755,-0.446943 -0.167095,0.06838 z m 1.238641,-0.611019 0.04257,-0.461585 -0.136,0.108528 z m -1.493132,3.556226 0.240604,-0.44166 -0.182189,0.04966 z m 0.819774,-0.784603 0.185358,-0.344 -0.141434,0.03909 z m -0.763472,0.152754 0.185359,-0.344 -0.141434,0.03909 z m -0.716528,0.117434 0.185358,-0.344 -0.141434,0.03909 z m -8.536151,7.526491 0.277736,-0.243321 -0.138113,-0.01192 z m 11.528,3.278189 0.301736,-0.810717 -0.298113,0.129207 z m 2.038339,-1.252831 0.196076,-0.527245 -0.193962,0.08408 z m -0.524981,0.562416 0.223698,-0.60151 -0.221132,0.09585 z m -8.731471,-1.960151 0.369056,-0.06943 -0.117887,-0.06294 z m 4.535094,-2.743548 0.372981,-0.116528 -0.128604,-0.07079 z m -3.662038,3.270944 0.372981,-0.116378 -0.128603,-0.07094 z m 1.869283,0.119547 0.373132,-0.116377 -0.128603,-0.07079 z m -3.12966,-2.04966 0.369057,-0.06959 -0.117887,-0.06279 z m 4.356528,-0.448302 0.373132,-0.116378 -0.128603,-0.07079 z m 0.755472,0.743094 0.373132,-0.116377 -0.128604,-0.07079 z m -1.339019,0.200604 0.373132,-0.116378 -0.128755,-0.07079 z m -0.654641,-0.749736 0.372981,-0.116377 -0.128604,-0.07079 z m -1.162416,-0.05389 0.373133,-0.116377 -0.128604,-0.07064 z m -2.702339,1.038038 0.368905,-0.06943 -0.117735,-0.06294 z m 2.169811,0.08649 0.373132,-0.116378 -0.128604,-0.07079 z m 1.297962,0.28815 0.373132,-0.116377 -0.128603,-0.07079 z m -2.041509,-1.934188 0.372981,-0.116378 -0.128604,-0.07079 z m 3.884679,2.112 0.372981,-0.116378 -0.128603,-0.07079 z m -0.881811,-2.688 0.373132,-0.116378 -0.128604,-0.07079 z m -1.12,0.284528 0.373132,-0.116528 -0.128755,-0.07064 z m 3.043623,2.73751 0.372981,-0.116378 -0.128604,-0.07079 z m 3.466415,-8.682567 0.325585,-0.21615 -0.143246,-0.03215 z m -2.348378,0.873359 0.399396,-0.547774 -0.252226,0.03426 z m -1.969207,0.421283 0.307019,-0.563472 -0.232453,0.0634 z m -0.36483,-0.120151 0.277735,-0.578566 -0.22883,0.07532 z m 0.484075,-0.615396 0.240604,-0.441661 -0.182189,0.04966 z m 1.421736,0.139622 0.343245,-0.542188 -0.236226,0.048 z m 2.794566,-1.368754 0.325585,-0.216 -0.143245,-0.03215 z m 0.781736,-0.586264 0.353509,-0.166491 -0.137207,-0.05253 z m -2.002566,0.802717 0.246037,-0.303548 -0.146264,0.01238 z m 1.832453,-0.14234 0.353509,-0.166642 -0.137057,-0.05253 z m -1.12785,-0.105359 0.325585,-0.21615 -0.143245,-0.03215 z m -2.854792,1.48634 0.343396,-0.542189 -0.236226,0.048 z m -0.268981,0.792906 0.343245,-0.54234 -0.236226,0.04815 z m 2.016906,-1.455396 0.274113,-0.278491 -0.146868,-0.002 z m -0.21917,0.922113 0.268981,-0.424906 -0.185057,0.03758 z m 1.155622,-1.15668 0.274114,-0.278339 -0.146868,-0.002 z m -0.02868,0.575246 0.326038,-0.215698 -0.143245,-0.03215 z m -1.552,-0.380227 0.268981,-0.424905 -0.185207,0.03758 z m -2.22249,3.403321 0.307018,-0.563623 -0.232603,0.0634 z m 0.0329,-0.736302 0.414038,-0.759849 -0.313509,0.08559 z m 1.274566,-1.355019 0.343246,-0.542339 -0.236227,0.048 z m 2.05751,-5.139471 -0.110038,-0.374793 -0.07306,0.127245 z m 1.965132,-0.24951 -0.155019,-0.52483 -0.101736,0.178415 z m -0.301132,2.322717 -0.02732,-0.737207 -0.192604,0.199245 z m -2.545208,-0.631396 0.114717,-0.449359 -0.151547,0.08574 z m 1.885887,-4.233057 -0.173887,-0.349887 -0.04966,0.137962 z m -0.633359,2.202265 -0.110188,-0.374793 -0.07291,0.127245 z m 0.645736,2.856754 -0.02717,-0.737056 -0.192603,0.199094 z m -1.177056,0.37117 0.111547,-0.729208 -0.226566,0.159548 z m 0.718037,-4.021434 -0.133584,-0.367245 -0.06491,0.131622 z m -5.136603,16.021132 0.167698,-0.450566 -0.165736,0.07185 z m 8.920151,13.820981 -0.0042,-0.370566 -0.09932,0.09751 z m -1.097661,1.246944 -0.0041,-0.370566 -0.09932,0.09766 z m -0.681811,-1.263849 -0.0062,-0.549585 -0.14717,0.144603 z m -1.915925,0.132075 -0.0045,-0.400906 -0.107472,0.10551 z m 2.183246,0.744302 0.0048,-0.486943 -0.133132,0.125283 z m -0.06355,-2.464 0.07396,-0.474868 -0.147925,0.103547 z m -0.55049,-4.441208 0.219472,-0.568603 -0.21117,0.08845 z m 1.303849,-0.0091 0.14083,-0.364528 -0.135396,0.05645 z m -0.256151,-1.399547 0.14083,-0.36468 -0.135396,0.05676 z m -0.184453,-20.313963 -0.06943,-0.384603 -0.08619,0.118943 z m -1.440302,-1.777207 -0.139622,-0.36483 -0.06264,0.132679 z m 0.531925,2.579924 -0.07608,-0.637132 -0.152754,0.186264 z m -1.868981,-0.792151 -0.04981,-0.46083 -0.111849,0.133434 z m 0.391094,-0.381735 -0.05841,-0.540529 -0.13117,0.156378 z m 0.55834,-1.998038 -0.139472,-0.364981 -0.06264,0.132679 z m -2.014793,3.955321 0.158793,-0.622038 -0.209812,0.118792 z m -0.53766,-0.0317 0.160453,-0.523169 -0.183397,0.09253 z m -0.287094,-0.53449 0.114716,-0.449359 -0.151547,0.08574 z m 1.304905,-0.852377 -0.01721,-0.463246 -0.120906,0.124981 z m -3.457811,1.389132 0.169056,-0.352302 -0.139471,0.04589 z m 4.444226,-4.353963 -0.139622,-0.364981 -0.06264,0.132679 z m 0.996981,0.134793 -0.173735,-0.349887 -0.04966,0.137962 z m 0.550038,1.017056 -0.128151,-0.369207 -0.06672,0.130717 z m 0.417962,0.814491 -0.108981,-0.375245 -0.07336,0.127094 z m -1.596679,-0.436981 -0.124981,-0.532679 -0.111698,0.172377 z m 1.254642,1.116075 -0.122868,-0.629886 -0.138566,0.197132 z m 0.368603,0.764529 -0.05192,-0.639698 -0.159698,0.180377 z m -1.220528,-1.058566 -0.124981,-0.53268 -0.111849,0.172227 z m -0.391849,1.020528 -0.0877,-0.732528 -0.175547,0.214339 z m -0.598792,1.443773 0.032,-0.737056 -0.207849,0.183094 z m -0.04227,-1.03683 -0.02732,-0.737207 -0.192453,0.199094 z m -0.580226,0.126944 0.032,-0.736906 -0.207849,0.183094 z m -2.073207,0.474113 0.201207,-0.508981 -0.190189,0.07789 z m 0.0015,0.863396 0.235924,-0.596981 -0.223094,0.09132 z m -0.503547,-0.12483 0.176604,-0.447094 -0.167095,0.06853 z m -0.237283,-0.577057 0.176754,-0.447094 -0.167245,0.06838 z m -0.471547,0.565887 0.176603,-0.447094 -0.167094,0.06838 z m 2.076981,0.08921 0.158641,-0.622038 -0.20966,0.118792 z m 0.592905,-0.03623 0.179019,-0.700377 -0.236377,0.133736 z m 2.482114,-1.930113 -0.106717,-0.632755 -0.143699,0.19351 z m -3.435925,1.506264 0.135245,-0.530264 -0.178717,0.101132 z m 0.803472,12.291925 0.223849,-0.60151 -0.221283,0.096 z m -1.283472,-0.0954 0.223698,-0.601661 -0.221132,0.096 z m -1.248604,-0.07774 0.223698,-0.60151 -0.221132,0.09585 z m -0.664603,0.0554 0.223698,-0.60151 -0.221132,0.09585 z m -6.35834,-4.167547 0.486792,-0.08513 -0.153962,-0.08483 z m -0.475774,0.628679 0.545057,-0.177208 -0.189736,-0.101584 z m 0.122566,0.699472 0.545057,-0.177057 -0.189736,-0.101585 z m 8.020981,2.757886 0.22385,-0.60166 -0.221283,0.096 z m 1.312151,-0.04921 0.223699,-0.60166 -0.221133,0.096 z m 2.020831,7.549434 0.231094,-0.598642 -0.22234,0.09298 z m 2.362566,-1.577811 0.14083,-0.36468 -0.135396,0.05675 z m -4.566038,-2.176906 0.135849,-0.62717 -0.205132,0.12634 z m 1.053434,0.04498 0.135849,-0.62717 -0.205132,0.12634 z m -3.193359,12.720604 0.07245,-0.363321 -0.117283,0.07487 z m -0.641056,-15.625661 0.223698,-0.601509 -0.221132,0.0957 z m 0.200302,2.749887 0.167547,-0.450566 -0.165585,0.07185 z m 0.762566,-0.552151 0.301585,-0.810717 -0.298114,0.129208 z m 3.028075,-1.513811 0.223698,-0.601509 -0.221132,0.09585 z m -0.307019,3.20483 0.06068,-0.485434 -0.147321,0.109887 z m -0.662037,0.573585 0.06068,-0.485434 -0.147321,0.109887 z m 0.813283,0.325283 0.06068,-0.485283 -0.147321,0.109887 z m -11.056151,-8.375698 0.441811,-0.296453 -0.19517,-0.04257 z m -0.17117,1.004075 0.224604,-0.206188 -0.114265,-0.0072 z m 1.142641,-0.561358 0.275925,-0.12966 -0.106868,-0.04106 z m -0.673056,-0.0027 0.359849,-0.216604 -0.152151,-0.04121 z m -1.227623,0.695698 0.309434,-0.284226 -0.157434,-0.01 z m -0.305811,-0.343245 0.287396,-0.263849 -0.146264,-0.0092 z m 3.699471,-2.054189 0.374642,-0.111547 -0.127698,-0.07245 z m 7.679397,-4.880151 0.185509,-0.344 -0.141585,0.03909 z m 1.269886,-0.943396 0.25268,-0.297962 -0.146566,0.0089 z m -0.653132,0.601207 0.185359,-0.34415 -0.141434,0.03925 z m 0.705057,-1.183547 0.351396,-0.359849 -0.188981,-0.0017 z m -3.695849,3.209359 0.277736,-0.578566 -0.22883,0.07517 z m 0.08649,-0.810868 0.277735,-0.578566 -0.22883,0.07517 z m 1.048905,-0.427774 0.357887,-0.787622 -0.306415,0.107924 z m -0.274415,-0.792453 0.414038,-0.759698 -0.31351,0.08543 z m 0.502189,1.218416 0.265509,-0.584302 -0.227321,0.08 z m 0.589132,-0.502793 0.265358,-0.584302 -0.22732,0.08015 z m 0.725283,-0.908528 0.268981,-0.425057 -0.185057,0.03758 z m -1.003472,0.582339 0.26551,-0.584301 -0.227472,0.08 z m 0.491774,-0.509434 0.362868,-0.57283 -0.24951,0.05072 z m -1.94717,0.428227 0.277736,-0.578566 -0.22883,0.07517 z m 5.960453,7.17283 0.183547,-0.493736 -0.181434,0.07864 z m -0.491472,1.267019 0.183698,-0.493585 -0.181434,0.07849 z m -0.460981,0.936755 0.223698,-0.60151 -0.221132,0.09585 z m -0.16166,1.24649 0.223849,-0.601509 -0.221283,0.09585 z m -0.422491,-0.55049 0.223849,-0.60151 -0.221283,0.09585 z m -1.218717,-0.355019 0.223849,-0.601359 -0.221132,0.0957 z m 0.766491,-0.926642 0.197132,-0.529962 -0.194717,0.08453 z m 0.97449,9.509736 0.311698,-0.806943 -0.299622,0.125434 z m 0.576604,5.288151 -0.0062,-0.549585 -0.14717,0.144755 z m -0.426868,0.126491 -0.0062,-0.549585 -0.147169,0.144754 z m 0.09494,-0.664 -0.0062,-0.549585 -0.14717,0.144754 z m -0.490113,0.142339 -0.0062,-0.549585 -0.14717,0.144755 z m 0.07909,-0.648151 -0.0062,-0.549585 -0.14717,0.144755 z m 0.815094,0.09645 -0.0063,-0.549585 -0.14717,0.144755 z m -0.780679,-0.95849 0.05253,-0.639548 -0.186868,0.152151 z m -0.489963,0.189735 0.05253,-0.639547 -0.186868,0.152151 z m 1.248755,-2.744603 0.231094,-0.598793 -0.222339,0.09313 z m -1.655396,1.500075 0.10249,-0.633509 -0.198339,0.136905 z m -0.474264,-0.300377 0.10249,-0.63351 -0.198339,0.136906 z m -0.479246,-0.335095 0.173132,-0.448452 -0.16649,0.06974 z m -0.01585,-0.822037 0.173132,-0.448453 -0.16649,0.06989 z m 0.986265,-1.234114 0.311698,-0.806943 -0.299774,0.125434 z m 0.158037,0.648151 0.311698,-0.806943 -0.299622,0.125434 z m -0.404075,1.365283 0.231245,-0.598792 -0.22234,0.09313 z m 0.498868,0.136453 0.311698,-0.806943 -0.299623,0.125434 z m -0.189585,-0.600604 0.311698,-0.807094 -0.299774,0.125585 z m 0.442566,-0.600754 0.311698,-0.806944 -0.299774,0.125434 z m 0.158038,-1.043321 0.311698,-0.806943 -0.299623,0.125434 z m -1.023397,0.411774 0.231246,-0.598944 -0.22234,0.09313 z m -3.526339,-5.135699 0.223698,-0.601509 -0.220981,0.096 z m 2.633811,-2.178264 0.223849,-0.601358 -0.221132,0.09585 z m -0.381585,-1.247094 0.301736,-0.810717 -0.298113,0.129208 z m -0.506868,0.619623 0.301736,-0.810868 -0.298113,0.129207 z m -0.512,-0.109736 0.301736,-0.810717 -0.298113,0.129207 z m -1.651321,0.741283 0.223699,-0.601661 -0.221133,0.096 z m 2.549736,0.712453 0.223547,-0.60151 -0.220981,0.09585 z m -0.612981,0.317735 0.223698,-0.601509 -0.221132,0.09585 z m 2.859472,-2.710943 0.223698,-0.601509 -0.221132,0.096 z m -0.593811,0.274113 0.223849,-0.60166 -0.221283,0.096 z m -4.533887,2.521359 0.167547,-0.450415 -0.165585,0.0717 z m -0.445283,-0.442264 0.167547,-0.450566 -0.165736,0.07185 z m 2.173434,0.971169 0.26732,-0.718037 -0.264,0.114415 z m 0.164981,-1.494792 0.301736,-0.810868 -0.298114,0.129208 z m -0.576604,0.113962 0.301736,-0.810717 -0.298264,0.129208 z m -0.435321,-0.323471 0.301736,-0.810868 -0.298113,0.129207 z m 0.503095,-0.685887 0.301735,-0.810717 -0.298113,0.129207 z m -0.726944,0.09479 0.301736,-0.810717 -0.298113,0.129208 z m 1.214491,7.761812 -0.126944,-0.348227 -0.06143,0.124981 z m 0.864755,0.266113 -0.126944,-0.348227 -0.06128,0.124981 z m 0.425056,-1.047095 -0.0088,-0.370415 -0.09811,0.09872 z m -1.676528,-0.811169 -0.0089,-0.370566 -0.09811,0.09872 z m -1.872453,-3.654038 0.103094,-0.476076 -0.155773,0.09585 z m 5.540075,0.950189 0.09645,-0.445585 -0.14566,0.08981 z m -3.090566,2.563924 0.06068,-0.485434 -0.147321,0.109887 z m 2.508831,-1.426868 0.06068,-0.485283 -0.147321,0.109736 z m -0.785208,1.066868 0.06083,-0.485434 -0.14732,0.109887 z m -0.814792,0.27834 0.06068,-0.485283 -0.147321,0.109886 z m -0.563925,1.145962 -0.04755,-0.486792 -0.119698,0.139622 z m -0.59834,-1.752906 0.06083,-0.485283 -0.147321,0.109887 z m 1.321359,-0.660981 0.06083,-0.485283 -0.147321,0.109736 z m -0.631396,0.564227 0.06068,-0.485283 -0.147321,0.109735 z m 3.006943,-0.835321 0.0966,-0.445585 -0.145811,0.08981 z m -1.11849,-0.843321 0.0966,-0.445585 -0.145811,0.08981 z m 0.02053,-0.885434 0.135849,-0.62717 -0.205132,0.12634 z m 0.138566,-1.004679 0.193358,-0.519547 -0.191094,0.08287 z m -1.118642,-0.138566 0.223699,-0.601661 -0.221133,0.096 z m 1.308529,-0.934038 0.167547,-0.450415 -0.165585,0.07185 z m -0.699774,0.596377 0.223849,-0.60166 -0.221283,0.096 z m 0.495094,-1.099471 0.22385,-0.60151 -0.221133,0.09585 z m 2.323925,-1.511849 0.136151,-0.366189 -0.134491,0.05826 z m -3.571774,1.274113 0.301585,-0.811019 -0.297962,0.129509 z m 4.075321,1.25449 0.136302,-0.366188 -0.134641,0.05826 z m 0.275321,-1.308377 0.136302,-0.366189 -0.134642,0.05842 z m -0.722717,3.340528 0.136302,-0.366188 -0.134642,0.05826 z m -6.214038,1.457812 0.06068,-0.485283 -0.14732,0.109736 z m 5.633661,-3.901132 0.136151,-0.366189 -0.134491,0.05826 z m 0.08377,1.172528 0.136151,-0.366189 -0.134641,0.05826 z m -1.269132,-0.633208 0.136302,-0.366188 -0.134642,0.05826 z m 0.730717,1.751095 0.136151,-0.366189 -0.134642,0.05826 z m -0.603019,-0.752906 0.136151,-0.36634 -0.134641,0.05842 z m -5.371321,-1.191396 0.223699,-0.601359 -0.221133,0.0957 z m 1.708982,5.87517 -0.0086,-0.370415 -0.09811,0.09872 z m -1.746114,-3.726038 0.103095,-0.476076 -0.155774,0.09585 z m 0.449963,-0.280302 0.103094,-0.476075 -0.155623,0.09585 z m 0.171622,0.868226 0.103095,-0.476075 -0.155623,0.096 z m -0.534188,0.492227 0.09962,-0.388377 -0.13117,0.07396 z m 0.346566,0.990189 -0.0095,-0.400755 -0.106113,0.106717 z m 0.567245,0.73766 -0.0094,-0.400906 -0.106264,0.106868 z m 0.307321,-0.694943 -0.0095,-0.400906 -0.106113,0.106868 z m -0.0023,-1.130416 0.06083,-0.485283 -0.147321,0.109887 z m 0.893433,0.391699 0.142944,-0.467774 -0.164076,0.08302 z m -0.590943,-3.077283 0.223849,-0.60151 -0.221132,0.096 z m -0.499472,1.932226 0.135849,-0.62717 -0.205132,0.126189 z m 0.829283,0.562717 0.115774,-0.631245 -0.200906,0.13283 z m 0.677132,-0.499774 0.13585,-0.627169 -0.205133,0.126339 z m 0.617359,-0.66566 0.136,-0.62717 -0.205283,0.12634 z m -1.012679,0.08196 0.135849,-0.62717 -0.205132,0.12634 z m -0.602566,0.236227 0.135849,-0.62717 -0.205132,0.126189 z m -0.33434,-0.837283 0.223698,-0.60151 -0.220981,0.096 z m -1.593811,-1.993359 0.167547,-0.450566 -0.165736,0.07185 z m 6.193056,1.064906 0.136302,-0.366189 -0.134792,0.05826 z m -5.242113,-2.133887 0.223698,-0.601509 -0.221132,0.09585 z m -0.365736,0.863245 0.223698,-0.60166 -0.221132,0.096 z m 2.762717,0.364076 0.223698,-0.601661 -0.221132,0.09585 z m -0.492226,0.338566 0.223849,-0.60151 -0.221132,0.09585 z m -0.435925,0.424453 0.223698,-0.60151 -0.220981,0.09585 z m -1.519396,0.05434 0.223698,-0.601509 -0.221132,0.0957 z m 0.08362,0.713057 0.223698,-0.60151 -0.220981,0.09585 z m 5.723622,-2.600453 0.136453,-0.366189 -0.134792,0.05842 z m -4.482717,-0.136151 0.301585,-0.810868 -0.298113,0.129208 z m 0.674868,-0.105057 0.301585,-0.811018 -0.297962,0.129358 z m -1.327849,0.27185 0.301736,-0.810717 -0.298113,0.129207 z m 5.777359,-1.825057 0.136302,-0.366189 -0.134793,0.05826 z m -5.527849,7.282113 0.06068,-0.485434 -0.147321,0.109887 z m 7.283924,11.692528 -0.0042,-0.370566 -0.09932,0.09751 z m -0.725736,-0.172981 -0.0042,-0.370566 -0.09932,0.09751 z m 1.215397,-0.437434 -0.0042,-0.370566 -0.09932,0.09751 z m -4.448,-3.783396 0.06672,-0.484679 -0.14868,0.108075 z m 3.446188,-0.601207 0.14083,-0.364529 -0.135396,0.0566 z m -0.186113,1.305509 -0.0042,-0.370566 -0.09932,0.09751 z m -1.851774,1.220075 -0.0062,-0.549584 -0.14717,0.144754 z m 1.456151,0.175397 -0.0042,-0.370566 -0.09932,0.09751 z m -0.961207,-7.17117 0.219623,-0.568604 -0.21117,0.08845 z m 0.893887,5.272302 0.108981,-0.474717 -0.15683,0.09389 z m 0.427924,-1.701585 0.0634,-0.406038 -0.12649,0.0886 z m -0.484981,0.860226 0.07396,-0.475019 -0.147924,0.103548 z m 1.489811,2.883774 -0.0041,-0.370566 -0.09932,0.09751 z m -0.453886,-1.138264 -0.0042,-0.370566 -0.09917,0.09751 z m -0.791849,-4.459019 0.140679,-0.364679 -0.135245,0.05675 z m 0.732226,1.610868 0.140679,-0.364529 -0.135396,0.0566 z m -0.873057,-0.593057 0.14068,-0.364528 -0.135397,0.0566 z m -2.111698,-4.249056 0.203623,-0.527397 -0.195774,0.08196 z m -1.464151,3.797584 0.231095,-0.598641 -0.22234,0.09298 z m 3.074415,-0.397433 0.140831,-0.364529 -0.135397,0.0566 z m 0.303095,6.824452 -0.0042,-0.370566 -0.09932,0.09751 z m 1.183094,-0.368151 -0.0042,-0.370566 -0.09932,0.09751 z m -0.439849,-1.182641 -0.0042,-0.370566 -0.09932,0.09751 z m -2.407849,0.209509 -0.0041,-0.370566 -0.09932,0.09751 z m 0.950189,0.769359 -0.0042,-0.370566 -0.09932,0.09751 z m 0.02264,-0.732076 -0.0042,-0.370566 -0.09932,0.09751 z m -2.796075,-4.013735 0.109132,-0.474717 -0.156981,0.09389 z m 0.41449,0.347471 0.108981,-0.474717 -0.15683,0.09404 z m 0.340679,0.595623 0.05253,-0.639547 -0.186868,0.152151 z m -0.556377,0.12 0.104453,-0.38717 -0.132076,0.0723 z m 0.44634,1.109132 -0.0045,-0.401057 -0.107471,0.10551 z m 0.39683,0.541585 -0.0045,-0.400906 -0.107472,0.10551 z m 0.512453,0.328453 -0.0044,-0.400906 -0.107471,0.105509 z m 1.404679,-2.115623 0.07411,-0.474868 -0.147924,0.103547 z m -1.40166,-2.360453 0.231245,-0.598792 -0.22234,0.09328 z m -0.45434,1.668679 0.143547,-0.625358 -0.206641,0.123774 z m 0.834868,1.243623 0.123623,-0.629736 -0.202566,0.130264 z m 0.699924,-1.219623 0.143548,-0.625509 -0.206642,0.123774 z m 0.348227,-0.721509 0.143698,-0.625509 -0.206792,0.123773 z m -0.750944,0.317283 0.143548,-0.625509 -0.206642,0.123773 z m -0.607849,0.189132 0.143548,-0.625509 -0.206642,0.123924 z m -0.183849,-0.729358 0.230944,-0.598793 -0.222189,0.09313 z m 2.114415,-3.00317 0.140831,-0.364529 -0.135397,0.0566 z m 0.525887,0.313358 0.14068,-0.364528 -0.135246,0.0566 z m 0.256604,0.735397 0.14083,-0.364529 -0.135396,0.0566 z m -0.785509,0.166792 0.14083,-0.364377 -0.135245,0.05675 z m -0.225812,1.412528 0.14083,-0.364528 -0.135396,0.05676 z m 1.05434,-0.387773 0.140981,-0.364529 -0.135547,0.0566 z m -3.726943,-2.800453 0.14083,-0.364528 -0.135397,0.05675 z m -0.03713,0.679396 0.231095,-0.598641 -0.22234,0.09313 z m -0.452528,0.70883 0.231245,-0.598792 -0.222339,0.09313 z m 2.117132,-0.469585 0.231245,-0.598792 -0.222339,0.09313 z m 0.686793,0.386265 0.231245,-0.598793 -0.222491,0.09313 z m -0.05117,0.899773 0.199698,-0.516981 -0.192151,0.08045 z m -1.012528,1.183396 0.276075,-0.714868 -0.265509,0.111246 z m 0.542188,-1.612679 0.231095,-0.598792 -0.22234,0.09328 z m -0.397887,0.577208 0.231095,-0.598793 -0.22234,0.09313 z m -1.545811,0.127698 0.231245,-0.598793 -0.222339,0.09313 z m -0.396226,-0.09781 0.231094,-0.598792 -0.22234,0.09313 z m 2.450717,0.889208 0.231245,-0.598792 -0.22234,0.09313 z m 0.64332,-3.173887 0.219472,-0.568604 -0.21117,0.08845 z m -1.193207,0.375698 0.311547,-0.807094 -0.299774,0.125585 z m -0.339321,-0.341434 0.311698,-0.806943 -0.299773,0.125434 z m -0.420075,0.539019 0.311547,-0.807094 -0.299623,0.125585 z m 1.730566,-1.529056 0.21932,-0.568604 -0.210867,0.08845 z m 0.341434,0.212679 0.140679,-0.364528 -0.135396,0.0566 z m 1.459019,0.286641 0.140679,-0.364528 -0.135246,0.0566 z m -0.114868,-1.444981 0.140679,-0.364528 -0.135245,0.0566 z m -0.513359,0.851925 0.140679,-0.364529 -0.135396,0.05676 z m -1.310189,-0.658113 0.140831,-0.36468 -0.135397,0.05675 z m -0.467169,1.214037 0.311547,-0.807094 -0.299623,0.125434 z m -0.231849,-0.639245 0.228528,-0.591698 -0.219774,0.09208 z m 1.993811,10.050868 -0.0042,-0.370566 -0.09932,0.09751 z m -1.597132,-3.648453 -0.0065,-0.549585 -0.14717,0.144755 z m -0.419472,-0.440604 0.166944,-0.523622 -0.185208,0.09087 z m 0.755472,1.741887 -0.0063,-0.549585 -0.14717,0.144604 z m -0.141585,0.724528 -0.0062,-0.549585 -0.14717,0.144604 z m 0.377811,0.472302 -0.006,-0.549585 -0.14732,0.144604 z m 0.329661,1.020981 -0.0048,-0.43532 -0.116679,0.114566 z m -12.956076,-19.843018 0.486793,-0.08528 -0.153963,-0.08468 z m 0.275623,0.708226 0.370113,-0.0646 -0.117132,-0.06445 z m 14.047849,4.887849 0.05192,-0.387321 -0.118188,0.08664 z m -0.436528,-2.656 0.05208,-0.38717 -0.118491,0.08664 z m -0.126189,4.492226 0.05207,-0.387471 -0.118339,0.08664 z m -9.449962,6.14868 0.201811,-0.508831 -0.190491,0.07774 z m 1.242717,1.753962 0.104905,-0.633208 -0.198792,0.136151 z m -0.788378,-0.08619 0.318944,-0.804226 -0.300831,0.122868 z m 0.392604,-1.949736 0.319094,-0.804226 -0.30083,0.122868 z m -0.403774,1.054793 0.318944,-0.804227 -0.30083,0.122868 z m 0.47668,0.605585 0.319094,-0.804227 -0.300981,0.122868 z m -0.0088,-0.821887 0.318943,-0.804377 -0.300679,0.122868 z m 0.752151,1.201811 0.104755,-0.633056 -0.198793,0.136151 z m 0.405434,-0.612981 0.236528,-0.596528 -0.222943,0.09102 z m -0.21117,-0.520453 0.318943,-0.804226 -0.30083,0.122868 z m -1.786717,0.239849 0.20166,-0.50883 -0.190339,0.07774 z m 0.380226,-1.037434 0.201812,-0.50883 -0.19034,0.07774 z m -4.52e-4,-0.572981 0.201811,-0.50883 -0.190491,0.07774 z m -0.273812,2.451019 0.103397,-0.539924 -0.173133,0.112452 z m 0.31683,0.580528 0.103397,-0.539773 -0.173132,0.112302 z m -0.03064,2.92951 0.06038,-0.365585 -0.114717,0.07864 z m 0.705509,-1.812076 0.06053,-0.365584 -0.114868,0.07864 z m 0.245434,-0.293434 0.103397,-0.539773 -0.173132,0.112302 z m -0.06581,-0.695245 0.103396,-0.539924 -0.173132,0.112452 z m -1.134491,0.693132 0.06551,-0.395622 -0.124226,0.08513 z m 0.350491,0.238793 0.0794,-0.346415 -0.114566,0.06853 z m 0.568302,0.817811 0.06053,-0.365585 -0.114868,0.07879 z m 0.888906,-2.070641 0.104905,-0.633208 -0.198641,0.136302 z m -0.626114,-1.133887 0.236529,-0.596529 -0.223095,0.09102 z m 0.05328,-0.731623 0.318944,-0.804377 -0.30083,0.122868 z m -0.541735,-1.500075 0.20166,-0.508831 -0.19034,0.07774 z m 0.410717,6.721056 0.06053,-0.365585 -0.114868,0.07864 z m 0.569056,-1.952 0.0794,-0.346415 -0.114415,0.06838 z m -2.106415,-2.475622 0.07955,-0.346416 -0.114566,0.06853 z m 0.416151,2.940981 0.07955,-0.346415 -0.114415,0.06853 z m -0.147472,-1.493283 0.0797,-0.346415 -0.114566,0.06853 z m 3.272,-0.299774 0.06053,-0.365585 -0.114717,0.07864 z m -2.743396,0.528906 0.07955,-0.346415 -0.114566,0.06838 z m 0.330566,-0.497812 0.103396,-0.539773 -0.173132,0.112453 z m 1.472,0.131321 0.179019,-0.548075 -0.195019,0.09389 z m 0.422793,1.349585 0.08981,-0.478641 -0.153057,0.100075 z m 0.03396,-1.032604 0.06053,-0.365585 -0.114717,0.07864 z m -0.60317,1.466264 0.06053,-0.365584 -0.114717,0.07879 z m 1.03834,0.107925 0.06053,-0.365585 -0.114868,0.07864 z m 0.155471,-1.143245 0.06053,-0.365585 -0.114717,0.07864 z m -0.738113,2.712453 0.02068,-0.369963 -0.10566,0.09057 z m 0.579623,-0.518793 0.06053,-0.365434 -0.114717,0.07864 z m -0.536906,-0.562113 0.06053,-0.365585 -0.114717,0.07864 z m -1.945509,-0.0714 0.06038,-0.365585 -0.114717,0.07864 z m 0.0039,-0.887397 0.06053,-0.365584 -0.114868,0.07864 z m 1.555472,-0.524377 0.08981,-0.478792 -0.152905,0.100226 z m -2.679245,-1.311849 0.06551,-0.395623 -0.124226,0.08513 z m 0.103698,1.034868 0.06566,-0.395472 -0.124226,0.08513 z m 2.388226,2.244981 0.06053,-0.365585 -0.114867,0.07864 z m -0.314868,-2.336302 0.104755,-0.633207 -0.198642,0.136302 z m -0.841509,0.07713 0.08981,-0.542188 -0.170113,0.11683 z m 0.508679,0.858264 0.08981,-0.542339 -0.170264,0.116679 z m 0.143245,0.822793 0.07109,-0.429585 -0.134793,0.09253 z m 1.15034,-2.75834 0.153811,-0.387924 -0.145207,0.05917 z m 0.783396,-0.435773 0.185359,-0.467623 -0.174944,0.0714 z m -1.038943,-0.0033 0.236679,-0.596679 -0.223245,0.09102 z m 0.489962,-0.335396 0.236528,-0.596529 -0.223245,0.09102 z m -1.377358,-1.992453 0.236528,-0.596528 -0.223245,0.09102 z m 0.320452,0.454038 0.236529,-0.596529 -0.223246,0.09102 z m 0.319397,0.545811 0.236528,-0.596679 -0.223245,0.09102 z m 0.288603,0.46717 0.236529,-0.596529 -0.223095,0.09102 z m -1.469585,-2.47517 0.201812,-0.508981 -0.190491,0.07774 z m 0.169057,1.624906 0.272,-0.686038 -0.256453,0.104906 z m 0.08438,-0.923774 0.272151,-0.686189 -0.256603,0.104906 z m 2.376302,-15.429434 0.316831,-0.361358 -0.180227,0.0081 z m 6.106566,-3.047698 0.401963,-0.458264 -0.228529,0.01041 z m -0.555471,-0.284076 0.570415,-0.650415 -0.324529,0.01464 z m -4.314264,6.79034 0.315018,-0.231396 -0.144603,-0.02506 z m 1.274415,-0.220226 0.232452,-0.314114 -0.14566,0.01872 z m 2.359547,-2.435019 0.381585,-0.516076 -0.238944,0.03094 z m -0.921057,0.748981 0.381585,-0.516076 -0.238943,0.03094 z m -0.689358,-0.194868 0.381736,-0.515925 -0.238944,0.03094 z m 1.792754,-2.365434 0.381736,-0.515924 -0.239094,0.03079 z m -1.648452,3.339019 0.232452,-0.314264 -0.14566,0.01887 z m 2.027924,-3.038943 0.232453,-0.314114 -0.14566,0.01872 z m 0.987623,-1.621887 0.232453,-0.314113 -0.145661,0.01887 z m -0.206038,1.035471 0.232453,-0.314113 -0.145661,0.01887 z m -0.641509,1.255849 0.232452,-0.314113 -0.14566,0.01872 z m -1.742189,3.418416 0.232453,-0.314114 -0.145661,0.01887 z m 2.149585,-7.658868 0.25766,-0.293736 -0.146566,0.0066 z m -1.29283,6.490113 0.232452,-0.314264 -0.14566,0.01872 z m -2.183095,-0.03049 0.467774,-0.439547 -0.240755,-0.01238 z m 0.959849,-1.799849 0.570415,-0.650415 -0.324528,0.01464 z m -3.497962,0.357887 0.372679,-0.117887 -0.128754,-0.07034 z m 1.529057,1.663547 0.378566,-0.09706 -0.12483,-0.07728 z m -1.049661,0.541132 0.378566,-0.09706 -0.12483,-0.07728 z m -0.907924,-1.465056 0.530868,-0.131623 -0.173736,-0.109585 z m 1.602717,-0.735397 0.422943,-0.482566 -0.240755,0.01102 z m -0.53283,0.634114 0.622943,-0.154415 -0.203925,-0.128604 z m 1.872,-2.256604 0.505056,-0.575849 -0.287245,0.01298 z m 1.07215,-1.855245 0.374642,-0.42717 -0.213283,0.0097 z m 0.550642,3.176301 0.381736,-0.515924 -0.239094,0.03079 z m 0.558189,-0.492377 0.381736,-0.516075 -0.239095,0.03094 z m 1.042566,-1.821887 0.381736,-0.516075 -0.239095,0.03094 z m -3.848755,2.874114 0.570415,-0.650416 -0.324528,0.01464 z m -1.117132,-0.828378 0.37449,-0.42717 -0.213132,0.0097 z m 0.454943,1.501887 0.622944,-0.154415 -0.203774,-0.128604 z m -0.961962,0.44166 0.48966,-0.115773 -0.158792,-0.102491 z m 2.064755,-0.717132 0.688754,-0.523471 -0.320905,-0.05042 z m 0.36,-0.783094 0.570415,-0.650415 -0.324528,0.01449 z m 2.529207,-4.541736 0.401812,-0.458264 -0.228529,0.01041 z m 0.119246,1.474415 0.570566,-0.650415 -0.32468,0.01464 z m 0.971471,2.196227 0.232453,-0.314114 -0.14566,0.01887 z m -3.870943,0.253886 0.570415,-0.650415 -0.324528,0.01464 z m 0.765283,-0.859471 0.570415,-0.650415 -0.324528,0.01464 z m 0.98234,0.376905 0.570415,-0.650415 -0.324529,0.01464 z m -0.777661,0.341887 0.570415,-0.650415 -0.324679,0.01464 z m 0.551547,-0.858264 0.570415,-0.650264 -0.324528,0.01464 z m 0.474114,-2.04966 0.460679,-0.524982 -0.262189,0.01177 z m 1.08015,4.193207 0.232302,-0.314264 -0.145509,0.01887 z m -2.257358,-2.93766 0.505057,-0.575849 -0.287246,0.01298 z m 1.738717,-1.404981 0.401811,-0.458265 -0.228528,0.01042 z m -3.869434,2.469735 0.316981,-0.361207 -0.180377,0.0082 z m 1.57117,-1.238037 0.37449,-0.42717 -0.213283,0.0097 z m -0.709736,0.815245 0.374641,-0.42717 -0.213132,0.0097 z m -0.295698,0.919547 0.422943,-0.482566 -0.240754,0.01102 z m 2.277736,-1.412981 0.570415,-0.650415 -0.324528,0.01464 z m -0.13434,-0.516377 0.505057,-0.575849 -0.287397,0.01313 z m 0.843019,0.602868 0.570566,-0.650415 -0.324679,0.01464 z m -0.06355,-0.775698 0.570566,-0.650567 -0.324679,0.01464 z m -10.995472,-3.360906 0.09766,0.288755 0.05283,-0.101585 z m 0.14566,1.118641 0.09766,0.288755 0.05283,-0.101585 z m -0.725584,-0.511094 0.09766,0.288906 0.05283,-0.101585 z m 3.218113,2.435019 0.338264,0.195773 -0.03502,-0.142641 z m -1.795019,0.297962 0.27034,0.282264 0.006,-0.146717 z m -2.24483,-1.404075 0.179773,0.347019 0.04725,-0.139019 z m -0.146113,-0.679698 0.179773,0.347018 0.04725,-0.139018 z m 3.62083,3.991698 0.438792,0.327547 -0.02551,-0.204076 z m -1.328,-4.032453 0.09766,0.288755 0.05283,-0.101585 z m -1.456,0.03547 0.179924,0.346867 0.04709,-0.139018 z m 0.492679,3.15683 0.514415,0.383849 -0.02974,-0.239095 z m -0.105057,0.421887 0.514264,0.383849 -0.02973,-0.239095 z m 3.953208,-1.155623 0.338264,0.195773 -0.03502,-0.142641 z m -4.43351,-0.476528 0.251774,0.298868 0.0154,-0.145963 z m 0.995321,0.177358 0.419019,0.486038 0.02264,-0.239849 z m 2.079698,1.444981 0.438793,0.327396 -0.02536,-0.204075 z m 1.508831,-0.310792 0.338264,0.195773 -0.03487,-0.142641 z m -0.794567,-0.55683 0.338416,0.195773 -0.03517,-0.142641 z m -0.44966,0.413584 0.338264,0.195774 -0.03502,-0.142641 z m 0.58083,0.416151 0.338264,0.195623 -0.03502,-0.142641 z m 0.573132,0.549736 0.338265,0.195623 -0.03502,-0.142642 z m -0.687849,0.05102 0.438793,0.327396 -0.02551,-0.203924 z m -2.660528,-3.409509 0.179623,0.347019 0.0474,-0.139019 z m -0.626264,0.562415 0.291321,0.571924 0.07909,-0.227622 z m -0.689208,-0.74551 0.291321,0.571925 0.07909,-0.227623 z m 0.759698,0.197887 0.179774,0.347019 0.04709,-0.139019 z m 1.93917,0.216604 0.179774,0.347019 0.04725,-0.139019 z m -1.325736,0.498113 0.179774,0.347019 0.04725,-0.139019 z m 1.973132,0.832 0.27034,0.282113 0.006,-0.146566 z m -0.995622,0.135396 0.270339,0.282114 0.0062,-0.146717 z m 0.613132,0.21751 0.27034,0.282264 0.0062,-0.146717 z m -0.965887,-1.810717 0.179774,0.347019 0.04725,-0.139019 z m 0.795472,0.940075 0.179773,0.347019 0.04709,-0.139019 z m -0.772529,-0.216302 0.179774,0.346868 0.04725,-0.139019 z m -2.358792,-0.129509 0.251774,0.298717 0.0154,-0.145962 z m 0.245887,0.923019 0.251924,0.298868 0.0154,-0.146113 z m 0.705056,-0.397132 0.41917,0.486038 0.02264,-0.23985 z m -0.553811,-0.627774 0.41917,0.486038 0.02264,-0.239849 z m 1.730868,1.359396 0.419019,0.486038 0.02279,-0.239849 z m -1.361066,-0.177025 0.41917,0.486038 0.02264,-0.23985 z m 0.646038,0.09962 0.647547,0.573736 -0.01313,-0.324679 z m 1.463095,0.442265 0.438641,0.327396 -0.02536,-0.204076 z m -0.286944,0.843924 0.693283,0.517585 -0.04015,-0.322415 z m -0.876679,-0.681962 0.693283,0.517736 -0.04015,-0.322566 z m -0.02098,0.505509 0.693434,0.517585 -0.0403,-0.322415 z m 0.869887,-0.370566 0.438792,0.327396 -0.02551,-0.203924 z m -0.723774,1.032755 0.693434,0.517585 -0.04015,-0.322566 z m 1.071396,0.443623 0.514264,0.383849 -0.02974,-0.239246 z m 1.075623,-0.321661 0.438641,0.327547 -0.02536,-0.204075 z m -1.574189,-0.198188 0.591547,0.441358 -0.03441,-0.275019 z m 0.870038,0.322264 0.591396,0.441509 -0.03426,-0.275019 z m 8.208453,25.504905 0.533887,-0.04559 -0.151246,-0.13283 z m 1.744151,-0.304603 0.360905,-0.07834 -0.115169,-0.07743 z m -0.456755,-0.309132 0.360906,-0.07834 -0.115019,-0.07743 z m -1.442415,1.191849 0.296302,-0.0717 -0.09645,-0.06158 z m 2.263849,-0.628378 0.304302,0.02038 -0.07366,-0.0877 z m -0.678943,0.163472 0.30415,0.02038 -0.07366,-0.0877 z m -0.914416,0.2 0.418566,-0.03577 -0.118641,-0.104151 z m 0.421585,-0.408906 0.419774,-0.01525 -0.113359,-0.109736 z m -0.353811,-0.340377 0.533887,-0.04558 -0.151245,-0.13283 z m 0.164226,-0.415849 0.303699,-0.02596 -0.08604,-0.07562 z m -0.916226,0.483019 0.517283,-0.124981 -0.168453,-0.107623 z m -0.51517,0.623094 0.408302,-0.09872 -0.132981,-0.08498 z m -0.09011,-0.385811 0.37917,-0.09162 -0.123472,-0.07894 z m -6.460679,-0.12151 0.533887,-0.04559 -0.151246,-0.13283 z m 1.744151,-0.304603 0.360754,-0.07834 -0.115018,-0.07743 z M 28.71784,50.74687 29.078595,50.66853 28.963576,50.5911 Z m -1.442415,1.19185 0.296151,-0.0717 -0.09645,-0.06159 z m 2.263849,-0.628227 0.304151,0.02023 -0.07366,-0.08755 z m -0.678943,0.163321 0.304151,0.02038 -0.07366,-0.0877 z m -0.914566,0.2 0.418566,-0.03577 -0.118491,-0.104151 z m 0.421584,-0.408906 0.419774,-0.01525 -0.113208,-0.109736 z m -0.35366,-0.340377 0.533887,-0.04558 -0.151245,-0.13283 z m 0.164076,-0.415849 0.303849,-0.02596 -0.08619,-0.07547 z m -0.916076,0.483019 0.517132,-0.124981 -0.168302,-0.107623 z m -0.515321,0.623094 0.408302,-0.09872 -0.13283,-0.08498 z"
     fill="#88898b"
     id="path7"
     style="stroke-width:0.150943" />
</svg>
