<?xml version="1.0" encoding="UTF-8" standalone="no"?>
<svg
   width="80"
   height="80"
   version="1.0"
   id="svg64"
   sodipodi:docname="85_Russian_administered_Zaporizhzhia_Oblast.svg"
   inkscape:version="1.3.2 (091e20e, 2023-11-25, custom)"
   xmlns:inkscape="http://www.inkscape.org/namespaces/inkscape"
   xmlns:sodipodi="http://sodipodi.sourceforge.net/DTD/sodipodi-0.dtd"
   xmlns="http://www.w3.org/2000/svg"
   xmlns:svg="http://www.w3.org/2000/svg">
  <sodipodi:namedview
     id="namedview64"
     pagecolor="#505050"
     bordercolor="#ffffff"
     borderopacity="1"
     inkscape:showpageshadow="0"
     inkscape:pageopacity="0"
     inkscape:pagecheckerboard="1"
     inkscape:deskcolor="#505050"
     inkscape:zoom="4.1754656"
     inkscape:cx="170.40016"
     inkscape:cy="64.304206"
     inkscape:window-width="2560"
     inkscape:window-height="1377"
     inkscape:window-x="1912"
     inkscape:window-y="-8"
     inkscape:window-maximized="1"
     inkscape:current-layer="svg64" />
  <defs
     id="defs4">
    <style
       type="text/css"
       id="style1" />
    <style
       type="text/css"
       id="style2" />
    <style
       type="text/css"
       id="style3" />
    <style
       type="text/css"
       id="style4" />
  </defs>
  <rect
     width="80"
     height="39.883999"
     fill="#3daa5f"
     id="rect4"
     x="0"
     y="0"
     style="stroke-width:0.163299" />
  <rect
     y="39.751999"
     width="80"
     height="40.248001"
     fill="#da2439"
     id="rect5"
     x="0"
     style="stroke-width:0.163299" />
  <rect
     x="9.8380003"
     y="3.1508"
     width="60.094002"
     height="36.172001"
     ry="0"
     fill="#3daa5f"
     stroke-width="0"
     style="paint-order:fill markers stroke"
     id="rect8" />
  <path
     class="st5"
     d="m 21.116,34.826 c -1.6904,-1.53644 -1.92952,-2.4142 -2.8524,-4.3262 0.02,-0.18 0.09125,-0.3 0.29124,-0.34 0.47286,-0.29188 1.448,-0.458 3.4,-0.86 0.2,0.2 0.21768,0.49746 0.21768,0.75746 -1.00294,0.50574 -2.2748,0.38642 -3.1668,0.73116 0.5874,1.04768 1.02162,2.1486 2.289,3.1914 0.9983,-0.38932 2.0734,-0.84682 2.94,-1.22 0.47744,-0.26146 1.2214,-0.36678 1.7275,-0.405 -0.02,0.08 0.19125,0.14 0.08375,0.3325 -1.6888,0.8206 -3.4526,1.61302 -4.93,2.1388 z"
     fill="#ffffff"
     id="path8"
     style="stroke-width:0.2" />
  <path
     class="st5"
     d="m 56.594,35.018 c 1.6904,-1.53644 1.92952,-2.4142 2.8524,-4.3262 -0.02,-0.18 -0.0029,-0.67124 -0.20286,-0.71124 -0.47286,-0.29188 -2.3152,-0.40016 -4.2486,-0.57716 -0.2,0.2 -0.73916,0.5328 -0.73916,0.7928 1.72044,0.197004 2.8626,0.2892 4.2008,0.47484 -0.5874,1.04768 -1.19838,2.7142 -1.7057,3.5362 -0.81228,-0.23772 -3.972,-1.94704 -4.3494,-1.9874 -0.81968,-0.09678 -1.47288,0.06929 -1.36538,0.26178 1.6888,0.8206 4.08,2.0108 5.5576,2.5364 z"
     fill="#ffffff"
     id="path9"
     style="stroke-width:0.2" />
  <path
     class="st0"
     d="M 9.29,65.52 V 2.34 h 61.42 v 63.52 c -0.02,0.04 -0.06,0.08 -0.06,0.12 0.02,0.36 -0.1,0.7 -0.14,1.06 -0.04,0.34 -0.16,0.66 -0.26,0.98 -0.26,0.9 -0.66,1.74 -1.18,2.52 -0.44,0.68 -0.98,1.24 -1.6,1.74 -0.32,0.26 -0.68,0.48 -1.04,0.68 -0.34,0.18 -0.7,0.34 -1.06,0.48 -0.46,0.18 -0.92,0.3 -1.38,0.38 -0.159998,0.02 -0.34,0.04 -0.5,0.08 -0.159998,0.04 -0.32,0.06 -0.5,0.08 -0.1,0 -0.18,0.02 -0.32,0.04 -0.04,0 -0.119998,-0.04 -0.179998,-0.02 -0.18,0.04 -0.38,0.02 -0.56,0.02 -0.2,0.02 -0.42,0 -0.56,0.06 h -0.72 c -0.26,0 -0.52,0 -0.76,0.02 -0.26,0 -0.52,0.04 -0.8,0.04 h -3.34 c -0.159998,-0.04 -0.32,-0.04 -0.48,-0.02 -0.139998,0.02 -0.28,0 -0.42,0 -0.4,-0.04 -0.82,0 -1.22,-0.04 -0.24,-0.04 -0.5,0 -0.74,-0.02 -0.32,-0.04 -0.66,-0.04 -0.98,-0.06 -0.2,0 -0.4,0 -0.58,-0.04 -0.160002,-0.04 -0.32,-0.04 -0.48,-0.04 -0.16,0 -0.32,0 -0.48,-0.02 -0.16,-0.02 -0.32,-0.02 -0.48,-0.04 -0.180002,0 -0.34,0.02 -0.5,-0.02 -0.28,-0.06 -0.58,-0.06 -0.88,-0.06 h -0.2 c -0.3,-0.06 -0.58,-0.04 -0.88,-0.02 -0.2,0.02 -0.4,0.04 -0.6,-0.02 h -0.08 c -0.2,0.04 -0.42,0.06 -0.62,0.1 -0.56,0.12 -1.12,0.28 -1.64,0.54 -0.4,0.2 -0.8,0.4 -1.18,0.62 -0.36,0.22 -0.7,0.44 -1.04,0.7 -0.56,0.42 -1.1,0.86 -1.58,1.38 -0.18,0.2 -0.38,0.4 -0.58,0.58 h -0.06 l -0.18,-0.18 c -0.1,-0.1 -0.22,-0.2 -0.32,-0.3 -0.14,-0.14 -0.28,-0.3 -0.44,-0.44 -0.16,-0.16 -0.32,-0.3 -0.48,-0.44 -0.42,-0.36 -0.86,-0.68 -1.3,-1 -0.48,-0.32 -0.98,-0.6 -1.5,-0.86 -0.5,-0.24 -1.02,-0.4 -1.54,-0.54 -0.12,-0.04 -0.24,-0.06 -0.36,-0.08 -0.18,-0.04 -0.36,-0.06 -0.56,-0.08 -0.18,-0.02 -0.38,-0.04 -0.56,-0.02 -0.2,0 -0.4,0.04 -0.62,0.04 -0.28,-0.02 -0.58,0.02 -0.88,0.04 -0.18,0 -0.38,0.04 -0.56,0.04 -0.34,0.02 -0.7,0 -1.04,0.06 -0.28,0.04 -0.56,0 -0.84,0.06 -0.28,0.06 -0.56,0.04 -0.84,0.04 -0.08,0 -0.16,0.02 -0.24,0.04 -0.08,0.02 -0.18,-0.02 -0.28,-0.02 -0.2,0.04 -0.42,0.02 -0.62,0.04 -0.4,0.02 -0.82,0.04 -1.22,0.06 -0.48,0.02 -0.94,0.02 -1.42,0.04 -0.64,0.04 -1.3,0.02 -1.96,0 -0.58,0 -1.16,0.02 -1.74,-0.02 -0.4,-0.04 -0.8,-0.02 -1.2,-0.02 -0.3,0 -0.62,0.04 -0.94,-0.04 -0.04,0 -0.08,0 -0.12,-0.02 -0.24,0 -0.5,0 -0.74,-0.04 -0.34,-0.04 -0.68,-0.04 -1.02,-0.1 -0.28,-0.06 -0.56,-0.1 -0.84,-0.16 -0.18,-0.02 -0.34,-0.08 -0.52,-0.14 -0.48,-0.18 -0.96,-0.32 -1.4,-0.58 -0.28,-0.16 -0.58,-0.32 -0.86,-0.5 -0.26,-0.18 -0.54,-0.36 -0.74,-0.6 l -0.06,-0.06 c -0.32,-0.18 -0.52,-0.5 -0.74,-0.76 -0.18,-0.2 -0.3,-0.46 -0.48,-0.66 -0.2,-0.26 -0.34,-0.54 -0.48,-0.82 -0.16,-0.32 -0.3,-0.64 -0.44,-0.98 -0.22,-0.56 -0.38,-1.12 -0.48,-1.7 -0.079998,-0.42 -0.179998,-0.82 -0.16,-1.26 0,-0.04 -0.02,-0.08 -0.02,-0.1 0.04,-0.06 0,-0.08 -0.02,-0.08 z m 0.92,-25.3 c 0,0.12 -0.02,0.24 -0.02,0.34 v 23.02 c 0,0.84 -0.04,1.68 0.06,2.52 0.02,0.22 0.06,0.44 0.1,0.68 0.04,0.18 0.1,0.34 0.12,0.52 0.1,0.56 0.3,1.08 0.52,1.58 0.4,0.88 0.92,1.66 1.62,2.34 0.4,0.38 0.84,0.7 1.32,0.98 0.78,0.44 1.62,0.7 2.5,0.88 0.2,0.04 0.4,0.1 0.62,0.08 h 0.08 c 0.28,0.08 0.56,0.02 0.84,0.1 0.6,0 1.2,0.08 1.78,0.06 h 0.16 l 0.96,0.06 h 2.04 c 0.68,0 1.38,0.04 2.06,-0.04 0.3,-0.04 0.6,0 0.92,-0.02 0.3,0 0.6,-0.02 0.9,-0.06 0.2,-0.02 0.42,-0.04 0.62,-0.04 0.18,0 0.36,-0.02 0.54,-0.02 0.08,0 0.16,-0.02 0.26,-0.02 0.32,-0.02 0.62,0 0.94,-0.06 0.28,-0.04 0.56,-0.04 0.84,-0.06 0.42,-0.04 0.84,0 1.28,-0.06 0.22,-0.02 0.42,-0.04 0.64,-0.02 h 0.14 c 0.1,0 0.180002,-0.02 0.28,-0.02 0.42,0 0.84,-0.02 1.24,0.04 0.28,0.04 0.58,0.08 0.86,0.16 0.56,0.12 1.1,0.34 1.62,0.58 0.58,0.28 1.14,0.58 1.68,0.96 0.38,0.26 0.76,0.54 1.12,0.82 0.32,0.26 0.62,0.54 0.92,0.8 0.08,0.08 0.18,0.12 0.26,0.18 0.18,-0.08 0.28,-0.2 0.4,-0.3 0.22,-0.2 0.44,-0.42 0.68,-0.6 0.46,-0.36 0.9,-0.72 1.4,-1.02 0.66,-0.4 1.32,-0.78 2.02,-1.06 0.86,-0.34 1.74,-0.52 2.68,-0.54 0.4,0 0.8,0.02 1.18,0.04 0.52,0.02 1.06,0.08 1.58,0.08 h 0.08 c 0.36,0.08 0.72,0.04 1.08,0.1 0.36,0.06 0.74,0 1.1,0.06 0.26,0.04 0.52,0.02 0.8,0.04 0.48,0.04 0.98,0.08 1.48,0.06 0.22,0 0.46,-0.02 0.68,0.02 0.26,0.04 0.52,0.04 0.76,0.04 h 1.94 c 0.64,0 1.28,0.02 1.92,-0.04 0.42,-0.04 0.84,-0.02 1.26,-0.02 h 0.22 c 0.42,-0.06 0.82,-0.1 1.24,-0.1 0.1,0 0.179998,-0.02 0.28,-0.04 0.06,0 0.120002,-0.02 0.159998,-0.02 0.160004,0 0.32,-0.02 0.48,-0.06 0.4,-0.06 0.8,-0.16 1.18,-0.28 0.7,-0.2 1.34,-0.5 1.94,-0.9 0.34,-0.22 0.64,-0.46 0.92,-0.74 0.08,-0.08 0.16,-0.18 0.24,-0.28 0.2,-0.2 0.38,-0.4 0.54,-0.62 0.16,-0.22 0.3,-0.46 0.44,-0.7 0.28,-0.48 0.5,-0.98 0.68,-1.5 0.2,-0.58 0.34,-1.2 0.42,-1.82 0.06,-0.36 0.08,-0.74 0.08,-1.1 V 40.4 c 0,-0.06 -0.02,-0.1 -0.04,-0.16 -0.04,-0.02 -0.08,-0.02 -0.1,-0.02 z M 69.91,3.2 c -0.06,0 -0.1,-0.02 -0.140002,-0.02 -19.84,0 -39.7,0 -59.54,0.02 -0.02,0 -0.04,0.02 -0.06,0.04 0,0.04 0,0.1 -0.02,0.16 v 35.68 c 0,0.08 -0.02,0.16 0.06,0.22 h 59.54 c 0.06,0 0.1,-0.02 0.160002,-0.02 z"
     fill="#1d1d1b"
     id="path10"
     style="stroke-width:0.2" />
  <path
     class="st1"
     d="m 10.148,40.214 59.636,0.0055 c 0.02,2e-6 0.06703,0.02078 0.107034,0.02078 0.02,0.04 0.04,0.1 0.04,0.16 v 24.8 c 0,0.38 -0.02,0.74 -0.08,1.1 -0.08,0.62 -0.22,1.22 -0.42,1.82 -0.18,0.52 -0.4,1.02 -0.68,1.5 -0.14,0.24 -0.28,0.46 -0.44,0.7 -0.16,0.22 -0.34,0.42 -0.54,0.62 -0.08,0.08 -0.159998,0.18 -0.24,0.28 -0.28,0.28 -0.6,0.54 -0.92,0.74 -0.6,0.38 -1.26,0.7 -1.94,0.9 -0.38,0.1 -0.78,0.22 -1.18,0.28 l -0.48,0.06 c -0.06,0 -0.12,0.02 -0.16,0.02 -0.1,0.02 -0.18,0.04 -0.28,0.04 -0.42,0 -0.82,0.04 -1.24,0.1 h -0.22 c -0.42,0 -0.84,-0.02 -1.24,0.02 -0.64,0.06 -1.28,0.04 -1.92,0.04 h -1.94 c -0.26,0 -0.55,0.0125 -0.81,-0.0275 -0.22,-0.04 -0.46,-0.02 -0.68,-0.02 -0.5,0.02 -0.98,-0.04 -1.48,-0.06 -0.26,-0.02 -0.52,0 -0.8,-0.04 -0.36,-0.06 -0.74,0 -1.1,-0.06 -0.36,-0.06 -0.72,0 -1.08,-0.1 h -0.08 c -0.52,0.02 -1.06,-0.04 -1.58,-0.08 -0.4,-0.02 -0.80008,-0.04727 -1.18,-0.04 -0.92442,0.01768 -1.77,0.1875 -2.63,0.5275 -0.72,0.28 -1.38,0.66 -2.02,1.06 -0.5,0.3 -0.94,0.68 -1.4,1.02 -0.24,0.18 -0.46,0.4 -0.68,0.6 -0.120002,0.1 -0.25536,0.31072 -0.43536,0.37072 -0.08,-0.06 -0.18,-0.12 -0.26,-0.18 -0.32,-0.26 -0.6,-0.54 -0.92,-0.8 -0.36,-0.28 -0.74,-0.56 -1.12,-0.82 -0.52,-0.36 -1.08,-0.68 -1.68,-0.96 -0.52,-0.24 -1.06,-0.44 -1.62,-0.58 -0.28,-0.06 -0.57558,-0.168612 -0.85558,-0.20862 -0.42,-0.06 -0.80906,-0.0621 -1.20906,-0.0621 -0.1,0 -0.18,0.02 -0.28,0.02 -0.269,0.0043 -0.56434,-0.0025 -0.78,0.02 -0.42,0.06 -0.86,0.02 -1.28,0.06 -0.28,0.02 -0.65982,0.03875 -0.93982,0.07875 -0.32,0.04 -0.62,0.04 -0.94,0.06 -0.08,0 -0.16,0.02 -0.26,0.02 -0.18,0.02 -0.36,0.02 -0.54,0.02 -0.2,0 -0.42,0 -0.62,0.04 -0.3,0.04 -0.6,0.04 -0.9,0.06 -0.3,0 -0.62,-0.02 -0.92,0.02 -0.68,0.08 -1.38,0.04 -2.06,0.04 h -2.04 c -0.32,0 -0.64,-0.04 -0.96,-0.06 h -0.16 c -0.6,0.02 -1.2,-0.06 -1.78,-0.06 -0.28,-0.08 -0.56,0 -0.84,-0.1 h -0.08 c -0.2,0.02 -0.42,-0.04 -0.62,-0.08 -0.88,-0.18 -1.72,-0.44 -2.5,-0.88 -1.33146,-0.76108 -2.3604,-2.065 -2.94,-3.32 -0.22,-0.5 -0.42,-1.02 -0.52,-1.58 -0.04,-0.18 -0.1,-0.34 -0.12,-0.52 -0.04,-0.22 -0.06,-0.44 -0.1,-0.68 -0.1,-0.84 -0.06,-1.68 -0.06,-2.52 v -2.52 c 0.03417,-6.8968 0.04067,-14.0614 -0.0027,-20.864 z"
     fill="#da2439"
     id="path11"
     style="stroke-width:0.2" />
  <path
     class="st5"
     d="m 31.768,28.79 c 0.28,0.12 0.3675,0.44624 0.6075,0.62624 0.2445,-0.107506 0.35438,-0.172736 0.44826,0.11712 -0.04,0.18 -0.2,0.2778 -0.3,0.4378 0.02,0.12 0.02674,0.26884 0.06674,0.42884 -0.2,0.3 -0.52,0.44 -0.82,0.58 -0.5082,-0.04732 -0.52374,-0.41318 -0.62376,-0.88124 0.08545,-0.07761 0.0099,-0.146436 0.01978,-0.194782 -0.143742,-0.002 -0.1284,-0.454 -0.20478,-0.59146 0.12756,-0.24698 0.56544,-0.4387 0.80624,-0.5225 z"
     fill="#ffffff"
     id="path12"
     style="stroke-width:0.2" />
  <path
     class="st2"
     d="m 51.25,36.4 c 0.06,0 0.119998,0.02 0.16,0.02 v 0.08 c -0.04,0 -0.08,0.02 -0.119998,0.02 -0.02,-0.06 -0.02,-0.08 -0.04,-0.12 z"
     fill="#3daa5f"
     id="path13"
     style="stroke-width:0.2" />
  <g
     fill="#da2439"
     id="g17"
     transform="matrix(0.2,0,0,0.2,-20,0)">
    <path
       class="st1"
       d="m 284.35,268.8 c -0.7,0.8 -1.7,1.3 -2.6,1.8 -2,1.1 -3.4,2.9 -4.4,4.9 -1.3,2.5 -2.7,5 -4.3,7.3 -1.8,2.7 -4,5 -6.8,6.7 -1.8,1.1 -3.7,1.7 -5.6,2.2 -2.3,0.6 -4.7,0.4 -7.1,0.3 -1.5,-0.1 -3,-0.5 -4.6,-1 -3.9,-1.1 -7.6,-2.8 -11.2,-4.6 -3.2,-1.7 -6.4,-3.4 -9.5,-5.3 -3.7,-2.2 -7.5,-4.4 -11.4,-6.3 -3.3,-1.6 -6.8,-3.1 -10.3,-4.4 -0.5,-0.2 -1,-0.4 -1.4,-0.6 -0.2,-0.1 -0.3,-0.2 -0.5,-0.3 0.5,-0.5 1,-0.6 1.5,-0.6 h 2.3 c 3,-0.1 6,-0.2 8.9,-0.3 2.9,0 5.9,0 8.8,-0.1 7,-0.3 14,-0.1 21,-0.2 7,-0.1 14,0 21,0 h 15.5 c 0.20001,0 0.40001,0.1 0.5,0.2 0.10001,0.1 0.10001,0.2 0.20001,0.3 z"
       id="path14" />
    <path
       class="st1"
       d="m 389.35,267.8 c -0.89999,0.8 -1.6,1.1 -2.4,1.4 -4.9,2 -9.6,4.3 -14,7.1 -3.7,2.4 -7.4,4.8 -11.1,7 -3.4,2.1 -7,3.9 -10.7,5.4 -2.6,1 -5.2,1.6 -8,1.3 -1.8,-0.2 -3.6,-0.6 -5.3,-1.3 -1.7,-0.6 -3.3,-1.4 -4.9,-2.2 -2.3,-1.2 -4.4,-2.6 -6.3,-4.3 -1.6,-1.4 -3.2,-2.8 -4.6,-4.4 -2.2,-2.5 -4.3,-5 -6.8,-7.2 -0.80001,-0.7 -1.7,-1.3 -2.5,-2 0,-0.3 0.29999,-0.2 0.39999,-0.2 H 313.75 c 7.8,-0.4 15.5,-0.1 23.3,-0.2 2,0 4,0.1 6,-0.1 5,-0.4 10,-0.1 15,-0.2 h 30.2 c 0.1,0 0.5,0 1.1,-0.1 z"
       id="path15" />
    <path
       class="st1"
       d="m 300.35,243.5 c 0.59999,-0.4 1.2,-0.7 1.9,-1.1 1.5,-0.8 3,-1.5 4.6,-2.3 0.4,-0.2 0.8,-0.5 1.2,-0.7 h 0.70001 c 2.2,3 4.3,6.1 6.2,9.4 -1.8,3.1 -3.9,5.9 -5.8,8.9 -1.9,2.9 -3.9,5.8 -5.9,8.6 -0.9,0.2 -1.7,0.1 -2.5,0.1 -0.2,-0.7 -0.4,-1.4 -0.4,-2.1 v -20.1 c -0.1,-0.2 -0.1,-0.3 10e-6,-0.7 z"
       id="path16" />
    <path
       class="st1"
       d="m 283.15,245.3 c 1.1,-1.6 3.8,-4.6 4.7,-5.2 3.1,0.9 6.1,2.1 9,3.7 0,0.4 0.1,0.8 0.1,1.1 v 19.9 c 0,0.2 -0.19999,0.4 -0.3,0.7 -0.3,0 -0.5,-0.1 -0.7,-0.1 -0.1,-0.2 -0.3,-0.4 -0.4,-0.6 -0.4,-0.9 -0.9,-1.6 -1.5,-2.4 -1.9,-2.7 -3.7,-5.5 -5.5,-8.2 -1.2,-1.9 -2.5,-3.8 -3.7,-5.7 l -1.5,-2.4 c -0.1,-0.4 -0.1,-0.7 -0.2,-0.8 z"
       id="path17" />
  </g>
  <g
     fill="#b9aea4"
     id="g20"
     transform="matrix(0.2,0,0,0.2,-20,0)">
    <path
       class="st3"
       d="m 294.53,331.56 c 1.5,0.3 3.0438,1.45 4.1438,2.35 0.61934,2.6272 1.4848,5.2954 1.8312,7.7438 0.67163,-2.6469 1.2182,-5.127 1.7438,-7.7562 0.6,-0.5 1.1688,-1.0875 1.8688,-1.4875 0.6,-0.4 1.2875,-0.8625 1.9875,-1.0625 0.40001,0.2 0.2,0.5 0.1,0.8 -1.6893,6.0754 -3.4797,11.894 -5.4,17.45 -0.1,0.3 -0.54375,0.6875 -0.74375,0.9875 -2.127,-5.4203 -5.2632,-13.717 -5.5312,-19.025 z"
       id="path18" />
    <path
       class="st3"
       d="m 334.54,315.06 c 2.0814,5.9927 4.5664,11.874 5.5562,17.575 -1.008,0.2375 -2.3169,-0.96539 -3.0438,-1.5312 -3.8518,-3.6588 -8.1335,-6.1744 -11.5,-10 0.10001,-0.4 0.0563,-0.7125 0.25626,-0.8125 0.89999,-0.1 2.2688,-0.1 3.2688,-0.1 2,1.8 3.775,3.5062 5.975,5.5062 -0.2,-1.6 -0.9,-2.3938 -1.4,-3.5938 -0.5,-1.2 -1.1,-2.4 -1.7,-3.6 0.1,-0.4 0.1,-0.8 0.2,-1.1 0.2,-0.9 1,-3.1688 1.4,-3.9688 0.39884,0.32521 0.84309,0.96598 0.9875,1.625 z"
       id="path19" />
    <path
       class="st3"
       d="m 267.95,317.8 c 0.40001,0.7 0.93258,1.4 0.93258,2.4 -0.98158,2.4177 -2.1024,4.867 -2.8116,7.1442 3.7988,-3.8231 4.5246,-4.322 6.479,-5.9442 1.3768,-0.35468 2.4547,0.2221 3.6547,0.6221 l -1.1221,1.1663 c -2.2,1.9 -4.6326,3.7442 -6.9326,5.6442 -1.1,0.9 -2.0116,1.8663 -3.1116,2.6663 -1,0.8 -2.1221,1.5116 -3.1221,2.3116 -0.30001,0.2 -0.7663,0.42209 -1.2663,0.72209 0,-0.4 -0.10001,-0.73258 0,-1.0326 0.19999,-0.6 0.29999,-1.3 0.59999,-1.9 0.90001,-2.6 2,-5.2 2.9,-7.8 0.5,-1.4 1.1,-2.7 1.4,-4.1 0,-0.2 0.3,-0.4 0.4,-0.7 0.20001,-0.5 0.85243,-2.0386 1.1524,-2.4386 0.47056,0.21511 0.73329,0.64194 0.84756,1.2386 z"
       id="path20" />
  </g>
  <g
     fill="#da2439"
     id="g26"
     transform="matrix(0.2,0,0,0.2,-20,0)">
    <path
       class="st1"
       d="m 263.75,219.9 c 0.6,0.8 1.2,1.6 1.8,2.4 2,2.9 4,5.9 6,8.8 3.3,4.8 6.5,9.6 9.8,14.4 1.8,2.7 3.6,5.3 5.4,8 2.4,3.5 4.8,6.9 7.1,10.4 0.40001,0.7 0.90001,1.3 1.3,2 0.1,0.1 0,0.3 0.1,0.5 -0.19999,0.1 -0.4,0.1 -0.69999,0.2 -0.4,-0.5 -0.70001,-0.9 -1,-1.4 -2.5,-3.6 -4.9,-7.3 -7.4,-10.9 -0.7,-1 -1.5,-1.9 -2.1,-2.9 -0.20001,-0.3 -0.4,-0.6 -0.5,-0.8 -0.30001,-0.5 -0.6,-1.1 -0.9,-1.6 -1.5,-2.2 -3,-4.5 -4.5,-6.7 -2.1,-3 -4.1,-6 -6.2,-9 -2.5,-3.7 -5,-7.3 -7.5,-11 -0.40001,-0.7 -0.8,-1.4 -1.2,-2 0.1,-0.2 0.2,-0.3 0.2,-0.3 0,-0.2 0.1,-0.1 0.29999,-0.1 z"
       id="path21" />
    <path
       class="st1"
       d="m 297.95,215.9 c 0.6,-0.1 0.7,0.1 0.80001,0.4 0.1,0.5 0.1,0.9 0.1,1.4 V 266 c -0.3,0.4 -0.59999,0.6 -1.1,0.4 -0.1,-0.6 -0.1,-1.2 -0.1,-1.8 v -11.4 c 0,-11.1 0,-22.3 0.1,-33.4 0,-1.3 0.1,-2.6 0.2,-3.9 z"
       id="path22" />
    <path
       class="st1"
       d="m 304.55,281 c 0.4,-0.4 0.70001,-0.3 1.1,-0.3 8.2,12.3 16.3,24.7 24.5,37 -0.1,0.3 -0.1,0.5 -0.2,0.7 h -0.69999 c -1.4,-1.6 -2.6,-3.4 -3.7,-5.3 -1.9,-3.4 -4.2,-6.6 -6.4,-9.9 -2.1,-3.3 -4.3,-6.5 -6.4,-9.7 -1.6,-2.4 -3.2,-4.7 -4.7,-7 -0.9,-1.4 -1.9,-2.8 -2.8,-4.3 -0.2,-0.3 -0.40001,-0.8 -0.70001,-1.2 z"
       id="path23" />
    <path
       class="st1"
       d="m 301.35,333.2 h -0.90001 c 0,-0.5 -0.1,-1 -0.1,-1.4 v -3.3 c -0.40001,-9.3 -0.2,-18.5 -0.30001,-27.8 0,-0.9 -0.19999,-1.8 -0.19999,-2.7 0,-5.5 -0.1,-11.1 -0.1,-16.6 0,-0.3 0,-0.5 0.1,-0.8 0.4,-0.3 0.59999,0.1 0.8,0.3 v 1.5 c 0,3.5 -0.1,6.9 0.1,10.4 0.19999,4.5 0,9 0.3,13.5 0.3,4.7 0.1,9.5 0.2,14.2 0,2 -0.1,4 0.1,6 0.2,1.9 0.1,3.9 0.2,5.8 -0.2,0.2 -0.2,0.5 -0.2,0.9 z"
       id="path24" />
    <path
       class="st1"
       d="m 305.55,266.8 h -0.79999 c 0,-0.2 -0.10001,-0.3 -0.10001,-0.3 0.5,-1.2 1.3,-2.2 2,-3.2 1.8,-2.6 3.5,-5.2 5.2,-7.9 0.8,-1.3 1.6,-2.5 2.5,-3.8 0.7,-1.1 1.4,-2.3 2.2,-3.5 0.5,-0.7 1,-1.4 1.4,-2.1 1.9,-2.9 3.8,-5.7 5.7,-8.6 3.1,-4.7 6.2,-9.4 9.3,-14.2 0.5,-0.8 1,-1.7 1.8,-2.5 l 0.5,0.5 c -0.8,1.6 -1.7,3 -2.7,4.4 -2,3.1 -4.1,6.2 -6.2,9.3 -1.9,2.9 -3.8,5.9 -5.8,8.9 -1,1.5 -2,3.1 -3,4.6 -1.1,1.5 -2,3.1 -3.1,4.6 -1,1.5 -2,3.1 -3.1,4.6 -1.5,2.3 -3.1,4.6 -4.6,7 -0.40001,0.5 -0.80001,1.3 -1.2,2.2 z"
       id="path25" />
    <path
       class="st1"
       d="m 270.05,322.3 c -0.19999,-0.2 -0.29999,-0.3 -0.5,-0.4 0.20001,-0.8 0.70001,-1.5 1.2,-2.1 0.19999,-0.4 0.5,-0.7 0.69999,-1 2.2,-3.4 4.5,-6.8 6.7,-10.2 l 4.8,-7.5 c 1.9,-3 3.9,-5.9 5.9,-8.9 1.5,-2.2 2.9,-4.5 4.4,-6.8 0.59999,-1 1.3,-2 2,-2.9 0.1,-0.2 0.19999,-0.5 0.4,-0.9 0.2,-0.1 0.4,-0.3 0.80001,-0.5 l 0.59999,0.6 c -1.4,2.1 -2.7,4.1 -4.1,6.2 -2.8,4.2 -5.5,8.4 -8.2,12.5 -1.6,2.4 -3.2,4.9 -4.8,7.3 -2,3.1 -4,6.2 -6,9.2 -0.90001,1.3 -1.7,2.7 -2.6,4 -0.39999,0.6 -0.69999,1 -1.3,1.4 z"
       id="path26" />
  </g>
  <g
     fill="#b9aea4"
     id="g31"
     transform="matrix(0.2,0,0,0.2,-20,0)">
    <path
       class="st3"
       d="m 345.35,225.18 c -6.4,10.662 -17.2,24.225 -17.5,24.725 h -1.3 l -7.2,-0.6 c -0.40001,0 -0.7,-0.2 -1.2,-0.3 0.1,-0.7 15.938,-24.6 16.338,-25.1 3.2304,0.14544 8.1816,0.19246 10.862,1.275 z"
       id="path27" />
    <path
       class="st3"
       d="m 285.89,210.81 c 1.3,0.5 8.0049,4.8303 10.605,7.0303 0.39774,5.6707 0.82919,12.281 0.40823,24.47 -4.0325,-1.3504 -6.888,-1.9945 -9.4386,-2.9937 -0.4,-0.3 -1.9712,-23.725 -1.6745,-27.407 0,-0.3 0,-0.7 0.1,-1.1 z"
       id="path28" />
    <path
       class="st3"
       d="m 267.96,246.71 c -0.10001,-0.3 -13.651,-19 -15.956,-23.847 0.1,-0.1 0.24972,-0.2221 0.34972,-0.2221 1,0 2.1,0.1 3.1,0.1 h 6.5 c 0.59999,0 1.1,0 1.7,0.1 0.1,0.2 0.39375,0.45625 0.49375,0.65625 5.4254,6.9501 15.888,22.184 15.612,23.312 l -0.29999,0.3 c -0.40001,0.1 -0.80001,0.1 -1.1,0.1 h -8.8 c -0.5,-0.1 -1,0 -1.6,-0.5 z"
       id="path29" />
    <path
       class="st3"
       d="m 328.34,212.83 c 1.3,1.9 2.9938,5.125 3.9938,7.225 0.3,0.5 0.6,1.1 0.6,1.8 -0.2,0.3 -16.946,25.523 -17.917,25.314 -1.1,-1.3 -3.9719,-6.625 -4.6719,-8.825 6.2563,-7.5788 11.198,-19.198 17.996,-25.514 z"
       id="path30" />
    <path
       class="st3"
       d="m 270.47,211.31 c 0.1,0 0.19998,0 0.19998,0.1 1.5281,1.0281 15.978,24.688 16.278,24.988 -0.1,0.3 -0.1,0.7 -0.3,1 -1.2,2.1 -1.9156,3.725 -3.0156,5.725 -0.2,0.3 -1.0562,1.0625 -1.2562,1.2625 -0.6,0 -17.247,-23.831 -17.447,-24.131 0.3,-1.4 3.7406,-6.1438 5.5406,-8.9438 z"
       id="path31" />
  </g>
  <path
     class="st1"
     d="m 29.99,60.08 c 0.12,-0.04 0.2,0 0.28,0.02 0.160002,0.06 0.32,0.1 0.48,0.16 0.2,0.08 0.42,0.1 0.64,0.1 0.36,0.02 0.7,0 1.02,-0.16 0.04,-0.02 0.06,-0.02 0.140002,-0.02 -0.2,0.24 -0.46,0.32 -0.72,0.36 -0.4,0.08 -0.82,0.08 -1.22,-0.08 -0.22,-0.1 -0.46,-0.18 -0.62,-0.38 z"
     fill="#da2439"
     id="path32"
     style="stroke-width:0.2" />
  <path
     class="st3"
     d="m 41.556,42.41 0.104686,0.01094 c 0.08,0.06 0.05348,5.0102 0.01348,5.0702 -0.139998,0.14 -0.92782,0.64344 -1.42782,0.88344 -0.04,0.02 -0.1,0.04 -0.14,0.06 -0.02,-0.02 -0.130464,-0.14625 -0.130626,-0.166248 l -0.03883,-4.7728 c 0.48,-0.32 1.1391,-0.76562 1.6191,-1.08562 z"
     fill="#b9aea4"
     id="path33"
     style="stroke-width:0.2" />
  <path
     class="st0"
     d="m 33.39,62.5 c 0.22,0.4 0.32,0.82 0.52,1.2 0.06,0.02 0.1,-0.02 0.12,-0.06 0.1,-0.12 0.2,-0.24 0.28,-0.36 0.44,-0.66 0.86,-1.32 1.28,-2 0.4,-0.62 0.78,-1.24 1.18,-1.86 0.28,-0.46 0.58,-0.9 0.88,-1.36 0.2,-0.3 0.38,-0.6 0.58,-0.9 0.18,-0.28 0.36,-0.56 0.52,-0.84 0.04,-0.06 0.06,-0.12 0.1,-0.2 -0.04,-0.02 -0.06,-0.04 -0.08,-0.04 -0.56,-0.04 -1.08,0.12 -1.6,0.32 -0.22,0.08 -0.38,0.24 -0.52,0.42 -0.32,0.4 -0.62,0.8 -0.92,1.22 -0.44,0.6 -0.94,1.14 -1.5,1.62 -0.52,0.46 -1.08,0.82 -1.74,1.04 -0.36,0.12 -0.72,0.2 -1.1,0.2 h -0.32 c -0.36,0 -0.94,-0.12 -1.3,-0.24 -0.54,-0.2 -1.04,-0.5 -1.52,-0.82 -0.74,-0.5 -1.52,-0.96 -2.26,-1.44 -0.46,-0.3 -0.9,-0.62 -1.36,-0.92 -0.76,-0.52 -1.5,-1.08 -2.3,-1.54 -0.34,-0.2 -0.7,-0.42 -1.08,-0.56 -0.2,-0.08 -0.38,-0.18 -0.56,-0.24 -0.24,-0.1 -0.5,-0.16 -0.76,-0.24 -0.22,-0.06 -0.44,-0.1 -0.66,-0.12 -0.16,-0.02 -0.32,-0.06 -0.5,-0.04 -0.06,0.04 -0.16,0.08 -0.24,0.12 -0.14,0.24 -0.160002,0.5 -0.160002,0.74 -0.16,0.42 -0.4,0.6 -0.82,0.62 -0.2,0 -0.38,0.02 -0.56,-0.08 -0.24,-0.14 -0.34,-0.38 -0.38,-0.64 -0.04,-0.2 -0.06,-0.38 -0.02,-0.58 0.06,-0.34 0.24,-0.6 0.5,-0.8 0.26,-0.2 0.54,-0.32 0.86,-0.42 0.38,-0.1 0.76,-0.16 1.14,-0.16 h 1 c 0.12,0 0.22,0.02 0.34,0.02 0.02,0 0.04,0.02 0.06,0 0.2,-0.06 0.4,0.02 0.62,0 0.2,-0.02 0.4,0 0.6,0 0.2,0 0.42,0.02 0.62,0 1.14,-0.08 2.28,-0.02 3.44,-0.04 1.14,-0.02 2.28,0.02 3.42,-0.02 1.36,-0.04 2.72,-0.02 4.1,-0.02 1.38,-0.02 2.76,0 4.16,-0.02 0.34,0 0.66,-0.06 0.98,-0.12 0.06,-0.02 0.1,-0.04 0.14,-0.06 0.04,-0.08 0.02,-0.12 0,-0.18 -0.12,-0.16 -0.22,-0.34 -0.32,-0.5 -0.3,-0.44 -0.6,-0.86 -0.9,-1.3 -0.18,-0.28 -0.4,-0.54 -0.58,-0.8 -0.2,-0.3 -0.4,-0.58 -0.64,-0.88 -0.22,0 -0.46,-0.02 -0.7,0.04 -0.08,0.02 -0.16,0.02 -0.22,0.02 -0.18,0.02 -0.38,0 -0.56,0.06 -0.08,0.02 -0.18,0 -0.28,0.02 -0.16,0 -0.32,0.02 -0.52,0.02 -0.02,-0.02 -0.08,-0.06 -0.12,-0.1 -0.16,-0.22 -0.32,-0.42 -0.46,-0.64 -0.26,-0.38 -0.52,-0.74 -0.76,-1.12 -0.22,-0.32 -0.42,-0.62 -0.64,-0.94 -0.26,-0.4 -0.54,-0.8 -0.8,-1.2 -0.26,-0.42 -0.54,-0.82 -0.8,-1.24 -0.06,-0.08 -0.1,-0.16 -0.12,-0.28 0.06,-0.02 0.1,-0.02 0.14,-0.02 0.26,0 0.54,-0.02 0.8,0.04 h 0.08 c 0.2,0.04 0.4,-0.04 0.62,-0.02 0.2,0.02 0.42,0.02 0.62,0.02 0.04,0 0.08,0 0.12,-0.02 0.02,-0.12 -0.08,-0.2 -0.1,-0.3 0.08,-0.12 0.2,-0.22 0.36,-0.3 0.06,0.04 0.12,0.1 0.2,0.16 0.02,-0.02 0.06,-0.02 0.06,-0.04 0.06,-0.08 0.1,-0.16 0.14,-0.24 0.08,-0.14 0.18,-0.28 0.26,-0.44 0.1,-0.18 0.18,-0.34 0.28,-0.52 0.1,-0.18 0.22,-0.34 0.36,-0.46 0.04,-0.04 0.1,-0.04 0.14,-0.08 0.22,0.26 0.4,0.56 0.5,0.82 0.02,0.06 0.04,0.1 0.08,0.14 0.3,0.36 0.52,0.78 0.78,1.18 0.22,0.34 0.42,0.66 0.64,1 0.16,0.26 0.32,0.54 0.5,0.8 0.14,0.22 0.26,0.46 0.46,0.64 0.06,-0.22 0.06,-0.28 0.06,-0.48 -0.02,-0.26 0,-0.52 -0.02,-0.8 0,-0.22 -0.04,-0.44 -0.04,-0.64 -0.02,-0.22 -0.02,-0.44 -0.04,-0.64 -0.02,-0.16 -0.02,-0.32 -0.02,-0.48 0,-0.16 -0.02,-0.3 -0.02,-0.46 0,-0.12 0.02,-0.22 0.02,-0.32 -0.04,-0.06 -0.08,-0.12 -0.1,-0.18 v -0.58 c 0.04,-0.04 0.06,-0.08 0.1,-0.12 0.02,0 0.04,0 0.06,0.02 0.24,0.14 0.48,0.28 0.72,0.4 0.36,0.18 0.7,0.38 1,0.64 0.1,0.08 0.24,0.12 0.36,0.16 0,-0.08 0.02,-0.16 0.02,-0.22 0.08,-0.04 0.16,-0.06 0.22,-0.08 h 0.32 c 0.119998,0.06 0.18,0.16 0.18,0.28 0.12,-0.02 0.24,-0.06 0.34,-0.08 0.24,-0.32 0.6,-0.5 0.92,-0.72 0.14,-0.08 0.28,-0.16 0.4,-0.26 0.02,-0.02 0.06,-0.04 0.1,-0.04 0.08,0.08 0.08,0.16 0.08,0.26 v 0.8 c 0,0.18 -0.02,0.34 0.04,0.5 0.02,0.04 0,0.08 0,0.12 -0.06,0.3 -0.04,0.58 0,0.88 0.02,0.14 0.02,0.28 0,0.42 -0.04,0.32 -0.04,0.62 0,0.92 v 0.14 c -0.04,0.18 -0.02,0.38 0,0.56 0.02,0.14 0.02,0.28 0.04,0.42 0.08,0.02 0.12,-0.02 0.160002,-0.06 l 0.66,-0.78 c 0.3,-0.38 0.58,-0.76 0.86,-1.12 0.48,-0.62 0.94,-1.26 1.42,-1.86 0.18,-0.22 0.3,-0.48 0.48,-0.7 0.06,-0.08 0.1,-0.16 0.22,-0.18 0.16,0.28 0.32,0.58 0.48,0.86 0.159998,0.28 0.32,0.58 0.54,0.84 0.1,0 0.18,-0.16 0.36,-0.06 0.02,0 0.06,0.06 0.12,0.12 0.06,0.06 0.119998,0.12 0.16,0.18 0.02,0.16 -0.140002,0.24 -0.16,0.38 0.139998,0.04 0.28,0.08 0.42,0.08 0.2,0 0.4,0 0.6,0.02 0.32,0.02 0.66,0.04 0.98,0.06 0.06,0 0.1,0.04 0.16,0.06 -0.02,0.06 0,0.1 -0.02,0.14 -0.06,0.1 -0.119998,0.22 -0.2,0.32 -0.4,0.56 -0.8,1.12 -1.22,1.68 -0.22,0.3 -0.46,0.6 -0.68,0.9 -0.28,0.38 -0.56,0.74 -0.82,1.12 -0.24,0.32 -0.48,0.66 -0.72,0.98 -0.06,0.08 -0.160002,0.16 -0.22,0.24 -0.24,-0.02 -0.44,0.02 -0.66,-0.04 h -0.02 c -0.38,-0.02 -0.76,-0.04 -1.14,-0.08 -0.06,0.06 -0.12,0.12 -0.16,0.18 -0.44,0.66 -0.86,1.3 -1.3,1.96 -0.18,0.26 -0.34,0.52 -0.5,0.78 -0.06,0.08 -0.12,0.18 -0.08,0.32 0.04,0.02 0.08,0.06 0.119998,0.06 0.06,0.02 0.140002,0 0.2,0 h 5.78 c 1.3,-0.08 2.6,-0.02 3.88,-0.06 0.88,-0.04 1.74,-0.04 2.62,-0.04 0.86,-0.02 1.72,0.02 2.58,-0.02 0.74,-0.02 1.5,-0.02 2.24,-0.06 0.24,-0.02 0.46,0 0.7,0.08 0.26,0.08 0.5,0.2 0.7,0.36 0.32,0.3 0.5,0.66 0.46,1.1 -0.02,0.16 -0.08,0.3 -0.18,0.44 -0.16,0.2 -0.32,0.34 -0.56,0.4 -0.06,0.02 -0.1,0.04 -0.16,0.06 h -0.42 c -0.4,-0.14 -0.62,-0.44 -0.76,-0.82 -0.04,-0.12 -0.06,-0.22 -0.1,-0.36 -0.26,0.06 -0.48,0.08 -0.72,0.14 -0.74,0.22 -1.42,0.58 -2.06,0.96 -0.64,0.38 -1.22,0.82 -1.82,1.26 -0.3,0.22 -0.58,0.46 -0.84,0.7 -0.66,0.58 -1.36,1.08 -2.12,1.52 -0.58,0.36 -1.2,0.64 -1.86,0.84 l -0.66,0.18 c -0.06,0.02 -0.14,0 -0.2,0 h -0.82 c -0.22,0 -0.42,-0.08 -0.64,-0.12 -0.5,-0.12 -0.94,-0.38 -1.36,-0.66 -0.5,-0.34 -0.92,-0.76 -1.32,-1.2 -0.26,-0.3 -0.54,-0.6 -0.84,-0.88 -0.36,-0.36 -0.78,-0.66 -1.22,-0.9 -0.2,-0.12 -0.44,-0.18 -0.7,-0.12 0.02,0.04 0.02,0.08 0.04,0.1 0.28,0.44 0.58,0.88 0.86,1.32 0.4,0.6 0.82,1.2 1.22,1.8 0.46,0.68 0.92,1.36 1.4,2.04 l 1.08,1.56 c 0.04,0.06 0.1,0.1 0.16,0.18 0.24,-0.34 0.26,-0.74 0.46,-1.08 0.06,-0.02 0.08,0.04 0.1,0.08 0.12,0.36 0.28,0.72 0.38,1.1 0.12,0.46 0.28,0.9 0.42,1.34 0.18,0.62 0.38,1.26 0.56,1.9 0.04,0.12 0.06,0.24 0.08,0.34 -0.08,0.06 -0.14,0 -0.18,-0.04 l -0.66,-0.48 c -0.4,-0.32 -0.82,-0.64 -1.22,-0.98 -0.32,-0.24 -0.62,-0.48 -0.94,-0.74 0,0 -0.02,0 -0.02,-0.02 -0.22,-0.2 -0.44,-0.4 -0.66,-0.58 -0.04,-0.04 -0.08,-0.08 -0.1,-0.12 0,-0.08 0.06,-0.12 0.12,-0.12 0.24,-0.02 0.48,-0.04 0.74,-0.06 0.08,0 0.14,-0.02 0.18,-0.1 -0.02,-0.02 -0.02,-0.08 -0.04,-0.12 -0.1,-0.16 -0.18,-0.32 -0.28,-0.48 -0.36,-0.54 -0.7,-1.1 -1.06,-1.64 -0.22,-0.36 -0.46,-0.7 -0.7,-1.06 -0.4,-0.6 -0.8,-1.2 -1.22,-1.8 -0.24,-0.36 -0.52,-0.72 -0.76,-1.1 -0.16,-0.24 -0.32,-0.46 -0.5,-0.68 -0.16,-0.2 -0.3,-0.38 -0.52,-0.54 -0.04,0.02 -0.1,0.04 -0.16,0.06 0,0.06 -0.02,0.12 -0.02,0.18 v 1.06 c 0,0.2 0,0.4 0.04,0.6 0.02,0.2 0.02,0.4 0.02,0.6 0.02,1 0.02,2 0.08,3 0.04,0.66 0,1.32 0.04,1.98 0.04,0.44 0.04,0.88 0.04,1.34 v 0.94 c 0,0.1 -0.02,0.2 0.04,0.3 0.04,-0.02 0.08,-0.02 0.12,-0.04 0.18,-0.12 0.36,-0.24 0.54,-0.38 0.160002,-0.12 0.34,-0.24 0.5,-0.38 0.04,0.02 0.06,0.02 0.1,0.04 -0.02,0.1 -0.04,0.2 -0.08,0.3 l -0.42,1.38 c -0.28,0.86 -0.58,1.72 -0.88,2.6 -0.08,0.24 -0.179998,0.5 -0.26,0.74 -0.02,0.04 -0.06,0.08 -0.1,0.12 -0.04,-0.08 -0.08,-0.12 -0.08,-0.16 -0.18,-0.64 -0.42,-1.26 -0.6,-1.92 -0.1,-0.38 -0.24,-0.76 -0.36,-1.14 -0.16,-0.5 -0.3,-1.02 -0.44,-1.52 -0.04,-0.1 -0.04,-0.2 -0.04,-0.34 0.119998,0.08 0.2,0.14 0.28,0.2 0.18,0.16 0.38,0.32 0.56,0.5 0.119998,0.1 0.22,0.2 0.38,0.28 0.02,-0.04 0.04,-0.08 0.04,-0.12 0,-0.18 0.02,-0.36 0,-0.54 0,-0.74 0.02,-1.5 -0.02,-2.24 -0.06,-1.48 0,-2.96 -0.06,-4.44 -0.02,-0.8 -0.02,-1.6 -0.04,-2.42 0,-0.1 0,-0.2 -0.08,-0.3 h -0.1 c -0.08,0.12 -0.18,0.26 -0.26,0.38 -0.38,0.6 -0.78,1.2 -1.16,1.8 -0.48,0.72 -0.94,1.46 -1.42,2.18 -0.54,0.84 -1.06,1.68 -1.58,2.52 -0.04,0.06 -0.08,0.1 -0.139998,0.16 0,0.16 -0.24,0.28 -0.180002,0.5 0.14,0.06 0.3,0 0.46,0.02 0.160002,0.02 0.32,-0.08 0.48,-0.02 0,0.04 0,0.08 0.02,0.12 -0.26,0.26 -0.5,0.52 -0.78,0.76 -0.44,0.4 -0.86,0.82 -1.34,1.18 -0.1,0.08 -0.18,0.16 -0.26,0.26 -0.08,0.08 -0.160002,0.16 -0.24,0.18 -0.159998,0.14 -0.28,0.26 -0.4,0.38 -0.24,0.2 -0.46,0.38 -0.7,0.58 -0.04,0.04 -0.1,0.04 -0.159998,0.08 0,-0.08 -0.02,-0.12 -0.02,-0.16 0.02,-0.1 0.06,-0.22 0.08,-0.32 0.160002,-0.54 0.34,-1.08 0.52,-1.62 0.160002,-0.48 0.3,-0.96 0.46,-1.46 0.16,-0.46 0.3,-0.9 0.46,-1.36 -0.08,-0.1 -0.06,-0.14 -4e-6,-0.2 z m 4.9,-14.44 c 0,0.02 0,0.06 0.04,0.02 -0.02,0 -0.02,-0.02 -0.04,-0.02 -0.02,-0.04 -0.02,-0.1 -0.04,-0.12 -0.180002,-0.2 -0.36,-0.38 -0.6,-0.5 -0.02,-0.02 -0.06,-0.02 -0.1,-0.02 -0.04,0.1 -0.06,0.22 -0.04,0.36 0.22,0.18 0.5,0.26 0.78,0.28 z m 21.56,6.08 c -0.02,-0.06 -0.04,-0.08 -0.1,-0.08 0.04,0.04 0.06,0.06 0.1,0.08 0.02,0.04 0.04,0.1 0.08,0.14 0.08,0.1 0.159998,0.2 0.2,0.32 -0.08,0.16 -0.3,0.12 -0.4,0.26 0.08,0.16 0.22,0.18 0.36,0.22 0.08,-0.04 0.16,-0.08 0.22,-0.1 0.159998,-0.18 0.120002,-0.34 0,-0.48 -0.1,-0.12 -0.2,-0.22 -0.32,-0.32 -0.04,-0.04 -0.08,-0.06 -0.14,-0.04 z M 38.23,42.94 38.11,42.82 c -0.28,-0.18 -0.54,-0.36 -0.84,-0.56 -0.02,0.06 -0.04,0.14 -0.08,0.2 0.08,0.14 0.179998,0.22 0.3,0.3 0.08,0.06 0.179998,0.1 0.2,0.22 -0.1,0.02 -0.2,0 -0.28,-0.08 -0.06,-0.06 -0.119998,-0.1 -0.22,-0.08 -0.04,0.08 -0.04,0.18 0,0.24 0.02,0.04 0.06,0.06 0.1,0.08 0.78,0.6 1.7,1.22 1.98,1.32 0,-0.12 0.02,-0.22 -0.02,-0.32 -0.139998,-0.08 -0.26,-0.18 -0.38,-0.26 -0.38,-0.28 -0.76,-0.54 -1.16,-0.82 -0.02,-0.02 -0.06,-0.04 -0.04,-0.08 0.04,0.02 0.08,0.02 0.120002,0.04 L 37.91,43.08 38.99,43.8 c 0.08,0.06 0.159998,0.12 0.26,0.12 0.04,-0.1 0.02,-0.2 0,-0.3 -0.2,-0.14 -0.38,-0.28 -0.56,-0.42 -0.1,-0.08 -0.28,-0.18 -0.46,-0.26 z m -4,-0.28 c 0.06,-0.04 0.04,-0.1 0.02,-0.14 -0.04,-0.08 -0.08,-0.14 -0.140002,-0.2 -0.1,0.06 -0.159998,0.12 -0.179998,0.22 -0.1,0.16 -0.18,0.32 -0.28,0.48 -0.140002,0.22 -0.26,0.46 -0.4,0.68 -0.160002,0.1 -0.180002,0.28 -0.160002,0.44 0.04,0.08 0.08,0.12 0.18,0.1 0,0 0.02,-0.02 0.04,-0.06 l 0.78,-1.32 c 0.06,-0.06 0.06,-0.16 0.14,-0.2 z m 2.28,3.68 c -0.3,0.48 -0.58,0.96 -0.84,1.46 0.06,0.08 0.08,0.18 0.18,0.2 0.1,-0.06 0.140002,-0.16 0.2,-0.24 0.160002,-0.26 0.32,-0.52 0.46,-0.78 0.08,-0.16 0.2,-0.28 0.24,-0.46 0.02,-0.02 0.04,-0.02 0.08,-0.04 -0.08,-0.1 -0.1,-0.22 -0.22,-0.26 -0.02,0.04 -0.06,0.08 -0.100002,0.12 z m -1.86,-3.06 c -0.04,0.08 -0.14,0.12 -0.16,0.22 -0.06,0.22 -0.22,0.42 -0.34,0.62 -0.16,0.26 -0.3,0.52 -0.46,0.78 0.06,0.08 0.12,0.14 0.18,0.22 0.12,-0.12 0.64,-0.98 0.96,-1.6 0.02,-0.02 0.04,-0.06 0.04,-0.08 -0.02,-0.1 -0.06,-0.18 -0.16,-0.26 -0.02,0.02 -0.04,0.06 -0.06,0.1 z m 8.7,2.72 c -0.02,0.02 -0.04,0.04 -0.04,0.06 0.3,0.68 0.74,1.52 0.92,1.72 0.08,-0.06 0.12,-0.16 0.160002,-0.28 -0.06,-0.12 -0.1,-0.22 -0.160002,-0.34 -0.2,-0.38 -0.42,-0.74 -0.62,-1.12 -0.02,-0.08 -0.04,-0.14 -0.14,-0.16 -0.06,0.06 -0.1,0.08 -0.12,0.12 z m -8.28,-1.96 c 0.02,0 0.06,-0.02 0.08,-0.02 0.02,-0.04 0.02,-0.08 0.02,-0.1 -0.06,-0.08 -0.08,-0.2 -0.2,-0.24 -0.04,0.06 -0.08,0.12 -0.1,0.18 -0.119998,0.26 -0.36,0.44 -0.44,0.74 -0.120002,0.1 -0.120002,0.28 -0.22,0.38 -0.1,0.12 -0.119998,0.24 -0.159998,0.38 0.02,0.04 0.04,0.08 0.08,0.12 0.02,0.04 0.04,0.1 0.08,0.08 0.02,-0.02 0.04,-0.02 0.04,-0.04 0.26,-0.42 0.52,-0.84 0.76,-1.28 0.02,-0.08 0.04,-0.14 0.06,-0.2 z m 6.64,0.78 c 0.04,-0.06 0.04,-0.12 0,-0.18 -0.02,-0.04 -0.02,-0.06 -0.04,-0.1 -0.12,0.08 -0.22,0.14 -0.34,0.2 -0.32,0.2 -0.64,0.4 -0.98,0.6 -0.139998,0.08 -0.28,0.18 -0.36,0.34 0,0.08 -0.02,0.18 0.1,0.22 0.119998,-0.08 0.22,-0.16 0.34,-0.22 0.34,-0.22 0.68,-0.42 1,-0.64 0.1,-0.06 0.22,-0.1 0.28,-0.22 z m 0.44,2.78 c -0.02,0.02 -0.04,0.06 -0.06,0.08 0.14,0.42 0.7,1.48 0.9,1.74 0.06,-0.08 0.1,-0.16 0.14,-0.22 0,-0.16 -0.08,-0.26 -0.12,-0.36 -0.22,-0.42 -0.42,-0.84 -0.68,-1.22 0,-0.04 -0.02,-0.06 -0.02,-0.1 -0.1,-0.02 -0.12,0.02 -0.159998,0.08 z m 2.22,-3 c 0,-0.02 0,-0.02 -0.02,-0.04 -0.02,0.02 -0.04,0.02 -0.04,0.02 -0.08,0.02 -0.139998,0.08 -0.159998,0.18 0.24,0.54 0.52,1.04 0.8,1.58 0.02,0.04 0.06,0.08 0.119996,0.16 0.06,-0.1 0.12,-0.18 0.160002,-0.3 -0.02,-0.06 -0.06,-0.14 -0.1,-0.22 -0.08,-0.14 -0.14,-0.28 -0.22,-0.42 -0.18,-0.34 -0.32,-0.68 -0.54,-0.96 z m -6.92,-0.24 1.62,1.14 c 0.08,0.06 0.160002,0.12 0.28,0.12 v -0.3 C 39.169998,45.2 38.99,45.06 38.81,44.92 L 37.73,44.2 c -0.02,-0.06 -0.06,-0.1 -0.12,-0.1 -0.04,-0.02 -0.1,-0.04 -0.16,-0.06 -0.02,-0.08 -0.08,-0.12 -0.160002,-0.1 -0.04,0.1 -0.02,0.2 0,0.3 0.04,0.04 0.06,0.12 0.160002,0.12 z m 4.084,-1.42656 -0.128124,0.14375 c -0.04798,0.05383 -0.135938,0.08281 -0.17594,0.122812 -0.26,0.18 -0.54,0.36 -0.8,0.54 -0.04,0.02 -0.08,0.06 -0.119998,0.06 -0.119998,0.04 -0.22,0.14 -0.3,0.24 0,0.08 -0.02,0.18 0.02,0.28 0.14,-0.08 0.26,-0.16 0.38,-0.24 0.32,-0.2 0.66,-0.42 0.98,-0.62 0.1,-0.06 0.2,-0.12 0.26,-0.22 0,-0.08 0.02,-0.18 -0.04,-0.26 -0.04,-0.02 -0.29718,0.164374 -0.35906,0.163124 0.06,-0.08 0.35906,-0.32312 0.39906,-0.40312 0,-0.08 -0.02,-0.16 -0.02,-0.26 -0.08,0.02 -0.140002,0.02 -0.160002,0.06 -0.139998,0.12 -0.28,0.24 -0.4,0.36 -0.159998,0.04 -0.32,0.12 -0.46,0.2 -0.180004,0.12 -0.36,0.26 -0.54,0.4 -0.02,0.02 -0.04,0.04 -0.04,0.06 0,0.08 -0.02,0.16 0.04,0.26 0.140002,-0.08 0.26,-0.16 0.4,-0.24 0.22,-0.14 0.42,-0.28 0.64,-0.4 0.06,-0.08 0.505,-0.33738 0.42406,-0.24656 z m -7.944,20.626 c -0.02,-0.08 -0.06,-0.14 -0.140002,-0.2 -0.08,0.04 -0.119998,0.08 -0.119998,0.16 -0.06,0.08 -0.06,0.2 -0.12,0.28 -0.02,0.04 -0.08,0.08 -0.08,0.14 -0.04,0.3 -0.180002,0.56 -0.28,0.82 -0.18,0.52 -0.38,1.04 -0.58,1.56 -0.04,0.12 -0.08,0.24 -0.12,0.38 -0.02,0.04 0,0.1 0,0.18 0.08,-0.06 0.160002,-0.1 0.24,-0.14 0.22,-0.16 0.42,-0.32 0.62,-0.48 0.22,-0.18 0.42,-0.34 0.64,-0.52 0.46,-0.38 0.9,-0.74 1.36,-1.12 0.08,-0.06 0.14,-0.14 0.22,-0.22 -0.26,-0.08 -0.46,-0.18 -0.7,-0.12 -0.08,0.08 -0.18,0.14 -0.26,0.22 -0.1,0.08 -0.2,0.16 -0.28,0.26 -0.2,0.26 -0.44,0.48 -0.7,0.68 -0.02,0.02 -0.04,0.02 -0.1,0.02 0.08,-0.26 0.179998,-0.5 0.28,-0.72 0.120002,-0.24 0.2,-0.48 0.3,-0.7 -0.04,-0.2 -0.1,-0.34 -0.179998,-0.48 z m 13.04,-0.62 c -0.08,0.16 -0.120002,0.34 -0.180002,0.5 -0.02,0.08 -0.04,0.14 -0.04,0.22 0.12,0.24 0.22,0.48 0.34,0.72 0.1,0.24 0.24,0.48 0.28,0.8 -0.44,-0.4 -0.82,-0.76 -1.22,-1.12 -0.2,0 -0.38,0.02 -0.56,0.02 -0.06,0 -0.119998,0 -0.119998,0.1 0.08,0.1 0.18,0.18 0.26,0.3 0.1,0.12 0.2,0.24 0.36,0.3 0.04,0.02 0.08,0.06 0.140002,0.1 0.179998,0.16 0.38,0.32 0.56,0.48 0.32,0.28 0.66,0.54 0.98,0.82 0.139998,0.1 0.28,0.2 0.4,0.3 0.04,0.02 0.08,0.06 0.139998,0 0,-0.1 -0.02,-0.2 -0.04,-0.32 -0.1,-0.32 -0.2,-0.64 -0.3,-0.98 -0.24,-0.72 -0.48,-1.42 -0.74,-2.14 0,-0.12 -0.06,-0.2 -0.140002,-0.28 -0.08,0.06 -0.1,0.12 -0.119998,0.18 z m -9.76,-9.18 c -0.02,-0.02 -0.02,-0.04 -0.04,-0.04 -0.04,-0.02 -0.08,-0.04 -0.1,-0.04 h -7.3 c -1.4,0.02 -2.8,-0.02 -4.2,0.04 -0.58,0.02 -1.18,0 -1.76,0.02 -0.6,0.02 -1.18,0.04 -1.78,0.06 h -0.46 c -0.1,0 -0.18,0.02 -0.3,0.12 0.04,0.02 0.06,0.04 0.1,0.06 0.1,0.04 0.2,0.08 0.28,0.12 0.7,0.24 1.38,0.54 2.06,0.88 0.78,0.38 1.52,0.82 2.28,1.26 0.62,0.38 1.26,0.72 1.9,1.06 0.72,0.38 1.46,0.7 2.24,0.92 0.3,0.08 0.6,0.18 0.92,0.2 0.46,0.04 0.94,0.06 1.42,-0.06 0.4,-0.1 0.78,-0.22 1.12,-0.44 0.56,-0.34 1,-0.8 1.36,-1.34 0.32,-0.48 0.6,-0.96 0.86,-1.46 0.2,-0.4 0.48,-0.74 0.88,-0.98 0.180002,-0.12 0.38,-0.22 0.52,-0.38 z m 21,-0.2 h -6.32 c -1,0 -2,-0.04 -3,0.04 -0.4,0.02 -0.8,0 -1.2,0.02 -1.56,0.02 -3.1,-0.04 -4.66,0.04 h -0.120002 c -0.02,0 -0.08,-0.02 -0.08,0.04 0.159998,0.14 0.34,0.26 0.5,0.4 0.5,0.44 0.92,0.96 1.36,1.44 0.28,0.32 0.6,0.6 0.92,0.88 0.4,0.32 0.82,0.6 1.26,0.86 0.32,0.18 0.64,0.34 0.98,0.44 0.34,0.12 0.7,0.2 1.06,0.26 0.56,0.06 1.1,-0.06 1.6,-0.26 0.76,-0.3 1.46,-0.66 2.14,-1.08 0.76,-0.46 1.48,-0.94 2.22,-1.4 0.88,-0.56 1.82,-1.02 2.8,-1.42 0.22,-0.04 0.36,-0.1 0.54,-0.26 z m -17.82,-4.86 v 4.14 c 0,0.14 0.04,0.28 0.08,0.42 0.18,0 0.32,0.02 0.5,-0.02 0.4,-0.58 0.8,-1.14 1.18,-1.72 0.38,-0.6 0.8,-1.16 1.16,-1.78 -0.38,-0.66 -0.8,-1.26 -1.24,-1.88 h -0.14 c -0.08,0.04 -0.16,0.1 -0.24,0.14 -0.3,0.16 -0.6,0.3 -0.92,0.46 -0.12,0.1 -0.26,0.18 -0.38,0.24 z m -3.42,0.34 c 0,0.04 0,0.08 0.02,0.12 0.1,0.16 0.18,0.32 0.3,0.48 0.24,0.38 0.5,0.76 0.74,1.14 0.36,0.56 0.72,1.1 1.1,1.64 0.1,0.16 0.22,0.3 0.3,0.48 0.02,0.04 0.04,0.08 0.08,0.12 0.04,0 0.08,0.02 0.14,0.02 0.02,-0.04 0.06,-0.08 0.06,-0.14 0.02,-0.06 0,-0.14 0,-0.2 v -3.78 c 0,-0.08 0,-0.16 -0.02,-0.22 -0.58,-0.32 -1.18,-0.56 -1.8,-0.74 -0.16,0.16 -0.7,0.76 -0.92,1.08 z m 2.3,17.34 c -0.04,0.08 -0.02,0.16 0,0.22 0.22,0.9 0.52,1.8 0.8,2.68 0.08,0.24 0.160002,0.5 0.24,0.76 0.02,0 0.06,0 0.1,0.02 0.02,-0.06 0.06,-0.1 0.08,-0.16 0.18,-0.52 0.34,-1.06 0.52,-1.58 0.18,-0.62 0.36,-1.24 0.56,-1.86 0.02,-0.06 0.04,-0.1 -0.02,-0.16 -0.14,0.04 -0.24,0.12 -0.36,0.2 -0.12,0.08 -0.24,0.18 -0.38,0.26 -0.04,0.16 -0.08,0.32 -0.1,0.5 -0.04,0.34 -0.14,0.66 -0.2,0.98 0,0.04 -0.04,0.06 -0.08,0.14 -0.04,-0.3 -0.14,-0.56 -0.18,-0.8 -0.04,-0.26 -0.12,-0.52 -0.18,-0.78 -0.26,-0.18 -0.5,-0.34 -0.8,-0.42 z m -6.2,-22.4 h -0.1 c -0.02,0 -0.02,0.02 -0.04,0.06 0.08,0.12 0.139998,0.28 0.24,0.4 0.5,0.74 1,1.46 1.5,2.2 0.42,0.6 0.82,1.2 1.24,1.8 0.3,0.44 0.6,0.88 0.9,1.34 0.06,0.1 0.12,0.22 0.18,0.32 0.04,0.06 0.08,0.12 0.1,0.16 0.12,0.2 0.3,0.38 0.42,0.58 0.5,0.72 1,1.44 1.48,2.18 0.06,0.1 0.12,0.18 0.2,0.28 0.06,-0.02 0.1,-0.02 0.14,-0.04 0,-0.04 0,-0.08 -0.02,-0.1 -0.08,-0.14 -0.18,-0.28 -0.26,-0.4 -0.48,-0.7 -0.96,-1.38 -1.42,-2.08 -0.36,-0.52 -0.72,-1.06 -1.08,-1.6 -0.66,-0.96 -1.3,-1.92 -1.96,-2.88 -0.4,-0.58 -0.8,-1.18 -1.2,-1.76 -0.08,-0.16 -0.2,-0.3 -0.32,-0.46 z m 6.86,-0.8 c -0.02,0.26 -0.04,0.52 -0.04,0.76 0,2.22 0,4.46 -0.02,6.68 v 2.28 c 0,0.12 0,0.24 0.02,0.36 0.1,0.04 0.16,0.02 0.22,-0.08 v -9.66 c 0,-0.1 0,-0.18 -0.02,-0.28 -0.02,-0.04 -0.06,-0.08 -0.16,-0.06 z m 1.32,13.02 c 0.04,0.08 0.08,0.18 0.14,0.26 0.18,0.28 0.38,0.58 0.56,0.86 0.32,0.48 0.64,0.94 0.94,1.4 0.42,0.64 0.86,1.28 1.28,1.94 0.42,0.66 0.88,1.3 1.28,1.98 0.22,0.38 0.46,0.72 0.74,1.06 h 0.14 c 0.02,-0.04 0.02,-0.08 0.04,-0.14 -1.64,-2.48 -3.26,-4.94 -4.9,-7.4 -0.08,-0.04 -0.14,-0.04 -0.22,0.04 z m -0.66,10.44 c 0,-0.08 0.02,-0.14 0.02,-0.2 0,-0.38 0,-0.78 -0.04,-1.16 -0.04,-0.4 -0.02,-0.8 -0.02,-1.2 -0.02,-0.94 0.02,-1.9 -0.04,-2.84 -0.06,-0.9 -0.02,-1.8 -0.06,-2.7 -0.04,-0.7 0,-1.38 -0.02,-2.08 v -0.3 c -0.06,-0.04 -0.08,-0.12 -0.16,-0.06 0,0.04 -0.02,0.1 -0.02,0.16 0,1.1 0,2.22 0.02,3.32 0,0.18 0.04,0.36 0.04,0.54 0.02,1.86 -0.02,3.7 0.06,5.56 0.02,0.22 0,0.44 0,0.66 0,0.1 0.02,0.18 0.02,0.28 z m 0.84,-13.3 c 0.1,-0.16 0.18,-0.32 0.26,-0.48 0.3,-0.46 0.62,-0.92 0.92,-1.4 0.2,-0.3 0.4,-0.62 0.62,-0.92 0.22,-0.3 0.4,-0.62 0.62,-0.92 0.2,-0.3 0.4,-0.6 0.6,-0.92 0.4,-0.58 0.78,-1.18 1.16,-1.78 0.42,-0.62 0.82,-1.24 1.24,-1.86 0.18,-0.28 0.38,-0.56 0.54,-0.88 l -0.1,-0.1 c -0.160002,0.16 -0.24,0.32 -0.36,0.5 -0.62,0.94 -1.24,1.88 -1.86,2.84 -0.38,0.58 -0.76,1.14 -1.14,1.72 -0.1,0.14 -0.2,0.28 -0.28,0.42 -0.14,0.22 -0.28,0.46 -0.44,0.7 -0.16,0.26 -0.32,0.5 -0.5,0.76 -0.36,0.52 -0.7,1.04 -1.04,1.58 -0.14,0.22 -0.3,0.42 -0.4,0.64 0,0.02 0,0.04 0.02,0.06 0.02,0.04 0.06,0.04 0.14,0.04 z m -7.1,11.12 c 0.12,-0.06 0.18,-0.14 0.24,-0.24 0.18,-0.26 0.34,-0.54 0.52,-0.8 0.42,-0.6 0.8,-1.22 1.2,-1.84 0.32,-0.5 0.64,-0.98 0.96,-1.46 0.56,-0.84 1.1,-1.68 1.64,-2.5 0.28,-0.4 0.54,-0.82 0.82,-1.24 l -0.119998,-0.12 c -0.06,0.04 -0.12,0.08 -0.160002,0.1 -0.04,0.08 -0.06,0.12 -0.08,0.18 -0.12,0.2 -0.26,0.4 -0.4,0.58 -0.3,0.46 -0.58,0.9 -0.88,1.36 -0.38,0.6 -0.78,1.18 -1.18,1.78 l -0.96,1.5 c -0.44,0.68 -0.9,1.36 -1.34,2.04 -0.04,0.08 -0.1,0.14 -0.14,0.2 -0.08,0.12 -0.18,0.26 -0.24,0.42 0.06,-0.02 0.1,0 0.120002,0.04 z m 12.1,-18.32 0.02,0.02 c 0.46,0.06 0.92,0.12 1.4,0.18 0.159998,0.02 0.3,0.04 0.44,0.04 0.06,0 0.12,0 0.180002,-0.02 0.06,-0.1 0.18,-0.18 0.16,-0.32 -0.04,-0.02 -0.08,-0.04 -0.120002,-0.04 -0.22,-0.02 -0.42,-0.1 -0.64,-0.08 -0.1,0 -0.18,-0.02 -0.28,-0.02 -0.26,-0.02 -0.5,-0.06 -0.76,-0.1 h -0.22 c -0.08,0.14 -0.16,0.22 -0.18,0.34 z m 0.38,-0.5 c 0.76,0.14 1.76,0.26 2.06,0.22 0.08,-0.08 0.16,-0.18 0.18,-0.3 -0.14,-0.06 -0.28,-0.08 -0.42,-0.1 -0.32,-0.02 -0.66,-0.06 -0.98,-0.12 -0.22,-0.04 -0.42,-0.04 -0.66,-0.04 -0.08,0.14 -0.2,0.2 -0.18,0.34 z m 0.08,-1.34 c -0.12,-0.3 -0.26,-0.56 -0.4,-0.82 -0.14,-0.28 -0.3,-0.54 -0.46,-0.82 -0.1,0.04 -0.18,0.1 -0.22,0.18 -0.04,0.16 0.04,0.28 0.1,0.38 l 0.66,1.32 c 0.02,0.04 0.04,0.08 0.1,0.08 0.1,-0.04 0.14,-0.18 0.22,-0.32 z m -13.8,3.74 c 0.12,0 0.26,0.02 0.38,0.02 h 1.62 c 0.08,0 0.16,0 0.22,-0.02 0.02,0 0.02,-0.02 0.04,-0.04 -0.04,-0.06 -0.08,-0.14 -0.12,-0.22 -0.08,-0.02 -0.16,-0.04 -0.24,-0.04 -0.66,0 -1.32,0 -1.98,-0.02 -0.04,0 -0.1,-0.02 -0.119998,0.04 0.04,0.1 0.08,0.2 0.2,0.28 z m 6.54,-3.32 -0.12,-0.12 c -0.32,-0.22 -0.66,-0.46 -0.98,-0.68 -0.26,-0.18 -0.52,-0.36 -0.78,-0.52 -0.04,-0.02 -0.1,-0.1 -0.18,-0.04 0,0.08 0,0.18 0.02,0.24 0.32,0.3 1.82,1.3 2.06,1.4 0.02,-0.08 0,-0.18 -0.02,-0.28 z m 0.06,2.28 c -0.04,-0.04 -0.06,-0.06 -0.08,-0.06 l -1.5,-1.02 c -0.14,-0.08 -0.26,-0.2 -0.42,-0.22 -0.06,0.08 -0.04,0.16 -0.02,0.28 0.06,0.06 0.160002,0.14 0.24,0.2 0.26,0.18 0.52,0.36 0.78,0.52 0.28,0.2 0.58,0.4 0.86,0.6 0.04,0.02 0.08,0.04 0.14,0 z m 6.06,0.24 c 0.22,0.02 0.44,0.06 0.66,0.08 0.2,0.02 0.4,0.08 0.62,0.08 0.22,0 0.42,0.12 0.66,0.04 0.08,-0.08 0.18,-0.16 0.18,-0.32 -0.3,-0.12 -0.62,-0.12 -0.94,-0.16 l -0.96,-0.12 c -0.1,0.14 -0.2,0.22 -0.22,0.4 z m 0.36,2.42 c -0.24,-0.1 -0.44,-0.1 -0.66,-0.12 -0.22,-0.02 -0.44,-0.04 -0.64,-0.06 h -0.64 c -0.08,0.1 -0.16,0.18 -0.18,0.32 l 0.24,0.06 1.44,0.12 h 0.26 c 0.04,-0.1 0.1,-0.2 0.18,-0.32 z m -14.28,-3.48 c 0.16,0.02 0.3,0.04 0.42,0.04 h 1.78 c 0.04,0 0.08,-0.02 0.16,-0.02 -0.08,-0.12 -0.14,-0.2 -0.2,-0.3 h -2.3 c 0.06,0.1 0.1,0.18 0.14,0.28 z m 16.48,0.42 c -0.12,-0.04 -0.24,-0.08 -0.36,-0.1 -0.32,-0.04 -0.62,-0.08 -0.92,-0.1 -0.24,-0.02 -0.46,-0.04 -0.7,-0.06 -0.08,0.1 -0.18,0.18 -0.2,0.32 0.56,0.14 1.74,0.28 2,0.24 0.06,-0.08 0.14,-0.16 0.18,-0.3 z m -1.22,-1.46 c 0.04,0.02 0.08,0.06 0.12,0.06 0.24,0 0.46,0.1 0.7,0.08 0.04,0 0.08,0.02 0.12,0.02 0.3,0.04 0.62,0.08 0.92,0.1 0.06,0 0.12,0 0.2,-0.02 0.08,-0.1 0.16,-0.18 0.14,-0.3 -0.22,-0.12 -0.46,-0.06 -0.66,-0.12 -0.22,-0.06 -0.44,-0.02 -0.68,-0.08 -0.22,-0.06 -0.44,-0.04 -0.68,-0.02 -0.1,0.08 -0.16,0.16 -0.18,0.28 z m -9.42,0.2 c 0.24,0.18 0.48,0.34 0.72,0.52 0.36,0.26 0.74,0.5 1.1,0.74 0.06,0.04 0.12,0.1 0.22,0.06 0,-0.1 0.02,-0.2 -0.02,-0.32 -0.16,-0.1 -0.32,-0.22 -0.48,-0.32 -0.18,-0.12 -0.34,-0.24 -0.52,-0.36 -0.16,-0.12 -0.32,-0.22 -0.5,-0.34 -0.18,-0.1 -0.32,-0.24 -0.52,-0.32 z m 7.42,2.98 c 0.2,0.1 0.42,0.06 0.64,0.08 0.22,0.02 0.42,0.08 0.64,0.06 0.22,-0.02 0.42,0.08 0.64,0.04 0.08,-0.12 0.18,-0.22 0.18,-0.36 -0.22,-0.06 -0.42,-0.02 -0.64,-0.08 -0.22,-0.04 -0.44,0 -0.68,-0.04 -0.22,-0.04 -0.42,-0.04 -0.64,0 -0.04,0.1 -0.140002,0.16 -0.140002,0.3 z m -0.44,0.52 c 0.08,0.02 0.14,0.02 0.2,0.02 0.22,0.02 0.44,0.02 0.64,0.06 0.36,0.04 0.74,0.06 1.12,0.08 0.06,-0.12 0.18,-0.2 0.14,-0.34 -0.08,-0.08 -0.16,-0.06 -0.22,-0.08 -0.140002,0 -0.26,0 -0.4,-0.02 -0.2,-0.04 -0.4,-0.04 -0.6,-0.04 -0.180002,0 -0.36,0 -0.54,-0.04 -0.04,-0.02 -0.1,0 -0.139998,0 -0.06,0.1 -0.140002,0.2 -0.2,0.36 z m 0.78,-1.08 c 0.24,0.02 0.44,0.06 0.66,0.08 0.2,0.02 0.4,0.08 0.62,0.1 0.22,0 0.42,0.08 0.64,0.04 0.08,-0.1 0.14,-0.18 0.16,-0.3 -0.04,-0.02 -0.08,-0.06 -0.14,-0.06 -0.36,-0.04 -0.72,-0.12 -1.08,-0.12 -0.04,0 -0.1,0 -0.14,-0.02 -0.2,-0.06 -0.38,-0.04 -0.58,-0.02 -0.06,0.06 -0.12,0.18 -0.139998,0.3 z m -7.76,-2.96 c 0.08,0.08 0.16,0.14 0.26,0.2 0.22,0.16 0.44,0.3 0.64,0.46 l 0.9,0.6 c 0.06,0.04 0.139998,0.1 0.24,0.08 0.02,-0.1 0.02,-0.2 -0.02,-0.32 -0.66,-0.44 -1.3,-0.94 -2.02,-1.34 z m 7.8,-1.42 c -0.02,0.12 0,0.22 0.04,0.3 0.22,0.46 0.46,0.94 0.68,1.4 0.02,0.04 0.06,0.08 0.08,0.1 0.1,-0.08 0.18,-0.2 0.24,-0.38 -0.119998,-0.32 -0.22,-0.48 -0.36,-0.66 -0.04,-0.24 -0.18,-0.42 -0.28,-0.62 -0.06,-0.12 -0.1,-0.24 -0.24,-0.32 -0.06,0.08 -0.120002,0.12 -0.16,0.18 z m -5.78,4.2 c -0.56,-0.4 -1.12,-0.8 -1.68,-1.18 -0.06,-0.04 -0.139998,-0.08 -0.22,-0.12 -0.02,0 -0.04,0 -0.06,0.02 v 0.24 c 0.06,0.08 0.119998,0.16 0.159998,0.2 0.1,0.08 0.180002,0.12 0.26,0.18 0.42,0.3 0.84,0.6 1.28,0.9 0.04,0.02 0.08,0.06 0.12,0.08 0.04,0.02 0.08,0.08 0.139998,0.04 z m 6.56,1.9 c 0.06,-0.1 0.120002,-0.18 0.16,-0.26 0.02,-0.04 0,-0.08 0.02,-0.14 -0.16,0 -0.3,-0.02 -0.44,-0.02 -0.159998,-0.02 -0.3,-0.04 -0.44,-0.04 -0.22,-0.02 -0.44,-0.04 -0.68,-0.04 h -0.36 c -0.08,0.1 -0.16,0.2 -0.18,0.34 0.64,0.06 1.26,0.1 1.92,0.16 z m -8.46,-2.66 c 0,0.08 -0.02,0.16 -0.02,0.2 0.04,0.12 0.119998,0.18 0.22,0.24 0.5,0.36 1,0.72 1.5,1.06 0.06,0.04 0.1,0.1 0.180002,0.1 0.04,-0.1 0.02,-0.22 0.02,-0.32 -0.52,-0.42 -1.64,-1.18 -1.9,-1.28 z m -2.84,0.56 c -0.26,-0.06 -1.04,-0.08 -2.24,-0.04 -0.04,0 -0.06,0.02 -0.1,0.02 0.04,0.1 0.06,0.2 0.160002,0.24 0.6,0.02 1.22,0.02 1.84,0.02 0.140002,0 0.28,-0.02 0.42,-0.04 0,-0.04 0.02,-0.06 0,-0.06 -0.02,-0.04 -0.06,-0.08 -0.08,-0.14 z m -2.76,-0.76 c 0.36,0.04 1.9,0.08 2.22,0.06 0.02,0 0.04,-0.02 0.08,-0.04 -0.02,-0.12 -0.06,-0.2 -0.139998,-0.28 -0.06,0 -0.140002,-0.02 -0.2,-0.02 -0.66,0.02 -1.34,0.02 -2,0.04 -0.02,0 -0.02,0.02 -0.06,0.04 0.02,0.08 0.06,0.16 0.1,0.2 z m 4.44,-0.96 c -0.06,0.1 -0.120002,0.2 -0.180002,0.28 -0.14,0.24 -0.26,0.48 -0.4,0.72 -0.04,0.1 -0.08,0.2 -0.16,0.26 -0.1,0.1 -0.16,0.22 -0.22,0.34 0.08,0.1 0.14,0.18 0.22,0.26 0.18,-0.18 0.58,-0.88 0.98,-1.6 -0.08,-0.06 -0.12,-0.18 -0.24,-0.26 z m 6.16,1.74 c 0.160002,0.32 0.32,0.62 0.44,0.92 0.1,0.26 0.28,0.46 0.44,0.72 0.06,-0.1 0.12,-0.18 0.160002,-0.28 -0.02,-0.08 -0.04,-0.16 -0.08,-0.24 -0.26,-0.48 -0.48,-0.98 -0.8,-1.44 l -0.16,0.16 c -0.02,0.08 0,0.12 0,0.16 z m -11.92,-2.62 c 0.12,0.08 0.22,0.08 0.3,0.08 h 1.76 c 0.08,0 0.16,0 0.22,-0.02 0.02,0 0.04,-0.04 0.06,-0.06 -0.02,-0.04 -0.04,-0.08 -0.06,-0.1 -0.02,-0.02 -0.04,-0.06 -0.08,-0.1 -0.12,0 -0.22,0 -0.34,-0.02 h -1.3 c -0.2,0 -0.42,-0.02 -0.62,-0.02 -0.02,0 -0.02,0.02 -0.06,0.04 0.06,0.08 0.1,0.14 0.120002,0.2 z m 4.96,-0.4 c -0.06,-0.1 -0.120002,-0.16 -0.2,-0.22 -0.22,0.36 -0.46,0.7 -0.68,1.06 -0.12,0.18 -0.24,0.36 -0.28,0.58 0.04,0.08 0.1,0.18 0.2,0.22 0.139998,-0.18 0.84,-1.38 0.96,-1.64 z m -0.06,4.26 h -2.22 c -0.02,0 -0.02,0.02 -0.04,0.04 0.06,0.08 0.1,0.14 0.160002,0.22 0.76,0 1.5,0.02 2.26,0 -0.02,-0.1 -0.04,-0.18 -0.16,-0.26 z m -0.160002,-0.22 c 0.02,-0.12 -0.04,-0.18 -0.12,-0.24 -0.24,-0.04 -2.02,-0.04 -2.28,0 0,0.1 0.06,0.18 0.120002,0.24 0.24,0.04 2,0.04 2.28,0 z m -1.94,-2.96 c -0.32,-0.04 -2.04,-0.02 -2.26,0 -0.02,0.12 0.04,0.18 0.12,0.22 0.22,0.02 1.74,0.04 2.16,0.02 0.04,0 0.06,-0.02 0.12,-0.02 -0.06,-0.08 -0.1,-0.14 -0.139998,-0.22 z m 2.52,3.68 h -2.32 c 0.02,0.12 0.08,0.2 0.16,0.26 0.04,0 0.06,0.02 0.08,0.02 h 2 c 0.02,0 0.06,0 0.08,-0.02 0.02,0 0.02,-0.02 0.06,-0.04 -0.02,-0.06 -0.04,-0.14 -0.06,-0.22 z m -1.56,-2.22 h -2.18 c -0.04,0 -0.06,0.02 -0.1,0.02 0.02,0.12 0.06,0.2 0.14,0.24 0.02,0 0.04,0.02 0.06,0.02 h 2.06 c 0.04,0 0.1,0.02 0.120002,-0.06 0,-0.06 -0.04,-0.14 -0.1,-0.22 z m -1.28,-1.92 c -0.04,-0.02 -0.08,-0.02 -0.1,-0.02 h -2.1 c -0.04,0 -0.06,0.02 -0.12,0.04 0.06,0.1 0.1,0.18 0.14,0.26 h 2.02 c 0.08,0 0.16,0 0.24,-0.08 -0.02,-0.08 -0.06,-0.14 -0.08,-0.2 z m 2.68,-0.36 c -0.1,0.1 -0.160002,0.2 -0.2,0.28 -0.06,0.1 -0.120002,0.22 -0.180002,0.32 -0.18,0.32 -0.34,0.62 -0.52,0.94 -0.04,0.06 -0.06,0.14 -0.04,0.24 0.04,0.04 0.08,0.1 0.140002,0.16 0.04,-0.04 0.08,-0.08 0.1,-0.12 0.28,-0.5 0.58,-1 0.88,-1.5 -0.06,-0.1 -0.1,-0.2 -0.179998,-0.32 z m 10.18,0.72 c -0.2,-0.52 -0.7,-1.44 -0.88,-1.64 -0.1,0 -0.140002,0.08 -0.2,0.16 0.02,0.08 0.06,0.18 0.1,0.26 0.26,0.48 0.52,0.94 0.78,1.42 0.02,0.02 0.04,0.04 0.08,0.06 0.02,-0.08 0.06,-0.18 0.12,-0.26 z m -1.4,-1.1 c 0.26,0.62 0.58,1.18 0.9,1.76 0.120002,-0.06 0.14,-0.18 0.2,-0.26 -0.02,-0.04 -0.02,-0.08 -0.04,-0.12 -0.22,-0.42 -0.44,-0.84 -0.66,-1.24 -0.04,-0.08 -0.1,-0.16 -0.16,-0.22 -0.02,-0.02 -0.04,-0.02 -0.08,-0.04 -0.06,0.02 -0.1,0.04 -0.16,0.12 z m -8.26,4.2 c 0.3,-0.5 0.58,-1 0.88,-1.48 0.02,-0.02 0.02,-0.06 0.02,-0.1 -0.04,-0.06 -0.1,-0.12 -0.14,-0.18 -0.06,0 -0.1,0 -0.16,0.02 -0.2,0.52 -0.54,0.98 -0.8,1.48 0,0.12 0,0.24 0.2,0.26 z m 5.44,-2.86 c -0.04,0.02 -0.08,0.02 -0.12,0.04 -0.18,0.1 -0.36,0.22 -0.52,0.32 -0.16,0.1 -0.3,0.22 -0.46,0.3 -0.2,0.1 -0.38,0.24 -0.56,0.4 0,0.1 0.02,0.18 0.02,0.3 0.58,-0.36 1.12,-0.7 1.64,-1.04 0.02,-0.1 0.04,-0.22 0,-0.32 z m 3,1.4 c -0.08,-0.14 -0.14,-0.28 -0.22,-0.42 -0.16,-0.3 -0.32,-0.62 -0.5,-0.92 -0.04,-0.08 -0.1,-0.14 -0.16,-0.2 -0.02,-0.02 -0.04,0 -0.06,-0.02 -0.04,0.04 -0.08,0.08 -0.12,0.14 0,0.04 0.02,0.06 0.02,0.08 0.24,0.52 0.52,1.04 0.8,1.56 0.02,0.04 0.06,0.06 0.1,0.1 0.1,-0.1 0.14,-0.2 0.14,-0.32 z m -2.96,-1.96 c -0.36,0.22 -0.68,0.4 -1,0.58 -0.24,0.16 -0.48,0.32 -0.7,0.52 0,0.06 0,0.14 0.02,0.22 0.04,0 0.06,0.02 0.08,0 0.44,-0.28 0.9,-0.56 1.34,-0.82 0.1,-0.06 0.18,-0.12 0.26,-0.2 z m 2.16,0.06 c -0.02,0.16 0.08,0.26 0.14,0.38 0.22,0.42 0.44,0.84 0.66,1.24 0.02,0.04 0.06,0.08 0.12,0.14 l 0.14,-0.28 c -0.12,-0.3 -0.58,-1.18 -0.78,-1.52 -0.02,-0.04 -0.08,-0.08 -0.12,-0.14 -0.08,0.08 -0.12,0.12 -0.16,0.18 z m -9.4,-2.38 c -0.04,0.02 -0.06,0.04 -0.08,0.04 -0.14,0.16 -0.18,0.38 -0.36,0.5 -0.04,0.22 -0.18,0.36 -0.28,0.54 -0.12,0.2 -0.24,0.4 -0.34,0.6 0.06,0.08 0.06,0.18 0.18,0.22 0.18,-0.2 1.02,-1.64 1,-1.74 -0.02,-0.02 -0.06,-0.08 -0.12,-0.16 z m 5.56,2.7 c 0.56,-0.36 1.1,-0.7 1.62,-1.04 0.06,-0.12 0.1,-0.22 0.02,-0.38 -0.56,0.34 -1.1,0.72 -1.64,1.08 z m 1.66,1.28 c -0.12,-0.04 -0.179998,0.02 -0.24,0.08 -0.2,0.12 -0.38,0.24 -0.56,0.38 -0.08,0.06 -0.179998,0.12 -0.26,0.16 -0.22,0.12 -0.42,0.24 -0.62,0.44 v 0.14 c 0,0.04 0.02,0.08 0.02,0.12 0.48,-0.24 0.92,-0.58 1.38,-0.84 0.1,-0.06 0.2,-0.14 0.28,-0.22 z m -4.46,0.4 c -0.38,0.54 -0.82,1.34 -0.88,1.62 0.02,0.08 0.06,0.14 0.18,0.12 0.04,-0.04 0.08,-0.08 0.12,-0.14 0.24,-0.4 0.48,-0.82 0.7,-1.22 0.04,-0.06 0.04,-0.14 0.06,-0.2 -0.06,-0.06 -0.1,-0.12 -0.140002,-0.16 0,-0.02 -0.02,-0.02 -0.04,-0.02 z m 4.4,-0.98 c -0.28,0.18 -0.56,0.34 -0.8,0.52 -0.26,0.2 -0.54,0.38 -0.8,0.56 -0.02,0.12 -0.04,0.2 0.02,0.3 0.56,-0.32 1.08,-0.68 1.62,-1.02 0,-0.12 0.02,-0.24 -0.04,-0.36 z m 2.28,2.06 c 0.02,0 0.04,-0.02 0.04,-0.02 0.14,-0.14 0.12,-0.28 0.04,-0.44 -0.22,-0.4 -0.42,-0.8 -0.64,-1.2 -0.04,-0.08 -0.1,-0.16 -0.18,-0.24 -0.06,0.08 -0.12,0.14 -0.16,0.2 0.1,0.3 0.7,1.42 0.9,1.7 z m -2.2,-4.7 c -0.08,0.02 -0.120002,0.04 -0.160002,0.06 -0.52,0.32 -1.02,0.66 -1.54,1.02 0,0.1 0.02,0.18 0.02,0.28 0.08,-0.02 0.12,-0.04 0.16,-0.08 0.44,-0.26 0.86,-0.54 1.3,-0.82 0.08,-0.06 0.18,-0.1 0.24,-0.22 0,-0.06 0,-0.12 -0.02,-0.24 z m 1.02,3.38 c 0.02,0.06 0.02,0.14 0.06,0.18 0.26,0.48 0.52,0.96 0.76,1.44 0.02,0.04 0.06,0.06 0.1,0.12 0.06,-0.1 0.1,-0.18 0.139998,-0.26 -0.02,-0.08 -0.04,-0.14 -0.08,-0.2 -0.24,-0.48 -0.48,-0.96 -0.78,-1.42 0,-0.02 -0.02,-0.02 -0.06,-0.04 -0.04,0.06 -0.08,0.12 -0.14,0.18 z m -7.52,0.26 c 0.119998,-0.06 0.179998,-0.16 0.22,-0.26 0.2,-0.36 0.4,-0.7 0.6,-1.04 0.06,-0.1 0.14,-0.2 0.16,-0.32 -0.04,-0.08 -0.08,-0.18 -0.179998,-0.22 -0.02,0.02 -0.06,0.04 -0.08,0.08 -0.28,0.5 -0.58,0.98 -0.84,1.48 0.04,0.1 0.08,0.18 0.120002,0.28 z m -5.2,12.96 c 0.18,0.2 0.4,0.28 0.62,0.38 0.4,0.16 0.82,0.16 1.22,0.08 0.24,-0.04 0.52,-0.12 0.72,-0.36 -0.06,0 -0.1,0 -0.14,0.02 -0.32,0.16 -0.66,0.18 -1.02,0.16 -0.22,0 -0.44,-0.04 -0.64,-0.1 -0.160002,-0.06 -0.32,-0.1 -0.48,-0.16 -0.08,-0.04 -0.18,-0.06 -0.28,-0.02 z m 11.54,-12.8 c -0.48,0.32 -0.98,0.6 -1.46,0.92 v 0.16 c 0,0.02 0.02,0.02 0.04,0.06 0.04,-0.02 0.1,-0.04 0.14,-0.06 0.48,-0.24 1.26,-0.74 1.42,-0.86 0.02,-0.08 0.02,-0.14 -0.04,-0.2 z m 5.24,12.06 c 0.4,0.54 1.78,0.8 2.44,0.22 h -0.12 c -0.120002,0.02 -0.26,0.06 -0.38,0.1 -0.26,0.04 -0.52,0.06 -0.76,0 -0.26,-0.04 -0.5,-0.14 -0.76,-0.22 -0.14,-0.06 -0.28,-0.1 -0.42,-0.1 z m -29.08,-3.88 c -0.1,-0.08 -0.2,-0.16 -0.22,-0.28 0.02,-0.24 0.32,-0.3 0.32,-0.54 -0.14,-0.08 -0.24,-0.02 -0.36,0.04 -0.18,0.12 -0.34,0.26 -0.36,0.5 0.04,0.14 0.120002,0.24 0.24,0.32 0.08,0.04 0.18,0.1 0.3,0.06 0.04,-0.04 0.06,-0.06 0.08,-0.1 z"
     fill="#1d1d1b"
     id="path34"
     style="stroke-width:0.2" />
  <g
     fill="#da2439"
     id="g37"
     transform="matrix(0.2,0,0,0.2,-20,0)">
    <path
       class="st1"
       d="m 333.85,296.7 c 0.80001,0 1.4,0.3 2.1,0.5 1.3,0.4 2.5,0.9 3.8,1.1 1.2,0.2 2.5,0.2 3.8,0 0.6,-0.1 1.3,-0.3 1.9,-0.5 h 0.6 c -3.3,2.9 -10.2,1.6 -12.2,-1.1 z"
       id="path35" />
    <path
       class="st1"
       d="m 188.55,277.3 c -0.2,0.2 -0.2,0.4 -0.3,0.5 -0.6,0.2 -1.1,0 -1.5,-0.3 -0.6,-0.3 -1,-0.9 -1.2,-1.6 0.10001,-1.2 0.9,-1.9 1.8,-2.5 0.5,-0.3 1.1,-0.6 1.8,-0.2 -0.1,1.2 -1.5,1.5 -1.6,2.7 0,0.6 0.4,1 1,1.4 z"
       id="path36" />
    <path
       class="st1"
       d="m 399.25,270.7 c 0.3,-0.1 0.59999,0 0.8,0.2 0.60001,0.5 1.1,1 1.6,1.6 0.59999,0.7 0.69998,1.5 0,2.4 -0.30002,0.1 -0.70001,0.4 -1.1,0.5 -0.70001,-0.2 -1.4,-0.3 -1.8,-1.1 0.5,-0.7 1.6,-0.5 2,-1.3 -0.3,-0.6 -0.59999,-1.1 -1,-1.6 -0.3,-0.1 -0.40001,-0.4 -0.5,-0.7 z"
       id="path37" />
  </g>
  <path
     class="st3"
     d="m 42.33,47.6 h -0.179998 c 0.02,-0.06 0.06,-0.1 0.159998,-0.1 0,0.04 0.02,0.08 0.02,0.1 z"
     fill="#b9aea4"
     id="path38"
     style="stroke-width:0.2" />
  <path
     class="st1"
     d="m 59.85,54.14 c -0.02,-0.02 -0.06,-0.04 -0.1,-0.08 0.06,0.02 0.08,0.04 0.1,0.08 z"
     fill="#da2439"
     id="path39"
     style="stroke-width:0.2" />
  <g
     fill="#866c5d"
     id="g44"
     transform="matrix(0.2,0,0,0.2,-20,0)">
    <path
       class="st4"
       d="m 308.55,224.1 v -0.9 c 0.20001,0.3 0.20001,0.6 0,0.9 z"
       id="path40" />
    <path
       class="st4"
       d="m 206.45,168.6 c -0.19999,-0.1 -0.4,-0.2 -0.5,-0.4 -2.2,-2.7 -4.3,-5.5 -6.3,-8.4 -1.1841,-1.717 -2.9066,-3.6589 -4.1125,-5.0875 7.1856,-1.1744 15.301,-4.0227 15.825,-4.5 0,0 -0.27499,-0.55 -0.6875,-3.4625 8.0392,-2.4911 21.309,-5.5197 35.775,-8 7.824,-2.1322 14.599,-6.9226 20.919,-11.019 1.7492,-1.0934 3.3897,-2.221 5.15,-3.0375 1.1597,1.3216 1.0958,3.7817 2.1,5.1875 -0.40002,0.4 -1.3688,1.0188 -1.8688,1.4188 -4.0452,3.0001 -8.1377,6.2093 -12,8.9 -1.6395,1.4302 -2.2479,1.9105 -4.8,1.8 -1.4136,0.46815 -2.2347,1.463 -2.825,2.4125 0.15668,2.2913 0.22997,4.1543 -1.875,5.1875 -1.5,1.1 -3.1,2.2 -4.6,3.3 -2.5,1.9 -5,3.8 -7.5,5.6 -0.9,0.7 -1.8,1.3 -2.8,2 -0.90001,0.6 -1.9,1 -3.1,0.9 -1.3,-0.1 -2.6,0.1 -3.9,-0.2 -0.7,-0.1 -1.4,0.1 -2.1,0.1 -0.30001,0 -0.7,0.1 -1,0.1 -1.6,0 -3.1,0.4 -4.5,0.9 -2.9,1 -5.8,2.3 -8.6,3.6 -2,1 -4.1,1.8 -6.2,2.7 0,-0.1 -0.2,0 -0.5,0 z"
       id="path41" />
    <path
       class="st4"
       d="m 391.41,154.94 c -2.2441,5.7677 -4.666,11.201 -7.7528,15.831 -6.6551,-3.0622 -12.366,-6.2111 -18.566,-8.8221 -0.9,-0.4 -2.0442,-0.73258 -3.0442,-0.93258 -2,-0.3 -3.9,-0.4558 -5.9,-0.5558 -2,-0.1 -3.9,-0.6663 -5.7,-1.8663 -3.7008,-2.4202 -7.0129,-4.3206 -10,-6.9426 -1.4128,-0.98176 -2.4503,-2.1204 -3.025,-3.5562 0.19998,-0.2 0.625,-0.1 0.82498,0 0.90001,0.5 1.9,1.1 2.8,1.6 0.29999,0.2 0.48279,0.4625 0.7828,0.0625 -0.1,-0.2 -0.21563,-0.4 -0.41562,-0.5 -1.1,-0.9 -2.2547,-1.7062 -3.4547,-2.5062 -2.4,-1.8 -4.7125,-3.3188 -7.1125,-5.0188 -2.5,-1.8 -11.725,-7.8 -14.425,-9.4 -1.6,-1 -15.388,-10.35 -16.888,-11.35 -0.19999,-0.2 -0.4,-0.4 -0.6,-0.5 v -0.6 l 1.2,-2.1 c 0.2,-0.3 0.5,-0.6 0.6,-0.8 0.6,-0.2 1,0 1.3,0.2 0.7,0.4 1.4,0.9 2.1,1.4 2.7,1.7 24.212,15.812 26.912,17.512 3.3,2.1 6.6,4.2 9.9,6.2 1.8714,1.1586 3.7093,1.0568 5.6,1.2 0.2,0 0.40001,0.2 0.7,0.3 -1,1.1 24.598,2.6931 27.335,2.6806 -2.8622,3.9974 -3.6018,4.2713 -2.455,4.7432 8.813,1.1622 21.379,0.53398 19.283,3.7205 z"
       id="path42" />
    <path
       class="st4"
       d="m 362.72,71.708 c -0.30002,0.2 -0.70001,0.5 -1.1,0.8 -24.072,16.072 -58.448,39.003 -80.87,53.592 -0.85875,0.69132 -1.7518,1.3037 -2.6,1.8 -0.69999,-1.5 -1.5,-2.9 -2.1,-4.3 -0.2764,-0.76861 -0.35908,-1.2517 0.58125,-1.7469 24.004,-15.759 60.496,-39.221 83.288,-52.345 0.5,-0.2 1,-0.6 1.7,-0.4 0.6,0.6 1.2,1.3 1.1,2.6 z"
       id="path43" />
    <path
       class="st4"
       d="m 224.3,71.859 c 0.47924,-1.3463 1.2028,-2.692 2.5,-2.2 21.329,13.929 43.856,27.17 63.653,40.541 2.2205,1.4307 0.86784,1.6741 -2.2875,3.6625 -21.873,-14.4 -38.149,-24.446 -63.866,-42.003 z"
       id="path44" />
  </g>
  <g
     fill="#ffffff"
     id="g47"
     transform="matrix(0.2,0,0,0.2,-20,0)">
    <path
       class="st5"
       d="m 285.15,115.3 c -18.112,-11.541 -35.697,-23.328 -53.031,-34.65 0.46315,-0.76011 1.017,-1.0124 1.6625,-1.6031 18.712,10.063 35.505,23.349 51.75,33.772 2.6076,1.5184 0.77743,1.9114 -0.38123,2.4812 z"
       id="path45" />
    <path
       class="st5"
       d="m 332.42,145.82 c -18.112,-11.541 -20.494,-12.765 -37.828,-24.088 0.46317,-0.76011 2.166,-1.2333 2.8116,-1.8241 16.962,11.235 19.153,13.007 35.398,23.43 2.6076,1.5184 0.77742,1.9114 -0.38126,2.4812 z"
       id="path46" />
    <path
       class="st5"
       d="m 396.58,53.3 c -2.3,1.7 -12.521,9.5651 -14.821,11.265 -5.9476,3.8159 -11.199,9.0411 -16.348,11.313 -0.40001,-0.5 -0.96251,-1.1781 -1.2625,-1.6781 -2.7285,1.2646 -5.3447,3.7808 -7.9531,5.125 -0.4,-0.4 -0.74687,-1.025 -0.64686,-1.725 1.7,-1.4 3.4,-2.8 5.4,-4 0.60001,-0.4 1.2,-0.9 1.8,-1.2 0.6,-0.3 1.1,-0.7 1.8,-0.7 0.39999,0.2 0.89999,0.4 1.4,0.7 0.7,-0.1 1.2,-0.6 1.8,-1 3.1,-2.1 6.3,-4.2 9.4,-6.3 3.5,-2.4 14.79,-10.136 18.29,-12.536 0.10001,-0.1 2.034,-0.74082 2.234,-0.84082 -0.1,0.4 -0.6397,1.2094 -1.0921,1.5768 z"
       id="path47" />
  </g>
  <path
     class="st6"
     d="m 50.53,28.66 h -0.52 c -0.02,-0.04 -0.06,-0.1 -0.08,-0.14 -0.119998,-0.4 -0.26,-0.8 -0.38,-1.2 -0.02,-0.08 -0.06,-0.16 -0.08,-0.26 -0.06,-0.02 -0.119998,-0.06 -0.18,-0.08 -0.32,-0.1 -0.6,-0.24 -0.92,-0.34 -0.08,-0.04 -0.14,-0.1 -0.24,-0.14 -0.2,-0.06 -0.4,-0.14 -0.6,-0.2 -0.42,0.2 -0.82,0.38 -1.22,0.58 -0.02,0.02 -0.06,0 -0.1,0 -0.12,-0.06 -0.28,-0.1 -0.32,-0.3 0.46,-0.2 0.9,-0.38 1.36,-0.58 0.06,-0.02 0.1,-0.04 0.16,-0.06 0.12,-0.06 0.26,-0.06 0.38,0 0.54,0.18 1.08,0.36 1.6,0.54 0.2,0.06 0.38,0.16 0.58,0.24 0.08,0.2 0.14,0.42 0.2,0.64 l 0.18,0.66 c 0.08,0.18 0.140002,0.4 0.179998,0.64 z"
     fill="#999999"
     id="path48"
     style="stroke-width:0.2" />
  <path
     class="st5"
     d="m 50.694,16.2976 c -1.02152,0.78616 -17.5636,11.8418 -18.5286,12.4598 -0.12,-0.08 -0.21536,-0.21746 -0.25536,-0.35746 0.09011,-0.14734 17.5498,-11.8692 18.525,-12.4706 0.165828,0.07567 0.2447,0.20766 0.25892,0.3683 z"
     fill="#ffffff"
     id="path49"
     style="stroke-width:0.2" />
  <path
     class="st6"
     d="m 28.73,27.64 c -0.140002,0.04 -0.26,0.08 -0.36,0.1 -0.06,-0.04 -0.1,-0.1 -0.08,-0.14 0.06,-0.12 0.06,-0.26 0.12,-0.4 0.08,-0.16 0.14,-0.34 0.22,-0.52 0.08,-0.16 0.16,-0.32 0.26,-0.48 0.44,-0.3 0.92,-0.56 1.42,-0.8 0.16,-0.08 0.32,-0.1 0.52,-0.06 0.42,0.1 0.84,0.16 1.26,0.26 0.12,0.02 0.22,0.08 0.32,0.12 0.04,0.08 0.02,0.14 -0.04,0.16 -0.06,0.04 -0.12,0.08 -0.2,0.12 -0.28,-0.08 -0.54,-0.18 -0.8,-0.26 -0.26,-0.08 -0.5,-0.22 -0.84,-0.14 -0.44,0.26 -0.98,0.48 -1.4,0.8 -0.14,0.44 -0.26,0.84 -0.4,1.24 z"
     fill="#999999"
     id="path50"
     style="stroke-width:0.2" />
  <path
     class="st5"
     d="m 45.844,29.798 c 0.119996,0.02 0.166854,0.0021 0.186852,-0.117902 0.04,0 0.02487,-0.28726 0.195244,-0.35366 0.166672,-0.06496 0.28022,0.178762 0.44022,0.178762 0.119998,0.06 0.2411,0.21612 0.3411,0.33612 0.07879,0.0025 0.101622,0.03104 0.22286,0.194926 -0.173194,0.28614 -0.32946,0.62626 -0.5545,0.84448 -0.122818,0.0448 -0.3247,-0.08059 -0.48272,-0.06528 l -0.08906,0.08685 c -0.33206,0.08312 -0.39012,-0.20032 -0.49314,-0.3422 0,-0.04 0,-0.1 -0.02,-0.16 -0.09944,-0.08232 -0.26064,-0.35922 -0.26064,-0.45922 0.1,-0.1 0.151046,-0.34572 0.51378,-0.142886 z"
     fill="#ffffff"
     id="path51"
     style="stroke-width:0.2" />
  <path
     class="st5"
     d="m 25.81,15.24 c 0,0.12 -0.06,0.18 -0.12,0.26 -0.5,-0.3 -1.2055,0.03149 -1.6855,-0.2885 -0.06,-0.04 -5.3104,-3.9912 -5.3504,-4.0312 0.04,-0.1 0.1,-0.16 0.179998,-0.2 0.04,0.02 4.8574,3.1312 4.8974,3.1712 0.617,-0.31872 1.6186,0.72842 2.0786,1.08842 z"
     fill="#ffffff"
     id="path52"
     style="stroke-width:0.2" />
  <path
     class="st0"
     d="m 40.93,23.5 c 0.44,0.3 0.86,0.62 1.3,0.9 0.44,0.3 0.9,0.58 1.36,0.86 0.48,0.3 0.96,0.6 1.44,0.88 0.18,0.1 0.36,0.18 0.52,0.26 0.04,0.02 0.1,0.04 0.139998,0.04 0.22,-0.08 0.4,-0.16 0.6,-0.24 0.3,-0.12 0.6,-0.26 0.9,-0.38 0.2,-0.1 0.4,-0.12 0.62,-0.06 0.24,0.08 0.48,0.14 0.72,0.22 0.3,0.1 0.6,0.16 0.88,0.3 0.06,0.04 0.140002,0.06 0.2,0.1 0.140002,0.06 0.3,0.12 0.46,0.18 0.02,0.02 0.04,0.06 0.06,0.1 0.12,0.32 0.24,0.64 0.32,0.98 0.08,0.32 0.16,0.64 0.3,0.96 0.2,0.08 0.4,0.12 0.62,0.14 0.24,0.02 0.46,0.06 0.7,0.1 0.02,0 0.06,0.02 0.08,0.02 0.24,0.02 0.48,0.04 0.74,0.06 0.36,0.04 0.72,0.1 1.08,0.16 H 54.15 c 0.159998,0 0.3,-0.02 0.44,0.06 h 0.06 c 0.32,0 0.66,0.06 0.98,0.12 h 0.08 c 0.3,0 0.58,0.04 0.86,0.1 h 0.08 c 0.28,0.02 0.54,0.02 0.82,0.06 0.34,0.06 0.7,0.08 1.04,0.12 0.28,0.04 0.54,0.08 0.82,0.12 0.06,0.02 0.120002,0.04 0.2,0.06 0.04,0.08 0.02,0.18 0.02,0.28 -0.06,0.46 -0.140002,0.9 -0.3,1.34 -0.28,0.78 -0.62,1.54 -1.04,2.26 -0.14,0.26 -0.32,0.52 -0.48,0.78 -0.16,0.26 -0.38,0.48 -0.6,0.68 -0.1,0.1 -0.24,0.16 -0.32,0.2 -0.26,0.04 -0.48,-0.02 -0.68,-0.1 -0.36,-0.14 -0.7,-0.26 -1.06,-0.4 -0.24,-0.1 -0.48,-0.22 -0.72,-0.32 -0.28,-0.12 -0.56,-0.26 -0.84,-0.4 -0.36,-0.18 -0.72,-0.36 -1.08,-0.56 -0.48,-0.28 -0.98,-0.58 -1.44,-0.88 -0.58,-0.38 -1.16,-0.78 -1.74,-1.16 -0.54,-0.36 -1.08,-0.7 -1.62,-1.04 -0.1,-0.06 -0.2,-0.12 -0.32,-0.14 -0.28,0.2 -0.34,0.56 -0.6,0.8 -0.08,0 -0.18,0.02 -0.28,0.02 -0.14,0.06 -0.26,0.12 -0.36,0.22 -0.1,0.1 -0.24,0.12 -0.38,0.18 -0.139998,-0.04 -0.28,-0.06 -0.36,-0.2 -0.08,-0.24 0.02,-0.5 0.06,-0.74 -0.139998,-0.28 -0.36,-0.52 -0.28,-0.86 0.16,-0.24 0.42,-0.32 0.7,-0.32 0.02,-0.14 -0.04,-0.22 -0.12,-0.32 -0.16,0 -0.3,0 -0.44,0.04 -0.36,0.1 -0.74,0.16 -1.12,0.12 -0.18,-0.08 -0.18,-0.24 -0.2,-0.4 -0.02,-0.12 -0.02,-0.24 -0.02,-0.38 v -0.48 c -0.12,-0.2 -0.3,-0.28 -0.46,-0.38 -0.24,-0.16 -0.5,-0.3 -0.74,-0.46 -0.26,-0.16 -0.5,-0.34 -0.74,-0.5 -0.64,-0.4 -1.28,-0.82 -1.9,-1.22 -0.32,-0.2 -0.66,-0.42 -0.98,-0.62 -0.12,-0.08 -0.26,-0.12 -0.46,-0.06 -0.72,0.48 -1.5,1.02 -2.28,1.52 -0.78,0.52 -1.56,1.02 -2.3,1.56 -0.140002,0.32 -0.04,0.62 -0.1,0.9 -0.08,0.12 -0.2,0.2 -0.32,0.26 -0.28,-0.04 -0.5,-0.22 -0.7,-0.38 -0.160002,0 -0.26,0.12 -0.36,0.18 -0.119998,0.08 -0.2,0.16 -0.3,0.24 0,0.12 0.06,0.2 0.120002,0.26 0.179998,0.1 0.26,-0.1 0.4,-0.08 0.14,0.04 0.179998,0.18 0.24,0.3 0.06,0.08 0.12,0.18 0.08,0.3 -0.12,0.1 -0.24,0.22 -0.36,0.32 0.04,0.16 0.06,0.32 0.08,0.46 -0.08,0.08 -0.16,0.16 -0.24,0.22 -0.22,0.18 -0.46,0.32 -0.74,0.42 -0.1,0.04 -0.180002,0.04 -0.3,0.02 -0.28,-0.3 -0.54,-0.64 -0.74,-1.06 -0.06,-0.04 -0.140002,-0.1 -0.28,-0.04 -0.22,0.18 -0.52,0.36 -0.74,0.6 l -0.04,0.04 c -0.52,0.34 -1,0.76 -1.52,1.12 -0.66,0.44 -1.34,0.86 -2.04,1.2 -0.6,0.28 -1.18,0.56 -1.8,0.82 -0.6,0.24 -1.18,0.5 -1.78,0.74 -0.4,0.16 -0.8,0.32 -1.22,0.42 -0.1,0.02 -0.2,0.02 -0.26,0.02 -0.18,-0.06 -0.28,-0.14 -0.38,-0.24 -0.3,-0.3 -0.6,-0.58 -0.88,-0.88 -0.26,-0.3 -0.5,-0.6 -0.72,-0.94 -0.24,-0.38 -0.44,-0.8 -0.62,-1.2 -0.14,-0.32 -0.28,-0.66 -0.36,-1 -0.06,-0.22 -0.02,-0.42 -0.04,-0.6 0.04,-0.1 0.1,-0.16 0.16,-0.18 0.26,-0.06 0.5,-0.16 0.76,-0.18 0.16,-0.02 0.34,-0.08 0.5,-0.12 0.44,-0.1 0.88,-0.18 1.32,-0.28 0.38,-0.1 0.78,-0.14 1.16,-0.26 0.22,-0.08 0.48,-0.1 0.72,-0.14 0.16,-0.04 0.32,-0.08 0.5,-0.12 0.36,-0.08 0.74,-0.16 1.1,-0.22 0.24,-0.04 0.48,-0.12 0.72,-0.16 0.36,-0.08 0.74,-0.16 1.1,-0.24 0.5,-0.12 1,-0.22 1.52,-0.34 l 0.18,-0.06 c 0.16,-0.06 0.28,-0.12 0.3,-0.3 0.18,-0.4 0.32,-0.8 0.52,-1.18 0.08,-0.18 0.22,-0.3 0.38,-0.4 0.32,-0.18 0.64,-0.38 0.96,-0.54 0.14,-0.08 0.3,-0.14 0.46,-0.22 0.26,-0.04 0.5,0.02 0.76,0.08 0.4,0.1 0.8,0.18 1.22,0.28 l 0.08,0.08 h 0.42 c 0.26,-0.04 0.46,-0.2 0.7,-0.34 0.34,-0.2 0.68,-0.42 1,-0.64 0.34,-0.22 0.66,-0.44 0.98,-0.66 0.22,-0.14 0.44,-0.3 0.66,-0.44 0.119998,-0.08 0.24,-0.18 0.34,-0.32 -0.04,-0.04 -0.06,-0.1 -0.1,-0.14 -0.22,-0.16 -0.44,-0.32 -0.68,-0.46 -0.58,-0.38 -1.18,-0.78 -1.78,-1.16 -0.46,-0.3 -0.92,-0.62 -1.38,-0.92 -0.64,-0.42 -1.3,-0.84 -1.94,-1.26 -0.4,-0.26 -0.82,-0.52 -1.22,-0.78 -0.24,-0.16 -0.48,-0.34 -0.72,-0.5 -0.3,-0.2 -0.62,-0.4 -0.92,-0.6 -0.3,-0.2 -0.6,-0.38 -0.9,-0.58 -0.32,-0.2 -0.62,-0.38 -0.92,-0.6 -0.24,-0.16 -0.5,-0.32 -0.74,-0.48 -0.06,-0.04 -0.14,-0.08 -0.22,-0.14 -0.08,-0.04 -0.160002,-0.08 -0.22,-0.1 -0.119998,0.1 -0.159998,0.26 -0.34,0.32 -0.06,-0.04 -0.119998,-0.06 -0.18,-0.1 -0.26,-0.18 -0.5,-0.36 -0.76,-0.54 -0.44,-0.32 -0.86,-0.66 -1.3,-1 -0.180002,-0.14 -0.36,-0.28 -0.54,-0.4 -0.2,-0.14 -0.42,-0.26 -0.6,-0.42 -0.24,-0.22 -0.52,-0.4 -0.78,-0.6 -0.3,-0.22 -0.58,-0.46 -0.88,-0.68 -0.24,-0.18 -0.5,-0.34 -0.72,-0.56 -0.24,-0.2 -0.5,-0.38 -0.74,-0.56 -0.38,-0.28 -0.76,-0.56 -1.12,-0.86 -0.36,-0.28 -0.74,-0.56 -1.1,-0.84 -0.4,-0.32 -0.8,-0.64 -1.2,-0.94 l -0.48,-0.36 c -0.3,-0.24 -0.62,-0.46 -0.92,-0.72 -0.12,-0.1 -0.24,-0.22 -0.34,-0.36 0.04,-0.1 0.12,-0.06 0.16,-0.04 0.1,0.04 0.2,0.08 0.3,0.16 0.98,0.64 1.98,1.3 2.96,1.94 0.52,0.36 1.04,0.72 1.56,1.06 0.32,0.22 0.62,0.42 0.94,0.64 0.36,0.24 0.7,0.48 1.04,0.72 0.54,0.36 1.1,0.74 1.64,1.1 0.5,0.34 1.02,0.7 1.52,1.04 l 0.54,0.36 c 0.06,0.04 0.12,0.08 0.2,0.12 0.12,-0.1 0.22,-0.2 0.32,-0.3 0.16,0 0.26,0.14 0.42,0.16 0.08,-0.04 0.16,-0.14 0.22,-0.24 0.08,-0.12 0.2,-0.22 0.38,-0.28 0.18,0.12 0.38,0.24 0.58,0.36 0.76,0.5 1.54,1 2.3,1.5 0.66,0.44 1.34,0.86 2,1.28 1.02,0.66 2.02,1.32 3.04,1.98 0.56,0.36 1.14,0.74 1.7,1.12 0.72,0.48 1.46,0.94 2.18,1.42 0.36,0.24 0.72,0.46 1.1,0.7 0.12,0.08 0.24,0.16 0.36,0.22 0.06,0.04 0.14,0.06 0.22,0.08 0.06,-0.02 0.14,-0.04 0.2,-0.08 0.24,-0.14 0.48,-0.3 0.72,-0.44 0.26,-0.16 0.52,-0.3 0.76,-0.46 0.44,-0.28 0.9,-0.56 1.34,-0.84 0.34,-0.22 0.68,-0.44 1.04,-0.64 0.18,-0.1 0.32,-0.22 0.48,-0.32 0.24,-0.16 0.48,-0.3 0.74,-0.46 0.5,-0.3 0.98,-0.64 1.5,-0.92 0.24,-0.14 0.46,-0.3 0.7,-0.46 0.28,-0.18 0.56,-0.34 0.84,-0.52 0.14,-0.08 0.28,-0.18 0.42,-0.28 0.26,-0.16 0.52,-0.3 0.76,-0.46 0.26,-0.16 0.48,-0.34 0.76,-0.48 0.32,-0.16 0.62,-0.38 0.92,-0.58 0.3,-0.2 0.6,-0.4 0.92,-0.56 0.54,-0.3 1.06,-0.64 1.6,-0.96 0.08,-0.04 0.14,-0.1 0.26,-0.06 0.04,0.02 0.1,0.06 0.16,0.1 0.14,0 0.22,-0.1 0.34,-0.16 H 53.23 c 0.02,0.02 0.06,0.04 0.08,0.08 0.06,0.1 0.119998,0.18 0.2,0.28 0.02,0.04 0.06,0.06 0.1,0.1 0.2,-0.1 0.38,-0.2 0.56,-0.32 0.56,-0.38 1.14,-0.76 1.72,-1.14 0.5,-0.34 1.02,-0.66 1.52,-1 0.48,-0.32 0.98,-0.64 1.46,-0.96 0.4,-0.26 0.78,-0.56 1.18,-0.82 0.6,-0.4 1.2,-0.8 1.82,-1.2 0.36,-0.22 0.7,-0.46 1.08,-0.68 0.48,-0.28 0.92,-0.6 1.4,-0.9 0.06,-0.04 0.12,-0.06 0.179998,-0.08 h 0.1 c 0,0.1 -0.06,0.12 -0.1,0.18 -0.2,0.16 -0.38,0.3 -0.58,0.46 -0.14,0.12 -0.32,0.16 -0.44,0.28 -0.12,0.12 -0.26,0.22 -0.38,0.34 -0.6,0.46 -1.2,0.92 -1.8,1.36 -0.56,0.4 -1.1,0.82 -1.66,1.24 l -0.02,0.02 c -0.160002,0.14 -0.36,0.22 -0.52,0.38 -0.160002,0.16 -0.34,0.26 -0.52,0.4 -0.180002,0.14 -0.34,0.26 -0.52,0.4 -0.44,0.32 -0.88,0.64 -1.34,0.96 -0.4,0.28 -0.78,0.58 -1.18,0.88 -0.6,0.44 -1.2,0.88 -1.82,1.32 -0.24,0.16 -0.46,0.36 -0.7,0.52 -0.08,0.04 -0.160002,0.1 -0.24,0.14 -0.1,-0.06 -0.2,-0.12 -0.32,-0.18 -0.06,0.04 -0.139998,0.08 -0.2,0.12 l -3.9,2.58 c -0.6,0.4 -1.2,0.8 -1.78,1.2 -0.48,0.32 -0.94,0.62 -1.42,0.94 -0.84,0.56 -1.68,1.14 -2.5,1.72 -0.24,0.16 -0.48,0.3 -0.7,0.46 -0.2,0.14 -0.4,0.3 -0.62,0.44 -0.1,0.08 -0.2,0.14 -0.3,0.22 -0.08,0.06 -0.160002,0.14 -0.22,0.2 -0.108786,-0.21402 0.01912,0.01324 0.08,0.08 z m 1.2,2.9 c 0.04,0.02 0.120002,0.04 0.2,0.04 0.06997,-0.100962 0.04475,-0.21322 0.06,-0.32 -0.04,-0.04 -0.06,-0.08 -0.1,-0.12 -0.139998,-0.12 -0.28,-0.22 -0.42,-0.34 -0.66,-0.48 -1.32,-0.94 -2,-1.4 -0.1,-0.06 -0.2,-0.12 -0.3,-0.16 -0.21708,-0.07708 -0.41008,0.127522 -0.5663,0.27956 l 0.18629,0.10045 c 0.58076,0.24058 1.00252,0.62944 1.52,0.94 0.55912,0.33318 0.95094,0.61518 1.42,0.98 z M 23.71,14.92 c 0.02,0.02 0.04,0.04 0.06,0.04 0.08652,0.07569 0.153146,0.122548 0.2421,0.180226 0.154316,-0.104824 0.15159,-0.166648 0.2579,-0.32022 -0.5335,-0.43154 -1.13742,-0.82082 -1.74,-1.24 -0.41464,-0.29876 -0.72354,-0.50252 -1.14,-0.8 -0.36038,-0.26506 -0.72762,-0.435 -1.04,-0.68 -0.55238,-0.34522 -0.99646,-0.84898 -1.56,-1.02 -0.02,-0.02 -0.02,-0.06 -0.06,-0.02 l 0.04,0.04 c 0.08,0.16 0.22,0.24 0.34,0.34 0.119998,0.1 0.24,0.2 0.38,0.3 0.593,0.45268 1.17226,0.9926 1.8,1.36 0.58426,0.42172 0.99682,0.8444 1.56,1.22 0.32268,0.161588 0.5669,0.43488 0.86,0.6 z m 34.16,18.34 c 0.02,0.04 0.02,0.08 0.06,0.14 0.02,-0.06 0.04,-0.1 0.06,-0.12 0.02,-0.06 0.02,-0.14 0.08,-0.18 0.120002,-0.12 0.160002,-0.26 0.2,-0.38 -0.02,-0.24 -0.04,-0.44 -0.04,-0.66 0.02,0 0.04,-0.02 0.06,-0.02 0.02,0.08 0.06,0.16 0.08,0.24 -0.04,0.06 0,0.1 0.02,0.16 0.02,0.02 0.04,0.04 0.06,0 0.02,-0.02 0.04,-0.02 0.04,-0.02 0.119998,-0.16 0.2,-0.34 0.179998,-0.54 -0.02,-0.22 0,-0.44 0,-0.72 0.06,0.08 0.1,0.1 0.120002,0.14 0.04,0.06 0.04,0.14 0.14,0.16 0.02,-0.02 0.04,-0.04 0.04,-0.06 0.120002,-0.42 0.22,-0.84 0.28,-1.26 0,-0.04 -0.02,-0.08 -0.02,-0.12 -0.28,-0.02 -0.48,0.18 -0.72,0.22 -0.06,-0.12 0.08,-0.18 0.02,-0.3 -0.02,-0.02 -0.06,-0.04 -0.1,-0.06 -0.180002,0.08 -0.34,0.2 -0.48,0.3 -0.166946,0.07734 -0.14792,0.0098 -0.148388,0.0098 L 57.93,30.04 c 0.06,-0.04 0.08,-0.12 0.08,-0.2 -0.22,-0.12 -0.28,-0.12 -0.48,0.08 -0.06,0.06 -0.119998,0.12 -0.2,0.16 -0.04,0.04 -0.1,0.08 -0.179998,0.06 0.02,-0.04 0.02,-0.06 0.04,-0.1 0.08,-0.08 0.08,-0.16 0.04,-0.26 -0.14,-0.06 -0.24,-0.04 -0.34,0.08 l -0.3,0.18 c -0.03875,-0.0059 -0.04656,-0.01188 -0.04,-0.06 0.02,-0.04 0.02,-0.08 0.04,-0.12 0.1,-0.1 0.04,-0.16 -0.02,-0.24 -0.12,-0.02 -0.2,0 -0.26,0.1 -0.08,0.04 -0.14,0.1 -0.2,0.14 -0.06,0.04 -0.1,0.08 -0.16,0.1 -0.02,0 -0.04,0 -0.06,-0.02 0,-0.04 0,-0.08 -0.02,-0.12 0.02,-0.04 0.04,-0.06 0.06,-0.08 0.06,-0.04 0.04,-0.1 0.02,-0.16 -0.1,-0.08 -0.2,-0.14 -0.34,-0.02 -0.16,0.02 -0.26,0.14 -0.4,0.22 l -0.06,-0.06 c 0.02,-0.08 0.04,-0.14 0.06,-0.22 -0.14,-0.08 -0.26,-0.06 -0.34,0.06 -0.2,0.14 -0.36,0.3 -0.5,0.5 -0.02,0.02 0,0.06 0,0.1 0.68,0.06 1.36,0.14 2.04,0.2 0.68,0.06 1.38,0.12 2.06,0.24 0,0.04 0.02,0.08 0,0.12 -0.06,0.18 -0.12,0.38 -0.2,0.56 l -0.84,1.86 c -0.08,0.18 -0.179998,0.34 -0.26,0.5 -0.08,0.16 -0.22,0.3 -0.28,0.48 -0.02,0.08 -0.08,0.12 -0.2,0.16 -0.06,-0.02 -0.16,-0.04 -0.24,-0.1 -0.74,-0.36 -1.48,-0.72 -2.22,-1.1 l -1.32,-0.66 c -0.44,-0.22 -0.92,-0.2 -1.38,-0.16 -0.08,0 -0.139996,0.04 -0.22,0.06 -0.04,0.02 -0.06,0.04 -0.02,0.1 0.2,0.02 0.4,0.02 0.62,0.02 0.180002,0 0.34,0 0.52,0.02 0.04,0 0.08,0.02 0.08,0.08 -0.06,0 -0.119998,0.02 -0.179998,0.02 -0.1,0 -0.22,0 -0.32,0.02 -0.119998,0.02 -0.24,0.02 -0.32,0.12 0.22,0.18 0.46,0.28 0.74,0.26 0.3,0 0.6,0.02 0.9,0.02 0.12,0 0.24,0.02 0.36,0.02 0.02,0 0.04,0.02 0.06,0.04 -0.04,0.08 -0.12,0.06 -0.180002,0.06 h -0.76 c -0.06,0 -0.119998,0 -0.179998,0.04 0.1,0.14 0.22,0.18 0.34,0.22 0.34,0.02 0.68,0.04 1,0.06 v 0.12 h -0.28 c -0.04,0 -0.08,0 -0.1,0.02 -0.04,0 -0.1,-0.02 -0.1,0.08 l 0.44,0.22 c 0.44,0 0.86,-0.02 1.28,-0.02 v 0.02 c -0.24,0.04 -0.48,0.1 -0.76,0.16 0.06,0.06 0.1,0.1 0.159998,0.12 0.180002,0.1 0.36,0.18 0.52,0.28 0.119998,0.08 0.26,0.1 0.42,0.06 0.32,-0.06 0.64,-0.04 0.96,-0.06 0.06,0 0.1,0.02 0.2,0.02 -0.119998,0.1 -0.24,0.12 -0.34,0.14 -0.1,0.02 -0.22,0 -0.32,0.06 0,0.04 0,0.08 0.02,0.1 0.14,0.14 0.32,0.2 0.52,0.26 0.24,-0.18 0.46,-0.38 0.62,-0.66 v -0.5 c 0.180002,0.06 0.08,0.26 0.24,0.34 0.2,-0.28 0.42,-0.54 0.32,-0.92 l 0.12,-0.08 0.02,0.02 z m 1.58,-22.84 c -0.119998,0 -0.2,0.06 -0.28,0.14 h -0.08 c -0.08,0.06 -0.160002,0.14 -0.24,0.2 -0.26,0.18 -0.54,0.34 -0.8,0.5 -0.14,0.1 -0.3,0.16 -0.4,0.3 -0.02,0.02 -0.06,0.02 -0.08,0.04 -0.7,0.48 -1.42,0.94 -2.12,1.42 -0.62,0.42 -1.26,0.84 -1.88,1.26 -0.119998,0.08 -0.22,0.16 -0.36,0.2 -0.1,-0.04 -0.2,-0.1 -0.28,-0.14 -0.139998,0 -0.26,0.08 -0.36,0.14 -0.119998,0.08 -0.22,0.18 -0.36,0.24 -0.38,0.22 -0.74,0.5 -1.08,0.8 -0.02,0.14 0.04,0.22 0.120002,0.32 0.139998,-0.02 0.24,-0.12 0.36,-0.2 l 1.02,-0.72 c 0.06,-0.04 0.12,-0.1 0.22,-0.08 0.08,0.1 0.16,0.22 0.24,0.32 0.14,-0.04 0.26,-0.12 0.36,-0.2 0.96,-0.7 1.94,-1.4 2.9,-2.1 0.46,-0.34 0.9,-0.68 1.36,-1.02 0.06,-0.04 0.12,-0.06 0.16,-0.1 0.4,-0.3 0.78,-0.6 1.18,-0.9 0.04,-0.04 0.1,-0.08 0.14,-0.14 l 0.06,-0.06 c 0.02,-0.02 0.02,-0.04 0.04,-0.04 0.08,-0.02 0.16,-0.08 0.16,-0.18 0.02,0 0.06,0 0.02,-0.04 0,0 -0.02,0.02 -0.02,0.04 z M 18.93,31.24 c -0.08,-0.02 -0.160002,-0.04 -0.22,0.02 0.02,0.12 0.1,0.18 0.2,0.22 0.08,0.12 0.24,0.18 0.32,0.34 -0.04,0.02 -0.06,0.04 -0.1,0.06 -0.04,0 -0.1,0 -0.160002,0.02 0.04,0.12 0.08,0.2 0.2,0.22 0.08,0.06 0.18,0.14 0.26,0.2 0.08,0.08 0.2,0.1 0.26,0.22 -0.06,0.02 -0.12,0.02 -0.16,0.02 h -0.120002 c -0.02,0.12 0.02,0.18 0.12,0.2 0.1,0.14 0.26,0.2 0.38,0.32 0.06,0.06 0.12,0.1 0.18,0.14 0,0.04 -0.02,0.08 -0.02,0.1 -0.04,0.02 -0.1,0.04 -0.16,0.06 0.04,0.06 0.04,0.12 0.08,0.16 0.12,0.1 0.24,0.18 0.38,0.2 0.12,0.08 0.24,0.14 0.34,0.22 v 0.08 c -0.08,0 -0.16,0.04 -0.22,0.1 0.08,0.18 0.2,0.34 0.38,0.42 0.02,0.02 0.04,0.04 0.06,0.04 0.04,0.04 0.06,0.1 0.1,0.12 0.1,0.06 0.14,0.04 0.24,-0.08 0.12,-0.14 0.26,-0.28 0.38,-0.4 0.04,-0.02 0.06,-0.08 0.139998,-0.04 0,0.04 0,0.1 -0.02,0.16 -0.08,0.06 -0.04,0.12 -0.02,0.22 0.08,-0.08 0.179998,-0.1 0.199998,-0.22 0.08,-0.08 0.16,-0.18 0.26,-0.26 0.06,-0.06 0.1,-0.14 0.2,-0.14 0.02,0.08 0.02,0.14 0.02,0.22 0.12,-0.04 0.18,-0.14 0.26,-0.22 0.08,-0.08 0.141094,-0.26016 0.2411,-0.30016 0.08,0.1 -0.06109,0.26016 -0.001,0.34016 0.1,-0.04 0.18,-0.12 0.28,-0.24 0.14,-0.2 0.22,-0.26 0.42,-0.32 -0.02,0.12 -0.04,0.24 -0.08,0.4 0.16,-0.14 0.26,-0.26 0.38,-0.38 l 0.24,-0.24 c 0.02,-0.02 0.06,-0.02 0.1,-0.02 0,0.08 0,0.14 0.02,0.22 0.16,-0.08 0.16,-0.08 0.26,-0.22 0.06,-0.06 0.12,-0.14 0.2,-0.2 0.06,-0.02 0.14,-0.06 0.24,-0.1 l 0.06,0.18 c 0.16,-0.1 0.32,-0.2 0.42,-0.38 l 0.24,-0.06 c 0.08,0.04 0.180002,0.02 0.28,0 0.02,-0.02 0.04,-0.06 0.06,-0.1 -0.08,-0.12 -0.18,-0.16 -0.28,-0.12 l -0.46,0.02 c -0.02,0 -0.06,0.02 -0.08,0.02 -0.22,0.04 -0.44,0.1 -0.64,0.18 -0.12,0.04 -0.24,0.1 -0.36,0.16 -0.88,0.38 -1.78,0.74 -2.66,1.12 -0.1,0.04 -0.2,0.08 -0.28,0.1 -0.22,-0.08 -0.38,-0.22 -0.5,-0.38 -0.26,-0.3 -0.5,-0.62 -0.74,-0.92 l -0.42,-0.6 c 0,-0.04 0,-0.06 -0.04,-0.06 -0.06,-0.1 -0.12,-0.18 -0.16,-0.28 0,-0.06 0,-0.1 -0.06,-0.12 -0.08,-0.14 -0.14,-0.28 -0.22,-0.4 0,-0.04 0,-0.1 -0.06,-0.12 -0.04,-0.12 -0.08,-0.22 -0.12,-0.36 0.06,-0.04 0.1,-0.08 0.16,-0.08 0.12,-0.04 0.26,-0.06 0.38,-0.08 0.42,-0.08 0.82,-0.18 1.24,-0.26 0.38,-0.08 0.76,-0.14 1.14,-0.22 0.1,-0.02 0.18,-0.04 0.26,-0.1 0,-0.26 0,-0.5 -0.2,-0.7 -0.24,0.06 -0.48,0.04 -0.68,0.18 0.02,0.12 0.06,0.2 0.18,0.22 0,0.06 0,0.12 -0.08,0.14 -0.159998,-0.08 -0.32,-0.18 -0.48,-0.26 l -0.12,0.06 c 0.02,0.08 0.04,0.16 0.06,0.22 l -0.03999,0.04 -0.3,-0.16 c -0.1,-0.12 -0.2,-0.12 -0.34,-0.06 0.02,0.08 0.02,0.16 0.04,0.24 h -0.06 c -0.08,-0.04 -0.12,-0.08 -0.18,-0.1 -0.08,-0.08 -0.18,-0.08 -0.26,-0.04 -0.02,0.08 0,0.12 0.06,0.14 0.04,0.08 0.1,0.14 0.16,0.22 0,0.02 -0.02,0.02 -0.04,0.04 -0.04,0 -0.1,-0.02 -0.14,-0.02 -0.14,-0.06 -0.28,-0.1 -0.4,-0.16 -0.06,-0.1 -0.16,-0.06 -0.24,-0.1 -0.04,0.02 -0.1,0.04 -0.16,0.08 0.04,0.06 0.08,0.1 0.12,0.12 0.04,0.02 0.08,0.04 0.1,0.08 -0.02,0.02 -0.04,0.06 -0.06,0.08 -0.2,0 -0.38,-0.06 -0.54,-0.12 -0.2,0.02 -0.24,0.16 -0.26,0.34 0.04,0.08 0.1,0.16 0.16,0.24 0.14,0.16 0.3,0.32 0.46,0.48 0,-0.04 0.02,-0.02 0.02,0 z m 12.3,-1.42 c 0.02,0.02 0.04,0.04 0.04,0.08 v 0.08 c -0.02,0 -0.06,0.02 -0.08,0.02 v 0.28 c 0.140002,0.3 0.34,0.58 0.52,0.72 0.32412,-0.194076 0.7012,-0.36188 0.88,-0.62 -0.04,-0.16 -0.06,-0.3 -0.08,-0.42 0.1,-0.16 0.26,-0.26 0.3,-0.44 -0.02,-0.08 -0.06,-0.16 -0.16,-0.16 -0.1,0.02 -0.2,0.06 -0.3,0.08 -0.24,-0.18 -0.34,-0.5 -0.62,-0.62 -0.1,0.02 -0.180002,0.06 -0.26,0.12 -0.2,0.06 -0.34,0.22 -0.48,0.38 0.02,0.2 0.12,0.36 0.24,0.5 z m 12.88,-1.38 v 0.16 c -0.04,0.14 0.04,0.24 0.08,0.38 0.06,0 0.12,0.02 0.179998,0.02 0.140002,-0.02 0.3,-0.02 0.44,-0.08 0.12,-0.04 0.28,-0.04 0.38,-0.18 -0.120002,-0.16 -0.26,-0.3 -0.44,-0.38 l -0.180002,-0.12 c -0.119998,-0.14 -0.26,-0.18 -0.44,-0.22 -0.04,0.18 -0.06,0.3 -0.02,0.42 z m -21.24,1.14 c -0.04,-0.02 -0.1,-0.02 -0.139998,-0.04 -0.08,-0.04 -0.160002,-0.1 -0.24,-0.14 -0.1,-0.06 -0.180002,-0.06 -0.3,-0.02 0.04,0.16 0.119998,0.28 0.22,0.38 0.140002,0.1 0.26,0.22 0.4,0.32 0.1,0.08 0.2,0.14 0.32,0.14 0.04,-0.02 0.08,-0.04 0.139998,-0.08 -0.02,-0.06 -0.04,-0.1 -0.08,-0.16 -0.04,-0.06 -0.12,-0.1 -0.12,-0.18 l 0.02,-0.02 c 0.06,0.04 0.12,0.06 0.16,0.1 0.12,0.1 0.24,0.16 0.4,0.2 l 0.1,-0.1 c -0.02,-0.1 -0.06,-0.18 -0.14,-0.26 -0.18,-0.2 -0.4,-0.38 -0.66,-0.48 -0.08,-0.04 -0.16,-0.06 -0.22,0 0.08,0.14 0.119998,0.24 0.139998,0.34 z m 23.22,1.32 0.12,-0.12 c 0.08,-0.02 0.14,0 0.22,0.04 0.06,0.04 0.120002,0.1 0.24,0.06 0.119998,-0.1 0.22,-0.24 0.28,-0.4 0.04,-0.08 0.06,-0.18 0.16,-0.24 0.02,-0.02 0.02,-0.06 0.04,-0.1 0.02,-0.04 0.04,-0.08 0.06,-0.1 -0.06,-0.08 -0.1,-0.16 -0.2,-0.18 -0.140558,-0.143582 -0.2711,-0.22508 -0.36,-0.34 -0.12,-0.06 -0.22,-0.16 -0.4,-0.12 -0.08,0.06 -0.18,0.14 -0.2,0.28 -0.04,0.12 -0.12,0.16 -0.22,0.14 -0.06,-0.08 -0.14,-0.08 -0.24,-0.06 -0.1,0.02 -0.18,0.06 -0.22,0.16 -0.02,0.08 0,0.16 0.04,0.22 0.06,0.08 0.14,0.18 0.22,0.26 -0.04391,0.21396 -0.05096,0.53874 0.02,0.74 0.04,0.02 0.1,0.04 0.16,0.06 0.1,-0.08 0.22,-0.16 0.28,-0.3 z M 35.27,26.34 c -0.06,-0.04 -0.1,-0.06 -0.16,-0.1 -0.16,0.04 -0.3,0.14 -0.42,0.24 -0.46,0.32 -0.94,0.64 -1.4,0.96 -0.42,0.28 -0.82,0.6 -1.26,0.86 -0.04,0.02 -0.08,0.08 -0.1,0.12 0.02,0.14 0.1,0.24 0.22,0.3 0.08,-0.04 0.139998,-0.08 0.22,-0.14 0.92,-0.62 1.84,-1.22 2.76,-1.84 0.06,-0.04 0.120002,-0.1 0.180002,-0.14 0.08,-0.02 0.119998,-0.06 0.16,-0.16 -0.08,-0.04 -0.139998,-0.08 -0.2,-0.1 z M 50.15,16.16 c -0.34,0.24 -0.68,0.46 -1.04,0.7 -1.18,0.78 -2.34,1.56 -3.52,2.34 -1.24,0.82 -2.48,1.64 -3.7,2.48 -1.02,0.68 -2.02,1.36 -3.04,2.04 -0.88,0.58 -1.74,1.18 -2.62,1.76 -0.12,0.08 -0.26,0.16 -0.34,0.3 l 0.06,0.12 c 0,0.06 0.02,0.1 0.1,0.14 0.08,-0.02 0.16,-0.04 0.2,-0.14 0.08,-0.04 0.16,-0.08 0.24,-0.14 0.2,-0.12 0.38,-0.24 0.58,-0.38 l 0.54,-0.36 c 0.18,-0.12 0.38,-0.26 0.56,-0.38 0.18,-0.12 0.38,-0.26 0.56,-0.38 l 0.54,-0.36 c 0.18,-0.12 0.38,-0.24 0.58,-0.38 0.18,-0.12 0.38,-0.26 0.56,-0.38 0.18,-0.12 0.36,-0.26 0.54,-0.36 0.2,-0.1 0.36,-0.24 0.56,-0.36 0.24,-0.14 0.46,-0.32 0.68,-0.46 0.24,-0.16 0.48,-0.32 0.72,-0.46 1.18,-0.78 2.36,-1.58 3.54,-2.36 1.24,-0.82 2.48,-1.66 3.74,-2.48 0.14,-0.1 0.28,-0.2 0.42,-0.32 0.02,-0.02 0.04,-0.02 0.06,-0.04 -0.06,-0.12 -0.1,-0.24 -0.2,-0.32 -0.04,0.02 -0.06,0.04 -0.08,0.04 -0.08079,0.05559 -0.151672,0.09278 -0.24,0.14 z M 21.29,33.72 c 0.04,-0.02 0.1,-0.02 0.14,-0.04 0.42,-0.18 0.84,-0.34 1.24,-0.54 0.56,-0.26 1.12,-0.52 1.72,-0.72 0.3,-0.1 0.58,-0.2 0.9,-0.18 0.06,0 0.140002,-0.02 0.2,-0.02 0.140002,-0.02 0.28,-0.04 0.42,-0.02 0.26,0.06 0.52,0.02 0.78,0.04 0.22,0.02 0.42,-0.06 0.62,-0.18 0.18,-0.14 0.38,-0.26 0.56,-0.4 0.5,-0.38 1,-0.76 1.5,-1.12 0.3,-0.22 0.62,-0.44 0.92,-0.66 0.12,-0.1 0.26,-0.2 0.28,-0.36 -0.06,-0.22 0.06,-0.44 0.02,-0.64 0.08,-0.12 0.16,-0.2 0.26,-0.32 0.12,-0.06 0.26,-0.12 0.38,-0.2 h 0.42 L 32.19,28 c 0.26,-0.18 0.52,-0.38 0.78,-0.56 0.24,-0.18 0.48,-0.34 0.7,-0.52 0.3,-0.24 0.62,-0.48 0.92,-0.7 0.1,-0.08 0.18,-0.14 0.28,-0.24 0,-0.04 0,-0.08 -0.02,-0.12 -0.08,-0.24 -0.180002,-0.5 -0.28,-0.74 -0.02,-0.04 -0.04,-0.06 -0.06,-0.1 C 34.49,25 34.47,25 34.45,24.98 c -0.1,0 -0.18,0.06 -0.24,0.1 -0.22,0.14 -0.42,0.28 -0.64,0.42 -0.4,0.26 -0.78,0.52 -1.18,0.78 l -0.72,0.48 -1.74,1.2 -1.08,0.72 c -0.26,0.16 -0.52,0.34 -0.8,0.48 -0.78,0.42 -1.58,0.74 -2.4,1.08 -0.52,0.22 -1.04,0.4 -1.56,0.58 -0.48,0.16 -0.98,0.3 -1.48,0.42 -0.64,0.16 -1.28,0.28 -1.94,0.38 -0.18,0.02 -0.36,0.08 -0.56,0.12 -0.06,0.02 -0.12,0.06 -0.16,0.08 0,0.04 0,0.08 0.02,0.1 0.38,0.58 0.82,1.12 1.26,1.68 -0.02,0.08 0.02,0.1 0.06,0.12 z m 36.56,-1.96 c -0.06,0 -0.1,-0.02 -0.14,-0.02 -0.2,0 -0.42,-0.02 -0.62,-0.04 -0.36,-0.02 -0.72,-0.02 -1.08,-0.06 -0.32,-0.04 -0.64,-0.04 -0.96,-0.06 h -0.06 c -0.120002,-0.06 -0.26,-0.04 -0.4,-0.04 -0.06,0 -0.140002,0.02 -0.2,0 -0.2,-0.08 -0.42,-0.04 -0.64,-0.1 -0.180002,-0.04 -0.38,-0.02 -0.56,-0.08 -0.180002,-0.06 -0.38,0 -0.56,-0.1 -0.32,-0.02 -0.62,-0.1 -0.92,-0.18 -0.62,-0.14 -1.22,-0.36 -1.78,-0.64 -0.26,-0.14 -0.52,-0.3 -0.78,-0.44 -0.32,-0.18 -0.58,-0.42 -0.84,-0.66 -0.02,-0.02 -0.02,-0.06 -0.04,-0.12 0.2,0.02 0.36,0.04 0.5,0.06 0.24,-0.16 0.5,-0.28 0.68,-0.5 -0.06,-0.02 -0.1,-0.06 -0.14,-0.06 -0.140002,0 -0.26,0 -0.4,-0.02 -0.26,0 -0.5,-0.08 -0.72,-0.22 -0.68,-0.4 -1.32,-0.82 -1.98,-1.24 -0.54,-0.36 -1.08,-0.7 -1.62,-1.04 -0.140002,-0.1 -0.28,-0.18 -0.42,-0.28 -0.08,-0.04 -0.16,-0.08 -0.26,-0.04 -0.04,0.04 -0.08,0.08 -0.119998,0.16 l -0.24,0.42 c -0.02,0.04 0,0.08 0,0.12 0.04,0.04 0.08,0.08 0.12,0.1 0.32,0.2 0.62,0.42 0.94,0.62 0.52,0.32 1.06,0.62 1.56,0.98 0.5,0.36 0.98,0.7 1.46,1.06 0.22,0.16 0.44,0.34 0.68,0.52 0.04,0.02 0.06,0.06 0.08,0.1 -0.08,0.08 -0.120002,0.04 -0.180002,0 -0.18,-0.12 -0.38,-0.22 -0.56,-0.32 -0.04,-0.02 -0.08,-0.04 -0.14,0 0.04,0.14 0.12,0.28 0.24,0.38 0.12,0.1 0.22,0.2 0.34,0.3 0.159998,0.12 0.3,0.26 0.46,0.38 0.5,0.34 1.04,0.66 1.54,1 0.34,0.24 0.72,0.34 1.14,0.36 0.4,0.02 0.78,0.06 1.18,0.12 0.2,0.02 0.4,0.08 0.6,0.16 0.38,0.16 0.74,0.32 1.12,0.5 0.4,0.2 0.8,0.42 1.22,0.62 0.12,0.06 0.24,0.1 0.36,0.16 0.32,0.2 0.64,0.34 1,0.48 0.04,-0.06 0.1,-0.12 0.120002,-0.18 0.1,-0.18 0.22,-0.36 0.32,-0.54 0.22,-0.4 0.42,-0.8 0.62,-1.2 0.04,-0.06 0.06,-0.14 0.08,-0.22 z M 50.29,15.8 c 0.02,-0.24 -0.1,-0.4 -0.22,-0.54 -0.139998,-0.04 -0.24,0.04 -0.34,0.08 -0.22,0.12 -0.42,0.26 -0.64,0.4 -0.34,0.2 -0.66,0.4 -1,0.62 -0.3,0.18 -0.62,0.38 -0.92,0.58 -0.28,0.18 -0.58,0.38 -0.88,0.56 -0.4,0.22 -0.78,0.48 -1.16,0.72 -0.32,0.2 -0.62,0.4 -0.94,0.58 -0.38,0.22 -0.76,0.48 -1.14,0.7 -0.22,0.14 -0.46,0.28 -0.68,0.44 -0.38,0.24 -0.74,0.46 -1.12,0.68 -0.38,0.24 -0.76,0.5 -1.16,0.74 -0.48,0.3 -0.96,0.58 -1.42,0.9 -0.38,0.26 -0.76,0.52 -1.16,0.74 -0.32,0.18 -0.6,0.38 -0.9,0.58 -0.42,0.26 -0.82,0.52 -1.24,0.78 -0.08,0.04 -0.139998,0.1 -0.179998,0.18 0,0.06 0,0.12 0.02,0.16 0.14,0.28 0.28,0.58 0.42,0.86 0.08,-0.04 0.14,-0.08 0.2,-0.12 0.1,-0.08 0.2,-0.16 0.32,-0.24 0.86,-0.56 1.74,-1.14 2.6,-1.7 l 4.5,-3 c 0.48,-0.32 0.94,-0.62 1.42,-0.94 0.78,-0.52 1.54,-1.02 2.3,-1.54 0.48,-0.32 0.96,-0.66 1.46,-0.98 0.54,-0.36 1.1,-0.74 1.64,-1.1 0.1,-0.04 0.160002,-0.1 0.22,-0.14 z M 26.91,15.68 c 1.99616,1.3727 3.9012,2.5552 5.74,3.8 0.6,0.4 1.22,0.8 1.82,1.2 0.54,0.36 1.08,0.72 1.64,1.06 0.34,0.22 0.68,0.46 1.04,0.68 0.179998,0.12 0.34,0.24 0.54,0.3 0.22,-0.12 0.44,-0.24 0.58,-0.42 -0.02,-0.12 -0.1,-0.16 -0.16,-0.2 -0.46,-0.3 -0.9,-0.62 -1.36,-0.9 -0.42,-0.26 -0.84,-0.54 -1.26,-0.8 -0.64,-0.42 -1.28,-0.82 -1.94,-1.22 -0.62,-0.4 -1.24,-0.8 -1.86,-1.18 -0.7,-0.44 -1.38,-0.88 -2.06,-1.32 -0.72,-0.48 -1.44,-0.94 -2.2,-1.38 -0.04,-0.02 -0.1,-0.04 -0.16,-0.06 -0.18,0.08 -0.32,0.2 -0.36,0.44 z M 37.35,22.8 C 37.29,22.76 37.23,22.7 37.169998,22.66 37.13,22.62 37.05,22.62 37.03,22.58 c -0.06,-0.1 -0.160002,-0.14 -0.24,-0.2 l -3.72,-2.46 -1.92,-1.26 c -0.62,-0.4 -1.24,-0.8 -1.86,-1.22 -0.74,-0.48 -1.48,-0.98 -2.24,-1.46 -0.08,-0.06 -0.18,-0.12 -0.28,-0.14 -0.06,0.04 -0.12,0.1 -0.16,0.14 -0.06,0.04 -0.1,0.1 -0.16,0.14 0.46,0.3 0.9,0.6 1.34,0.88 0.44,0.28 0.88,0.56 1.3,0.86 0.44,0.28 0.88,0.58 1.34,0.86 0.44,0.28 0.88,0.56 1.3,0.86 0.44,0.28 0.88,0.58 1.34,0.86 0.44,0.28 0.88,0.58 1.34,0.86 l 1.32,0.84 c 0.44,0.28 0.88,0.58 1.32,0.86 0.1,-0.02 0.26,-0.02 0.3,-0.2 z m 13.18,5.86 c -0.04,-0.24 -0.1,-0.46 -0.18,-0.68 l -0.180002,-0.66 c -0.06,-0.22 -0.119998,-0.44 -0.2,-0.64 -0.2,-0.08 -0.38,-0.18 -0.58,-0.24 -0.54,-0.18 -1.08,-0.36 -1.6,-0.54 -0.120002,-0.04 -0.26,-0.06 -0.38,0 -0.04,0.02 -0.1,0.04 -0.159998,0.06 -0.44,0.2 -0.9,0.38 -1.36,0.58 0.02,0.2 0.180002,0.24 0.32,0.3 0.04,0 0.08,0.02 0.1,0 0.4,-0.18 0.8,-0.38 1.22,-0.58 0.2,0.06 0.4,0.14 0.6,0.2 0.1,0.02 0.16,0.1 0.24,0.14 0.3,0.12 0.6,0.24 0.92,0.34 0.08,0.02 0.14,0.06 0.18,0.08 0.04,0.1 0.06,0.18 0.08,0.26 0.119998,0.4 0.26,0.8 0.38,1.2 0.02,0.04 0.04,0.1 0.08,0.14 z M 39.77,24 c 0.04,0.04 0.06,0.08 0.1,0.1 0.34,0.24 0.68,0.46 1.02,0.7 0.08,0.06 0.159998,0.12 0.26,0.18 l 0.66,0.48 c 0.12,0.08 0.24,0.18 0.36,0.28 0.160002,0.12 0.34,0.18 0.5,0.26 0.22,-0.16 0.24,-0.42 0.4,-0.58 0,-0.04 -0.02,-0.08 -0.02,-0.12 l -0.3,-0.24 c -0.68,-0.44 -1.34,-0.9 -2.02,-1.34 -0.1,-0.06 -0.22,-0.16 -0.38,-0.16 -0.2,0.1 -0.42,0.22 -0.58,0.44 z m 6.72,3.1 c 0.42,0.3 0.82,0.56 1.26,0.76 0.24,-0.18 0.4,-0.44 0.7,-0.58 0.06,0 0.140002,0 0.22,0.02 0.04,0.06 0.1,0.12 0.14,0.16 0.02,0.14 0,0.24 -0.04,0.36 -0.04,0.08 -0.08,0.16 -0.08,0.24 -0.02,0.12 -0.120002,0.22 -0.08,0.34 0.14,0.02 0.84,0.04 0.96,0.02 0.04,0 0.06,-0.04 0.1,-0.06 C 49.57,28 49.43,27.64 49.29,27.28 L 49.11,27.1 c -0.04,-0.04 -0.1,-0.06 -0.16,-0.08 -0.38,-0.16 -0.76,-0.3 -1.14,-0.46 h -0.28 c -0.2,0.08 -0.38,0.16 -0.56,0.22 -0.16,0.08 -0.34,0.16 -0.48,0.32 z M 31.93,26.18 C 31.85,26.06 31.749998,26.02 31.65,26 c -0.139998,-0.04 -0.3,-0.08 -0.44,-0.12 -0.16,-0.06 -0.3,-0.04 -0.44,-0.02 -0.34,0.06 -0.62,0.22 -0.9,0.38 -0.2,0.12 -0.38,0.26 -0.48,0.46 l -0.24,0.48 c -0.06,0.14 -0.08,0.28 -0.12,0.44 0,0.02 0.02,0.04 0.02,0.06 0.28,-0.06 0.58,-0.1 0.86,-0.24 -0.02,-0.06 -0.02,-0.14 -0.04,-0.2 -0.04,-0.24 -0.04,-0.46 0.04,-0.7 0.02,-0.04 0.06,-0.08 0.120002,-0.12 0.2,0.18 0.38,0.36 0.54,0.52 0.180002,0.04 0.3,-0.06 0.42,-0.14 0.36,-0.16 0.66,-0.36 0.94,-0.62 z m -3.2,1.44 c 0.139998,-0.4 0.26,-0.78 0.4,-1.22 0.42,-0.32 0.96,-0.54 1.4,-0.8 0.34,-0.06 0.58,0.08 0.84,0.14 0.26,0.08 0.54,0.16 0.8,0.26 0.06,-0.04 0.14,-0.08 0.2,-0.12 0.04,-0.04 0.08,-0.08 0.04,-0.16 -0.1,-0.04 -0.2,-0.1 -0.32,-0.12 -0.42,-0.08 -0.84,-0.16 -1.26,-0.26 -0.18,-0.04 -0.36,-0.02 -0.52,0.06 -0.5,0.24 -0.98,0.5 -1.42,0.8 -0.1,0.16 -0.18,0.32 -0.26,0.48 -0.08,0.16 -0.14,0.34 -0.22,0.52 -0.06,0.12 -0.06,0.26 -0.12,0.4 -0.02,0.04 0,0.12 0.08,0.14 0.1,-0.04 0.22,-0.06 0.36,-0.12 z m 14.46,-0.78 c 0.04,0.14 0.14,0.2 0.22,0.26 0.84,0.58 1.7,1.16 2.54,1.74 0.04,0.04 0.1,0.1 0.2,0.06 0.02,-0.04 0.08,-0.08 0.119998,-0.14 0.02,-0.04 0.04,-0.1 0.06,-0.16 -0.04,-0.04 -0.08,-0.06 -0.1,-0.08 C 45.77,28.22 45.31,27.9 44.85,27.6 44.71,27.5 44.57,27.4 44.41,27.34 44.23,27.26 44.07,27.16 43.95,27.04 43.81,26.9 43.63,26.8 43.47,26.72 43.45,26.7 43.41,26.7 43.350002,26.7 c -0.06,0.04 -0.1,0.08 -0.16,0.14 z m 7.54,-12.08 c 0.06,0.16 0.12,0.28 0.18,0.4 0.02,0.04 0.06,0.06 0.08,0.1 0.5,-0.3 1,-0.6 1.46,-0.9 0.02,-0.02 0.04,-0.06 0.06,-0.1 -0.04,-0.08 -0.06,-0.14 -0.1,-0.2 -0.04,-0.06 -0.08,-0.12 -0.140002,-0.18 -0.54,0.22 -1.02,0.56 -1.54,0.88 z M 24.99,14.34 c 0.22,0.28 0.5,0.44 0.78,0.6 0.08,0.04 0.160002,0.1 0.26,0.06 0.08,-0.12 0.2,-0.22 0.22,-0.4 -0.26,-0.24 -0.54,-0.46 -0.86,-0.6 -0.04,-0.02 -0.08,0 -0.159998,0 -0.08,0.1 -0.160002,0.22 -0.24,0.34 z m 29,15.04 c -0.2,-0.04 -0.26,-0.04 -0.42,0.04 -0.22,0.12 -0.46,0.2 -0.64,0.38 -0.160002,0.14 -0.34,0.24 -0.5,0.34 -0.02,0.1 -0.04,0.18 0,0.26 0.08,0.02 0.179998,0.02 0.24,-0.02 0.34,-0.16 0.66,-0.34 0.92,-0.58 0.1,-0.08 0.2,-0.18 0.32,-0.28 0.02,-0.02 0.04,-0.08 0.08,-0.14 z m 0.8,-0.02 c -0.08,0 -0.140002,0 -0.2,0.02 -0.08,0.02 -0.180002,0.08 -0.26,0.12 -0.26,0.14 -0.5,0.34 -0.74,0.52 -0.160004,0.12 -0.28,0.28 -0.32,0.48 0.02,0.02 0.02,0.04 0.04,0.04 0.02,0.02 0.06,0.02 0.08,0.04 0.36,-0.1 0.62,-0.36 0.92,-0.58 0.14,-0.22 0.4,-0.34 0.48,-0.64 z m -1.54,-0.12 c -0.1,-0.02 -0.180002,-0.02 -0.28,0.02 -0.08,0.04 -0.179998,0.06 -0.26,0.1 -0.2,0.08 -0.38,0.2 -0.56,0.32 -0.2,0.12 -0.36,0.28 -0.5,0.46 0.02,0.04 0.02,0.08 0.02,0.1 0.04,0.02 0.06,0.02 0.08,0.02 h 0.18 c 0.58,-0.26 1.18,-0.7 1.32,-1.02 z m -27.44,-14 C 25.35,14.88 24.87,14.58 24.39,14.26 L 24.27,14.2 c -0.08,0.04 -0.139998,0.1 -0.18,0.2 0.04,0.04 0.1,0.08 0.140002,0.12 0.48,0.34 0.94,0.68 1.46,0.98 0.06,-0.08 0.1,-0.14 0.12,-0.26 z M 50.99,30.1 c 0.48,-0.08 0.82,-0.32 1.18,-0.58 0.18,-0.12 0.26,-0.26 0.3,-0.38 -0.12,-0.02 -0.22,-0.02 -0.32,0.02 -0.24,0.12 -0.48,0.24 -0.72,0.38 -0.180002,0.1 -0.32,0.26 -0.46,0.42 0,0.04 0.02,0.08 0.02,0.14 z m 0.46,-1.04 c -0.9,0.4 -0.96,0.44 -1.22,0.74 0,0.02 0.02,0.06 0.02,0.1 0.1,0.04 0.180002,0.02 0.26,-0.02 0.28,-0.14 0.58,-0.26 0.84,-0.46 0.12,-0.08 0.22,-0.2 0.3,-0.34 -0.08,0 -0.159998,0 -0.2,-0.02 z m -28.1,0.04 c 0.159998,0.34 0.56,0.68 0.94,0.82 0.04,-0.06 0.119998,-0.08 0.119998,-0.18 -0.24,-0.28 -0.52,-0.54 -0.86,-0.7 -0.08,-0.02 -0.140002,0.02 -0.2,0.06 z m 1.62,0.64 c 0.04,-0.18 -0.04,-0.28 -0.139998,-0.38 -0.2,-0.18 -0.4,-0.38 -0.68,-0.46 -0.06,0 -0.119998,0.02 -0.18,0.02 v 0.06 c 0.18,0.34 0.48,0.58 0.82,0.76 0.04,0.02 0.1,0 0.18,0 z m 8.18,-1.42 c 0.14,0.2 0.3,0.32 0.54,0.34 l 0.14,-0.14 c 0.02,-0.22 0.06,-0.44 -0.14,-0.6 -0.2,0.08 -0.4,0.18 -0.54,0.4 z m 16.58,1.38 c 0.32,-0.04 0.58,-0.2 0.82,-0.36 0.140002,-0.1 0.3,-0.16 0.36,-0.34 -0.119998,-0.1 -0.22,-0.02 -0.32,0.02 -0.32,0.12 -0.64,0.28 -0.86,0.54 z M 25.51,29.42 c -0.22,-0.26 -0.42,-0.48 -0.72,-0.64 -0.06,0 -0.139998,0.02 -0.2,0.02 v 0.12 c 0.24,0.22 0.42,0.52 0.78,0.6 0.06,-0.02 0.08,-0.06 0.14,-0.1 z m -0.4,-0.68 c 0.18,0.36 0.5,0.54 0.8,0.74 0.04,-0.04 0.08,-0.08 0.1,-0.12 -0.16,-0.3 -0.46,-0.56 -0.8,-0.68 -0.02,0 -0.04,0.02 -0.1,0.06 z m 28.14,2.34 c 0.22,0.08 0.42,0.16 0.66,0.12 0.02,-0.1 0.04,-0.2 0,-0.32 -0.2,-0.04 -0.4,-0.18 -0.64,-0.1 -0.02,0.12 -0.02,0.2 -0.02,0.3 z m -26.12,-2.1 c -0.120002,-0.24 -0.32,-0.42 -0.58,-0.56 -0.08,-0.04 -0.16,-0.06 -0.24,-0.02 0,0.04 0,0.08 0.02,0.1 0.18,0.26 0.44,0.4 0.7,0.56 0.02,-0.02 0.06,-0.04 0.100002,-0.08 z m -0.6,0.16 c -0.02,-0.06 -0.04,-0.12 -0.06,-0.16 -0.18,-0.22 -0.38,-0.4 -0.66,-0.5 -0.04,0.02 -0.06,0.02 -0.08,0.04 l -0.04,0.04 c 0.160002,0.28 0.44,0.42 0.68,0.6 0.06,0 0.1,0 0.160002,-0.02 z m 22.48,0.24 c 0.1,0.02 0.180002,0.02 0.24,0.02 0.06,0 0.119998,-0.02 0.16,-0.04 0.14,-0.08 0.28,-0.16 0.38,-0.28 0.06,-0.06 0.14,-0.1 0.14,-0.2 -0.14,-0.08 -0.24,0 -0.36,0.04 -0.22,0.08 -0.4,0.22 -0.56,0.46 z m 5.14,1.24 c 0.22,0.06 0.42,0.12 0.62,0.08 0.06,-0.1 0.1,-0.18 0.02,-0.28 -0.22,-0.1 -0.28,-0.12 -0.58,-0.06 -0.02,0.06 -0.04,0.16 -0.06,0.26 z m -27.18,-2.4 c -0.04,0 -0.1,0 -0.16,0.02 0.02,0.06 0.02,0.12 0.04,0.14 0.159998,0.2 0.36,0.36 0.6,0.46 l 0.1,-0.1 c -0.16,-0.24 -0.34,-0.4 -0.58,-0.52 z m 1.04,0.46 c -0.02,-0.06 -0.04,-0.14 -0.08,-0.18 -0.120002,-0.12 -0.26,-0.24 -0.4,-0.34 -0.04,-0.02 -0.08,-0.04 -0.14,-0.06 -0.04,0.04 -0.06,0.08 -0.08,0.12 0.18,0.2 0.36,0.38 0.58,0.5 0.04,-0.02 0.08,-0.02 0.12,-0.04 z m 26.7,2.36 c -0.16,-0.02 -0.3,-0.12 -0.48,-0.08 0,0.06 -0.02,0.1 -0.02,0.14 0,0.06 0.02,0.1 0.02,0.16 0.08,0.02 0.139998,0.06 0.2,0.06 0.08,0.02 0.16,0 0.22,0 0.02,0 0.02,-0.02 0.06,-0.04 z M 20.57,30.72 c -0.119998,0.02 -0.26,-0.02 -0.4,0.04 0,0.12 -0.04,0.24 0.06,0.34 0.1,-0.02 0.2,-0.02 0.3,-0.04 0.04,0 0.08,-0.04 0.120002,-0.06 0.02,-0.12 0.02,-0.22 -0.08,-0.28 z m 31.84,0.24 c 0.14,0.12 0.32,0.08 0.46,0.14 0.06,-0.1 0.120002,-0.16 0.04,-0.28 -0.14,-0.06 -0.28,-0.14 -0.44,-0.1 -0.04,0.06 -0.06,0.14 -0.06,0.24 z M 22.69,30.3 c -0.18,0.02 -0.34,-0.02 -0.48,0.04 -0.02,0.12 0,0.22 0.08,0.3 0.12,0 0.26,0 0.4,-0.02 z m 29.46,0.62 c 0.1,-0.1 0.08,-0.2 0.06,-0.3 -0.140002,-0.04 -0.28,-0.12 -0.42,-0.06 -0.08,0.06 -0.08,0.14 -0.06,0.24 0.119998,0.08 0.28,0.08 0.42,0.12 z m 4.1,0.26 h -0.42 c -0.02,0 -0.02,0.02 -0.06,0.04 v 0.18 c 0,0.02 0.02,0.02 0.04,0.06 0.140002,-0.02 0.28,0.1 0.44,0.02 z M 55.47,31.14 C 55.31,31.1 55.17,31.1 55.01,31.12 v 0.18 c 0,0.02 0.02,0.06 0.02,0.08 0.160002,0.02 0.3,0.12 0.44,0.02 0.06,-0.08 0.06,-0.16 0,-0.26 z m 2.3,-0.1 c 0.160002,0 0.3,0.02 0.44,0 0.04,-0.14 0.04,-0.14 0,-0.28 -0.119998,-0.02 -0.26,-0.04 -0.36,-0.06 -0.08,0.12 -0.12,0.2 -0.08,0.34 z M 55.81,30.5 c -0.02,0.12 -0.02,0.22 0.02,0.32 0.160002,0 0.3,0.02 0.44,0 0.02,-0.1 0.02,-0.2 0,-0.26 -0.14,-0.02 -0.3,-0.04 -0.46,-0.06 z m -33.84,0.24 c 0,-0.12 0.04,-0.22 -0.04,-0.32 -0.139998,0.02 -0.28,-0.04 -0.42,0.08 0,0.08 0.02,0.16 0.02,0.24 0.160002,0.04 0.28,0.02 0.44,0 z M 56.99,30.7 c -0.02,-0.02 -0.04,-0.04 -0.06,-0.08 h -0.34 c -0.02,0 -0.04,0.02 -0.08,0.04 v 0.14 c 0,0.02 0,0.06 0.02,0.08 0.28,0.1 0.36,0.1 0.44,0.06 -0.02,-0.1 0,-0.18 0.02,-0.24 z m 0.56,0.3 c 0.04,-0.12 0.1,-0.2 0.04,-0.32 -0.06,0 -0.140002,-0.02 -0.2,-0.02 h -0.26 v 0.26 c 0.140002,0.02 0.26,0.04 0.42,0.08 z m -36.7,-0.38 c -0.02,0.12 -0.02,0.2 0.1,0.28 0.1,-0.04 0.26,0.04 0.38,-0.08 -0.02,-0.08 -0.04,-0.18 -0.08,-0.24 -0.14,-0.06 -0.26,0 -0.4,0.04 z m 36.3,0.66 h -0.44 c -0.02,0 -0.02,0.02 -0.04,0.04 -0.02,0.08 -0.04,0.16 0.04,0.24 0.14,0 0.28,0.02 0.44,-0.02 z M 19.53,31.2 c 0.18,0.04 0.3,0 0.44,-0.06 0,-0.08 0,-0.16 -0.02,-0.26 -0.16,0 -0.3,-0.02 -0.44,0.02 z m 35.98,-0.5 c 0.02,-0.12 0.04,-0.18 -0.02,-0.28 -0.14,-0.02 -0.28,-0.02 -0.44,0 v 0.28 c 0.140002,0.02 0.28,0.02 0.46,0 z m -32.06,0.08 c -0.02,-0.06 -0.04,-0.12 -0.08,-0.16 h -0.36 c -0.02,0.04 -0.06,0.1 -0.06,0.14 0,0.04 0.04,0.08 0.06,0.12 0.140002,0 0.24,0.02 0.36,-0.02 z m -2.74,0.44 c -0.16,0 -0.3,-0.02 -0.44,0.02 -0.02,0.1 -0.04,0.18 0.04,0.24 0.14,-0.02 0.28,0.04 0.4,-0.08 z m 4.64,-1.26 c -0.16,0.04 -0.32,-0.04 -0.46,0.08 0.04,0.06 0.06,0.12 0.1,0.2 h 0.26 c 0.02,0 0.06,-0.02 0.08,-0.02 0.08,-0.06 0.06,-0.14 0.02,-0.26 z m -4.38,1.36 c 0.18,0.02 0.32,0.02 0.44,-0.1 -0.02,-0.06 -0.02,-0.12 -0.04,-0.18 -0.16,0.02 -0.3,-0.04 -0.42,0.1 0,0.06 0,0.12 0.02,0.18 z m 3.28,-0.9 c 0.159998,0.1 0.3,0.06 0.46,-0.04 -0.02,-0.06 -0.04,-0.12 -0.04,-0.18 -0.16,-0.02 -0.3,-0.02 -0.42,0.08 z m 4.16,-2.04 c -0.14,-0.2 -0.3,-0.32 -0.48,-0.4 h -0.04 l -0.04,0.04 c 0.1,0.18 0.28,0.28 0.46,0.4 0.02,0 0.04,0 0.1,-0.04 z m -8.32,3.02 h -0.36 c -0.04,0 -0.08,0.04 -0.12,0.06 0.04,0.06 0.06,0.12 0.08,0.16 0.14,-0.02 0.28,0.02 0.4,-0.04 z m 1.92,-0.46 c -0.14,0 -0.26,-0.02 -0.38,0.02 -0.02,0 -0.04,0.04 -0.06,0.04 -0.02,0.08 0,0.16 0.08,0.2 l 0.36,-0.06 z m 2.08,-0.3 c -0.02,-0.1 -0.04,-0.16 -0.04,-0.22 -0.14,0 -0.28,-0.02 -0.42,0.02 0,0.06 0.02,0.12 0.02,0.18 0,0.02 0.44,0.02 0.44,0.02 z m 1.98,-0.88 h -0.38 c -0.02,0.04 -0.04,0.06 -0.08,0.1 0.04,0.04 0.06,0.08 0.08,0.1 0.12,0 0.24,0.02 0.38,-0.02 l 0.06,-0.12 z m -3.82,1.08 c 0.02,0.04 0.02,0.08 0.02,0.12 0,0 0.02,0.02 0.04,0.02 0.120002,0 0.26,0.02 0.42,-0.02 -0.02,-0.06 -0.02,-0.12 -0.04,-0.2 -0.159998,0.02 -0.3,-0.04 -0.44,0.08 z m 6.14,-2.9 c 0.12,0.06 0.2,0.1 0.3,0.16 h 0.2 c 0.06,0 0.12,0.02 0.2,-0.04 -0.22,-0.14 -0.44,-0.16 -0.7,-0.12 z m -1.38,1.52 c 0.1,-0.02 0.18,0.02 0.26,-0.06 -0.02,-0.04 -0.02,-0.1 -0.04,-0.18 -0.1,0.02 -0.18,0.02 -0.26,0.02 -0.02,0 -0.02,0.02 -0.04,0.06 0.02,0.04 0.04,0.1 0.08,0.16 z m -0.36,0.22 c -0.02,-0.08 -0.02,-0.14 -0.04,-0.22 -0.08,0.02 -0.16,0.02 -0.22,0.04 -0.04,0.08 -0.04,0.12 0,0.18 z"
     fill="#1d1d1b"
     id="path53"
     style="stroke-width:0.2" />
  <g
     fill="#ffffff"
     id="g56"
     transform="matrix(0.2,0,0,0.2,-20,0)">
    <path
       class="st5"
       d="m 265.75,141.6 c 0.69999,-1.1 1.7,-1.6 2.8,-2 0.9,0.8 0.7,1.9 0.7,3 l -0.7,0.7 c -1.2,-0.1 -2.1,-0.7 -2.8,-1.7 z"
       id="path54" />
    <path
       class="st5"
       d="m 320.55,143 c -0.0422,-0.94531 -0.30781,-1.525 0.11875,-2.8922 0.90001,0.2 1.5266,0.32657 2.1531,1.0844 0.8012,0.47641 0.0864,0.0213 0.87499,0.57656 0.9,0.4 1.6859,1.0312 2.2859,1.9312 -0.5,0.6 -1.3172,0.79375 -2.0172,0.99375 -0.7,0.2 -1.4141,0.21406 -2.1141,0.31406 -0.3,0 -0.60156,-0.10781 -1.0016,-0.10781 -0.1,-0.6 -0.5,-1.2 -0.3,-1.9 z"
       id="path55" />
    <path
       class="st5"
       d="m 328.05,152.7 c 2.1272,1.8183 0.11846,1.6239 2.4215,1.7552 -0.3,0.7 -0.71162,1.2768 -1.4116,1.5768 -0.30001,-0.1 -0.85411,-0.32153 -1.0541,-0.42153 -0.5,-0.4 -0.45581,-1.6105 0.0442,-2.9105 z"
       id="path56" />
  </g>
  <path
     class="st3"
     d="m 58.19,32.08 c 0.02,-0.02 0.02,-0.04 0.02,-0.06 0.02,0.02 0.02,0.02 0.04,0.02 -0.02,0.02 -0.04,0.04 -0.06,0.04 z"
     fill="#b9aea4"
     id="path57"
     style="stroke-width:0.2" />
  <path
     class="st4"
     d="m 59.17,10.7 0.06,-0.06 z"
     fill="#866c5d"
     id="path58"
     style="stroke-width:0.2" />
  <g
     fill="#1d1d1b"
     id="g64"
     transform="matrix(0.2,0,0,0.2,-20,0)">
    <path
       class="st0"
       d="m 306.85,215.3 c 0,-0.1 0,-0.1 0.1,-0.2 0.1,0 0.1,0.1 0.1,0.1 -0.1,0 -0.19999,0 -0.19999,0.1 z"
       id="path59" />
    <path
       class="st0"
       d="m 199.54,150.9 c 0.0974,0.0909 0.0974,0.18177 0.19479,0.27266 -0.0974,0 -0.30806,-0.0714 -0.40548,-0.0714 0,-0.0909 0.21069,-0.11043 0.21069,-0.2013 z"
       stroke-width="0.94085"
       id="path60" />
    <path
       class="st0"
       d="m 203.95,148.85 c 0.1,0.1 0.49687,0.55156 0.49687,0.65156 -0.1,0.2 -0.41327,0.26797 -0.51327,0.16797 0.1,-0.1 -0.0836,-0.71953 0.0164,-0.81953 z"
       id="path61" />
    <path
       class="st0"
       d="m 214.65,168.3 c 0.14297,0.0805 0.19999,0.1 0.39999,0.3 -0.2,0 -0.29609,0.51406 -0.39609,0.51406 z"
       id="path62" />
    <path
       class="st0"
       d="m 214.45,147.9 c 0.1,0 0.1,0.1 0.20001,0.1 -0.10001,0 -0.10001,0.1 -0.10001,0.1 -0.1,-0.1 -0.1,-0.1 -0.1,-0.2 z"
       id="path63" />
    <path
       class="st0"
       d="m 215.45,149.1 c -0.1,-0.1 -0.1,-0.2 -0.19999,-0.3 0.1,0.1 0.19999,0.1 0.3,0.1 0,0.1 0,0.1 -0.10001,0.2 z"
       id="path64" />
  </g>
</svg>
