<?xml version="1.0" encoding="UTF-8" standalone="no"?>
<svg
   width="80"
   height="80"
   viewBox="0 0 2.6666667 2.6666667"
   version="1.1"
   id="svg3"
   sodipodi:docname="86_Yugra.svg"
   inkscape:version="1.3.2 (091e20e, 2023-11-25, custom)"
   xmlns:inkscape="http://www.inkscape.org/namespaces/inkscape"
   xmlns:sodipodi="http://sodipodi.sourceforge.net/DTD/sodipodi-0.dtd"
   xmlns="http://www.w3.org/2000/svg"
   xmlns:svg="http://www.w3.org/2000/svg">
  <defs
     id="defs3">
    <clipPath
       clipPathUnits="userSpaceOnUse"
       id="clipPath4">
      <rect
         style="opacity:0.2;fill:#296912;stroke-width:0.0666667"
         id="rect5"
         width="20"
         height="20"
         x="20"
         y="0" />
    </clipPath>
    <clipPath
       clipPathUnits="userSpaceOnUse"
       id="clipPath5">
      <rect
         style="opacity:0.2;fill:#296912;stroke-width:0.0666667"
         id="rect6"
         width="20"
         height="20"
         x="20"
         y="0" />
    </clipPath>
    <clipPath
       clipPathUnits="userSpaceOnUse"
       id="clipPath6">
      <rect
         style="opacity:0.2;fill:#296912;stroke-width:0.0666667"
         id="rect7"
         width="20"
         height="20"
         x="20"
         y="0" />
    </clipPath>
    <clipPath
       clipPathUnits="userSpaceOnUse"
       id="clipPath7">
      <rect
         style="opacity:0.2;fill:#296912;stroke-width:0.0666667"
         id="rect8"
         width="20"
         height="20"
         x="20"
         y="0" />
    </clipPath>
  </defs>
  <sodipodi:namedview
     id="namedview3"
     pagecolor="#505050"
     bordercolor="#ffffff"
     borderopacity="1"
     inkscape:showpageshadow="0"
     inkscape:pageopacity="0"
     inkscape:pagecheckerboard="1"
     inkscape:deskcolor="#505050"
     inkscape:zoom="3.405"
     inkscape:cx="151.39501"
     inkscape:cy="63.582966"
     inkscape:window-width="2560"
     inkscape:window-height="1377"
     inkscape:window-x="1912"
     inkscape:window-y="-8"
     inkscape:window-maximized="1"
     inkscape:current-layer="svg3" />
  <rect
     width="40"
     height="20"
     fill="#ffffff"
     id="rect1"
     clip-path="url(#clipPath7)"
     x="0"
     y="0"
     transform="matrix(0.13333333,0,0,0.13333333,-2.6666667,0)" />
  <rect
     width="38"
     height="20"
     fill="#00971c"
     id="rect2"
     clip-path="url(#clipPath6)"
     x="0"
     y="0"
     transform="matrix(0.13333333,0,0,0.13333333,-2.6666667,0)" />
  <rect
     width="38"
     height="10"
     fill="#2e96ff"
     id="rect3"
     clip-path="url(#clipPath5)"
     x="0"
     y="0"
     transform="matrix(0.13333333,0,0,0.13333333,-2.6666667,0)" />
  <path
     fill="none"
     stroke="#ffffff"
     stroke-linecap="round"
     d="M 35,2 32,6 H 28 L 25,2 m 7.5,0.25 -2.5,3.4 -2.5,-3.4 m 1,1.35 1,-1.35 m 2,1.35 -1,-1.35"
     id="path3"
     clip-path="url(#clipPath4)"
     transform="matrix(0.13333333,0,0,0.13333333,-2.6666667,0)" />
</svg>
