<?xml version="1.0" encoding="UTF-8" standalone="no"?>
<svg
   width="80"
   height="80"
   viewBox="0 0 140 140"
   version="1.1"
   id="svg5"
   sodipodi:docname="89_Yamal-Nenets_Autonomous_District.svg"
   inkscape:version="1.3.2 (091e20e, 2023-11-25, custom)"
   xmlns:inkscape="http://www.inkscape.org/namespaces/inkscape"
   xmlns:sodipodi="http://sodipodi.sourceforge.net/DTD/sodipodi-0.dtd"
   xmlns="http://www.w3.org/2000/svg"
   xmlns:svg="http://www.w3.org/2000/svg">
  <defs
     id="defs5">
    <clipPath
       clipPathUnits="userSpaceOnUse"
       id="clipPath6">
      <g
         id="g7">
        <rect
           style="opacity:0.2;fill:#296912;stroke-width:0.175"
           id="rect7"
           width="1050"
           height="1050"
           x="0"
           y="0" />
      </g>
    </clipPath>
    <clipPath
       clipPathUnits="userSpaceOnUse"
       id="clipPath7">
      <g
         id="g8">
        <rect
           style="opacity:0.2;fill:#296912;stroke-width:0.175"
           id="rect8"
           width="1050"
           height="1050"
           x="0"
           y="0" />
      </g>
    </clipPath>
    <clipPath
       clipPathUnits="userSpaceOnUse"
       id="clipPath8">
      <g
         id="g9">
        <rect
           style="opacity:0.2;fill:#296912;stroke-width:0.175"
           id="rect9"
           width="1050"
           height="1050"
           x="0"
           y="0" />
      </g>
    </clipPath>
    <clipPath
       clipPathUnits="userSpaceOnUse"
       id="clipPath9">
      <g
         id="g10">
        <rect
           style="opacity:0.2;fill:#296912;stroke-width:0.175"
           id="rect10"
           width="1050"
           height="1050"
           x="0"
           y="0" />
      </g>
    </clipPath>
  </defs>
  <sodipodi:namedview
     id="namedview5"
     pagecolor="#505050"
     bordercolor="#ffffff"
     borderopacity="1"
     inkscape:showpageshadow="0"
     inkscape:pageopacity="0"
     inkscape:pagecheckerboard="1"
     inkscape:deskcolor="#505050"
     showgrid="false"
     inkscape:zoom="5.5672874"
     inkscape:cx="45.893086"
     inkscape:cy="7.8135"
     inkscape:window-width="2560"
     inkscape:window-height="1377"
     inkscape:window-x="1912"
     inkscape:window-y="-8"
     inkscape:window-maximized="1"
     inkscape:current-layer="svg5" />
  <clipPath
     id="c">
    <path
       d="M 0,0 H 1575 V 1050 H 0 Z"
       id="path1" />
  </clipPath>
  <path
     d="M 0,0 H 1050 V 1050 H 0 Z"
     fill="#0080ff"
     id="path2"
     style="stroke-width:0.816497"
     clip-path="url(#clipPath9)"
     transform="scale(0.13333333)" />
  <g
     clip-path="url(#clipPath8)"
     id="g3"
     transform="scale(0.13333333)">
    <path
       d="m 0,0 h 3 v -3 h 1 v 1 H 5 V 0 H 4 V -1 H 6 V 0 H 7 V 1 H 4 V 2 H 5 V 3 H 7 V 2 H 6 V 4 H 7 V 5 H 8 V 2 h 1 v 1 h 1 V 5 H 9 V 4 h 2 v 1 h 1 V 6 H 9 v 1 h 1 v 1 h 2 V 7 h -1 v 2 h 1 v 1 h 1 V 7 h 1 v 1 h 1 v 2 H 14 V 9 h 2 v 1 h 1 v 1 h -3 v 1 h 1 v 1 h 2 v -1 h -1 v 2 h 1 v 1 h 1 v -3 h 1 v 1 h 1 v 2 h -1 v -1 h 2 v 1 h 1 v 1 h -3 v 1 h 1 v 1 h 2 v -1 h -1 v 2 h 1 v 1 h 1 v -3 h 1 v 1 h 1 v 2 h -1 v -1 h 2 v 1 h 1 v 1 h -3 v 1 h 1 v 1 h 2 v -1 h -1 v 2 h 1 v 1 h 1 v -3 h 1 v 1 h 1 v 2 h -1 v -1 h 2 v 1 h 1 v 1 h -3 v 1 h 1 v 1 h 2 v -1 h -1 v 2 h 1 v 1 h 1 v -3 h 1 v 1 h 1 v 2 h -1 v -1 h 2 v 1 h 1 v 1 h -3 v 3 z"
       fill="#ffffff"
       transform="matrix(24.748737,-24.748737,24.748737,24.748737,-53.95707,863.24116)"
       fill-rule="evenodd"
       id="path3" />
  </g>
  <path
     d="m 0,858 h 1575 v 30 H 0 Z"
     fill="#0080ff"
     id="path4"
     clip-path="url(#clipPath7)"
     transform="scale(0.13333333)" />
  <path
     d="m 0,879 h 1575 v 21 H 0 Z"
     fill="#ff0000"
     id="path5"
     clip-path="url(#clipPath6)"
     transform="scale(0.13333333)" />
  <path
     d="M 0,0 H 1050 V 1050 H 0 Z"
     fill="#0080ff"
     id="path10"
     style="stroke-width:0.816497"
     clip-path="url(#clipPath9)"
     transform="scale(0.13333333)" />
  <g
     clip-path="url(#clipPath8)"
     id="g11"
     transform="scale(0.13333333)">
    <path
       d="m 0,0 h 3 v -3 h 1 v 1 H 5 V 0 H 4 V -1 H 6 V 0 H 7 V 1 H 4 V 2 H 5 V 3 H 7 V 2 H 6 V 4 H 7 V 5 H 8 V 2 h 1 v 1 h 1 V 5 H 9 V 4 h 2 v 1 h 1 V 6 H 9 v 1 h 1 v 1 h 2 V 7 h -1 v 2 h 1 v 1 h 1 V 7 h 1 v 1 h 1 v 2 H 14 V 9 h 2 v 1 h 1 v 1 h -3 v 1 h 1 v 1 h 2 v -1 h -1 v 2 h 1 v 1 h 1 v -3 h 1 v 1 h 1 v 2 h -1 v -1 h 2 v 1 h 1 v 1 h -3 v 1 h 1 v 1 h 2 v -1 h -1 v 2 h 1 v 1 h 1 v -3 h 1 v 1 h 1 v 2 h -1 v -1 h 2 v 1 h 1 v 1 h -3 v 1 h 1 v 1 h 2 v -1 h -1 v 2 h 1 v 1 h 1 v -3 h 1 v 1 h 1 v 2 h -1 v -1 h 2 v 1 h 1 v 1 h -3 v 1 h 1 v 1 h 2 v -1 h -1 v 2 h 1 v 1 h 1 v -3 h 1 v 1 h 1 v 2 h -1 v -1 h 2 v 1 h 1 v 1 h -3 v 3 z"
       fill="#ffffff"
       transform="matrix(24.748737,-24.748737,24.748737,24.748737,-53.95707,863.24116)"
       fill-rule="evenodd"
       id="path11" />
  </g>
  <path
     d="m 0,858 h 1575 v 30 H 0 Z"
     fill="#0080ff"
     id="path12"
     clip-path="url(#clipPath7)"
     transform="scale(0.13333333)" />
  <path
     d="m 0,879 h 1575 v 21 H 0 Z"
     fill="#ff0000"
     id="path13"
     clip-path="url(#clipPath6)"
     transform="scale(0.13333333)" />
</svg>
