<svg width="16" height="16" viewBox="0 0 16 16" fill="none" xmlns="http://www.w3.org/2000/svg">
<path d="M1.77778 16H14.2222C14.6937 16 15.1459 15.8127 15.4793 15.4793C15.8127 15.1459 16 14.6937 16 14.2222V4.44446C16.0007 4.32747 15.9782 4.21151 15.934 4.10321C15.8898 3.99491 15.8246 3.8964 15.7422 3.81334L12.1867 0.257792C12.1036 0.175409 12.0051 0.110231 11.8968 0.0659959C11.7885 0.0217608 11.6725 -0.000661492 11.5555 1.48571e-05H1.77778C1.30628 1.48571e-05 0.854096 0.187316 0.520698 0.520713C0.187301 0.854111 0 1.3063 0 1.77779V14.2222C0 14.6937 0.187301 15.1459 0.520698 15.4793C0.854096 15.8127 1.30628 16 1.77778 16ZM10.6667 14.2222H5.33333V9.77778H10.6667V14.2222ZM8.88888 3.55557H7.1111V1.77779H8.88888V3.55557ZM1.77778 1.77779H3.55555V5.33334H10.6667V1.77779H11.1911L14.2222 4.8089V14.2222H12.4444V9.77778C12.4444 9.30629 12.2571 8.8541 11.9237 8.52071C11.5903 8.18731 11.1382 8.00001 10.6667 8.00001H5.33333C4.86183 8.00001 4.40965 8.18731 4.07625 8.52071C3.74285 8.8541 3.55555 9.30629 3.55555 9.77778V14.2222H1.77778V1.77779Z" fill="#34A853"/>
</svg>
