<svg width="16" height="16" viewBox="0 0 16 16" fill="none" xmlns="http://www.w3.org/2000/svg">
<path d="M3.72222 13H12.2778C12.6019 13 12.9128 12.8712 13.142 12.642C13.3712 12.4128 13.5 12.1019 13.5 11.7778V5.05556C13.5005 4.97514 13.485 4.89541 13.4546 4.82095C13.4242 4.7465 13.3794 4.67878 13.3228 4.62167L10.8783 2.17723C10.8212 2.12059 10.7535 2.07578 10.679 2.04537C10.6046 2.01496 10.5249 1.99955 10.4444 2.00001H3.72222C3.39807 2.00001 3.08719 2.12878 2.85798 2.35799C2.62877 2.5872 2.5 2.89808 2.5 3.22223V11.7778C2.5 12.1019 2.62877 12.4128 2.85798 12.642C3.08719 12.8712 3.39807 13 3.72222 13ZM9.83333 11.7778H6.16666V8.72223H9.83333V11.7778ZM8.61111 4.44445H7.38888V3.22223H8.61111V4.44445ZM3.72222 3.22223H4.94444V5.66667H9.83333V3.22223H10.1939L12.2778 5.30612V11.7778H11.0555V8.72223C11.0555 8.39807 10.9268 8.0872 10.6976 7.85799C10.4684 7.62877 10.1575 7.50001 9.83333 7.50001H6.16666C5.84251 7.50001 5.53163 7.62877 5.30242 7.85799C5.07321 8.0872 4.94444 8.39807 4.94444 8.72223V11.7778H3.72222V3.22223Z" fill="#C9C9C9"/>
<path d="M5.22492 9.94848L1.56958 6.3952L0 7.92096L5.22492 13L16 2.52576L14.4304 1L5.22492 9.94848Z" fill="#34A853"/>
</svg>
