<svg width="50" height="25" viewBox="0 0 50 25" fill="none" xmlns="http://www.w3.org/2000/svg">
<g clip-path="url(#clip0_4140_118726)">
<path d="M37.5 25C40.9717 25 43.9233 23.7858 46.355 21.3575C48.785 18.9292 50 15.9808 50 12.5125C50 9.0425 48.785 6.09 46.355 3.655C43.9233 1.21833 40.9717 0 37.5 0H12.5C9.02833 0 6.07667 1.21417 3.645 3.6425C1.215 6.07083 0 9.01917 0 12.4875C0 15.9575 1.215 18.91 3.645 21.345C6.07667 23.7817 9.02833 25 12.5 25H37.5ZM12.505 18.75C10.7717 18.75 9.29584 18.1433 8.0775 16.93C6.85917 15.715 6.25 14.24 6.25 12.505C6.25 10.7717 6.85667 9.29583 8.07 8.0775C9.285 6.85917 10.76 6.25 12.495 6.25C14.2283 6.25 15.7042 6.8575 16.9225 8.0725C18.1408 9.28583 18.75 10.76 18.75 12.495C18.75 14.23 18.1425 15.7058 16.9275 16.9225C15.7142 18.1408 14.24 18.75 12.505 18.75Z" fill="#3E6AE1"/>
<path fill-rule="evenodd" clip-rule="evenodd" d="M21.5 12.5C21.5 17.4706 17.4706 21.5 12.5 21.5C7.52944 21.5 3.5 17.4706 3.5 12.5C3.5 7.52944 7.52944 3.5 12.5 3.5C17.4706 3.5 21.5 7.52944 21.5 12.5ZM12.5 6.5C8.91015 6.5 6.5 9.5 6.5 12.5C6.5 15.5 8.91015 18.5 12.5 18.5C16.0899 18.5 18.5 15.5978 18.5 12.5C18.5 9.40224 16.0899 6.5 12.5 6.5Z" fill="#1155CC"/>
</g>
<defs>
<clipPath id="clip0_4140_118726">
<rect width="50" height="25" fill="white"/>
</clipPath>
</defs>
</svg>
