<svg width="50" height="25" viewBox="0 0 50 25" fill="none" xmlns="http://www.w3.org/2000/svg">
<g clip-path="url(#clip0_4140_118736)">
<path d="M12.5 25C9.02833 25 6.07667 23.7858 3.645 21.3575C1.215 18.9292 0 15.9808 0 12.5125C0 9.0425 1.215 6.09 3.645 3.655C6.07667 1.21833 9.02833 0 12.5 0H37.5C40.9717 0 43.9233 1.21417 46.355 3.6425C48.785 6.07083 50 9.01917 50 12.4875C50 15.9575 48.785 18.91 46.355 21.345C43.9233 23.7817 40.9717 25 37.5 25H12.5ZM12.5 22.5H37.5C40.25 22.5 42.6042 21.5208 44.5625 19.5625C46.5208 17.6042 47.5 15.25 47.5 12.5C47.5 9.75 46.5208 7.39583 44.5625 5.4375C42.6042 3.47917 40.25 2.5 37.5 2.5H12.5C9.75 2.5 7.39583 3.47917 5.4375 5.4375C3.47917 7.39583 2.5 9.75 2.5 12.5C2.5 15.25 3.47917 17.6042 5.4375 19.5625C7.39583 21.5208 9.75 22.5 12.5 22.5ZM37.495 18.75C39.2283 18.75 40.7042 18.1433 41.9225 16.93C43.1408 15.715 43.75 14.24 43.75 12.505C43.75 10.7717 43.1433 9.29583 41.93 8.0775C40.715 6.85917 39.24 6.25 37.505 6.25C35.7717 6.25 34.2958 6.8575 33.0775 8.0725C31.8592 9.28583 31.25 10.76 31.25 12.495C31.25 14.23 31.8575 15.7058 33.0725 16.9225C34.2858 18.1408 35.76 18.75 37.495 18.75Z" fill="#3E6AE1"/>
<path fill-rule="evenodd" clip-rule="evenodd" d="M46.5 12.5C46.5 17.4706 42.4706 21.5 37.5 21.5C32.5294 21.5 28.5 17.4706 28.5 12.5C28.5 7.52944 32.5294 3.5 37.5 3.5C42.4706 3.5 46.5 7.52944 46.5 12.5ZM37.5 6.5C33.9101 6.5 31.5 9.5 31.5 12.5C31.5 15.5 33.9101 18.5 37.5 18.5C41.0899 18.5 43.5 15.5978 43.5 12.5C43.5 9.40224 41.0899 6.5 37.5 6.5Z" fill="#C9C9C9"/>
</g>
<defs>
<clipPath id="clip0_4140_118736">
<rect width="50" height="25" fill="white"/>
</clipPath>
</defs>
</svg>
