<svg width="80" height="80" viewBox="0 0 80 80" fill="none" xmlns="http://www.w3.org/2000/svg">
<g clip-path="url(#clip0_3940_118712)">
<path d="M80 0H0V80H80V0Z" fill="#296912"/>
<path d="M40.0002 19.8577L40.9344 22.7334H43.9578L41.5119 24.5104L42.4461 27.3856L40.0002 25.6086L37.5542 27.3856L38.4885 24.5104L36.0425 22.7334H39.0659L40.0002 19.8577Z" fill="#FDFC02"/>
<path d="M40.0005 31.7803L41.3027 39.1862L40.4482 40V67.9553L41.3434 68.8912V75.8495L40.0005 74.5066L38.6577 75.8495V68.8912L39.5529 67.9553V40L38.6984 39.1862L40.0005 31.7803Z" fill="#FDFC02"/>
<path d="M40.0002 3.90649L40.9344 6.78218H43.9578L41.5119 8.55919L42.4461 11.4345L40.0002 9.65746L37.5542 11.4345L38.4885 8.55919L36.0425 6.78218H39.0659L40.0002 3.90649Z" fill="#FDFC02"/>
<path d="M59.777 19.8577L60.7113 22.7334H63.7347L61.2887 24.5104L62.223 27.3856L59.777 25.6086L57.331 27.3856L58.2653 24.5104L55.8193 22.7334H58.8427L59.777 19.8577Z" fill="#FDFC02"/>
<path d="M59.777 7.08057L60.7113 9.95625H63.7347L61.2887 11.7333L62.223 14.6085L59.777 12.8315L57.331 14.6085L58.2653 11.7333L55.8193 9.95625H58.8427L59.777 7.08057Z" fill="#FDFC02"/>
<path d="M77.5592 16.0735L78.4935 18.9492H81.5169L79.0709 20.7262L80.0052 23.6015L77.5592 21.8245L75.1133 23.6015L76.0475 20.7262L73.6016 18.9492H76.625L77.5592 16.0735Z" fill="#FDFC02"/>
<path d="M54.2557 36.9689L50.4928 43.4791L49.3151 43.5533L31.3458 64.9682L31.43 66.2606L26.9573 71.591L26.7917 69.6992L24.8999 69.8647L29.3726 64.5343L30.66 64.3928L48.6293 42.9778L48.4978 41.8051L54.2557 36.9689Z" fill="#FDFC02"/>
<path d="M20.224 19.8577L19.2897 22.7334H16.2663L18.7123 24.5104L17.778 27.3856L20.224 25.6086L22.6699 27.3856L21.7357 24.5104L24.1816 22.7334H21.1582L20.224 19.8577Z" fill="#FDFC02"/>
<path d="M20.224 7.08057L19.2897 9.95625H16.2663L18.7123 11.7333L17.778 14.6085L20.224 12.8315L22.6699 14.6085L21.7357 11.7333L24.1816 9.95625H21.1582L20.224 7.08057Z" fill="#FDFC02"/>
<path d="M2.44173 16.0735L1.50745 18.9492H-1.51595L0.930034 20.7262L-0.00424851 23.6015L2.44173 21.8245L4.88771 23.6015L3.95343 20.7262L6.39941 18.9492H3.37602L2.44173 16.0735Z" fill="#FDFC02"/>
<path d="M25.7453 36.9689L29.5082 43.4791L30.6859 43.5533L48.6552 64.9682L48.571 66.2606L53.0437 71.591L53.2092 69.6992L55.101 69.8647L50.6283 64.5343L49.341 64.3928L31.3717 42.9778L31.5032 41.8051L25.7453 36.9689Z" fill="#FDFC02"/>
<mask id="path-13-inside-1_3940_118712" fill="white">
<path fill-rule="evenodd" clip-rule="evenodd" d="M40 0H-112V80H40H193V0H40ZM40 0C62.0914 0 80 17.9086 80 40C80 62.0914 62.0914 80 40 80C17.9086 80 0 62.0914 0 40C0 17.9086 17.9086 0 40 0Z"/>
</mask>
<path fill-rule="evenodd" clip-rule="evenodd" d="M40 0H-112V80H40H193V0H40ZM40 0C62.0914 0 80 17.9086 80 40C80 62.0914 62.0914 80 40 80C17.9086 80 0 62.0914 0 40C0 17.9086 17.9086 0 40 0Z" fill="white"/>
<path d="M-112 0V-1H-113V0H-112ZM-112 80H-113V81H-112V80ZM193 80V81H194V80H193ZM193 0H194V-1H193V0ZM-112 1H40V-1H-112V1ZM-111 80V0H-113V80H-111ZM40 79H-112V81H40V79ZM193 79H40V81H193V79ZM192 0V80H194V0H192ZM40 1H193V-1H40V1ZM40 1C61.5391 1 79 18.4609 79 40H81C81 17.3563 62.6437 -1 40 -1V1ZM79 40C79 61.5391 61.5391 79 40 79V81C62.6437 81 81 62.6437 81 40H79ZM40 79C18.4609 79 1 61.5391 1 40H-1C-1 62.6437 17.3563 81 40 81V79ZM1 40C1 18.4609 18.4609 1 40 1V-1C17.3563 -1 -1 17.3563 -1 40H1Z" fill="white" mask="url(#path-13-inside-1_3940_118712)"/>
<circle cx="40" cy="40" r="39.5" stroke="#787878"/>
</g>
<defs>
<clipPath id="clip0_3940_118712">
<rect width="80" height="80" fill="white"/>
</clipPath>
</defs>
</svg>
