<?xml version="1.0" encoding="UTF-8" standalone="no"?>
<svg
   width="78"
   height="78"
   viewBox="-1966 0 306.6966 306.6966"
   version="1.1"
   id="svg8"
   sodipodi:docname="Flag_of_Adygea.svg"
   inkscape:version="1.3.2 (091e20e, 2023-11-25, custom)"
   xmlns:inkscape="http://www.inkscape.org/namespaces/inkscape"
   xmlns:sodipodi="http://sodipodi.sourceforge.net/DTD/sodipodi-0.dtd"
   xmlns:xlink="http://www.w3.org/1999/xlink"
   xmlns="http://www.w3.org/2000/svg"
   xmlns:svg="http://www.w3.org/2000/svg">
  <defs
     id="defs8" />
  <sodipodi:namedview
     id="namedview8"
     pagecolor="#505050"
     bordercolor="#ffffff"
     borderopacity="1"
     inkscape:showpageshadow="0"
     inkscape:pageopacity="0"
     inkscape:pagecheckerboard="1"
     inkscape:deskcolor="#505050"
     showguides="false"
     inkscape:zoom="11.313709"
     inkscape:cx="43.442873"
     inkscape:cy="37.432465"
     inkscape:window-width="2560"
     inkscape:window-height="1377"
     inkscape:window-x="1912"
     inkscape:window-y="-8"
     inkscape:window-maximized="1"
     inkscape:current-layer="svg8" />
  <path
     id="rect1"
     style="fill:#156d09;fill-opacity:1;stroke-width:0.156001"
     d="m -1965.9946,0 v 306.6966 h 306.6978 V 0 Z" />
  <g
     fill="#fdfc02"
     id="g8"
     transform="matrix(0.15600061,0,0,0.15600061,-1812.6461,0)">
    <path
       id="star"
       d="m 0,488 22.96,70.67 h 74.3 L 37.15,602.34 60.11,673 0,629.33 -60.11,673 -37.15,602.34 -97.26,558.67 h 74.3 z" />
    <path
       id="arrow"
       d="m 0,781 32,182 -21,20 v 687 l 22,23 v 171 l -33,-33 -33,33 v -171 l 22,-23 V 983 l -21,-20 z" />
    <use
       xlink:href="#star"
       y="-392"
       id="use1" />
    <g
       id="half">
      <use
         xlink:href="#star"
         x="486"
         id="use2" />
      <use
         xlink:href="#star"
         x="486"
         y="-314"
         id="use3" />
      <use
         xlink:href="#star"
         x="923"
         y="-93"
         id="use4" />
      <use
         xlink:href="#arrow"
         transform="rotate(40,0,1326)"
         id="use7" />
    </g>
    <use
       xlink:href="#half"
       transform="scale(-1,1)"
       id="use8" />
  </g>
</svg>
